<svg width="24" height="24" viewBox="0 0 24 24" fill="none" xmlns="http://www.w3.org/2000/svg">
<g id="add-label">
<g id="icon">
<path d="M18.5611 7.41257C18.5611 8.24099 17.8896 8.91257 17.0611 8.91257C16.2327 8.91257 15.5611 8.24099 15.5611 7.41257C15.5611 6.58414 16.2327 5.91257 17.0611 5.91257C17.8896 5.91257 18.5611 6.58414 18.5611 7.41257Z" fill="currentColor"/>
<path fill-rule="evenodd" clip-rule="evenodd" d="M13.9995 2.38835C14.4845 2.03197 15.1042 1.91294 15.6867 2.06427L20.064 3.20144C20.9457 3.43047 21.5612 4.2263 21.5612 5.13718V10.5056C21.5612 11.1172 21.2813 11.6946 20.8026 12.0736C21.5521 13.0135 22 14.2045 22 15.5C22 18.5376 19.5376 21 16.5 21C14.6921 21 13.0879 20.1277 12.0854 18.781L10.3558 20.1118C9.49735 20.7724 8.26908 20.6294 7.58522 19.7894L2.44912 13.4808C1.72717 12.594 1.89435 11.2835 2.81582 10.6064L13.9995 2.38835ZM11.1918 16.9451C11.0667 16.4846 11 16.0001 11 15.5C11 12.4624 13.4624 10 16.5 10C17.5046 10 18.4463 10.2693 19.2568 10.7398L19.5612 10.5056V5.13718L15.1838 4.00002L4.00011 12.2181L9.1362 18.5267L11.1918 16.9451ZM16.5 11.45C16.9142 11.45 17.25 11.7858 17.25 12.2V14.75H19.8C20.2142 14.75 20.55 15.0858 20.55 15.5C20.55 15.9142 20.2142 16.25 19.8 16.25H17.25V19.35C17.25 19.7642 16.9142 20.1 16.5 20.1C16.0858 20.1 15.75 19.7642 15.75 19.35V16.25H13.2C12.7858 16.25 12.45 15.9142 12.45 15.5C12.45 15.0858 12.7858 14.75 13.2 14.75H15.75V12.2C15.75 11.7858 16.0858 11.45 16.5 11.45Z" fill="currentColor"/>
<path d="M18.5611 7.41257C18.5611 8.24099 17.8896 8.91257 17.0611 8.91257C16.2327 8.91257 15.5611 8.24099 15.5611 7.41257C15.5611 6.58414 16.2327 5.91257 17.0611 5.91257C17.8896 5.91257 18.5611 6.58414 18.5611 7.41257Z" />
<path fill-rule="evenodd" clip-rule="evenodd" d="M13.9995 2.38835C14.4845 2.03197 15.1042 1.91294 15.6867 2.06427L20.064 3.20144C20.9457 3.43047 21.5612 4.2263 21.5612 5.13718V10.5056C21.5612 11.1172 21.2813 11.6946 20.8026 12.0736C21.5521 13.0135 22 14.2045 22 15.5C22 18.5376 19.5376 21 16.5 21C14.6921 21 13.0879 20.1277 12.0854 18.781L10.3558 20.1118C9.49735 20.7724 8.26908 20.6294 7.58522 19.7894L2.44912 13.4808C1.72717 12.594 1.89435 11.2835 2.81582 10.6064L13.9995 2.38835ZM11.1918 16.9451C11.0667 16.4846 11 16.0001 11 15.5C11 12.4624 13.4624 10 16.5 10C17.5046 10 18.4463 10.2693 19.2568 10.7398L19.5612 10.5056V5.13718L15.1838 4.00002L4.00011 12.2181L9.1362 18.5267L11.1918 16.9451ZM16.5 11.45C16.9142 11.45 17.25 11.7858 17.25 12.2V14.75H19.8C20.2142 14.75 20.55 15.0858 20.55 15.5C20.55 15.9142 20.2142 16.25 19.8 16.25H17.25V19.35C17.25 19.7642 16.9142 20.1 16.5 20.1C16.0858 20.1 15.75 19.7642 15.75 19.35V16.25H13.2C12.7858 16.25 12.45 15.9142 12.45 15.5C12.45 15.0858 12.7858 14.75 13.2 14.75H15.75V12.2C15.75 11.7858 16.0858 11.45 16.5 11.45Z" />
</g>
</g>
</svg>
