<svg fill="none" height="20" viewBox="0 0 21 20" width="21" xmlns="http://www.w3.org/2000/svg"><path d="m4.66667 11.6667v-1.6667h1.66666v1.6667zm-1.66667-1.6667v-1.66667h1.66667v1.66667zm7.5-5.83333v-1.66667h1.6667v1.66667zm-6.25 2.08333h2.5v-2.5h-2.5zm-1.25.41667v-3.33334c0-.23611.07986-.43402.23958-.59375.15973-.15972.35764-.23958.59375-.23958h3.33334c.23611 0 .43402.07986.59375.23958.15972.15973.23958.35764.23958.59375v3.33334c0 .23611-.07986.43402-.23958.59375-.15973.15972-.35764.23958-.59375.23958h-3.33334c-.23611 0-.43402-.07986-.59375-.23958-.15972-.15973-.23958-.35764-.23958-.59375zm1.25 9.58333h2.5v-2.5h-2.5zm-1.25.4167v-3.3334c0-.2361.07986-.434.23958-.5937.15973-.1597.35764-.2396.59375-.2396h3.33334c.23611 0 .43402.0799.59375.2396.15972.1597.23958.3576.23958.5937v3.3334c0 .2361-.07986.434-.23958.5937-.15973.1597-.35764.2396-.59375.2396h-3.33334c-.23611 0-.43402-.0799-.59375-.2396-.15972-.1597-.23958-.3576-.23958-.5937zm11.25-10.4167h2.5v-2.5h-2.5zm-1.25.41667v-3.33334c0-.23611.0799-.43402.2396-.59375.1597-.15972.3576-.23958.5937-.23958h3.3334c.2361 0 .434.07986.5937.23958.1597.15973.2396.35764.2396.59375v3.33334c0 .23611-.0799.43402-.2396.59375-.1597.15972-.3576.23958-.5937.23958h-3.3334c-.2361 0-.434-.07986-.5937-.23958-.1597-.15973-.2396-.35764-.2396-.59375zm-5 5.00003v-1.6667h-1.66667v-1.66667h3.33334v3.33337zm.83333-4.1667v-3.33333h1.66667v1.66666h1.6667v1.66667zm-3.95833-1.875v-1.25h1.25v1.25zm0 10v-1.25h1.25v1.25zm10-10v-1.25h1.25v1.25zm-1.0417 9.375h-1.6666c-.2361 0-.4341-.0799-.5938-.2396s-.2396-.3576-.2396-.5937.0799-.4341.2396-.5938.3577-.2396.5938-.2396h1.6666v-1.6666c0-.2361.0799-.4341.2396-.5938s.3577-.2396.5938-.2396.434.0799.5937.2396.2396.3577.2396.5938v1.6666h1.6667c.2361 0 .434.0799.5937.2396s.2396.3577.2396.5938-.0799.434-.2396.5937-.3576.2396-.5937.2396h-1.6667v1.6667c0 .2361-.0799.434-.2396.5937s-.3576.2396-.5937.2396-.4341-.0799-.5938-.2396-.2396-.3576-.2396-.5937z" fill="#fff"/></svg>