<svg width="40" height="40" viewBox="0 0 40 40" fill="none" xmlns="http://www.w3.org/2000/svg">
<g id="all-labels">
<g id="icon">
<path d="M27.8535 17.4467C28.623 18.3969 30.0172 18.5434 30.9674 17.7739C31.9177 17.0044 32.0642 15.6103 31.2947 14.66C30.5252 13.7098 29.1311 13.5632 28.1808 14.3327C27.2306 15.1022 27.084 16.4964 27.8535 17.4467Z" fill="currentColor"/>
<path fill-rule="evenodd" clip-rule="evenodd" d="M31.9495 4.07375C33.3271 4.40951 34.312 5.62233 34.3579 7.03952L34.4592 10.1651C34.46 10.1878 34.4602 10.2105 34.46 10.2331C35.5636 10.717 36.3135 11.8013 36.3472 13.0386L36.572 21.2707C36.5989 22.2534 36.1666 23.1924 35.4026 23.811L19.1241 36.9931C17.7688 38.0907 15.7803 37.8817 14.6827 36.5263L6.45241 26.3627C5.55968 25.2603 5.53135 23.739 6.28123 22.6189L4.4143 20.2837L4.41095 20.2795C3.35295 18.9684 3.55609 17.0477 4.8659 15.987L21.2639 2.70818C22.0029 2.10973 22.9785 1.88955 23.9029 2.11258L23.9065 2.11344L31.9495 4.07375ZM31.2406 8.34066L31.2754 9.41424L25.9257 8.12355C24.9701 7.89301 23.9617 8.1206 23.1977 8.73922L8.64755 20.5217L7.91252 19.6023C7.37041 18.9242 7.47744 17.9357 8.15212 17.3893L22.6038 5.68654C22.9868 5.37641 23.4926 5.26288 23.9714 5.37957L30.0364 6.85777C30.7252 7.02565 31.2176 7.63206 31.2406 8.34066ZM33.1905 13.1248L25.185 11.1933L8.90653 24.3754L17.1368 34.539L33.4153 21.3569L33.1905 13.1248Z" fill="currentColor"/>
</g>
</g>
</svg>
