<svg width="225" height="229" viewBox="0 0 225 229" fill="none" xmlns="http://www.w3.org/2000/svg">
<path d="M0.981639 75.6455H4.83475V79.7395C4.83475 91.2989 8.20622 96.9582 12.1797 99.1256V104.544C4.66617 99.535 0.981639 86.9641 1.46328 79.7395H0.5V77.0904H0.981639V75.6455Z" fill="#EEF0FF" stroke="black" stroke-width="0.289007"/>
<path d="M11.9392 93.8274C6.25583 89.4926 6.36018 82.87 7.12278 80.1006H4.95517C4.47349 82.7496 5.31639 95.5132 11.9392 99.1255L11.9392 93.8274Z" fill="#DAE2FF" stroke="black" stroke-width="0.289007"/>
<path d="M155.828 75.7656H151.975V79.8596C151.975 91.419 148.604 97.0783 144.63 99.2457V104.664C152.144 99.6551 155.828 87.0842 155.347 79.8596H156.31V77.2106H155.828V75.7656Z" fill="#EEF0FF" stroke="black" stroke-width="0.289007"/>
<path d="M144.871 93.948C150.554 89.6132 150.45 82.9906 149.687 80.2212H151.855C152.337 82.8702 151.494 95.6338 144.871 99.2461L144.871 93.948Z" fill="#DAE2FF" stroke="black" stroke-width="0.289007"/>
<path d="M5.43679 64.8084C5.06618 61.4729 7.56215 57.9444 9.0032 56.4299C9.10887 56.3188 9.25561 56.2593 9.40891 56.2593H147.281C147.434 56.2593 147.581 56.3188 147.687 56.4299C149.128 57.9444 151.624 61.4729 151.253 64.8084H151.397C151.717 64.8084 151.975 65.0672 151.975 65.3865V79.8838C151.975 80.203 151.717 80.4618 151.397 80.4618H5.29237C4.97314 80.4618 4.71436 80.203 4.71436 79.8838V65.3865C4.71436 65.0672 4.97314 64.8084 5.29237 64.8084H5.43679Z" fill="#EEF0FF"/>
<path d="M5.43679 64.8084C5.06618 61.4729 7.56215 57.9444 9.0032 56.4299C9.10887 56.3188 9.25561 56.2593 9.40891 56.2593H147.281C147.434 56.2593 147.581 56.3188 147.687 56.4299C149.128 57.9444 151.624 61.4729 151.253 64.8084M5.43679 64.8084H5.29237C4.97314 64.8084 4.71436 65.0672 4.71436 65.3865V79.8838C4.71436 80.203 4.97314 80.4618 5.29237 80.4618H151.397C151.717 80.4618 151.975 80.203 151.975 79.8838V65.3865C151.975 65.0672 151.717 64.8084 151.397 64.8084H151.253M5.43679 64.8084H151.253" stroke="black" stroke-width="0.289007"/>
<path d="M16.5003 202.956L11.1228 80.9448C11.1083 80.6159 11.371 80.3413 11.7002 80.3413H146.31C146.641 80.3413 146.904 80.6184 146.887 80.9487L140.673 202.967C140.663 203.163 140.575 203.33 140.403 203.424C122.728 213.139 33.4216 212.04 16.7788 203.421C16.5995 203.329 16.5092 203.158 16.5003 202.956Z" fill="#395BA9" stroke="black" stroke-width="0.289007"/>
<path d="M58.4183 68.1796C56.6283 68.1796 56.7326 64.8081 56.7326 63.002L101.164 63.002C101.164 64.8081 101.268 68.1796 99.478 68.1796C86.5942 68.1395 60.8265 68.1796 58.4183 68.1796Z" fill="#EEF0FF" stroke="black" stroke-width="0.289007"/>
<path d="M49.5068 78.6555V66.1328H54.9364L57.2288 69.4871H101.268L103.319 66.1328H108.508V78.6555H49.5068Z" fill="#EEF0FF" stroke="black" stroke-width="0.289007"/>
<g filter="url(#filter0_d_2748_113421)">
<rect x="26.626" y="165.476" width="29.9809" height="29.9811" rx="0.867021" fill="white"/>
</g>
<path d="M32.0774 188.416C32.0774 188.124 32.3147 187.887 32.6073 187.887H33.6673C33.96 187.887 34.1972 188.124 34.1972 188.416V189.476C34.1972 189.769 33.96 190.006 33.6673 190.006H32.6073C32.3147 190.006 32.0774 189.769 32.0774 189.476V188.416Z" fill="#001946"/>
<path d="M49.0363 171.457C49.0363 171.165 49.2735 170.927 49.5662 170.927H50.6262C50.9188 170.927 51.1561 171.165 51.1561 171.457V172.517C51.1561 172.81 50.9188 173.047 50.6262 173.047H49.5662C49.2735 173.047 49.0363 172.81 49.0363 172.517V171.457Z" fill="#001946"/>
<path d="M38.9669 169.735C38.9669 170.247 38.5517 170.663 38.0395 170.663C37.5273 170.663 37.112 170.247 37.112 169.735C37.112 169.223 37.5273 168.808 38.0395 168.808C38.5517 168.808 38.9669 169.223 38.9669 169.735Z" fill="#001946"/>
<path d="M38.9669 172.12C38.9669 172.632 38.5517 173.047 38.0395 173.047C37.5273 173.047 37.112 172.632 37.112 172.12C37.112 171.608 37.5273 171.192 38.0395 171.192C38.5517 171.192 38.9669 171.608 38.9669 172.12Z" fill="#001946"/>
<path d="M38.9669 174.505C38.9669 175.017 38.5517 175.432 38.0395 175.432C37.5273 175.432 37.112 175.017 37.112 174.505C37.112 173.993 37.5273 173.577 38.0395 173.577C38.5517 173.577 38.9669 173.993 38.9669 174.505Z" fill="#001946"/>
<path d="M38.9669 179.275C38.9669 179.787 38.5517 180.202 38.0395 180.202C37.5273 180.202 37.112 179.787 37.112 179.275C37.112 178.762 37.5273 178.347 38.0395 178.347C38.5517 178.347 38.9669 178.762 38.9669 179.275Z" fill="#001946"/>
<path d="M38.9669 184.044C38.9669 184.556 38.5517 184.972 38.0395 184.972C37.5273 184.972 37.112 184.556 37.112 184.044C37.112 183.532 37.5273 183.117 38.0395 183.117C38.5517 183.117 38.9669 183.532 38.9669 184.044Z" fill="#001946"/>
<path d="M48.5063 176.89C48.5063 177.402 48.0911 177.817 47.5789 177.817C47.0666 177.817 46.6514 177.402 46.6514 176.89C46.6514 176.377 47.0666 175.962 47.5789 175.962C48.0911 175.962 48.5063 176.377 48.5063 176.89Z" fill="#001946"/>
<path d="M31.8124 176.89C31.8124 177.402 31.3972 177.817 30.885 177.817C30.3727 177.817 29.9575 177.402 29.9575 176.89C29.9575 176.377 30.3727 175.962 30.885 175.962C31.3972 175.962 31.8124 176.377 31.8124 176.89Z" fill="#001946"/>
<path d="M48.5063 186.429C48.5063 186.941 48.0911 187.357 47.5789 187.357C47.0666 187.357 46.6514 186.941 46.6514 186.429C46.6514 185.917 47.0666 185.502 47.5789 185.502C48.0911 185.502 48.5063 185.917 48.5063 186.429Z" fill="#001946"/>
<path d="M38.9669 186.429C38.9669 186.941 38.5517 187.357 38.0395 187.357C37.5273 187.357 37.112 186.941 37.112 186.429C37.112 185.917 37.5273 185.502 38.0395 185.502C38.5517 185.502 38.9669 185.917 38.9669 186.429Z" fill="#001946"/>
<path d="M31.8124 179.275C31.8124 179.787 31.3972 180.202 30.885 180.202C30.3727 180.202 29.9575 179.787 29.9575 179.275C29.9575 178.762 30.3727 178.347 30.885 178.347C31.3972 178.347 31.8124 178.762 31.8124 179.275Z" fill="#001946"/>
<path d="M38.9669 188.814C38.9669 189.326 38.5517 189.741 38.0395 189.741C37.5273 189.741 37.112 189.326 37.112 188.814C37.112 188.302 37.5273 187.887 38.0395 187.887C38.5517 187.887 38.9669 188.302 38.9669 188.814Z" fill="#001946"/>
<path d="M48.5063 181.659C48.5063 182.172 48.0911 182.587 47.5789 182.587C47.0666 182.587 46.6514 182.172 46.6514 181.659C46.6514 181.147 47.0666 180.732 47.5789 180.732C48.0911 180.732 48.5063 181.147 48.5063 181.659Z" fill="#001946"/>
<path d="M31.8124 181.659C31.8124 182.172 31.3972 182.587 30.885 182.587C30.3727 182.587 29.9575 182.172 29.9575 181.659C29.9575 181.147 30.3727 180.732 30.885 180.732C31.3972 180.732 31.8124 181.147 31.8124 181.659Z" fill="#001946"/>
<path d="M48.5063 191.199C48.5063 191.711 48.0911 192.126 47.5789 192.126C47.0666 192.126 46.6514 191.711 46.6514 191.199C46.6514 190.687 47.0666 190.271 47.5789 190.271C48.0911 190.271 48.5063 190.687 48.5063 191.199Z" fill="#001946"/>
<path d="M38.9669 191.199C38.9669 191.711 38.5517 192.126 38.0395 192.126C37.5273 192.126 37.112 191.711 37.112 191.199C37.112 190.687 37.5273 190.271 38.0395 190.271C38.5517 190.271 38.9669 190.687 38.9669 191.199Z" fill="#001946"/>
<path d="M48.5063 184.044C48.5063 184.556 48.0911 184.972 47.5789 184.972C47.0666 184.972 46.6514 184.556 46.6514 184.044C46.6514 183.532 47.0666 183.117 47.5789 183.117C48.0911 183.117 48.5063 183.532 48.5063 184.044Z" fill="#001946"/>
<path d="M31.8124 184.044C31.8124 184.556 31.3972 184.972 30.885 184.972C30.3727 184.972 29.9575 184.556 29.9575 184.044C29.9575 183.532 30.3727 183.117 30.885 183.117C31.3972 183.117 31.8124 183.532 31.8124 184.044Z" fill="#001946"/>
<path d="M41.3518 174.505C41.3518 175.017 40.9365 175.432 40.4243 175.432C39.9121 175.432 39.4969 175.017 39.4969 174.505C39.4969 173.993 39.9121 173.577 40.4243 173.577C40.9365 173.577 41.3518 173.993 41.3518 174.505Z" fill="#001946"/>
<path d="M41.3518 176.89C41.3518 177.402 40.9365 177.817 40.4243 177.817C39.9121 177.817 39.4969 177.402 39.4969 176.89C39.4969 176.377 39.9121 175.962 40.4243 175.962C40.9365 175.962 41.3518 176.377 41.3518 176.89Z" fill="#001946"/>
<path d="M41.3518 181.659C41.3518 182.172 40.9365 182.587 40.4243 182.587C39.9121 182.587 39.4969 182.172 39.4969 181.659C39.4969 181.147 39.9121 180.732 40.4243 180.732C40.9365 180.732 41.3518 181.147 41.3518 181.659Z" fill="#001946"/>
<path d="M41.3518 184.044C41.3518 184.556 40.9365 184.972 40.4243 184.972C39.9121 184.972 39.4969 184.556 39.4969 184.044C39.4969 183.532 39.9121 183.117 40.4243 183.117C40.9365 183.117 41.3518 183.532 41.3518 184.044Z" fill="#001946"/>
<path d="M50.8911 176.89C50.8911 177.402 50.4759 177.817 49.9637 177.817C49.4515 177.817 49.0363 177.402 49.0363 176.89C49.0363 176.377 49.4515 175.962 49.9637 175.962C50.4759 175.962 50.8911 176.377 50.8911 176.89Z" fill="#001946"/>
<path d="M34.1972 176.89C34.1972 177.402 33.782 177.817 33.2698 177.817C32.7576 177.817 32.3424 177.402 32.3424 176.89C32.3424 176.377 32.7576 175.962 33.2698 175.962C33.782 175.962 34.1972 176.377 34.1972 176.89Z" fill="#001946"/>
<path d="M41.3518 186.429C41.3518 186.941 40.9365 187.357 40.4243 187.357C39.9121 187.357 39.4969 186.941 39.4969 186.429C39.4969 185.917 39.9121 185.502 40.4243 185.502C40.9365 185.502 41.3518 185.917 41.3518 186.429Z" fill="#001946"/>
<path d="M50.8911 188.814C50.8911 189.326 50.4759 189.741 49.9637 189.741C49.4515 189.741 49.0363 189.326 49.0363 188.814C49.0363 188.302 49.4515 187.887 49.9637 187.887C50.4759 187.887 50.8911 188.302 50.8911 188.814Z" fill="#001946"/>
<path d="M41.3518 188.814C41.3518 189.326 40.9365 189.741 40.4243 189.741C39.9121 189.741 39.4969 189.326 39.4969 188.814C39.4969 188.302 39.9121 187.887 40.4243 187.887C40.9365 187.887 41.3518 188.302 41.3518 188.814Z" fill="#001946"/>
<path d="M50.8911 191.199C50.8911 191.711 50.4759 192.126 49.9637 192.126C49.4515 192.126 49.0363 191.711 49.0363 191.199C49.0363 190.687 49.4515 190.271 49.9637 190.271C50.4759 190.271 50.8911 190.687 50.8911 191.199Z" fill="#001946"/>
<path d="M50.8911 184.044C50.8911 184.556 50.4759 184.972 49.9637 184.972C49.4515 184.972 49.0363 184.556 49.0363 184.044C49.0363 183.532 49.4515 183.117 49.9637 183.117C50.4759 183.117 50.8911 183.532 50.8911 184.044Z" fill="#001946"/>
<path d="M34.1972 184.044C34.1972 184.556 33.782 184.972 33.2698 184.972C32.7576 184.972 32.3424 184.556 32.3424 184.044C32.3424 183.532 32.7576 183.117 33.2698 183.117C33.782 183.117 34.1972 183.532 34.1972 184.044Z" fill="#001946"/>
<path d="M43.7366 172.12C43.7366 172.632 43.3214 173.047 42.8092 173.047C42.297 173.047 41.8817 172.632 41.8817 172.12C41.8817 171.608 42.297 171.192 42.8092 171.192C43.3214 171.192 43.7366 171.608 43.7366 172.12Z" fill="#001946"/>
<path d="M43.7366 174.505C43.7366 175.017 43.3214 175.432 42.8092 175.432C42.297 175.432 41.8817 175.017 41.8817 174.505C41.8817 173.993 42.297 173.577 42.8092 173.577C43.3214 173.577 43.7366 173.993 43.7366 174.505Z" fill="#001946"/>
<path d="M43.7366 179.275C43.7366 179.787 43.3214 180.202 42.8092 180.202C42.297 180.202 41.8817 179.787 41.8817 179.275C41.8817 178.762 42.297 178.347 42.8092 178.347C43.3214 178.347 43.7366 178.762 43.7366 179.275Z" fill="#001946"/>
<path d="M43.7366 181.659C43.7366 182.172 43.3214 182.587 42.8092 182.587C42.297 182.587 41.8817 182.172 41.8817 181.659C41.8817 181.147 42.297 180.732 42.8092 180.732C43.3214 180.732 43.7366 181.147 43.7366 181.659Z" fill="#001946"/>
<path d="M53.276 176.89C53.276 177.402 52.8608 177.817 52.3485 177.817C51.8363 177.817 51.4211 177.402 51.4211 176.89C51.4211 176.377 51.8363 175.962 52.3485 175.962C52.8608 175.962 53.276 176.377 53.276 176.89Z" fill="#001946"/>
<path d="M36.5821 176.89C36.5821 177.402 36.1669 177.817 35.6546 177.817C35.1424 177.817 34.7272 177.402 34.7272 176.89C34.7272 176.377 35.1424 175.962 35.6546 175.962C36.1669 175.962 36.5821 176.377 36.5821 176.89Z" fill="#001946"/>
<path d="M43.7366 186.429C43.7366 186.941 43.3214 187.357 42.8092 187.357C42.297 187.357 41.8817 186.941 41.8817 186.429C41.8817 185.917 42.297 185.502 42.8092 185.502C43.3214 185.502 43.7366 185.917 43.7366 186.429Z" fill="#001946"/>
<path d="M53.276 179.275C53.276 179.787 52.8608 180.202 52.3485 180.202C51.8363 180.202 51.4211 179.787 51.4211 179.275C51.4211 178.762 51.8363 178.347 52.3485 178.347C52.8608 178.347 53.276 178.762 53.276 179.275Z" fill="#001946"/>
<path d="M36.5821 179.275C36.5821 179.787 36.1669 180.202 35.6546 180.202C35.1424 180.202 34.7272 179.787 34.7272 179.275C34.7272 178.762 35.1424 178.347 35.6546 178.347C36.1669 178.347 36.5821 178.762 36.5821 179.275Z" fill="#001946"/>
<path d="M53.276 188.814C53.276 189.326 52.8608 189.741 52.3485 189.741C51.8363 189.741 51.4211 189.326 51.4211 188.814C51.4211 188.302 51.8363 187.887 52.3485 187.887C52.8608 187.887 53.276 188.302 53.276 188.814Z" fill="#001946"/>
<path d="M53.276 181.659C53.276 182.172 52.8608 182.587 52.3485 182.587C51.8363 182.587 51.4211 182.172 51.4211 181.659C51.4211 181.147 51.8363 180.732 52.3485 180.732C52.8608 180.732 53.276 181.147 53.276 181.659Z" fill="#001946"/>
<path d="M36.5821 181.659C36.5821 182.172 36.1669 182.587 35.6546 182.587C35.1424 182.587 34.7272 182.172 34.7272 181.659C34.7272 181.147 35.1424 180.732 35.6546 180.732C36.1669 180.732 36.5821 181.147 36.5821 181.659Z" fill="#001946"/>
<path d="M53.276 191.199C53.276 191.711 52.8608 192.126 52.3485 192.126C51.8363 192.126 51.4211 191.711 51.4211 191.199C51.4211 190.687 51.8363 190.271 52.3485 190.271C52.8608 190.271 53.276 190.687 53.276 191.199Z" fill="#001946"/>
<path d="M43.7366 191.199C43.7366 191.711 43.3214 192.126 42.8092 192.126C42.297 192.126 41.8817 191.711 41.8817 191.199C41.8817 190.687 42.297 190.271 42.8092 190.271C43.3214 190.271 43.7366 190.687 43.7366 191.199Z" fill="#001946"/>
<path d="M53.276 184.044C53.276 184.556 52.8608 184.972 52.3485 184.972C51.8363 184.972 51.4211 184.556 51.4211 184.044C51.4211 183.532 51.8363 183.117 52.3485 183.117C52.8608 183.117 53.276 183.532 53.276 184.044Z" fill="#001946"/>
<path d="M36.5821 184.044C36.5821 184.556 36.1669 184.972 35.6546 184.972C35.1424 184.972 34.7272 184.556 34.7272 184.044C34.7272 183.532 35.1424 183.117 35.6546 183.117C36.1669 183.117 36.5821 183.532 36.5821 184.044Z" fill="#001946"/>
<path d="M46.1215 169.735C46.1215 170.247 45.7062 170.663 45.194 170.663C44.6818 170.663 44.2666 170.247 44.2666 169.735C44.2666 169.223 44.6818 168.808 45.194 168.808C45.7062 168.808 46.1215 169.223 46.1215 169.735Z" fill="#001946"/>
<path d="M46.1215 172.12C46.1215 172.632 45.7062 173.047 45.194 173.047C44.6818 173.047 44.2666 172.632 44.2666 172.12C44.2666 171.608 44.6818 171.192 45.194 171.192C45.7062 171.192 46.1215 171.608 46.1215 172.12Z" fill="#001946"/>
<path d="M46.1215 174.505C46.1215 175.017 45.7062 175.432 45.194 175.432C44.6818 175.432 44.2666 175.017 44.2666 174.505C44.2666 173.993 44.6818 173.577 45.194 173.577C45.7062 173.577 46.1215 173.993 46.1215 174.505Z" fill="#001946"/>
<path d="M46.1215 176.89C46.1215 177.402 45.7062 177.817 45.194 177.817C44.6818 177.817 44.2666 177.402 44.2666 176.89C44.2666 176.377 44.6818 175.962 45.194 175.962C45.7062 175.962 46.1215 176.377 46.1215 176.89Z" fill="#001946"/>
<path d="M46.1215 179.275C46.1215 179.787 45.7062 180.202 45.194 180.202C44.6818 180.202 44.2666 179.787 44.2666 179.275C44.2666 178.762 44.6818 178.347 45.194 178.347C45.7062 178.347 46.1215 178.762 46.1215 179.275Z" fill="#001946"/>
<path d="M46.1215 184.044C46.1215 184.556 45.7062 184.972 45.194 184.972C44.6818 184.972 44.2666 184.556 44.2666 184.044C44.2666 183.532 44.6818 183.117 45.194 183.117C45.7062 183.117 46.1215 183.532 46.1215 184.044Z" fill="#001946"/>
<path d="M46.1215 188.814C46.1215 189.326 45.7062 189.741 45.194 189.741C44.6818 189.741 44.2666 189.326 44.2666 188.814C44.2666 188.302 44.6818 187.887 45.194 187.887C45.7062 187.887 46.1215 188.302 46.1215 188.814Z" fill="#001946"/>
<path d="M46.1215 191.199C46.1215 191.711 45.7062 192.126 45.194 192.126C44.6818 192.126 44.2666 191.711 44.2666 191.199C44.2666 190.687 44.6818 190.271 45.194 190.271C45.7062 190.271 46.1215 190.687 46.1215 191.199Z" fill="#001946"/>
<path d="M32.0774 171.457C32.0774 171.165 32.3147 170.927 32.6073 170.927H33.6673C33.96 170.927 34.1972 171.165 34.1972 171.457V172.517C34.1972 172.81 33.96 173.047 33.6673 173.047H32.6073C32.3147 173.047 32.0774 172.81 32.0774 172.517V171.457Z" fill="#001946"/>
<path fill-rule="evenodd" clip-rule="evenodd" d="M30.4875 168.808C30.1948 168.808 29.9575 169.045 29.9575 169.338V174.637C29.9575 174.93 30.1948 175.167 30.4875 175.167H35.7871C36.0798 175.167 36.3171 174.93 36.3171 174.637V169.338C36.3171 169.045 36.0798 168.808 35.7871 168.808H30.4875ZM34.4622 170.133H31.8124C31.5197 170.133 31.2824 170.37 31.2824 170.663V173.312C31.2824 173.605 31.5197 173.842 31.8124 173.842H34.4622C34.7549 173.842 34.9922 173.605 34.9922 173.312V170.663C34.9922 170.37 34.7549 170.133 34.4622 170.133ZM32.6073 170.927H33.6673C33.96 170.927 34.1972 171.165 34.1972 171.457V172.517C34.1972 172.81 33.96 173.047 33.6673 173.047H32.6073C32.3147 173.047 32.0774 172.81 32.0774 172.517V171.457C32.0774 171.165 32.3147 170.927 32.6073 170.927Z" fill="#001946"/>
<path fill-rule="evenodd" clip-rule="evenodd" d="M47.4464 168.808C47.1537 168.808 46.9164 169.045 46.9164 169.338V174.637C46.9164 174.93 47.1537 175.167 47.4464 175.167H52.746C53.0387 175.167 53.276 174.93 53.276 174.637V169.338C53.276 169.045 53.0387 168.808 52.746 168.808H47.4464ZM51.4211 170.133H48.7713C48.4786 170.133 48.2413 170.37 48.2413 170.663V173.312C48.2413 173.605 48.4786 173.842 48.7713 173.842H51.4211C51.7138 173.842 51.9511 173.605 51.9511 173.312V170.663C51.9511 170.37 51.7138 170.133 51.4211 170.133ZM49.5662 170.927H50.6262C50.9188 170.927 51.1561 171.165 51.1561 171.457V172.517C51.1561 172.81 50.9188 173.047 50.6262 173.047H49.5662C49.2735 173.047 49.0363 172.81 49.0363 172.517V171.457C49.0363 171.165 49.2735 170.927 49.5662 170.927Z" fill="#001946"/>
<path fill-rule="evenodd" clip-rule="evenodd" d="M30.4875 185.767C30.1948 185.767 29.9575 186.004 29.9575 186.297V191.596C29.9575 191.889 30.1948 192.126 30.4875 192.126H35.7871C36.0798 192.126 36.3171 191.889 36.3171 191.596V186.297C36.3171 186.004 36.0798 185.767 35.7871 185.767H30.4875ZM34.4622 187.092H31.8124C31.5197 187.092 31.2824 187.329 31.2824 187.622V190.271C31.2824 190.564 31.5197 190.801 31.8124 190.801H34.4622C34.7549 190.801 34.9922 190.564 34.9922 190.271V187.622C34.9922 187.329 34.7549 187.092 34.4622 187.092ZM32.6073 187.887H33.6673C33.96 187.887 34.1972 188.124 34.1972 188.416V189.476C34.1972 189.769 33.96 190.006 33.6673 190.006H32.6073C32.3147 190.006 32.0774 189.769 32.0774 189.476V188.416C32.0774 188.124 32.3147 187.887 32.6073 187.887Z" fill="#001946"/>
<path d="M210.804 56.1042C208.149 53.9879 182.095 53.6355 177.116 56.1042V51.872C177.32 51.7552 177.779 51.6529 178.444 51.5641V50.8139V40.2327C178.388 38.8218 178.112 37.2347 182.593 36.7056C186.575 36.3529 201.677 36.1773 205.494 36.7685C209.642 37.4111 209.698 38.8848 209.642 40.2956V51.627C210.3 51.703 210.709 51.7851 210.804 51.872V56.1042Z" fill="#EEF0FF"/>
<path d="M178.444 51.5641C177.779 51.6529 177.32 51.7552 177.116 51.872V56.1042C182.095 53.6355 208.149 53.9879 210.804 56.1042V51.872C209.963 51.1056 184.8 50.7151 178.444 51.5641ZM178.444 51.5641V50.8139V40.2327C178.388 38.8218 178.112 37.2347 182.593 36.7056C186.575 36.3529 201.677 36.1773 205.494 36.7685C209.642 37.4111 209.698 38.8848 209.642 40.2956V51.627L207.983 51.4816V39.1894C207.983 39.0735 207.914 38.9688 207.807 38.9234L207.555 38.8164C207.365 38.7354 207.153 38.8753 207.153 39.0824V51.4286L202.838 51.2427L202.514 38.5744C202.51 38.4177 202.382 38.2928 202.225 38.2928H197.817C197.657 38.2928 197.528 38.4222 197.528 38.5818V51.1234L190.392 51.0899V38.5818C190.392 38.4222 190.263 38.2928 190.103 38.2928H185.367C185.209 38.2928 185.08 38.4201 185.078 38.5784L184.929 51.174L180.601 51.3633V39.0824C180.601 38.8753 180.39 38.7354 180.199 38.8164L179.947 38.9234C179.841 38.9688 179.771 39.0735 179.771 39.1894V51.4254" stroke="black" stroke-width="0.289007"/>
<path d="M163.342 85.5556C163.078 66.1463 172.357 57.9773 177.073 56.2963C177.103 56.2856 177.127 56.2747 177.155 56.2596C182.043 53.64 205.232 53.2926 210.765 56.2596C210.793 56.2745 210.818 56.2855 210.847 56.2961C215.563 57.9768 224.843 66.1456 224.578 85.5556L224.186 86.1111C224.117 86.2086 224.08 86.3251 224.08 86.4444V192.419C224.08 192.538 224.117 192.655 224.186 192.752L224.578 193.308C223.25 207.063 224.08 209.885 215.285 211.296C211.382 211.922 185.248 213.059 172.636 211.296C161.517 209.741 164.67 207.063 163.342 193.308L163.735 192.752C163.803 192.655 163.84 192.538 163.84 192.419V86.4444C163.84 86.3251 163.803 86.2086 163.735 86.1111L163.342 85.5556Z" fill="#1C438F"/>
<path d="M163.342 85.5556C163.078 66.1463 172.357 57.9773 177.073 56.2963C177.103 56.2856 177.127 56.2747 177.155 56.2596C182.043 53.64 205.232 53.2926 210.765 56.2596C210.793 56.2745 210.818 56.2855 210.847 56.2961C215.563 57.9768 224.843 66.1456 224.578 85.5556M163.342 85.5556L163.735 86.1111C163.803 86.2086 163.84 86.3251 163.84 86.4444V192.419C163.84 192.538 163.803 192.655 163.735 192.752L163.342 193.308M163.342 85.5556C166.164 83.7921 222.056 83.8625 224.578 85.5556M163.342 193.308C164.67 207.063 161.517 209.741 172.636 211.296C185.248 213.059 211.382 211.922 215.285 211.296C224.08 209.885 223.25 207.063 224.578 193.308M163.342 193.308C167.159 195.248 220.728 195.283 224.578 193.308M224.578 85.5556L224.186 86.1111C224.117 86.2086 224.08 86.3251 224.08 86.4444V192.419C224.08 192.538 224.117 192.655 224.186 192.752L224.578 193.308" stroke="black" stroke-width="0.289007"/>
<path d="M163.674 191.679L163.674 87.5095C163.674 87.3087 163.756 87.1319 163.947 87.0705C168.86 85.4902 219.121 85.5512 223.819 87.0722C224.003 87.132 224.08 87.3033 224.08 87.4975V191.681C224.08 191.899 223.983 192.09 223.775 192.156C218.162 193.942 169.585 193.911 163.981 192.155C163.773 192.09 163.674 191.898 163.674 191.679Z" fill="#5375C3" stroke="black" stroke-width="0.289007"/>
<g filter="url(#filter1_d_2748_113421)">
<rect x="202.312" y="168.727" width="17.5602" height="17.5604" rx="0.867021" fill="white"/>
</g>
<path d="M205.505 182.163C205.505 181.992 205.644 181.853 205.815 181.853H206.436C206.607 181.853 206.746 181.992 206.746 182.163V182.784C206.746 182.956 206.607 183.095 206.436 183.095H205.815C205.644 183.095 205.505 182.956 205.505 182.784V182.163Z" fill="#001946"/>
<path d="M215.438 172.23C215.438 172.059 215.577 171.92 215.748 171.92H216.369C216.541 171.92 216.68 172.059 216.68 172.23V172.851C216.68 173.023 216.541 173.162 216.369 173.162H215.748C215.577 173.162 215.438 173.023 215.438 172.851V172.23Z" fill="#001946"/>
<path d="M209.54 171.221C209.54 171.521 209.297 171.765 208.997 171.765C208.697 171.765 208.454 171.521 208.454 171.221C208.454 170.921 208.697 170.678 208.997 170.678C209.297 170.678 209.54 170.921 209.54 171.221Z" fill="#001946"/>
<path d="M209.54 172.618C209.54 172.918 209.297 173.162 208.997 173.162C208.697 173.162 208.454 172.918 208.454 172.618C208.454 172.318 208.697 172.075 208.997 172.075C209.297 172.075 209.54 172.318 209.54 172.618Z" fill="#001946"/>
<path d="M209.54 174.015C209.54 174.315 209.297 174.558 208.997 174.558C208.697 174.558 208.454 174.315 208.454 174.015C208.454 173.715 208.697 173.472 208.997 173.472C209.297 173.472 209.54 173.715 209.54 174.015Z" fill="#001946"/>
<path d="M209.54 176.809C209.54 177.109 209.297 177.352 208.997 177.352C208.697 177.352 208.454 177.109 208.454 176.809C208.454 176.509 208.697 176.266 208.997 176.266C209.297 176.266 209.54 176.509 209.54 176.809Z" fill="#001946"/>
<path d="M209.54 179.603C209.54 179.903 209.297 180.146 208.997 180.146C208.697 180.146 208.454 179.903 208.454 179.603C208.454 179.303 208.697 179.059 208.997 179.059C209.297 179.059 209.54 179.303 209.54 179.603Z" fill="#001946"/>
<path d="M215.127 175.412C215.127 175.712 214.884 175.955 214.584 175.955C214.284 175.955 214.041 175.712 214.041 175.412C214.041 175.112 214.284 174.869 214.584 174.869C214.884 174.869 215.127 175.112 215.127 175.412Z" fill="#001946"/>
<path d="M205.35 175.412C205.35 175.712 205.106 175.955 204.806 175.955C204.506 175.955 204.263 175.712 204.263 175.412C204.263 175.112 204.506 174.869 204.806 174.869C205.106 174.869 205.35 175.112 205.35 175.412Z" fill="#001946"/>
<path d="M215.127 180.999C215.127 181.299 214.884 181.543 214.584 181.543C214.284 181.543 214.041 181.299 214.041 180.999C214.041 180.699 214.284 180.456 214.584 180.456C214.884 180.456 215.127 180.699 215.127 180.999Z" fill="#001946"/>
<path d="M209.54 180.999C209.54 181.299 209.297 181.543 208.997 181.543C208.697 181.543 208.454 181.299 208.454 180.999C208.454 180.699 208.697 180.456 208.997 180.456C209.297 180.456 209.54 180.699 209.54 180.999Z" fill="#001946"/>
<path d="M205.35 176.809C205.35 177.109 205.106 177.352 204.806 177.352C204.506 177.352 204.263 177.109 204.263 176.809C204.263 176.509 204.506 176.266 204.806 176.266C205.106 176.266 205.35 176.509 205.35 176.809Z" fill="#001946"/>
<path d="M209.54 182.396C209.54 182.696 209.297 182.939 208.997 182.939C208.697 182.939 208.454 182.696 208.454 182.396C208.454 182.096 208.697 181.853 208.997 181.853C209.297 181.853 209.54 182.096 209.54 182.396Z" fill="#001946"/>
<path d="M215.127 178.206C215.127 178.506 214.884 178.749 214.584 178.749C214.284 178.749 214.041 178.506 214.041 178.206C214.041 177.906 214.284 177.662 214.584 177.662C214.884 177.662 215.127 177.906 215.127 178.206Z" fill="#001946"/>
<path d="M205.35 178.206C205.35 178.506 205.106 178.749 204.806 178.749C204.506 178.749 204.263 178.506 204.263 178.206C204.263 177.906 204.506 177.662 204.806 177.662C205.106 177.662 205.35 177.906 205.35 178.206Z" fill="#001946"/>
<path d="M215.127 183.793C215.127 184.093 214.884 184.336 214.584 184.336C214.284 184.336 214.041 184.093 214.041 183.793C214.041 183.493 214.284 183.25 214.584 183.25C214.884 183.25 215.127 183.493 215.127 183.793Z" fill="#001946"/>
<path d="M209.54 183.793C209.54 184.093 209.297 184.336 208.997 184.336C208.697 184.336 208.454 184.093 208.454 183.793C208.454 183.493 208.697 183.25 208.997 183.25C209.297 183.25 209.54 183.493 209.54 183.793Z" fill="#001946"/>
<path d="M215.127 179.603C215.127 179.903 214.884 180.146 214.584 180.146C214.284 180.146 214.041 179.903 214.041 179.603C214.041 179.303 214.284 179.059 214.584 179.059C214.884 179.059 215.127 179.303 215.127 179.603Z" fill="#001946"/>
<path d="M205.35 179.603C205.35 179.903 205.106 180.146 204.806 180.146C204.506 180.146 204.263 179.903 204.263 179.603C204.263 179.303 204.506 179.059 204.806 179.059C205.106 179.059 205.35 179.303 205.35 179.603Z" fill="#001946"/>
<path d="M210.937 174.015C210.937 174.315 210.694 174.558 210.394 174.558C210.094 174.558 209.851 174.315 209.851 174.015C209.851 173.715 210.094 173.472 210.394 173.472C210.694 173.472 210.937 173.715 210.937 174.015Z" fill="#001946"/>
<path d="M210.937 175.412C210.937 175.712 210.694 175.955 210.394 175.955C210.094 175.955 209.851 175.712 209.851 175.412C209.851 175.112 210.094 174.869 210.394 174.869C210.694 174.869 210.937 175.112 210.937 175.412Z" fill="#001946"/>
<path d="M210.937 178.206C210.937 178.506 210.694 178.749 210.394 178.749C210.094 178.749 209.851 178.506 209.851 178.206C209.851 177.906 210.094 177.662 210.394 177.662C210.694 177.662 210.937 177.906 210.937 178.206Z" fill="#001946"/>
<path d="M210.937 179.603C210.937 179.903 210.694 180.146 210.394 180.146C210.094 180.146 209.851 179.903 209.851 179.603C209.851 179.303 210.094 179.059 210.394 179.059C210.694 179.059 210.937 179.303 210.937 179.603Z" fill="#001946"/>
<path d="M216.524 175.412C216.524 175.712 216.281 175.955 215.981 175.955C215.681 175.955 215.438 175.712 215.438 175.412C215.438 175.112 215.681 174.869 215.981 174.869C216.281 174.869 216.524 175.112 216.524 175.412Z" fill="#001946"/>
<path d="M206.746 175.412C206.746 175.712 206.503 175.955 206.203 175.955C205.903 175.955 205.66 175.712 205.66 175.412C205.66 175.112 205.903 174.869 206.203 174.869C206.503 174.869 206.746 175.112 206.746 175.412Z" fill="#001946"/>
<path d="M210.937 180.999C210.937 181.299 210.694 181.543 210.394 181.543C210.094 181.543 209.851 181.299 209.851 180.999C209.851 180.699 210.094 180.456 210.394 180.456C210.694 180.456 210.937 180.699 210.937 180.999Z" fill="#001946"/>
<path d="M216.524 182.396C216.524 182.696 216.281 182.939 215.981 182.939C215.681 182.939 215.438 182.696 215.438 182.396C215.438 182.096 215.681 181.853 215.981 181.853C216.281 181.853 216.524 182.096 216.524 182.396Z" fill="#001946"/>
<path d="M210.937 182.396C210.937 182.696 210.694 182.939 210.394 182.939C210.094 182.939 209.851 182.696 209.851 182.396C209.851 182.096 210.094 181.853 210.394 181.853C210.694 181.853 210.937 182.096 210.937 182.396Z" fill="#001946"/>
<path d="M216.524 183.793C216.524 184.093 216.281 184.336 215.981 184.336C215.681 184.336 215.438 184.093 215.438 183.793C215.438 183.493 215.681 183.25 215.981 183.25C216.281 183.25 216.524 183.493 216.524 183.793Z" fill="#001946"/>
<path d="M216.524 179.603C216.524 179.903 216.281 180.146 215.981 180.146C215.681 180.146 215.438 179.903 215.438 179.603C215.438 179.303 215.681 179.059 215.981 179.059C216.281 179.059 216.524 179.303 216.524 179.603Z" fill="#001946"/>
<path d="M206.746 179.603C206.746 179.903 206.503 180.146 206.203 180.146C205.903 180.146 205.66 179.903 205.66 179.603C205.66 179.303 205.903 179.059 206.203 179.059C206.503 179.059 206.746 179.303 206.746 179.603Z" fill="#001946"/>
<path d="M212.334 172.618C212.334 172.918 212.091 173.162 211.791 173.162C211.491 173.162 211.247 172.918 211.247 172.618C211.247 172.318 211.491 172.075 211.791 172.075C212.091 172.075 212.334 172.318 212.334 172.618Z" fill="#001946"/>
<path d="M212.334 174.015C212.334 174.315 212.091 174.558 211.791 174.558C211.491 174.558 211.247 174.315 211.247 174.015C211.247 173.715 211.491 173.472 211.791 173.472C212.091 173.472 212.334 173.715 212.334 174.015Z" fill="#001946"/>
<path d="M212.334 176.809C212.334 177.109 212.091 177.352 211.791 177.352C211.491 177.352 211.247 177.109 211.247 176.809C211.247 176.509 211.491 176.266 211.791 176.266C212.091 176.266 212.334 176.509 212.334 176.809Z" fill="#001946"/>
<path d="M212.334 178.206C212.334 178.506 212.091 178.749 211.791 178.749C211.491 178.749 211.247 178.506 211.247 178.206C211.247 177.906 211.491 177.662 211.791 177.662C212.091 177.662 212.334 177.906 212.334 178.206Z" fill="#001946"/>
<path d="M217.921 175.412C217.921 175.712 217.678 175.955 217.378 175.955C217.078 175.955 216.835 175.712 216.835 175.412C216.835 175.112 217.078 174.869 217.378 174.869C217.678 174.869 217.921 175.112 217.921 175.412Z" fill="#001946"/>
<path d="M208.143 175.412C208.143 175.712 207.9 175.955 207.6 175.955C207.3 175.955 207.057 175.712 207.057 175.412C207.057 175.112 207.3 174.869 207.6 174.869C207.9 174.869 208.143 175.112 208.143 175.412Z" fill="#001946"/>
<path d="M212.334 180.999C212.334 181.299 212.091 181.543 211.791 181.543C211.491 181.543 211.247 181.299 211.247 180.999C211.247 180.699 211.491 180.456 211.791 180.456C212.091 180.456 212.334 180.699 212.334 180.999Z" fill="#001946"/>
<path d="M217.921 176.809C217.921 177.109 217.678 177.352 217.378 177.352C217.078 177.352 216.835 177.109 216.835 176.809C216.835 176.509 217.078 176.266 217.378 176.266C217.678 176.266 217.921 176.509 217.921 176.809Z" fill="#001946"/>
<path d="M208.143 176.809C208.143 177.109 207.9 177.352 207.6 177.352C207.3 177.352 207.057 177.109 207.057 176.809C207.057 176.509 207.3 176.266 207.6 176.266C207.9 176.266 208.143 176.509 208.143 176.809Z" fill="#001946"/>
<path d="M217.921 182.396C217.921 182.696 217.678 182.939 217.378 182.939C217.078 182.939 216.835 182.696 216.835 182.396C216.835 182.096 217.078 181.853 217.378 181.853C217.678 181.853 217.921 182.096 217.921 182.396Z" fill="#001946"/>
<path d="M217.921 178.206C217.921 178.506 217.678 178.749 217.378 178.749C217.078 178.749 216.835 178.506 216.835 178.206C216.835 177.906 217.078 177.662 217.378 177.662C217.678 177.662 217.921 177.906 217.921 178.206Z" fill="#001946"/>
<path d="M208.143 178.206C208.143 178.506 207.9 178.749 207.6 178.749C207.3 178.749 207.057 178.506 207.057 178.206C207.057 177.906 207.3 177.662 207.6 177.662C207.9 177.662 208.143 177.906 208.143 178.206Z" fill="#001946"/>
<path d="M217.921 183.793C217.921 184.093 217.678 184.336 217.378 184.336C217.078 184.336 216.835 184.093 216.835 183.793C216.835 183.493 217.078 183.25 217.378 183.25C217.678 183.25 217.921 183.493 217.921 183.793Z" fill="#001946"/>
<path d="M212.334 183.793C212.334 184.093 212.091 184.336 211.791 184.336C211.491 184.336 211.247 184.093 211.247 183.793C211.247 183.493 211.491 183.25 211.791 183.25C212.091 183.25 212.334 183.493 212.334 183.793Z" fill="#001946"/>
<path d="M217.921 179.603C217.921 179.903 217.678 180.146 217.378 180.146C217.078 180.146 216.835 179.903 216.835 179.603C216.835 179.303 217.078 179.059 217.378 179.059C217.678 179.059 217.921 179.303 217.921 179.603Z" fill="#001946"/>
<path d="M208.143 179.603C208.143 179.903 207.9 180.146 207.6 180.146C207.3 180.146 207.057 179.903 207.057 179.603C207.057 179.303 207.3 179.059 207.6 179.059C207.9 179.059 208.143 179.303 208.143 179.603Z" fill="#001946"/>
<path d="M213.731 171.221C213.731 171.521 213.487 171.765 213.187 171.765C212.887 171.765 212.644 171.521 212.644 171.221C212.644 170.921 212.887 170.678 213.187 170.678C213.487 170.678 213.731 170.921 213.731 171.221Z" fill="#001946"/>
<path d="M213.731 172.618C213.731 172.918 213.487 173.162 213.187 173.162C212.887 173.162 212.644 172.918 212.644 172.618C212.644 172.318 212.887 172.075 213.187 172.075C213.487 172.075 213.731 172.318 213.731 172.618Z" fill="#001946"/>
<path d="M213.731 174.015C213.731 174.315 213.487 174.558 213.187 174.558C212.887 174.558 212.644 174.315 212.644 174.015C212.644 173.715 212.887 173.472 213.187 173.472C213.487 173.472 213.731 173.715 213.731 174.015Z" fill="#001946"/>
<path d="M213.731 175.412C213.731 175.712 213.487 175.955 213.187 175.955C212.887 175.955 212.644 175.712 212.644 175.412C212.644 175.112 212.887 174.869 213.187 174.869C213.487 174.869 213.731 175.112 213.731 175.412Z" fill="#001946"/>
<path d="M213.731 176.809C213.731 177.109 213.487 177.352 213.187 177.352C212.887 177.352 212.644 177.109 212.644 176.809C212.644 176.509 212.887 176.266 213.187 176.266C213.487 176.266 213.731 176.509 213.731 176.809Z" fill="#001946"/>
<path d="M213.731 179.603C213.731 179.903 213.487 180.146 213.187 180.146C212.887 180.146 212.644 179.903 212.644 179.603C212.644 179.303 212.887 179.059 213.187 179.059C213.487 179.059 213.731 179.303 213.731 179.603Z" fill="#001946"/>
<path d="M213.731 182.396C213.731 182.696 213.487 182.939 213.187 182.939C212.887 182.939 212.644 182.696 212.644 182.396C212.644 182.096 212.887 181.853 213.187 181.853C213.487 181.853 213.731 182.096 213.731 182.396Z" fill="#001946"/>
<path d="M213.731 183.793C213.731 184.093 213.487 184.336 213.187 184.336C212.887 184.336 212.644 184.093 212.644 183.793C212.644 183.493 212.887 183.25 213.187 183.25C213.487 183.25 213.731 183.493 213.731 183.793Z" fill="#001946"/>
<path d="M205.505 172.23C205.505 172.059 205.644 171.92 205.815 171.92H206.436C206.607 171.92 206.746 172.059 206.746 172.23V172.851C206.746 173.023 206.607 173.162 206.436 173.162H205.815C205.644 173.162 205.505 173.023 205.505 172.851V172.23Z" fill="#001946"/>
<path fill-rule="evenodd" clip-rule="evenodd" d="M204.574 170.678C204.402 170.678 204.263 170.817 204.263 170.989V174.093C204.263 174.264 204.402 174.403 204.574 174.403H207.678C207.849 174.403 207.988 174.264 207.988 174.093V170.989C207.988 170.817 207.849 170.678 207.678 170.678H204.574ZM206.902 171.454H205.35C205.178 171.454 205.039 171.593 205.039 171.765V173.317C205.039 173.488 205.178 173.627 205.35 173.627H206.902C207.073 173.627 207.212 173.488 207.212 173.317V171.765C207.212 171.593 207.073 171.454 206.902 171.454ZM205.815 171.92H206.436C206.607 171.92 206.746 172.059 206.746 172.23V172.851C206.746 173.023 206.607 173.162 206.436 173.162H205.815C205.644 173.162 205.505 173.023 205.505 172.851V172.23C205.505 172.059 205.644 171.92 205.815 171.92Z" fill="#001946"/>
<path fill-rule="evenodd" clip-rule="evenodd" d="M214.507 170.678C214.335 170.678 214.196 170.817 214.196 170.989V174.093C214.196 174.264 214.335 174.403 214.507 174.403H217.611C217.782 174.403 217.921 174.264 217.921 174.093V170.989C217.921 170.817 217.782 170.678 217.611 170.678H214.507ZM216.835 171.454H215.283C215.111 171.454 214.972 171.593 214.972 171.765V173.317C214.972 173.488 215.111 173.627 215.283 173.627H216.835C217.006 173.627 217.145 173.488 217.145 173.317V171.765C217.145 171.593 217.006 171.454 216.835 171.454ZM215.748 171.92H216.369C216.541 171.92 216.68 172.059 216.68 172.23V172.851C216.68 173.023 216.541 173.162 216.369 173.162H215.748C215.577 173.162 215.438 173.023 215.438 172.851V172.23C215.438 172.059 215.577 171.92 215.748 171.92Z" fill="#001946"/>
<path fill-rule="evenodd" clip-rule="evenodd" d="M204.574 180.611C204.402 180.611 204.263 180.75 204.263 180.922V184.026C204.263 184.197 204.402 184.336 204.574 184.336H207.678C207.849 184.336 207.988 184.197 207.988 184.026V180.922C207.988 180.75 207.849 180.611 207.678 180.611H204.574ZM206.902 181.387H205.35C205.178 181.387 205.039 181.526 205.039 181.698V183.25C205.039 183.421 205.178 183.56 205.35 183.56H206.902C207.073 183.56 207.212 183.421 207.212 183.25V181.698C207.212 181.526 207.073 181.387 206.902 181.387ZM205.815 181.853H206.436C206.607 181.853 206.746 181.992 206.746 182.163V182.784C206.746 182.956 206.607 183.095 206.436 183.095H205.815C205.644 183.095 205.505 182.956 205.505 182.784V182.163C205.505 181.992 205.644 181.853 205.815 181.853Z" fill="#001946"/>
<path d="M85.7315 22.6293V21.0658C85.7315 20.7466 85.9902 20.4878 86.3095 20.4878H124.557C124.876 20.4878 125.135 20.7466 125.135 21.0658V22.6293H127.384C128.981 22.6293 130.274 23.9232 130.274 25.5194V34.1836C130.274 36.3014 131.433 38.2497 133.293 39.2615L185.933 67.8867C187.793 68.8985 188.951 70.8468 188.951 72.9646V81.0851C188.951 81.513 188.856 81.9356 188.673 82.3223L187.302 85.2165C187.119 85.6032 187.024 86.0258 187.024 86.4537V207.893C187.024 208.155 187.113 208.41 187.277 208.615L189.34 211.194C189.504 211.399 189.594 211.653 189.594 211.916V222.22C189.594 225.412 187.006 228 183.814 228H85.9437C82.7514 228 80.1636 225.412 80.1636 222.22V25.5194C80.1636 23.9232 81.4575 22.6293 83.0536 22.6293H85.7315Z" fill="#395BA9"/>
<path d="M85.7315 22.6293V21.0658C85.7315 20.7466 85.9902 20.4878 86.3095 20.4878H124.557C124.876 20.4878 125.135 20.7466 125.135 21.0658V22.6293M85.7315 22.6293H83.0536C81.4575 22.6293 80.1636 23.9232 80.1636 25.5194V222.22C80.1636 225.412 82.7514 228 85.9437 228H183.814C187.006 228 189.594 225.412 189.594 222.22V211.916C189.594 211.653 189.504 211.399 189.34 211.194L187.277 208.615C187.113 208.41 187.024 208.155 187.024 207.893V86.4537C187.024 86.0258 187.119 85.6032 187.302 85.2165L188.673 82.3223C188.856 81.9356 188.951 81.513 188.951 81.0851V72.9646C188.951 70.8468 187.793 68.8985 185.933 67.8867L133.293 39.2615C131.433 38.2497 130.274 36.3014 130.274 34.1836V25.5194C130.274 23.9232 128.981 22.6293 127.384 22.6293H125.135M85.7315 22.6293H125.135" stroke="black" stroke-width="0.289007"/>
<path d="M83.9101 1H127.49C128.673 1 129.632 1.95879 129.632 3.14151V18.3462V19.1176C129.632 19.756 129.114 20.2736 128.476 20.2736H82.176C81.5376 20.2736 81.02 19.756 81.02 19.1176V18.3462V3.89007C81.02 2.29393 82.3139 1 83.9101 1Z" fill="#EEF0FF"/>
<path d="M81.6625 3.14151H82.5191M129.632 3.14151V3.14151C129.632 1.95879 128.673 1 127.49 1H83.9101C82.3139 1 81.02 2.29393 81.02 3.89007V18.3462M129.632 3.14151V18.3462M129.632 3.14151H93.6548M129.632 3.14151H97.9378M129.632 3.14151H106.075M129.632 18.3462V19.1176C129.632 19.756 129.114 20.2736 128.476 20.2736H82.176C81.5376 20.2736 81.02 19.756 81.02 19.1176V18.3462M129.632 18.3462H93.6548M129.632 18.3462H97.9378M129.632 18.3462H106.075M81.02 18.3462H82.5191M82.5191 3.14151V18.3462M82.5191 3.14151H83.5898M82.5191 18.3462H83.5898M83.5898 3.14151V18.3462M83.5898 3.14151H85.0889M83.5898 18.3462H85.0889M85.0889 3.14151V18.3462M85.0889 3.14151H86.5879M85.0889 18.3462H86.5879M86.5879 3.14151V18.3462M86.5879 3.14151H88.0869M86.5879 18.3462H88.0869M88.0869 3.14151V18.3462M88.0869 3.14151H89.8001M88.0869 18.3462H89.8001M89.8001 3.14151V18.3462M89.8001 3.14151H91.7275M89.8001 18.3462H91.7275M91.7275 3.14151V18.3462M91.7275 3.14151H93.6548M91.7275 18.3462H93.6548M93.6548 3.14151V18.3462M97.9378 3.14151V18.3462M97.9378 3.14151H100.508M97.9378 18.3462H100.508M100.508 3.14151V18.3462M100.508 3.14151H103.292M100.508 18.3462H103.292M103.292 3.14151V18.3462M103.292 3.14151H106.075M103.292 18.3462H106.075M106.075 3.14151V18.3462M128.561 3.14151V18.3462M127.062 3.14151V18.3462M125.563 3.14151V18.3462M124.064 3.14151V18.3462M122.351 3.14151V18.3462M120.423 3.14151V18.3462M118.496 3.14151V18.3462M116.355 3.14151V18.3462M114.213 3.14151V18.3462M111.643 3.14151V18.3462M108.859 3.14151V18.3462M95.7963 3.14151V18.3462" stroke="black" stroke-width="0.289007"/>
<path d="M82.7334 206.05V89.122C82.7334 87.5259 84.0273 86.2319 85.6235 86.2319H181.564C183.16 86.2319 184.454 87.5259 184.454 89.122V206.05C184.454 207.646 183.16 208.94 181.564 208.94H85.6235C84.0273 208.94 82.7334 207.646 82.7334 206.05Z" stroke="black" stroke-width="0.289007"/>
<path d="M86.1597 203.266V92.5483C86.1597 90.9521 87.4536 89.6582 89.0497 89.6582H178.352C179.948 89.6582 181.242 90.9521 181.242 92.5483V203.266C181.242 204.862 179.948 206.156 178.352 206.156H89.0497C87.4536 206.156 86.1597 204.862 86.1597 203.266Z" fill="#6E8EDF" stroke="black" stroke-width="0.289007"/>
<g filter="url(#filter2_d_2748_113421)">
<rect x="93.4409" y="168.466" width="29.9809" height="29.9811" rx="0.867021" fill="white"/>
</g>
<path d="M98.8918 191.406C98.8918 191.114 99.1291 190.876 99.4218 190.876H100.482C100.774 190.876 101.012 191.114 101.012 191.406V192.466C101.012 192.759 100.774 192.996 100.482 192.996H99.4218C99.1291 192.996 98.8918 192.759 98.8918 192.466V191.406Z" fill="#001946"/>
<path d="M115.851 174.447C115.851 174.155 116.088 173.917 116.381 173.917H117.441C117.733 173.917 117.971 174.155 117.971 174.447V175.507C117.971 175.8 117.733 176.037 117.441 176.037H116.381C116.088 176.037 115.851 175.8 115.851 175.507V174.447Z" fill="#001946"/>
<path d="M105.781 172.725C105.781 173.237 105.366 173.652 104.854 173.652C104.342 173.652 103.927 173.237 103.927 172.725C103.927 172.213 104.342 171.797 104.854 171.797C105.366 171.797 105.781 172.213 105.781 172.725Z" fill="#001946"/>
<path d="M105.781 175.11C105.781 175.622 105.366 176.037 104.854 176.037C104.342 176.037 103.927 175.622 103.927 175.11C103.927 174.597 104.342 174.182 104.854 174.182C105.366 174.182 105.781 174.597 105.781 175.11Z" fill="#001946"/>
<path d="M105.781 177.495C105.781 178.007 105.366 178.422 104.854 178.422C104.342 178.422 103.927 178.007 103.927 177.495C103.927 176.982 104.342 176.567 104.854 176.567C105.366 176.567 105.781 176.982 105.781 177.495Z" fill="#001946"/>
<path d="M105.781 182.264C105.781 182.776 105.366 183.192 104.854 183.192C104.342 183.192 103.927 182.776 103.927 182.264C103.927 181.752 104.342 181.337 104.854 181.337C105.366 181.337 105.781 181.752 105.781 182.264Z" fill="#001946"/>
<path d="M105.781 187.034C105.781 187.546 105.366 187.961 104.854 187.961C104.342 187.961 103.927 187.546 103.927 187.034C103.927 186.522 104.342 186.107 104.854 186.107C105.366 186.107 105.781 186.522 105.781 187.034Z" fill="#001946"/>
<path d="M115.321 179.879C115.321 180.392 114.906 180.807 114.393 180.807C113.881 180.807 113.466 180.392 113.466 179.879C113.466 179.367 113.881 178.952 114.393 178.952C114.906 178.952 115.321 179.367 115.321 179.879Z" fill="#001946"/>
<path d="M98.6269 179.879C98.6269 180.392 98.2116 180.807 97.6994 180.807C97.1872 180.807 96.772 180.392 96.772 179.879C96.772 179.367 97.1872 178.952 97.6994 178.952C98.2116 178.952 98.6269 179.367 98.6269 179.879Z" fill="#001946"/>
<path d="M115.321 189.419C115.321 189.931 114.906 190.346 114.393 190.346C113.881 190.346 113.466 189.931 113.466 189.419C113.466 188.907 113.881 188.491 114.393 188.491C114.906 188.491 115.321 188.907 115.321 189.419Z" fill="#001946"/>
<path d="M105.781 189.419C105.781 189.931 105.366 190.346 104.854 190.346C104.342 190.346 103.927 189.931 103.927 189.419C103.927 188.907 104.342 188.491 104.854 188.491C105.366 188.491 105.781 188.907 105.781 189.419Z" fill="#001946"/>
<path d="M98.6269 182.264C98.6269 182.776 98.2116 183.192 97.6994 183.192C97.1872 183.192 96.772 182.776 96.772 182.264C96.772 181.752 97.1872 181.337 97.6994 181.337C98.2116 181.337 98.6269 181.752 98.6269 182.264Z" fill="#001946"/>
<path d="M105.781 191.804C105.781 192.316 105.366 192.731 104.854 192.731C104.342 192.731 103.927 192.316 103.927 191.804C103.927 191.292 104.342 190.876 104.854 190.876C105.366 190.876 105.781 191.292 105.781 191.804Z" fill="#001946"/>
<path d="M115.321 184.649C115.321 185.161 114.906 185.577 114.393 185.577C113.881 185.577 113.466 185.161 113.466 184.649C113.466 184.137 113.881 183.722 114.393 183.722C114.906 183.722 115.321 184.137 115.321 184.649Z" fill="#001946"/>
<path d="M98.6269 184.649C98.6269 185.161 98.2116 185.577 97.6994 185.577C97.1872 185.577 96.772 185.161 96.772 184.649C96.772 184.137 97.1872 183.722 97.6994 183.722C98.2116 183.722 98.6269 184.137 98.6269 184.649Z" fill="#001946"/>
<path d="M115.321 194.189C115.321 194.701 114.906 195.116 114.393 195.116C113.881 195.116 113.466 194.701 113.466 194.189C113.466 193.676 113.881 193.261 114.393 193.261C114.906 193.261 115.321 193.676 115.321 194.189Z" fill="#001946"/>
<path d="M105.781 194.189C105.781 194.701 105.366 195.116 104.854 195.116C104.342 195.116 103.927 194.701 103.927 194.189C103.927 193.676 104.342 193.261 104.854 193.261C105.366 193.261 105.781 193.676 105.781 194.189Z" fill="#001946"/>
<path d="M115.321 187.034C115.321 187.546 114.906 187.961 114.393 187.961C113.881 187.961 113.466 187.546 113.466 187.034C113.466 186.522 113.881 186.107 114.393 186.107C114.906 186.107 115.321 186.522 115.321 187.034Z" fill="#001946"/>
<path d="M98.6269 187.034C98.6269 187.546 98.2116 187.961 97.6994 187.961C97.1872 187.961 96.772 187.546 96.772 187.034C96.772 186.522 97.1872 186.107 97.6994 186.107C98.2116 186.107 98.6269 186.522 98.6269 187.034Z" fill="#001946"/>
<path d="M108.166 177.495C108.166 178.007 107.751 178.422 107.239 178.422C106.727 178.422 106.311 178.007 106.311 177.495C106.311 176.982 106.727 176.567 107.239 176.567C107.751 176.567 108.166 176.982 108.166 177.495Z" fill="#001946"/>
<path d="M108.166 179.879C108.166 180.392 107.751 180.807 107.239 180.807C106.727 180.807 106.311 180.392 106.311 179.879C106.311 179.367 106.727 178.952 107.239 178.952C107.751 178.952 108.166 179.367 108.166 179.879Z" fill="#001946"/>
<path d="M108.166 184.649C108.166 185.161 107.751 185.577 107.239 185.577C106.727 185.577 106.311 185.161 106.311 184.649C106.311 184.137 106.727 183.722 107.239 183.722C107.751 183.722 108.166 184.137 108.166 184.649Z" fill="#001946"/>
<path d="M108.166 187.034C108.166 187.546 107.751 187.961 107.239 187.961C106.727 187.961 106.311 187.546 106.311 187.034C106.311 186.522 106.727 186.107 107.239 186.107C107.751 186.107 108.166 186.522 108.166 187.034Z" fill="#001946"/>
<path d="M117.706 179.879C117.706 180.392 117.29 180.807 116.778 180.807C116.266 180.807 115.851 180.392 115.851 179.879C115.851 179.367 116.266 178.952 116.778 178.952C117.29 178.952 117.706 179.367 117.706 179.879Z" fill="#001946"/>
<path d="M101.012 179.879C101.012 180.392 100.596 180.807 100.084 180.807C99.572 180.807 99.1568 180.392 99.1568 179.879C99.1568 179.367 99.572 178.952 100.084 178.952C100.596 178.952 101.012 179.367 101.012 179.879Z" fill="#001946"/>
<path d="M108.166 189.419C108.166 189.931 107.751 190.346 107.239 190.346C106.727 190.346 106.311 189.931 106.311 189.419C106.311 188.907 106.727 188.491 107.239 188.491C107.751 188.491 108.166 188.907 108.166 189.419Z" fill="#001946"/>
<path d="M117.706 191.804C117.706 192.316 117.29 192.731 116.778 192.731C116.266 192.731 115.851 192.316 115.851 191.804C115.851 191.292 116.266 190.876 116.778 190.876C117.29 190.876 117.706 191.292 117.706 191.804Z" fill="#001946"/>
<path d="M108.166 191.804C108.166 192.316 107.751 192.731 107.239 192.731C106.727 192.731 106.311 192.316 106.311 191.804C106.311 191.292 106.727 190.876 107.239 190.876C107.751 190.876 108.166 191.292 108.166 191.804Z" fill="#001946"/>
<path d="M117.706 194.189C117.706 194.701 117.29 195.116 116.778 195.116C116.266 195.116 115.851 194.701 115.851 194.189C115.851 193.676 116.266 193.261 116.778 193.261C117.29 193.261 117.706 193.676 117.706 194.189Z" fill="#001946"/>
<path d="M117.706 187.034C117.706 187.546 117.29 187.961 116.778 187.961C116.266 187.961 115.851 187.546 115.851 187.034C115.851 186.522 116.266 186.107 116.778 186.107C117.29 186.107 117.706 186.522 117.706 187.034Z" fill="#001946"/>
<path d="M101.012 187.034C101.012 187.546 100.596 187.961 100.084 187.961C99.572 187.961 99.1568 187.546 99.1568 187.034C99.1568 186.522 99.572 186.107 100.084 186.107C100.596 186.107 101.012 186.522 101.012 187.034Z" fill="#001946"/>
<path d="M110.551 175.11C110.551 175.622 110.136 176.037 109.624 176.037C109.111 176.037 108.696 175.622 108.696 175.11C108.696 174.597 109.111 174.182 109.624 174.182C110.136 174.182 110.551 174.597 110.551 175.11Z" fill="#001946"/>
<path d="M110.551 177.495C110.551 178.007 110.136 178.422 109.624 178.422C109.111 178.422 108.696 178.007 108.696 177.495C108.696 176.982 109.111 176.567 109.624 176.567C110.136 176.567 110.551 176.982 110.551 177.495Z" fill="#001946"/>
<path d="M110.551 182.264C110.551 182.776 110.136 183.192 109.624 183.192C109.111 183.192 108.696 182.776 108.696 182.264C108.696 181.752 109.111 181.337 109.624 181.337C110.136 181.337 110.551 181.752 110.551 182.264Z" fill="#001946"/>
<path d="M110.551 184.649C110.551 185.161 110.136 185.577 109.624 185.577C109.111 185.577 108.696 185.161 108.696 184.649C108.696 184.137 109.111 183.722 109.624 183.722C110.136 183.722 110.551 184.137 110.551 184.649Z" fill="#001946"/>
<path d="M120.09 179.879C120.09 180.392 119.675 180.807 119.163 180.807C118.651 180.807 118.236 180.392 118.236 179.879C118.236 179.367 118.651 178.952 119.163 178.952C119.675 178.952 120.09 179.367 120.09 179.879Z" fill="#001946"/>
<path d="M103.397 179.879C103.397 180.392 102.981 180.807 102.469 180.807C101.957 180.807 101.542 180.392 101.542 179.879C101.542 179.367 101.957 178.952 102.469 178.952C102.981 178.952 103.397 179.367 103.397 179.879Z" fill="#001946"/>
<path d="M110.551 189.419C110.551 189.931 110.136 190.346 109.624 190.346C109.111 190.346 108.696 189.931 108.696 189.419C108.696 188.907 109.111 188.491 109.624 188.491C110.136 188.491 110.551 188.907 110.551 189.419Z" fill="#001946"/>
<path d="M120.09 182.264C120.09 182.776 119.675 183.192 119.163 183.192C118.651 183.192 118.236 182.776 118.236 182.264C118.236 181.752 118.651 181.337 119.163 181.337C119.675 181.337 120.09 181.752 120.09 182.264Z" fill="#001946"/>
<path d="M103.397 182.264C103.397 182.776 102.981 183.192 102.469 183.192C101.957 183.192 101.542 182.776 101.542 182.264C101.542 181.752 101.957 181.337 102.469 181.337C102.981 181.337 103.397 181.752 103.397 182.264Z" fill="#001946"/>
<path d="M120.09 191.804C120.09 192.316 119.675 192.731 119.163 192.731C118.651 192.731 118.236 192.316 118.236 191.804C118.236 191.292 118.651 190.876 119.163 190.876C119.675 190.876 120.09 191.292 120.09 191.804Z" fill="#001946"/>
<path d="M120.09 184.649C120.09 185.161 119.675 185.577 119.163 185.577C118.651 185.577 118.236 185.161 118.236 184.649C118.236 184.137 118.651 183.722 119.163 183.722C119.675 183.722 120.09 184.137 120.09 184.649Z" fill="#001946"/>
<path d="M103.397 184.649C103.397 185.161 102.981 185.577 102.469 185.577C101.957 185.577 101.542 185.161 101.542 184.649C101.542 184.137 101.957 183.722 102.469 183.722C102.981 183.722 103.397 184.137 103.397 184.649Z" fill="#001946"/>
<path d="M120.09 194.189C120.09 194.701 119.675 195.116 119.163 195.116C118.651 195.116 118.236 194.701 118.236 194.189C118.236 193.676 118.651 193.261 119.163 193.261C119.675 193.261 120.09 193.676 120.09 194.189Z" fill="#001946"/>
<path d="M110.551 194.189C110.551 194.701 110.136 195.116 109.624 195.116C109.111 195.116 108.696 194.701 108.696 194.189C108.696 193.676 109.111 193.261 109.624 193.261C110.136 193.261 110.551 193.676 110.551 194.189Z" fill="#001946"/>
<path d="M120.09 187.034C120.09 187.546 119.675 187.961 119.163 187.961C118.651 187.961 118.236 187.546 118.236 187.034C118.236 186.522 118.651 186.107 119.163 186.107C119.675 186.107 120.09 186.522 120.09 187.034Z" fill="#001946"/>
<path d="M103.397 187.034C103.397 187.546 102.981 187.961 102.469 187.961C101.957 187.961 101.542 187.546 101.542 187.034C101.542 186.522 101.957 186.107 102.469 186.107C102.981 186.107 103.397 186.522 103.397 187.034Z" fill="#001946"/>
<path d="M112.936 172.725C112.936 173.237 112.521 173.652 112.008 173.652C111.496 173.652 111.081 173.237 111.081 172.725C111.081 172.213 111.496 171.797 112.008 171.797C112.521 171.797 112.936 172.213 112.936 172.725Z" fill="#001946"/>
<path d="M112.936 175.11C112.936 175.622 112.521 176.037 112.008 176.037C111.496 176.037 111.081 175.622 111.081 175.11C111.081 174.597 111.496 174.182 112.008 174.182C112.521 174.182 112.936 174.597 112.936 175.11Z" fill="#001946"/>
<path d="M112.936 177.495C112.936 178.007 112.521 178.422 112.008 178.422C111.496 178.422 111.081 178.007 111.081 177.495C111.081 176.982 111.496 176.567 112.008 176.567C112.521 176.567 112.936 176.982 112.936 177.495Z" fill="#001946"/>
<path d="M112.936 179.879C112.936 180.392 112.521 180.807 112.008 180.807C111.496 180.807 111.081 180.392 111.081 179.879C111.081 179.367 111.496 178.952 112.008 178.952C112.521 178.952 112.936 179.367 112.936 179.879Z" fill="#001946"/>
<path d="M112.936 182.264C112.936 182.776 112.521 183.192 112.008 183.192C111.496 183.192 111.081 182.776 111.081 182.264C111.081 181.752 111.496 181.337 112.008 181.337C112.521 181.337 112.936 181.752 112.936 182.264Z" fill="#001946"/>
<path d="M112.936 187.034C112.936 187.546 112.521 187.961 112.008 187.961C111.496 187.961 111.081 187.546 111.081 187.034C111.081 186.522 111.496 186.107 112.008 186.107C112.521 186.107 112.936 186.522 112.936 187.034Z" fill="#001946"/>
<path d="M112.936 191.804C112.936 192.316 112.521 192.731 112.008 192.731C111.496 192.731 111.081 192.316 111.081 191.804C111.081 191.292 111.496 190.876 112.008 190.876C112.521 190.876 112.936 191.292 112.936 191.804Z" fill="#001946"/>
<path d="M112.936 194.189C112.936 194.701 112.521 195.116 112.008 195.116C111.496 195.116 111.081 194.701 111.081 194.189C111.081 193.676 111.496 193.261 112.008 193.261C112.521 193.261 112.936 193.676 112.936 194.189Z" fill="#001946"/>
<path d="M98.8918 174.447C98.8918 174.155 99.1291 173.917 99.4218 173.917H100.482C100.774 173.917 101.012 174.155 101.012 174.447V175.507C101.012 175.8 100.774 176.037 100.482 176.037H99.4218C99.1291 176.037 98.8918 175.8 98.8918 175.507V174.447Z" fill="#001946"/>
<path fill-rule="evenodd" clip-rule="evenodd" d="M97.3019 171.797C97.0092 171.797 96.772 172.035 96.772 172.327V177.627C96.772 177.92 97.0092 178.157 97.3019 178.157H102.602C102.894 178.157 103.132 177.92 103.132 177.627V172.327C103.132 172.035 102.894 171.797 102.602 171.797H97.3019ZM101.277 173.122H98.6269C98.3342 173.122 98.0969 173.36 98.0969 173.652V176.302C98.0969 176.595 98.3342 176.832 98.6269 176.832H101.277C101.569 176.832 101.807 176.595 101.807 176.302V173.652C101.807 173.36 101.569 173.122 101.277 173.122ZM99.4218 173.917H100.482C100.774 173.917 101.012 174.155 101.012 174.447V175.507C101.012 175.8 100.774 176.037 100.482 176.037H99.4218C99.1291 176.037 98.8918 175.8 98.8918 175.507V174.447C98.8918 174.155 99.1291 173.917 99.4218 173.917Z" fill="#001946"/>
<path fill-rule="evenodd" clip-rule="evenodd" d="M114.261 171.797C113.968 171.797 113.731 172.035 113.731 172.327V177.627C113.731 177.92 113.968 178.157 114.261 178.157H119.56C119.853 178.157 120.09 177.92 120.09 177.627V172.327C120.09 172.035 119.853 171.797 119.56 171.797H114.261ZM118.236 173.122H115.586C115.293 173.122 115.056 173.36 115.056 173.652V176.302C115.056 176.595 115.293 176.832 115.586 176.832H118.236C118.528 176.832 118.766 176.595 118.766 176.302V173.652C118.766 173.36 118.528 173.122 118.236 173.122ZM116.381 173.917H117.441C117.733 173.917 117.971 174.155 117.971 174.447V175.507C117.971 175.8 117.733 176.037 117.441 176.037H116.381C116.088 176.037 115.851 175.8 115.851 175.507V174.447C115.851 174.155 116.088 173.917 116.381 173.917Z" fill="#001946"/>
<path fill-rule="evenodd" clip-rule="evenodd" d="M97.3019 188.756C97.0092 188.756 96.772 188.994 96.772 189.286V194.586C96.772 194.879 97.0092 195.116 97.3019 195.116H102.602C102.894 195.116 103.132 194.879 103.132 194.586V189.286C103.132 188.994 102.894 188.756 102.602 188.756H97.3019ZM101.277 190.081H98.6269C98.3342 190.081 98.0969 190.319 98.0969 190.611V193.261C98.0969 193.554 98.3342 193.791 98.6269 193.791H101.277C101.569 193.791 101.807 193.554 101.807 193.261V190.611C101.807 190.319 101.569 190.081 101.277 190.081ZM99.4218 190.876H100.482C100.774 190.876 101.012 191.114 101.012 191.406V192.466C101.012 192.759 100.774 192.996 100.482 192.996H99.4218C99.1291 192.996 98.8918 192.759 98.8918 192.466V191.406C98.8918 191.114 99.1291 190.876 99.4218 190.876Z" fill="#001946"/>
<defs>
<filter id="filter0_d_2748_113421" x="24.626" y="165.476" width="31.981" height="31.981" filterUnits="userSpaceOnUse" color-interpolation-filters="sRGB">
<feFlood flood-opacity="0" result="BackgroundImageFix"/>
<feColorMatrix in="SourceAlpha" type="matrix" values="0 0 0 0 0 0 0 0 0 0 0 0 0 0 0 0 0 0 127 0" result="hardAlpha"/>
<feOffset dx="-2" dy="2"/>
<feComposite in2="hardAlpha" operator="out"/>
<feColorMatrix type="matrix" values="0 0 0 0 0 0 0 0 0 0.0980392 0 0 0 0 0.27451 0 0 0 1 0"/>
<feBlend mode="normal" in2="BackgroundImageFix" result="effect1_dropShadow_2748_113421"/>
<feBlend mode="normal" in="SourceGraphic" in2="effect1_dropShadow_2748_113421" result="shape"/>
</filter>
<filter id="filter1_d_2748_113421" x="200.312" y="168.727" width="19.5601" height="19.5605" filterUnits="userSpaceOnUse" color-interpolation-filters="sRGB">
<feFlood flood-opacity="0" result="BackgroundImageFix"/>
<feColorMatrix in="SourceAlpha" type="matrix" values="0 0 0 0 0 0 0 0 0 0 0 0 0 0 0 0 0 0 127 0" result="hardAlpha"/>
<feOffset dx="-2" dy="2"/>
<feComposite in2="hardAlpha" operator="out"/>
<feColorMatrix type="matrix" values="0 0 0 0 0 0 0 0 0 0.0980392 0 0 0 0 0.27451 0 0 0 1 0"/>
<feBlend mode="normal" in2="BackgroundImageFix" result="effect1_dropShadow_2748_113421"/>
<feBlend mode="normal" in="SourceGraphic" in2="effect1_dropShadow_2748_113421" result="shape"/>
</filter>
<filter id="filter2_d_2748_113421" x="91.4409" y="168.466" width="31.981" height="31.981" filterUnits="userSpaceOnUse" color-interpolation-filters="sRGB">
<feFlood flood-opacity="0" result="BackgroundImageFix"/>
<feColorMatrix in="SourceAlpha" type="matrix" values="0 0 0 0 0 0 0 0 0 0 0 0 0 0 0 0 0 0 127 0" result="hardAlpha"/>
<feOffset dx="-2" dy="2"/>
<feComposite in2="hardAlpha" operator="out"/>
<feColorMatrix type="matrix" values="0 0 0 0 0 0 0 0 0 0.0980392 0 0 0 0 0.27451 0 0 0 1 0"/>
<feBlend mode="normal" in2="BackgroundImageFix" result="effect1_dropShadow_2748_113421"/>
<feBlend mode="normal" in="SourceGraphic" in2="effect1_dropShadow_2748_113421" result="shape"/>
</filter>
</defs>
</svg>
