<svg width="40" height="40" viewBox="0 0 40 40" fill="none" xmlns="http://www.w3.org/2000/svg">
<g id="ctsm-qr-bulk">
<g id="icon">
<path d="M9.99967 5.55523H9.25893C8.83918 5.55523 8.48733 5.69721 8.20338 5.98116C7.91943 6.26511 7.77745 6.61696 7.77745 7.03671V12.9626C7.77745 13.3824 7.91943 13.7342 8.20338 14.0182C8.48733 14.3021 8.83918 14.4441 9.25893 14.4441H9.99967V12.2219V5.55523Z" fill="currentColor"/>
<path d="M9.99967 12.2219H7.77745V25.5552H9.99967V12.2219Z" fill="currentColor"/>
<path d="M9.99967 23.333H9.25893C8.83918 23.333 8.48733 23.475 8.20338 23.7589C7.91943 24.0429 7.77745 24.3947 7.77745 24.8145V30.7404C7.77745 31.1602 7.91943 31.512 8.20338 31.796C8.48733 32.0799 8.83918 32.2219 9.25893 32.2219H15.1849C15.6046 32.2219 15.9565 32.0799 16.2404 31.796C16.5244 31.512 16.6663 31.1602 16.6663 30.7404V29.9997H14.4441H9.99967V25.5552V23.333Z" fill="currentColor"/>
<path d="M14.4441 29.9997V32.2219H27.7775V29.9997H14.4441Z" fill="currentColor"/>
<path d="M26.6663 29.9997V32.2219H34.4441V29.9997H26.6663Z" fill="currentColor"/>
<path d="M5.55523 9.99967H4.81449C4.39474 9.99967 4.04288 10.1416 3.75893 10.4256C3.47498 10.7096 3.33301 11.0614 3.33301 11.4812V17.4071C3.33301 17.8268 3.47498 18.1787 3.75893 18.4626C4.04288 18.7466 4.39474 18.8886 4.81449 18.8886H5.55523V16.6663V9.99967Z" fill="currentColor"/>
<path d="M5.55523 16.6663H3.33301L3.33301 31.1108H5.55523V16.6663Z" fill="currentColor"/>
<path d="M5.55523 27.7775H4.81449C4.39474 27.7775 4.04288 27.9194 3.75893 28.2034C3.47498 28.4873 3.33301 28.8392 3.33301 29.2589V35.1849C3.33301 35.6046 3.47498 35.9565 3.75893 36.2404C4.04288 36.5244 4.39474 36.6663 4.81449 36.6663H10.7404C11.1602 36.6663 11.512 36.5244 11.796 36.2404C12.0799 35.9565 12.2219 35.6046 12.2219 35.1849V34.4441H9.99967H5.55523V27.7775Z" fill="currentColor"/>
<path d="M9.99967 34.4441V36.6663H22.2219V34.4441H9.99967Z" fill="currentColor"/>
<path d="M22.2219 34.4441V36.6663H29.9997V34.4441H22.2219Z" fill="currentColor"/>
<path d="M21.6542 14.4441V17.4071H24.0738V14.4441H21.6542Z" fill="currentColor"/>
<path fill-rule="evenodd" clip-rule="evenodd" d="M12.2219 14.4441V17.4071H15.1849V14.4441H12.2219ZM18.8886 9.99967H14.4441V5.55523H18.8886V9.99967ZM12.6478 11.796C12.9318 12.0799 13.2836 12.2219 13.7034 12.2219H19.6293C20.0491 12.2219 20.4009 12.0799 20.6849 11.796C20.9688 11.512 21.1108 11.1602 21.1108 10.7404V4.81449C21.1108 4.39474 20.9688 4.04288 20.6849 3.75893C20.4009 3.47498 20.0491 3.33301 19.6293 3.33301H13.7034C13.2836 3.33301 12.9318 3.47498 12.6478 3.75893C12.3639 4.04288 12.2219 4.39474 12.2219 4.81449V10.7404C12.2219 11.1602 12.3639 11.512 12.6478 11.796ZM18.8886 25.5552H14.4441V21.1108H18.8886V25.5552ZM12.6478 27.3515C12.9318 27.6355 13.2836 27.7775 13.7034 27.7775H19.6293C20.0491 27.7775 20.4009 27.6355 20.6849 27.3515C20.9688 27.0676 21.1108 26.7157 21.1108 26.296V20.37C21.1108 19.9503 20.9688 19.5984 20.6849 19.3145C20.4009 19.0305 20.0491 18.8886 19.6293 18.8886H13.7034C13.2836 18.8886 12.9318 19.0305 12.6478 19.3145C12.3639 19.5984 12.2219 19.9503 12.2219 20.37V26.296C12.2219 26.7157 12.3639 27.0676 12.6478 27.3515ZM34.4441 9.99967H29.9997V5.55523H34.4441V9.99967ZM28.2034 11.796C28.4873 12.0799 28.8392 12.2219 29.2589 12.2219H35.1849C35.6046 12.2219 35.9565 12.0799 36.2404 11.796C36.5244 11.512 36.6663 11.1602 36.6663 10.7404V4.81449C36.6663 4.39474 36.5244 4.04288 36.2404 3.75893C35.9565 3.47498 35.6046 3.33301 35.1849 3.33301H29.2589C28.8392 3.33301 28.4873 3.47498 28.2034 3.75893C27.9194 4.04288 27.7775 4.39474 27.7775 4.81449V10.7404C27.7775 11.1602 27.9194 11.512 28.2034 11.796ZM15.5552 6.66634V8.88856H17.7775V6.66634H15.5552ZM15.5552 22.2219V24.4441H17.7775V22.2219H15.5552ZM31.1108 6.66634V8.88856H33.333V6.66634H31.1108Z" fill="currentColor"/>
<path d="M16.6663 14.4441V17.4071H21.6542V14.4441H16.6663Z" fill="currentColor"/>
<path d="M22.5923 12.2219V6.29597H25.5552V12.2219H22.5923Z" fill="currentColor"/>
<path d="M31.8515 27.7775V23.333H28.8886V20.37H34.8145V24.8145H36.6663V27.7775H31.8515Z" fill="currentColor"/>
<path d="M27.0367 14.4441V17.4071H29.9997V14.4441H27.0367Z" fill="currentColor"/>
<path d="M36.6663 14.4441V17.4071H32.2219V14.4441H36.6663Z" fill="currentColor"/>
<path d="M27.0367 17.4071H24.0738V23.333H27.0367V17.4071Z" fill="currentColor"/>
<path d="M24.0738 27.7775V24.8145H29.9997V27.7775H24.0738Z" fill="currentColor"/>
</g>
</g>
</svg>
