<svg width="46" height="53" viewBox="0 0 46 53" fill="none" xmlns="http://www.w3.org/2000/svg">
<path id="Vector 1181" d="M31.7078 2L35.024 4.39644L35.4413 0.326327L31.7078 2ZM2.44947 52.6414C2.64508 52.6357 2.79907 52.4726 2.79342 52.277C2.78777 52.0814 2.62461 51.9274 2.429 51.933L2.44947 52.6414ZM7.19447 51.6491C6.99959 51.667 6.85611 51.8395 6.87399 52.0343C6.89187 52.2292 7.06434 52.3727 7.25921 52.3548L7.19447 51.6491ZM12.0412 51.7471C12.2343 51.7153 12.3651 51.5331 12.3334 51.34C12.3016 51.1469 12.1193 51.0161 11.9262 51.0478L12.0412 51.7471ZM16.5899 50.0889C16.4 50.1363 16.2845 50.3286 16.3319 50.5185C16.3792 50.7083 16.5715 50.8238 16.7614 50.7765L16.5899 50.0889ZM21.3718 49.4006C21.5564 49.3358 21.6535 49.1336 21.5887 48.9489C21.5239 48.7643 21.3217 48.6671 21.1371 48.7319L21.3718 49.4006ZM25.554 46.9174C25.3773 47.0015 25.3023 47.2129 25.3864 47.3896C25.4705 47.5663 25.6819 47.6414 25.8586 47.5573L25.554 46.9174ZM30.0958 45.2254C30.2612 45.1208 30.3104 44.9019 30.2058 44.7365C30.1011 44.5711 29.8822 44.5219 29.7169 44.6265L30.0958 45.2254ZM33.5534 41.8315C33.4034 41.9571 33.3836 42.1806 33.5093 42.3306C33.6349 42.4807 33.8584 42.5004 34.0084 42.3748L33.5534 41.8315ZM37.4883 39.0106C37.6187 38.8647 37.6061 38.6407 37.4602 38.5103C37.3143 38.3799 37.0903 38.3925 36.9599 38.5384L37.4883 39.0106ZM39.8443 34.769C39.7378 34.9331 39.7844 35.1525 39.9486 35.2591C40.1127 35.3656 40.3321 35.319 40.4387 35.1548L39.8443 34.769ZM42.7497 30.8896C42.8288 30.7106 42.7479 30.5014 42.5689 30.4222C42.3899 30.3431 42.1807 30.424 42.1016 30.603L42.7497 30.8896ZM43.657 26.1297C43.6082 26.3192 43.7223 26.5124 43.9118 26.5612C44.1013 26.61 44.2945 26.4959 44.3433 26.3064L43.657 26.1297ZM45.1508 21.5186C45.1665 21.3235 45.0212 21.1526 44.8261 21.1368C44.6311 21.1211 44.4602 21.2664 44.4444 21.4615L45.1508 21.5186ZM44.3954 16.733C44.4158 16.9276 44.5902 17.0688 44.7848 17.0484C44.9794 17.028 45.1206 16.8537 45.1002 16.659L44.3954 16.733ZM44.0963 11.9C44.0352 11.7141 43.835 11.6129 43.6491 11.674C43.4632 11.7351 43.362 11.9354 43.4231 12.1213L44.0963 11.9ZM41.4031 7.88328C41.511 8.04654 41.7308 8.09141 41.8941 7.98351C42.0573 7.87561 42.1022 7.6558 41.9943 7.49254L41.4031 7.88328ZM38.6488 3.91725C38.4912 3.80125 38.2694 3.83498 38.1534 3.99258C38.0374 4.15019 38.0711 4.37199 38.2287 4.48799L38.6488 3.91725ZM34.0256 2.59184C34.2171 2.63218 34.405 2.50964 34.4454 2.31815C34.4857 2.12666 34.3632 1.93873 34.1717 1.8984L34.0256 2.59184ZM0 52.6764C0.829501 52.6764 1.64595 52.6646 2.44947 52.6414L2.429 51.933C1.63241 51.9561 0.822789 51.9677 0 51.9677V52.6764ZM7.25921 52.3548C8.91417 52.203 10.5077 51.9991 12.0412 51.7471L11.9262 51.0478C10.4099 51.297 8.83317 51.4988 7.19447 51.6491L7.25921 52.3548ZM16.7614 50.7765C18.3745 50.374 19.9105 49.9135 21.3718 49.4006L21.1371 48.7319C19.6972 49.2373 18.1822 49.6916 16.5899 50.0889L16.7614 50.7765ZM25.8586 47.5573C27.3676 46.839 28.7789 46.0587 30.0958 45.2254L29.7169 44.6265C28.4244 45.4444 27.038 46.211 25.554 46.9174L25.8586 47.5573ZM34.0084 42.3748C35.2856 41.3052 36.4439 40.1793 37.4883 39.0106L36.9599 38.5384C35.9383 39.6815 34.8046 40.7837 33.5534 41.8315L34.0084 42.3748ZM40.4387 35.1548C41.343 33.762 42.1109 32.3339 42.7497 30.8896L42.1016 30.603C41.4779 32.0131 40.7279 33.408 39.8443 34.769L40.4387 35.1548ZM44.3433 26.3064C44.7576 24.6973 45.0236 23.0928 45.1508 21.5186L44.4444 21.4615C44.3205 22.9953 44.0613 24.5598 43.657 26.1297L44.3433 26.3064ZM45.1002 16.659C44.9249 14.9887 44.5859 13.39 44.0963 11.9L43.4231 12.1213C43.8961 13.5608 44.2251 15.11 44.3954 16.733L45.1002 16.659ZM41.9943 7.49254C41.06 6.07889 39.9381 4.86619 38.6488 3.91725L38.2287 4.48799C39.4438 5.38228 40.5097 6.53152 41.4031 7.88328L41.9943 7.49254Z" fill="#395BA9"/>
</svg>
