<svg width="40" height="40" viewBox="0 0 40 40" fill="none" xmlns="http://www.w3.org/2000/svg">
<g id="digital-press-printer">
<g clip-path="url(#clip0_2609_27523)">
<path id="Rectangle 1959" d="M0 0C0 0 37.0833 5.66244e-06 40 0C40 11.1111 40 28.8889 40 40C31.6667 40 7.3846 40 0 40C0 33.1368 0 8.33333 0 0Z" fill="#A8C8FF"/>
<rect id="Rectangle 1898" y="20.417" width="40" height="19.5833" fill="#395BA9"/>
<path id="Rectangle 1952" d="M16.5667 29.1508L19.8851 14.3025L39.2748 23.1893V38.3932L16.5667 29.1508Z" fill="#1C438F" stroke="white" stroke-width="0.2"/>
<g id="Vector 865">
<path d="M4.60417 14.2281L25.6496 16.1306L27.9793 14.1253L7.58823 12.917L6.35796 13.4575L4.60417 14.2281Z" fill="#DAE2FF"/>
<path d="M2.16982 14.0225L4.60417 14.2281L6.35796 13.4575L3.97595 13.3026L2.16982 14.0225Z" fill="#DAE2FF"/>
<path d="M5.52033 16.5162L5.20622 14.7423L4.60417 14.6652V14.2281L2.16982 14.0225L2.98127 18.47C3.63043 17.7296 4.94446 17.0303 5.52033 16.7733V16.5162Z" fill="#DAE2FF"/>
<path d="M5.20622 14.7423L5.52033 16.5162L25.6496 19.9611L25.3355 16.9789L5.20622 14.7423Z" fill="#89A9FC"/>
<path d="M5.20622 14.7423L25.3355 16.9789L25.6496 16.1306L4.60417 14.2281V14.6652L5.20622 14.7423Z" fill="#B1C5FF"/>
<path d="M25.6496 19.9611L5.52033 16.5162V16.7733C4.94446 17.0303 3.63043 17.7296 2.98127 18.47C1.95321 19.704 0.368913 23.5397 0.389854 25.2056L18.8439 33.8694C20.2678 28.1313 22.2991 21.4522 26.0422 20.6295L26.0946 20.1411L25.6496 19.9611Z" fill="#6E8EDF"/>
<path d="M32.56 14.4338L28.2148 16.3362C31.0767 16.5933 37.2036 17.4108 38.1879 17.3903C39.1721 17.3697 37.7227 17.5445 40 16.9789V15.0003L32.56 14.4338Z" fill="#DAE2FF"/>
<path d="M28.2148 16.3362L28.5551 20.6295C30.8586 21.0494 35.8634 21.9201 37.4549 22.0435C39.0464 22.1669 37.8885 22.0606 40 21.6579V16.9789C37.7227 17.5445 39.1721 17.3697 38.1879 17.3903C37.2036 17.4108 31.0767 16.5933 28.2148 16.3362Z" fill="#B1C5FF"/>
<path d="M31.4868 13.354L28.2148 16.3362L32.56 14.4338L31.4868 13.354Z" fill="#B1C5FF"/>
<path d="M27.9793 14.1253L25.6496 16.1306L28.2148 16.3362L31.4868 13.354L29.1833 12.9941L27.9793 14.1253Z" fill="#89A9FC"/>
<path d="M25.3355 16.9789L25.6496 19.9611L26.0946 20.1411L28.5551 20.6295L28.2148 16.3362L25.6496 16.1306L25.3355 16.9789Z" fill="#89A9FC"/>
<path d="M26.0946 20.1411L26.0422 20.6295V20.938C29.6545 21.5722 36.9681 22.8405 37.3241 22.8405C37.769 22.8405 40 22.7087 40 22.7087C40 22.7087 40 22.292 40 21.6579C37.8885 22.0606 39.0464 22.1669 37.4549 22.0435C35.8634 21.9201 30.8586 21.0494 28.5551 20.6295L26.0946 20.1411Z" fill="#89A9FC"/>
<path d="M37.3241 22.8405C36.9681 22.8405 29.6545 21.5722 26.0422 20.938C25.8677 20.9552 25.5187 21.1746 25.5187 21.915C25.5187 22.6554 25.4489 26.0455 25.414 27.6479L36.8267 31.0929L37.3241 22.8405Z" fill="#B1C5FF"/>
<path d="M40 22.7087C40 22.7087 37.769 22.8405 37.3241 22.8405L36.8267 31.0929L40 30.0003V22.7087Z" fill="#B1C5FF"/>
<path d="M5.52033 16.5162L5.20622 14.7423M5.52033 16.5162L25.6496 19.9611M5.52033 16.5162V16.7733C4.94446 17.0303 3.63043 17.7296 2.98127 18.47M5.20622 14.7423L25.3355 16.9789M5.20622 14.7423L4.60417 14.6652V14.2281M25.3355 16.9789L25.6496 19.9611M25.3355 16.9789L25.6496 16.1306M25.6496 19.9611L26.0946 20.1411M4.60417 14.2281L25.6496 16.1306M4.60417 14.2281L2.16982 14.0225M4.60417 14.2281L6.35796 13.4575M25.6496 16.1306L27.9793 14.1253M25.6496 16.1306L28.2148 16.3362M27.9793 14.1253L7.58823 12.917L6.35796 13.4575M27.9793 14.1253L29.1833 12.9941L31.4868 13.354M2.16982 14.0225L3.97595 13.3026L6.35796 13.4575M2.16982 14.0225L2.98127 18.47M2.98127 18.47C1.95321 19.704 0.368913 23.5397 0.389854 25.2056L18.8439 33.8694C20.2678 28.1313 22.2991 21.4522 26.0422 20.6295M26.0946 20.1411L26.0422 20.6295M26.0946 20.1411L28.5551 20.6295M26.0422 20.6295V20.938M28.2148 16.3362L28.5551 20.6295M28.2148 16.3362L31.4868 13.354M28.2148 16.3362L32.56 14.4338M28.2148 16.3362C31.0767 16.5933 37.2036 17.4108 38.1879 17.3903C39.1721 17.3697 37.7227 17.5445 40 16.9789M28.5551 20.6295C30.8586 21.0494 35.8634 21.9201 37.4549 22.0435C39.0464 22.1669 37.8885 22.0606 40 21.6579M31.4868 13.354L32.56 14.4338M32.56 14.4338L40 15.0003V16.9789M40 16.9789V21.6579M26.0422 20.938C29.6545 21.5722 36.9681 22.8405 37.3241 22.8405M26.0422 20.938C25.8677 20.9552 25.5187 21.1746 25.5187 21.915C25.5187 22.6554 25.4489 26.0455 25.414 27.6479L36.8267 31.0929M37.3241 22.8405C37.769 22.8405 40 22.7087 40 22.7087M37.3241 22.8405L36.8267 31.0929M40 22.7087C40 22.7087 40 22.292 40 21.6579M40 22.7087V30.0003L36.8267 31.0929" stroke="white" stroke-width="0.2"/>
</g>
<g id="Vector 866">
<path d="M3.98632 19.3724C2.78223 21.1463 1.23725 24.695 1.69794 26.546L6.65682 29.3193C6.21707 27.2009 8.41155 22.9366 9.53712 20.8542L3.98632 19.3724Z" fill="#F04650"/>
<path d="M11.0699 21.8822C9.83959 24.0846 7.84083 28.1177 8.53187 30.0921L15.7385 33.7722C15.7385 30.5239 16.9046 27.1728 18.9832 23.7884L11.0699 21.8822Z" fill="#F04650"/>
<path d="M11.6576 20.8542L19.4877 22.8881C20.2468 21.1914 22.7074 19.9317 23.4141 19.481L15.0081 18.1404C14.3101 18.608 12.757 19.5431 12.469 19.7744C12.1715 20.0135 11.7972 20.5714 11.6576 20.8542Z" fill="#F04650"/>
<path d="M7.48376 16.8471C6.57633 17.2165 4.68315 17.8869 4.32716 18.7507L9.78057 20.1376C9.9289 19.8205 10.0762 19.6457 10.5109 19.1811C10.9457 18.7165 12.2911 18.1108 12.9455 17.7489L7.48376 16.8471Z" fill="#F04650"/>
<path d="M1.75124 28.0588C2.1177 30.4497 2.80875 35.2726 2.64122 35.4371L6.36637 38.8358C6.36637 37.4819 6.71012 35.6796 6.71012 34.7687C6.71012 32.9538 6.40127 31.7367 6.36637 30.6141L1.75124 28.0588Z" fill="#F04650"/>
<path d="M7.57631 31.1181C7.9166 33.8946 7.91667 38.1317 7.91667 39.9998H15.7385L15.9788 35.4371L7.57631 31.1181Z" fill="#F04650"/>
<path fill-rule="evenodd" clip-rule="evenodd" d="M16.6453 38.5992C16.6453 26.2498 22.0637 21.5631 24.3149 20.0377L24.629 19.6778L23.4141 19.481C22.7074 19.9317 20.2468 21.1914 19.4877 22.8881L11.6576 20.8542C11.7972 20.5714 12.1715 20.0135 12.469 19.7744C12.757 19.5431 14.3101 18.608 15.0081 18.1404L12.9455 17.7489C12.2911 18.1108 10.9457 18.7165 10.5109 19.1811C10.0762 19.6457 9.9289 19.8205 9.78057 20.1376L4.32716 18.7507C4.68315 17.8869 6.57633 17.2165 7.48376 16.8471L6.41055 16.6699C3.26944 17.5954 1.57673 21.7174 1.12302 23.6626C0.102157 25.8478 1.30625 31.3495 1.75124 34.7687C2.12401 36.7169 1.31182 37.5878 4.8005e-06 38.1018C-9.6156e-06 38.8358 1.43372e-05 38.8358 9.75871e-07 39.9998H16.6453C16.6453 39.9998 16.6453 39.9998 16.6453 38.5992ZM1.69794 26.546C1.23725 24.695 2.78223 21.1463 3.98632 19.3724L9.53712 20.8542C8.41155 22.9366 6.21707 27.2009 6.65682 29.3193L1.69794 26.546ZM8.53187 30.0921C7.84083 28.1177 9.83959 24.0846 11.0699 21.8822L18.9832 23.7884C16.9046 27.1728 15.7385 30.5239 15.7385 33.7722L8.53187 30.0921ZM2.64122 35.4371C2.80875 35.2726 2.1177 30.4497 1.75124 28.0588L6.36637 30.6141C6.40127 31.7367 6.71012 32.9538 6.71012 34.7687C6.71012 35.6796 6.36637 37.4819 6.36637 38.8358L2.64122 35.4371ZM7.91667 39.9998C7.91667 38.1317 7.9166 33.8946 7.57631 31.1181L15.9788 35.4371L15.7385 39.9998H7.91667Z" fill="#EEF0FF"/>
<path d="M15.0081 18.1404L23.4141 19.481M15.0081 18.1404L12.9455 17.7489M15.0081 18.1404C14.3101 18.608 12.757 19.5431 12.469 19.7744C12.1715 20.0135 11.7972 20.5714 11.6576 20.8542L19.4877 22.8881C20.2468 21.1914 22.7074 19.9317 23.4141 19.481M23.4141 19.481L24.629 19.6778L24.3149 20.0377C22.0637 21.5631 16.6453 26.2498 16.6453 38.5992C16.6453 39.9998 16.6453 39.9998 16.6453 39.9998H9.75871e-07C1.43372e-05 38.8358 -9.6156e-06 38.8358 4.8005e-06 38.1018C1.31182 37.5878 2.12401 36.7169 1.75124 34.7687C1.30625 31.3495 0.102157 25.8478 1.12302 23.6626C1.57673 21.7174 3.26944 17.5954 6.41055 16.6699L7.48376 16.8471M7.48376 16.8471C6.57633 17.2165 4.68315 17.8869 4.32716 18.7507L9.78057 20.1376C9.9289 19.8205 10.0762 19.6457 10.5109 19.1811C10.9457 18.7165 12.2911 18.1108 12.9455 17.7489M7.48376 16.8471L12.9455 17.7489M3.98632 19.3724C2.78223 21.1463 1.23725 24.695 1.69794 26.546L6.65682 29.3193C6.21707 27.2009 8.41155 22.9366 9.53712 20.8542L3.98632 19.3724ZM11.0699 21.8822C9.83959 24.0846 7.84083 28.1177 8.53187 30.0921L15.7385 33.7722C15.7385 30.5239 16.9046 27.1728 18.9832 23.7884L11.0699 21.8822ZM1.75124 28.0588C2.1177 30.4497 2.80875 35.2726 2.64122 35.4371L6.36637 38.8358C6.36637 37.4819 6.71012 35.6796 6.71012 34.7687C6.71012 32.9538 6.40127 31.7367 6.36637 30.6141L1.75124 28.0588ZM7.57631 31.1181C7.9166 33.8946 7.91667 38.1317 7.91667 39.9998H15.7385L15.9788 35.4371L7.57631 31.1181Z" stroke="white" stroke-width="0.2"/>
</g>
</g>
</g>
<defs>
<clipPath id="clip0_2609_27523">
<path d="M0 8C0 3.58172 3.58172 0 8 0H32C36.4183 0 40 3.58172 40 8V32C40 36.4183 36.4183 40 32 40H8C3.58172 40 0 36.4183 0 32V8Z" fill="white"/>
</clipPath>
</defs>
</svg>
