<svg width="24" height="24" viewBox="0 0 24 24" fill="none" xmlns="http://www.w3.org/2000/svg">
<path d="M24 12C24 18.6274 18.6274 24 12 24C5.37258 24 0 18.6274 0 12C0 5.37258 5.37258 0 12 0C18.6274 0 24 5.37258 24 12Z" fill="#DAE2FF"/>
<path d="M7.9723 16.3965C9.89 16.3965 11.4446 14.842 11.4446 12.9243C11.4446 11.0067 9.89 9.45215 7.9723 9.45215C6.0546 9.45215 4.5 11.0067 4.5 12.9243C4.5 14.842 6.0546 16.3965 7.9723 16.3965Z" fill="#526598"/>
<path d="M12.7092 16.5C15.3326 16.5 17.4593 14.3734 17.4593 11.75C17.4593 9.12665 15.3326 7 12.7092 7C10.0857 7 7.95898 9.12665 7.95898 11.75C7.95898 14.3734 10.0857 16.5 12.7092 16.5Z" fill="#526598"/>
<path d="M16.6697 15.9713C18.0827 15.9713 19.2281 14.826 19.2281 13.413C19.2281 12.0001 18.0827 10.8547 16.6697 10.8547C15.2568 10.8547 14.1113 12.0001 14.1113 13.413C14.1113 14.826 15.2568 15.9713 16.6697 15.9713Z" fill="#526598"/>
<path d="M12.7943 14.9726C14.5403 14.9726 15.9558 13.5572 15.9558 11.8113C15.9558 10.0653 14.5403 8.6499 12.7943 8.6499C11.0482 8.6499 9.63281 10.0653 9.63281 11.8113C9.63281 13.5572 11.0482 14.9726 12.7943 14.9726Z" fill="#1E325F"/>
<path d="M8.98454 14.5446C10.0439 14.5446 10.9027 13.6859 10.9027 12.6266C10.9027 11.5672 10.0439 10.7085 8.98454 10.7085C7.92519 10.7085 7.06641 11.5672 7.06641 12.6266C7.06641 13.6859 7.92519 14.5446 8.98454 14.5446Z" fill="#F04650"/>
</svg>
