<svg width="40" height="40" viewBox="0 0 40 40" fill="none" xmlns="http://www.w3.org/2000/svg">
<g id="flexo">
<g clip-path="url(#clip0_2609_27399)">
<mask id="mask0_2609_27399" style="mask-type:alpha" maskUnits="userSpaceOnUse" x="0" y="0" width="40" height="40">
<path id="Rectangle 1960" d="M0 0H40V40H0V0Z" fill="#A8C8FF"/>
</mask>
<g mask="url(#mask0_2609_27399)">
<path id="Rectangle 1961" d="M0 0C0 0 37.0833 5.60407e-06 40 0C40 10.9966 40 28.5911 40 39.5876C31.6667 39.5876 7.3846 39.5876 0 39.5876C0 32.7952 0 8.24742 0 0Z" fill="#A8C8FF"/>
<rect id="Rectangle 1898" x="-0.530273" y="21.25" width="43.3684" height="22.0833" fill="#395BA9"/>
<g id="Group 1000001022">
<g id="Vector 867">
<path d="M9.08904 25.264L16.6359 28.85C15.696 28.3255 17.3856 25.324 18.4636 25.6974L7.52572 21.1746C7.44762 21.1725 7.37236 21.1726 7.29985 21.1749C7.22075 21.1773 7.14493 21.1822 7.07227 21.1895C6.63183 21.2338 6.30767 21.3644 6.07365 21.5476C5.89276 21.6891 5.76573 21.862 5.68051 22.0506C5.47879 22.4969 5.51133 23.0308 5.61813 23.4443C5.63624 23.5144 5.6565 23.5811 5.67811 23.6433L9.08904 25.264Z" fill="#B1C5FF"/>
<path d="M18.7607 26.7946C18.9136 26.3363 18.8847 25.9272 18.5265 25.7234L18.4636 25.6974C17.3856 25.324 15.696 28.3255 16.6359 28.85C17.0175 29.063 17.8647 28.3466 18.393 27.5313C18.5512 27.2872 18.6808 27.0342 18.7607 26.7946Z" fill="#89A9FC"/>
<path d="M21.2369 25.9876L21.4615 27.8304L28.4374 23.2957L29.4279 22.6519L31.8021 21.1085L32.4983 20.6559L36.1727 18.2673L38.5878 16.6974L38.6733 15.9056L21.2369 25.9876Z" fill="#89A9FC"/>
<path d="M8.09488 20.8714L21.2369 25.9876L38.6733 15.9056L31.2221 14.4189L30.0219 14.1794L11.0937 20.0324L21.3182 23.9261L21.2858 24.2264L20.8195 24.6225L9.63667 20.1899L8.09488 20.8714Z" fill="#B1C5FF"/>
<path d="M11.0937 20.0324L9.50701 19.2983L8.66723 19.4924L20.8667 24.1856L21.3182 23.9261L11.0937 20.0324Z" fill="#DAE2FF"/>
<path d="M8.66723 19.4924L8.63482 19.7927L9.63667 20.1899L20.8195 24.6225L20.8667 24.1856L8.66723 19.4924Z" fill="#B1C5FF"/>
<path d="M20.8667 24.1856L20.8195 24.6225L21.2858 24.2264L21.3182 23.9261L20.8667 24.1856Z" fill="#B1C5FF"/>
<path d="M21.2369 25.9876L8.09488 20.8714L7.52572 21.1746L18.4636 25.6974C18.4848 25.7048 18.5058 25.7134 18.5265 25.7234C18.8847 25.9272 18.9136 26.3363 18.7607 26.7946L21.4615 27.8304L21.2369 25.9876Z" fill="#6E8EDF"/>
<path d="M21.9936 29.1791C21.5583 29.0263 20.8537 29.1208 20.608 30.5064C20.5085 31.0675 20.6313 31.3937 20.8354 31.5463L21.0503 31.6412C21.2572 31.6826 21.4907 31.6108 21.6623 31.4645C21.9756 31.1972 22.1639 30.7408 22.3067 30.2029C22.4258 29.754 22.2929 29.2841 21.9936 29.1791Z" fill="#6E8EDF"/>
<path d="M20.608 30.5064C20.8537 29.1208 21.5583 29.0263 21.9936 29.1791L18.393 27.5313C17.8647 28.3466 17.0175 29.063 16.6359 28.85L9.08904 25.264L8.97615 26.31L20.8354 31.5463C20.6313 31.3937 20.5085 31.0675 20.608 30.5064Z" fill="#89A9FC"/>
<path d="M6.07365 21.5476L5.4006 21.2433C5.19912 21.2789 4.82996 21.4029 4.96522 21.6148C5.10047 21.8266 5.49844 21.9936 5.68051 22.0506C5.76573 21.862 5.89276 21.6891 6.07365 21.5476Z" fill="#B1C5FF"/>
<path d="M5.4006 21.2433L6.07365 21.5476C6.30767 21.3644 6.63183 21.2338 7.07227 21.1895C6.74701 20.715 5.39266 20.0249 4.53585 20.8831C3.80791 21.6123 3.29932 23.2458 5.61813 23.4443C5.51133 23.0308 5.47879 22.4969 5.68051 22.0506C5.49844 21.9936 5.10047 21.8266 4.96522 21.6148C4.82996 21.4029 5.19912 21.2789 5.4006 21.2433Z" fill="#6E8EDF"/>
<path d="M4.53585 20.8831C5.39266 20.0249 6.74701 20.715 7.07227 21.1895C7.14493 21.1822 7.22075 21.1773 7.29985 21.1749C6.88996 20.6124 6.01289 19.7855 4.88922 20.2278C3.86256 20.6319 3.48332 21.3729 3.44037 22.002C3.4236 22.2476 3.4581 22.4761 3.52534 22.6609C3.52906 22.6711 3.5329 22.6812 3.53686 22.6913C3.91564 23.6519 5.38108 23.8054 5.67811 23.6433C5.6565 23.5811 5.63624 23.5144 5.61813 23.4443C3.29932 23.2458 3.80791 21.6123 4.53585 20.8831Z" fill="#89A9FC"/>
<path d="M3.52534 22.6609C3.4581 22.4761 3.4236 22.2476 3.44037 22.002L3.16853 20.0601L-4.27069 16.5207L-0.0237905 39.6975L5.99969 40.2846L3.53686 22.6913C3.5329 22.6812 3.52906 22.6711 3.52534 22.6609Z" fill="#395BA9"/>
<path d="M3.16853 20.0601L29.5811 13.1431L20.405 11.5589L-4.27069 16.5207L3.16853 20.0601Z" fill="#395BA9"/>
<path d="M7.52572 21.1746L8.09488 20.8714L9.63667 20.1899L8.63482 19.7927L8.66723 19.4924L9.50701 19.2983L11.0937 20.0324L30.0219 14.1794L31.2221 14.4189L29.5811 13.1431L3.16853 20.0601L3.44037 22.002C3.48332 21.3729 3.86256 20.6319 4.88922 20.2278C6.01289 19.7855 6.88996 20.6124 7.29985 21.1749C7.37236 21.1726 7.44762 21.1725 7.52572 21.1746Z" fill="#1C438F"/>
<path d="M35.3631 21.244L32.4983 20.6559L31.8021 21.1085L35.361 21.9197C35.6379 21.8804 35.7088 21.3396 35.3631 21.244Z" fill="#89A9FC"/>
<path fill-rule="evenodd" clip-rule="evenodd" d="M18.7607 26.7946L21.4615 27.8304L28.4374 23.2957L33.8176 25.6405C34.2618 25.8324 34.6927 25.2951 34.7588 24.914C34.7907 24.7303 34.5847 24.392 34.3158 24.3169L33.8714 24.1923L29.4279 22.6519L31.8021 21.1085L35.361 21.9197C35.6379 21.8804 35.7088 21.3396 35.3631 21.244L32.4983 20.6559L36.1727 18.2673L41.5119 22.4179L34.1081 32.6776L28.6275 42.0656L13.5558 41.0211L5.99969 40.2846L3.53686 22.6913C3.91564 23.6519 5.38108 23.8054 5.67811 23.6433L9.08904 25.264L8.97615 26.31L20.8354 31.5463C20.9003 31.5948 20.9734 31.6258 21.0503 31.6412C21.2572 31.6826 21.4907 31.6108 21.6623 31.4645C21.9756 31.1972 22.1639 30.7408 22.3067 30.2029C22.4258 29.754 22.2929 29.2841 21.9936 29.1791L18.393 27.5313C18.5512 27.2872 18.6808 27.0342 18.7607 26.7946Z" fill="#1C438F"/>
<path d="M33.821 24.5303C33.4332 25.0342 33.637 25.4157 33.8176 25.6405C34.2618 25.8324 34.6927 25.2951 34.7588 24.914C34.7907 24.7303 34.5847 24.392 34.3158 24.3169C34.1606 24.2735 33.9844 24.3179 33.821 24.5303Z" fill="#89A9FC"/>
<path d="M33.8176 25.6405C33.637 25.4157 33.4332 25.0342 33.821 24.5303C33.9844 24.3179 34.1606 24.2735 34.3158 24.3169L33.8714 24.1923L29.4279 22.6519L28.4374 23.2957L33.8176 25.6405Z" fill="#89A9FC"/>
<path d="M18.5265 25.7234C18.8847 25.9272 18.9136 26.3363 18.7607 26.7946M18.5265 25.7234L18.4636 25.6974M18.5265 25.7234C18.5058 25.7134 18.4848 25.7048 18.4636 25.6974M16.6359 28.85L9.08904 25.264M16.6359 28.85C17.0175 29.063 17.8647 28.3466 18.393 27.5313M16.6359 28.85C15.696 28.3255 17.3856 25.324 18.4636 25.6974M5.67811 23.6433L9.08904 25.264M5.67811 23.6433C5.6565 23.5811 5.63624 23.5144 5.61813 23.4443M5.67811 23.6433C5.38108 23.8054 3.91564 23.6519 3.53686 22.6913M7.52572 21.1746L8.09488 20.8714M7.52572 21.1746C7.44762 21.1725 7.37236 21.1726 7.29985 21.1749M7.52572 21.1746L18.4636 25.6974M21.2369 25.9876L8.09488 20.8714M21.2369 25.9876L21.4615 27.8304M21.2369 25.9876L38.6733 15.9056M8.09488 20.8714L9.63667 20.1899M21.4615 27.8304L18.7607 26.7946M21.4615 27.8304L28.4374 23.2957M18.7607 26.7946C18.6808 27.0342 18.5512 27.2872 18.393 27.5313M38.6733 15.9056L38.5878 16.6974L36.1727 18.2673M38.6733 15.9056L31.2221 14.4189M11.0937 20.0324L30.0219 14.1794L31.2221 14.4189M11.0937 20.0324L9.50701 19.2983L8.66723 19.4924M11.0937 20.0324L21.3182 23.9261M8.66723 19.4924L8.63482 19.7927L9.63667 20.1899M8.66723 19.4924L20.8667 24.1856M20.8195 24.6225L20.8667 24.1856M20.8195 24.6225L21.2858 24.2264L21.3182 23.9261M20.8195 24.6225L9.63667 20.1899M20.8667 24.1856L21.3182 23.9261M21.9936 29.1791C21.5583 29.0263 20.8537 29.1208 20.608 30.5064C20.5085 31.0675 20.6313 31.3937 20.8354 31.5463M21.9936 29.1791C22.2929 29.2841 22.4258 29.754 22.3067 30.2029C22.1639 30.7408 21.9756 31.1972 21.6623 31.4645C21.4907 31.6108 21.2572 31.6826 21.0503 31.6412M21.9936 29.1791L18.393 27.5313M21.0503 31.6412L20.8354 31.5463M21.0503 31.6412C20.9734 31.6258 20.9003 31.5948 20.8354 31.5463M9.08904 25.264L8.97615 26.31L20.8354 31.5463M6.07365 21.5476L5.4006 21.2433C5.19912 21.2789 4.82996 21.4029 4.96522 21.6148C5.10047 21.8266 5.49844 21.9936 5.68051 22.0506M6.07365 21.5476C5.89276 21.6891 5.76573 21.862 5.68051 22.0506M6.07365 21.5476C6.30767 21.3644 6.63183 21.2338 7.07227 21.1895M5.68051 22.0506C5.47879 22.4969 5.51133 23.0308 5.61813 23.4443M7.07227 21.1895C6.74701 20.715 5.39266 20.0249 4.53585 20.8831C3.80791 21.6123 3.29932 23.2458 5.61813 23.4443M7.07227 21.1895C7.14493 21.1822 7.22075 21.1773 7.29985 21.1749M7.29985 21.1749C6.88996 20.6124 6.01289 19.7855 4.88922 20.2278C3.86256 20.6319 3.48332 21.3729 3.44037 22.002M3.16853 20.0601L29.5811 13.1431M3.16853 20.0601L-4.27069 16.5207M3.16853 20.0601L3.44037 22.002M29.5811 13.1431L20.405 11.5589L-4.27069 16.5207M29.5811 13.1431L31.2221 14.4189M-4.27069 16.5207L-0.0237907 39.6975L5.99969 40.2846M5.99969 40.2846L13.5558 41.0211L28.6275 42.0656L34.1081 32.6776L41.5119 22.4179L36.1727 18.2673M5.99969 40.2846L3.53686 22.6913M3.44037 22.002C3.4236 22.2476 3.4581 22.4761 3.52534 22.6609C3.52906 22.6711 3.5329 22.6812 3.53686 22.6913M3.44037 22.002L3.53686 22.6913M36.1727 18.2673L32.4983 20.6559M32.4983 20.6559L35.3631 21.244C35.7088 21.3396 35.6379 21.8804 35.361 21.9197L31.8021 21.1085M32.4983 20.6559L31.8021 21.1085M31.8021 21.1085L29.4279 22.6519M33.8176 25.6405C33.637 25.4157 33.4332 25.0342 33.821 24.5303C33.9844 24.3179 34.1606 24.2735 34.3158 24.3169M33.8176 25.6405C34.2618 25.8324 34.6927 25.2951 34.7588 24.914C34.7907 24.7303 34.5847 24.392 34.3158 24.3169M33.8176 25.6405L28.4374 23.2957M34.3158 24.3169L33.8714 24.1923L29.4279 22.6519M29.4279 22.6519L28.4374 23.2957" stroke="white" stroke-width="0.2"/>
</g>
<g id="Vector 869">
<path d="M29.5684 24.201L33.7631 25.6751C33.5024 25.2592 33.6292 24.7328 33.9103 24.2272C34.2396 23.6349 34.7808 23.0714 35.159 22.748L35.3746 21.977L31.8688 21.166L30.5015 22.0504C29.9878 22.4265 29.082 23.3833 29.5684 24.201Z" fill="#EEF0FF"/>
<path d="M35.7802 18.5987L32.5124 20.7301L35.3273 21.3017C35.3077 20.9005 35.3412 20.4117 35.4095 19.9506C35.4926 19.3894 35.6272 18.8694 35.7802 18.5987Z" fill="#EEF0FF"/>
<path d="M35.3746 21.977L35.159 22.748C34.7808 23.0714 34.2396 23.6349 33.9103 24.2272C34.215 24.2175 34.8238 24.3716 34.8217 25.0663L39.4275 21.677L36.8618 20.4293L36.5688 19.2721L35.4095 19.9506C35.3412 20.4117 35.3077 20.9005 35.3273 21.3017C35.6238 21.301 35.6914 21.8218 35.3746 21.977Z" fill="#DAE2FF"/>
<path d="M35.3273 21.3017L32.5124 20.7301L35.7802 18.5987C35.6272 18.8694 35.4926 19.3894 35.4095 19.9506M35.3273 21.3017C35.6238 21.301 35.6914 21.8218 35.3746 21.977M35.3273 21.3017C35.3077 20.9005 35.3412 20.4117 35.4095 19.9506M35.3746 21.977L35.159 22.748C34.7808 23.0714 34.2396 23.6349 33.9103 24.2272M35.3746 21.977L31.8688 21.166L30.5015 22.0504C29.9878 22.4265 29.082 23.3833 29.5684 24.201L33.7631 25.6751C33.5024 25.2592 33.6292 24.7328 33.9103 24.2272M33.9103 24.2272C34.215 24.2175 34.8238 24.3716 34.8217 25.0663L39.4275 21.677L36.8618 20.4293L36.5688 19.2721L35.4095 19.9506" stroke="white" stroke-width="0.2"/>
</g>
<g id="Vector 868">
<path d="M22.9779 39.1496C24.4491 39.8995 26.9366 37.2471 27.3064 33.0373C27.3769 32.2342 27.1444 31.822 26.7445 31.7071C25.0482 31.2197 20.3404 36.0815 22.9779 39.1496Z" fill="#FEFBFF"/>
<path d="M15.0711 27.9576L13.9815 27.4541L10.636 25.9082C10.5926 26.2225 10.5853 26.9525 10.9027 27.3584C11.2201 27.7643 14.3431 32.6103 15.8648 34.9826C18.0617 36.3295 22.5599 39.0485 22.9779 39.1496C22.363 38.7809 20.223 33.4223 19.2064 30.8143C19.0621 29.0137 21.2074 28.2247 22.4115 27.4047L22.4292 27.241L21.4441 27.8618L18.7957 26.7766C18.2472 27.9363 17.3754 28.9541 16.7052 28.8888L15.0711 27.9576Z" fill="#EEF0FF"/>
<path d="M19.2064 30.8143C20.223 33.4223 22.363 38.7809 22.9779 39.1496C20.3404 36.0815 25.0482 31.2197 26.7445 31.7071L22.3227 29.6568C22.328 30.2179 22.1842 31.4629 21.1435 31.6924L19.2064 30.8143Z" fill="#EEF0FF"/>
<path d="M13.4145 20.1592L19.5902 22.5531L23.7062 20.5005L18.1065 18.5211L13.4145 20.1592Z" fill="#F04650"/>
<path fill-rule="evenodd" clip-rule="evenodd" d="M20.0046 23.4206L36.4744 15.2933L29.9986 14.1109L10.8732 19.9116L20.0046 23.4206ZM13.4145 20.1592L19.5902 22.5531L23.7062 20.5005L18.1065 18.5211L13.4145 20.1592ZM24.3765 20.042L19.0693 18.229L23.6379 16.6892L28.4748 18.153L24.3765 20.042Z" fill="#FEFBFF"/>
<path d="M19.0693 18.229L24.3765 20.042L28.4748 18.153L23.6379 16.6892L19.0693 18.229Z" fill="#F04650"/>
<path d="M24.9637 16.4324L29.0393 17.6291L33.2992 15.811L29.3397 14.8462L24.9637 16.4324Z" fill="#F04650"/>
<path fill-rule="evenodd" clip-rule="evenodd" d="M15.0597 27.7822C15.0638 27.8419 15.0679 27.9004 15.0711 27.9576L13.9815 27.4541C13.1758 26.4402 15.1996 24.4888 16.3123 23.6398L10.7142 21.3849C10.5355 21.3675 8.76065 21.7045 7.92734 22.2437C7.46686 22.5416 6.67293 23.3724 7.18107 24.3118L5.7708 23.6602C5.14429 22.5625 5.76223 21.5089 6.61938 21.2891L8.08933 20.7431L9.68409 20.2093L18.9653 23.8983L16.9693 24.7515C14.9261 25.8649 15.0013 26.9445 15.0597 27.7822Z" fill="#FEFBFF"/>
<path d="M7.18107 24.3118L10.636 25.9082L13.9815 27.4541C13.1758 26.4402 15.1996 24.4888 16.3123 23.6398L10.7142 21.3849C10.5355 21.3675 8.76065 21.7045 7.92734 22.2437C7.46686 22.5416 6.67293 23.3724 7.18107 24.3118Z" fill="#F04650"/>
<path d="M15.0711 27.9576L16.7052 28.8888C17.3754 28.9541 18.2472 27.9363 18.7957 26.7766L21.4441 27.8618L22.4292 27.241L22.4115 27.4047C21.2074 28.2247 19.0621 29.0137 19.2064 30.8143M15.0711 27.9576L13.9815 27.4541M15.0711 27.9576C15.0679 27.9004 15.0638 27.8419 15.0597 27.7822C15.0013 26.9445 14.9261 25.8649 16.9693 24.7515L18.9653 23.8983L9.68409 20.2093L8.08933 20.7431L6.61938 21.2891C5.76223 21.5089 5.14429 22.5625 5.7708 23.6602L7.18107 24.3118M10.636 25.9082C10.5926 26.2225 10.5853 26.9525 10.9027 27.3584C11.2201 27.7643 14.3431 32.6103 15.8648 34.9826C18.0617 36.3295 22.5599 39.0485 22.9779 39.1496M10.636 25.9082L7.18107 24.3118M10.636 25.9082L13.9815 27.4541M19.2064 30.8143C20.223 33.4223 22.363 38.7809 22.9779 39.1496M19.2064 30.8143L21.1435 31.6924C22.1842 31.4629 22.328 30.2179 22.3227 29.6568L26.7445 31.7071M22.9779 39.1496C24.4491 39.8995 26.9366 37.2471 27.3064 33.0373C27.3769 32.2342 27.1444 31.822 26.7445 31.7071M22.9779 39.1496C20.3404 36.0815 25.0482 31.2197 26.7445 31.7071M7.18107 24.3118C6.67293 23.3724 7.46686 22.5416 7.92734 22.2437C8.76065 21.7045 10.5355 21.3675 10.7142 21.3849L16.3123 23.6398C15.1996 24.4888 13.1758 26.4402 13.9815 27.4541M20.0046 23.4206L36.4744 15.2933L29.9986 14.1109L10.8732 19.9116L20.0046 23.4206ZM13.4145 20.1592L19.5902 22.5531L23.7062 20.5005L18.1065 18.5211L13.4145 20.1592ZM19.0693 18.229L24.3765 20.042L28.4748 18.153L23.6379 16.6892L19.0693 18.229ZM24.9637 16.4324L29.0393 17.6291L33.2992 15.811L29.3397 14.8462L24.9637 16.4324Z" stroke="white" stroke-width="0.2"/>
</g>
</g>
<path id="Ellipse 269" d="M25.6254 35.9792C25.517 36.3036 25.3421 36.573 25.1522 36.7471C24.9588 36.9242 24.7706 36.986 24.6259 36.9494C24.4862 36.9142 24.3707 36.782 24.3181 36.5488C24.266 36.318 24.2834 36.0115 24.3918 35.6868C24.5002 35.3625 24.6751 35.093 24.8651 34.9189C25.0584 34.7418 25.2466 34.68 25.3913 34.7166C25.5311 34.7519 25.6465 34.884 25.6991 35.1172C25.7512 35.348 25.7338 35.6546 25.6254 35.9792Z" fill="#6E8EDF" stroke="#001946" stroke-width="0.246675"/>
</g>
</g>
</g>
<defs>
<clipPath id="clip0_2609_27399">
<path d="M0 8C0 3.58172 3.58172 0 8 0H32C36.4183 0 40 3.58172 40 8V32C40 36.4183 36.4183 40 32 40H8C3.58172 40 0 36.4183 0 32V8Z" fill="white"/>
</clipPath>
</defs>
</svg>
