<svg width="40" height="40" viewBox="0 0 40 40" fill="none" xmlns="http://www.w3.org/2000/svg">
<g id="industrial-inkjet-printer">
<g clip-path="url(#clip0_2609_27660)">
<mask id="mask0_2609_27660" style="mask-type:alpha" maskUnits="userSpaceOnUse" x="0" y="0" width="40" height="40">
<path id="Rectangle 1960" d="M0 0H40V40H0V0Z" fill="#A8C8FF"/>
</mask>
<g mask="url(#mask0_2609_27660)">
<path id="Rectangle 1961" d="M0 0C0 0 37.0833 5.66244e-06 40 0C40 11.1111 40 28.8889 40 40C31.6667 40 7.3846 40 0 40C0 33.1368 0 8.33333 0 0Z" fill="#A8C8FF"/>
<g id="Group 1000001023">
<g id="printer">
<path d="M9.9617 29.2425C9.91151 28.8059 10.108 27.8397 11.2953 27.4679C11.6479 27.3575 11.8966 26.6136 12.0684 25.5243C12.4751 22.9453 12.4501 18.4304 12.3493 15.8064C12.3636 15.1374 11.9062 13.6853 9.9617 13.229C8.01715 12.7727 3.67355 11.8417 1.74481 11.4333C1.61575 11.3911 1.35763 11.4164 1.35763 11.8558V13.9262V22.3766C1.37197 22.5878 1.54692 23.0399 2.13199 23.1582L1.74481 30.7847L9.9617 34.862V33.5311V29.2425Z" fill="#B1C5FF"/>
<path d="M9.9617 13.229C11.9062 13.6853 12.3636 15.1374 12.3493 15.8064C12.4501 18.4304 12.4751 22.9453 12.0684 25.5243C13.098 25.1593 22.3829 22.5788 27.1457 21.2654C27.2252 21.2289 27.3119 21.204 27.4063 21.1935C28.3528 21.0879 28.7614 20.1795 28.7614 19.0809C28.7614 17.9824 29.5143 13.2924 29.3207 12.8065C29.1271 12.3206 29.3852 11.3699 26.675 10.8418C24.5068 10.4193 21.8137 10.0601 20.7382 9.93338L6.28343 11.0749L1.74481 11.4333C3.67355 11.8417 8.01715 12.7727 9.9617 13.229Z" fill="#DAE2FF"/>
<path d="M12.0684 25.5243C11.8966 26.6136 11.6479 27.3575 11.2953 27.4679L26.3523 22.778C26.3837 22.3465 26.5876 21.5211 27.1457 21.2654C22.3829 22.5788 13.098 25.1593 12.0684 25.5243Z" fill="#B1C5FF"/>
<path d="M2.13199 23.1582C1.54692 23.0399 1.37197 22.5878 1.35763 22.3766V13.9262L-4.81575 11.4333L-19.6577 19.0809L-7.74112 27.0876L32.3106 45.9109L45.7544 31.7142L26.3523 25.2497V25.9891L23.1258 27.4737L13.6614 31.8287L9.9617 33.5311V34.862L1.74481 30.7847L2.13199 23.1582Z" fill="#1C438F"/>
<path d="M32.3106 45.9109L-7.74112 27.0876L-19.6577 19.0809L-24.5835 22.778L1.35763 40.6253L29.3207 51.2135L32.3106 45.9109Z" fill="#DAE2FF"/>
<path d="M26.3523 22.778V25.2497L45.7544 31.7142L49.5832 28.7143L27.1457 21.2654C26.5876 21.5211 26.3837 22.3465 26.3523 22.778Z" fill="#DAE2FF"/>
<path fill-rule="evenodd" clip-rule="evenodd" d="M9.9617 29.2425C9.91151 28.8059 10.108 27.8397 11.2953 27.4679L26.3523 22.778V25.2497V25.9891L23.1258 27.4737L23.0183 27.1299L13.6614 31.4185V31.8287L9.9617 33.5311V29.2425Z" fill="#DAE2FF"/>
<path d="M13.6614 31.4185V31.8287L23.1258 27.4737L23.0183 27.1299L13.6614 31.4185Z" fill="#B1C5FF"/>
<path d="M1.35763 11.8558C1.35763 11.4164 1.61575 11.3911 1.74481 11.4333L6.28343 11.0749L4.58317 11.2092L-1.45849 9.16699L-4.81575 11.4333L1.35763 13.9262V11.8558Z" fill="#DAE2FF"/>
<path d="M11.2953 27.4679C10.108 27.8397 9.9115 28.8059 9.9617 29.2425V33.5311M11.2953 27.4679C11.6479 27.3575 11.8966 26.6136 12.0684 25.5243M11.2953 27.4679L26.3523 22.778M1.74481 11.4333C3.67355 11.8417 8.01715 12.7727 9.9617 13.229C11.9062 13.6853 12.3636 15.1374 12.3493 15.8064C12.4501 18.4304 12.4751 22.9453 12.0684 25.5243M1.74481 11.4333C1.61575 11.3911 1.35763 11.4164 1.35763 11.8558M1.74481 11.4333L6.28343 11.0749M1.35763 11.8558C1.35763 11.9976 1.35763 12.7968 1.35763 13.9262M1.35763 11.8558V13.9262M1.35763 22.3766C1.37197 22.5878 1.54692 23.0399 2.13199 23.1582L1.74481 30.7847L9.9617 34.862V33.5311M1.35763 22.3766C1.35763 20.125 1.35763 16.2977 1.35763 13.9262M1.35763 22.3766V13.9262M9.9617 33.5311L13.6614 31.8287M26.3523 22.778V25.2497M26.3523 22.778C26.3837 22.3465 26.5876 21.5211 27.1457 21.2654M27.4063 21.1935C28.3528 21.0879 28.7614 20.1795 28.7614 19.0809C28.7614 17.9824 29.5143 13.2924 29.3207 12.8065C29.1271 12.3206 29.3852 11.3699 26.675 10.8418C24.5068 10.4193 21.8137 10.0601 20.7382 9.93338L6.28343 11.0749M27.4063 21.1935C27.3119 21.204 27.2252 21.2289 27.1457 21.2654M27.4063 21.1935C27.3211 21.217 27.2342 21.241 27.1457 21.2654M12.0684 25.5243C13.098 25.1593 22.3829 22.5788 27.1457 21.2654M26.3523 25.2497V25.9891L23.1258 27.4737M26.3523 25.2497L45.7544 31.7142M45.7544 31.7142L32.3106 45.9109M45.7544 31.7142L49.5832 28.7143L27.1457 21.2654M32.3106 45.9109L-7.74112 27.0876L-19.6577 19.0809M32.3106 45.9109L29.3207 51.2135L1.35763 40.6253L-24.5835 22.778L-19.6577 19.0809M-19.6577 19.0809L-4.81575 11.4333M-4.81575 11.4333L1.35763 13.9262M-4.81575 11.4333L-1.45849 9.16699L4.58317 11.2092L6.28343 11.0749M13.6614 31.8287V31.4185L23.0183 27.1299L23.1258 27.4737M13.6614 31.8287L23.1258 27.4737" stroke="white" stroke-width="0.2"/>
</g>
<g id="paper">
<path d="M16.3291 31.8829L23.4059 28.4816L28.1596 30.1294L21.2764 33.8476L16.3291 31.8829Z" fill="#F04650"/>
<path d="M1.95831 26.0355L-6.07764 21.4779L-1.66352 15.1973L1.33581 17.1426V22.0893C1.31694 22.3857 1.58481 23.0564 2.12809 23.1453L1.95831 26.0355Z" fill="#EEF0FF"/>
<path d="M22.4424 34.312L28.9908 30.6285L33.4928 32.2656L27.3897 36.2767L22.4424 34.312Z" fill="#F04650"/>
<path d="M28.5815 36.7677L34.3113 32.6749L38.8134 34.312L33.5288 38.7324L28.5815 36.7677Z" fill="#F04650"/>
<path fill-rule="evenodd" clip-rule="evenodd" d="M13.8769 31.3125C21.0828 34.094 36.2904 40.7684 36.2904 41.4107C36.2904 41.8968 38.4098 39.6589 40.2698 37.5657C40.3951 37.4247 40.5159 37.2883 40.634 37.155C40.8626 36.8969 41.0811 36.6503 41.3023 36.4038C41.4169 36.2761 41.5444 36.1457 41.6668 36.0207C41.7672 35.918 41.8641 35.8189 41.9476 35.7278C42.1125 35.4813 41.8185 34.5701 39.8396 33.4884C37.9787 32.4713 28.3636 29.332 23.3539 27.6963L22.4595 27.4042L13.8769 31.3125ZM23.4059 28.4816L16.3291 31.8829L21.2764 33.8476L28.1596 30.1294L23.4059 28.4816ZM28.9908 30.6285L22.4424 34.312L27.3897 36.2767L33.4928 32.2656L28.9908 30.6285ZM34.3113 32.6749L28.5815 36.7677L33.5288 38.7324L38.8134 34.312L34.3113 32.6749Z" fill="#EEF0FF"/>
<path d="M22.4595 27.4042L13.8769 31.3125C21.0828 34.094 36.2904 40.7684 36.2904 41.4107C36.2904 41.8968 38.4098 39.6589 40.2698 37.5657C40.3951 37.4247 40.5159 37.2883 40.634 37.155C40.8626 36.8969 41.0811 36.6503 41.3023 36.4038C41.4169 36.2761 41.5444 36.1457 41.6668 36.0207C41.7672 35.918 41.8641 35.8189 41.9476 35.7278C42.1125 35.4813 41.8185 34.5701 39.8396 33.4884C37.9787 32.4713 28.3636 29.332 23.3539 27.6963M22.4595 27.4042L23.3539 27.6963M22.4595 27.4042C22.737 27.4949 23.0362 27.5926 23.3539 27.6963M16.3291 31.8829L23.4059 28.4816L28.1596 30.1294L21.2764 33.8476L16.3291 31.8829ZM1.95831 26.0355L-6.07764 21.4779L-1.66352 15.1973L1.33581 17.1426V22.0893C1.31694 22.3857 1.58481 23.0564 2.12809 23.1453L1.95831 26.0355ZM22.4424 34.312L28.9908 30.6285L33.4928 32.2656L27.3897 36.2767L22.4424 34.312ZM28.5815 36.7677L34.3113 32.6749L38.8134 34.312L33.5288 38.7324L28.5815 36.7677Z" stroke="white" stroke-width="0.2"/>
</g>
</g>
</g>
</g>
</g>
<defs>
<clipPath id="clip0_2609_27660">
<path d="M0 8C0 3.58172 3.58172 0 8 0H32C36.4183 0 40 3.58172 40 8V32C40 36.4183 36.4183 40 32 40H8C3.58172 40 0 36.4183 0 32V8Z" fill="white"/>
</clipPath>
</defs>
</svg>
