<svg width="40" height="40" viewBox="0 0 40 40" fill="none" xmlns="http://www.w3.org/2000/svg">
<g id="offset-printer">
<g clip-path="url(#clip0_2609_27449)">
<mask id="mask0_2609_27449" style="mask-type:alpha" maskUnits="userSpaceOnUse" x="0" y="0" width="40" height="40">
<path id="Rectangle 1960" d="M0 0H40V40H0V0Z" fill="#A8C8FF"/>
</mask>
<g mask="url(#mask0_2609_27449)">
<path id="Rectangle 1961" d="M0 0C0 0 37.0833 5.66244e-06 40 0C40 11.1111 40 28.8889 40 40C31.6667 40 7.3846 40 0 40C0 33.1368 0 8.33333 0 0Z" fill="#A8C8FF"/>
<path id="Rectangle 1898" d="M-0.524243 40.3174L-0.524233 29.8528L41.7746 8.28869L41.7746 32.2908L41.7746 40.3174L-0.524243 40.3174Z" fill="#395BA9" stroke="white" stroke-width="0.2"/>
<g id="offset printers">
<g id="Vector 875">
<path fill-rule="evenodd" clip-rule="evenodd" d="M27.4717 12.5015L33.2847 14.0366L33.2749 14.7793L33.2652 15.522L32.7785 27.6636L34.105 26.579L34.2781 13.3542L36.2141 12.1087L32.5096 11.1993L28.8051 10.2899L26.3317 11.2171L26.3006 13.589L26.8766 13.776L27.4525 13.963L27.4621 13.2322L27.4717 12.5015ZM34.0127 12.9435L27.4883 11.2317L28.8004 10.6492L35.279 12.0969L34.0127 12.9435Z" fill="#DAE2FF"/>
<path d="M32.7785 27.6636L33.2652 15.522L33.2749 14.7793L27.4621 13.2322L27.4525 13.963L26.8766 13.776L26.7068 26.7493L31.0658 29.3683L32.7785 27.6636Z" fill="#B1C5FF"/>
<path d="M33.2847 14.0366L27.4717 12.5015L27.4621 13.2322L33.2749 14.7793L33.2847 14.0366Z" fill="#89A9FC"/>
<path d="M27.4883 11.2317L34.0127 12.9435L35.279 12.0969L28.8004 10.6492L27.4883 11.2317Z" fill="#5375C3"/>
<path d="M36.2141 12.1087L34.2781 13.3542L34.105 26.579L40.2265 21.3282L40.3426 12.4596L38.1012 15.0804L37.2701 16.0522L37.3149 12.6258L36.2141 12.1087Z" fill="#B1C5FF"/>
<path fill-rule="evenodd" clip-rule="evenodd" d="M37.3149 12.6258L36.2141 12.1087L32.5096 11.1993L33.3283 10.7064L40.3426 12.4596L38.1012 15.0804L37.3149 12.6258Z" fill="#DAE2FF"/>
<path d="M37.3149 12.6258L37.2701 16.0522L38.1012 15.0804L37.3149 12.6258Z" fill="#B1C5FF"/>
<path d="M32.7785 27.6636L33.2652 15.522L33.2749 14.7793M32.7785 27.6636L34.105 26.579M32.7785 27.6636L31.0658 29.3683L26.7068 26.7493L26.8766 13.776M34.105 26.579L34.2781 13.3542L36.2141 12.1087M34.105 26.579L40.2265 21.3282L40.3426 12.4596M36.2141 12.1087L37.3149 12.6258M36.2141 12.1087L32.5096 11.1993M27.4621 13.2322L27.4525 13.963L26.8766 13.776M27.4621 13.2322L27.4717 12.5015L33.2847 14.0366L33.2749 14.7793M27.4621 13.2322L33.2749 14.7793M26.8766 13.776L26.3006 13.589L26.3317 11.2171L28.8051 10.2899L32.5096 11.1993M37.3149 12.6258L37.2701 16.0522L38.1012 15.0804M37.3149 12.6258L38.1012 15.0804M40.3426 12.4596L33.3283 10.7064L32.5096 11.1993M40.3426 12.4596L38.1012 15.0804M27.4883 11.2317L34.0127 12.9435L35.279 12.0969L28.8004 10.6492L27.4883 11.2317Z" stroke="white" stroke-width="0.2"/>
</g>
<g id="Vector 874">
<path fill-rule="evenodd" clip-rule="evenodd" d="M23.1138 14.3996L29.4108 16.0679L29.4002 16.8752L29.3896 17.6825L29.2103 31.3803L30.2882 30.5084L30.4869 15.3262L32.5843 13.9722L24.5583 11.9956L21.8789 13.0036L21.8452 15.5817L22.4691 15.7849L23.093 15.9881L23.1034 15.1939L23.1138 14.3996ZM30.1995 14.8797L23.1318 13.0194L24.5532 12.3862L31.5713 13.9594L30.1995 14.8797Z" fill="#DAE2FF"/>
<path d="M30.4869 15.3262L30.2882 30.5084L33.5981 28.18L33.7767 14.5342L32.5843 13.9722L30.4869 15.3262Z" fill="#B1C5FF"/>
<path d="M29.2103 31.3803L29.3896 17.6825L29.4002 16.8752L23.1034 15.1939L23.093 15.9881L22.4691 15.7849L22.2845 29.8864L27.0064 32.7329L29.2103 31.3803Z" fill="#B1C5FF"/>
<path d="M29.4108 16.0679L23.1138 14.3996L23.1034 15.1939L29.4002 16.8752L29.4108 16.0679Z" fill="#89A9FC"/>
<path d="M23.1318 13.0194L30.1995 14.8797L31.5713 13.9594L24.5532 12.3862L23.1318 13.0194Z" fill="#5375C3"/>
<path d="M29.2103 31.3803L29.3896 17.6825L29.4002 16.8752M29.2103 31.3803L30.2882 30.5084M29.2103 31.3803L27.0064 32.7329L22.2845 29.8864L22.4691 15.7849M30.2882 30.5084L30.4869 15.3262L32.5843 13.9722M30.2882 30.5084L33.5981 28.18L33.7767 14.5342L32.5843 13.9722M32.5843 13.9722L24.5583 11.9956L21.8789 13.0036L21.8452 15.5817L22.4691 15.7849M23.1034 15.1939L23.093 15.9881L22.4691 15.7849M23.1034 15.1939L23.1138 14.3996L29.4108 16.0679L29.4002 16.8752M23.1034 15.1939L29.4002 16.8752M23.1318 13.0194L30.1995 14.8797L31.5713 13.9594L24.5532 12.3862L23.1318 13.0194Z" stroke="white" stroke-width="0.2"/>
</g>
<g id="Vector 873">
<path fill-rule="evenodd" clip-rule="evenodd" d="M18.6198 16.4559L25.251 18.2238L25.2398 19.0795L25.2286 19.9352L25.0385 34.4549L26.1737 33.5306L26.3844 17.4374L28.5932 16.002L20.1413 13.9075L17.3195 14.9762L17.2838 17.709L17.9408 17.9244L18.5978 18.1397L18.6088 17.2978L18.6198 16.4559ZM26.0817 16.9642L18.6389 14.9929L20.1358 14.3216L27.5264 15.9886L26.0817 16.9642Z" fill="#DAE2FF"/>
<path d="M26.3844 17.4374L26.1737 33.5306L29.6596 31.0622L29.8489 16.5977L28.5932 16.002L26.3844 17.4374Z" fill="#B1C5FF"/>
<path d="M25.0385 34.4549L25.2286 19.9352L25.2398 19.0795L18.6088 17.2978L18.5978 18.1397L17.9408 17.9244L17.7451 32.872L22.7174 35.8889L25.0385 34.4549Z" fill="#B1C5FF"/>
<path d="M25.251 18.2238L18.6198 16.4559L18.6088 17.2978L25.2398 19.0795L25.251 18.2238Z" fill="#89A9FC"/>
<path d="M18.6389 14.9929L26.0817 16.9642L27.5264 15.9886L20.1358 14.3216L18.6389 14.9929Z" fill="#5375C3"/>
<path d="M25.0385 34.4549L25.2286 19.9352L25.2398 19.0795M25.0385 34.4549L26.1737 33.5306M25.0385 34.4549L22.7174 35.8889L17.7451 32.872L17.9408 17.9244M26.1737 33.5306L26.3844 17.4374L28.5932 16.002M26.1737 33.5306L29.6596 31.0622L29.8489 16.5977L28.5932 16.002M28.5932 16.002L20.1413 13.9075L17.3195 14.9762L17.2838 17.709L17.9408 17.9244M18.6088 17.2978L18.5978 18.1397L17.9408 17.9244M18.6088 17.2978L18.6198 16.4559L25.251 18.2238L25.2398 19.0795M18.6088 17.2978L25.2398 19.0795M18.6389 14.9929L26.0817 16.9642L27.5264 15.9886L20.1358 14.3216L18.6389 14.9929Z" stroke="white" stroke-width="0.2"/>
</g>
<g id="Vector 871">
<path fill-rule="evenodd" clip-rule="evenodd" d="M13.1049 19.0762L20.2935 20.9862L20.2814 21.9105L20.2693 22.8349L20.064 38.5189L21.2945 37.5205L21.522 20.1368L23.9164 18.5865L14.7541 16.3236L11.6953 17.4779L11.6567 20.4298L12.3689 20.6625L13.0811 20.8951L13.093 19.9857L13.1049 19.0762ZM21.1939 19.6257L13.1256 17.4959L14.7483 16.7708L22.76 18.5719L21.1939 19.6257Z" fill="#DAE2FF"/>
<path d="M21.522 20.1368L21.2945 37.5205L25.0731 34.8543L25.2776 19.2299L23.9164 18.5865L21.522 20.1368Z" fill="#B1C5FF"/>
<path d="M20.064 38.5189L20.2693 22.8349L20.2814 21.9105L13.093 19.9857L13.0811 20.8951L12.3689 20.6625L12.1576 36.8087L17.5479 40.0677L20.064 38.5189Z" fill="#B1C5FF"/>
<path d="M20.2935 20.9862L13.1049 19.0762L13.093 19.9857L20.2814 21.9105L20.2935 20.9862Z" fill="#89A9FC"/>
<path d="M13.1256 17.4959L21.1939 19.6257L22.76 18.5719L14.7483 16.7708L13.1256 17.4959Z" fill="#5375C3"/>
<path d="M20.064 38.5189L20.2693 22.8349L20.2814 21.9105M20.064 38.5189L21.2945 37.5205M20.064 38.5189L17.5479 40.0677L12.1576 36.8087L12.3689 20.6625M21.2945 37.5205L21.522 20.1368L23.9164 18.5865M21.2945 37.5205L25.0731 34.8543L25.2776 19.2299L23.9164 18.5865M23.9164 18.5865L14.7541 16.3236L11.6953 17.4779L11.6567 20.4298L12.3689 20.6625M13.093 19.9857L13.0811 20.8951L12.3689 20.6625M13.093 19.9857L13.1049 19.0762L20.2935 20.9862L20.2814 21.9105M13.093 19.9857L20.2814 21.9105M13.1256 17.4959L21.1939 19.6257L22.76 18.5719L14.7483 16.7708L13.1256 17.4959Z" stroke="white" stroke-width="0.2"/>
</g>
<g id="Vector 870">
<path d="M13.4802 42.2948L13.6437 29.8002L10.9268 28.6709L5.67419 26.4875L3.86294 25.7346L3.72488 36.2821L13.4802 42.2948Z" fill="#B1C5FF"/>
<path d="M13.6437 29.8002L13.4802 42.2948L15.6835 40.9175L15.7771 27.9736L13.6437 29.8002Z" fill="#B1C5FF"/>
<path d="M15.6835 40.9175L16.2219 41.5222L16.2588 27.5611L15.7771 27.9736L15.6835 40.9175Z" fill="#89A9FC"/>
<path d="M17.725 40.3154L17.9104 26.147L16.2588 27.5611L16.2219 41.5222L17.725 40.3154Z" fill="#B1C5FF"/>
<path d="M17.9312 24.5627L13.668 27.947L13.6437 29.8002L15.7771 27.9736L16.2588 27.5611L17.9104 26.147L17.9312 24.5627Z" fill="#89A9FC"/>
<path d="M3.88764 23.8473L13.37 27.5247L13.3915 25.8806L3.90446 22.562L3.88764 23.8473Z" fill="#DAE2FF"/>
<path d="M13.3915 25.8806L13.37 27.5247L13.982 27.1437L14.002 25.6193L13.3915 25.8806Z" fill="#89A9FC"/>
<path d="M3.90446 22.562L13.3915 25.8806L14.002 25.6193L5.27007 22.5792L3.90446 22.562Z" fill="#B1C5FF"/>
<path d="M13.37 27.5247L3.88764 23.8473L3.2807 23.8396L13.668 27.947L17.9312 24.5627L7.80725 21.2061L5.27007 22.5792L14.002 25.6193L13.982 27.1437L13.37 27.5247Z" fill="#B1C5FF"/>
<path fill-rule="evenodd" clip-rule="evenodd" d="M3.25918 25.4836L3.2807 23.8396L13.668 27.947L13.6437 29.8002L10.9268 28.6709L10.9325 28.2413L5.68028 26.0225L5.67419 26.4875L3.86294 25.7346L3.25918 25.4836Z" fill="#DAE2FF"/>
<path d="M5.68028 26.0225L5.67419 26.4875L10.9268 28.6709L10.9325 28.2413L5.68028 26.0225Z" fill="#5375C3"/>
<path d="M3.88764 23.8473L13.37 27.5247M3.88764 23.8473L3.90446 22.562M3.88764 23.8473L3.2807 23.8396M13.37 27.5247L13.3915 25.8806M13.37 27.5247L13.982 27.1437L14.002 25.6193M13.3915 25.8806L3.90446 22.562M13.3915 25.8806L14.002 25.6193M3.90446 22.562L5.27007 22.5792M5.27007 22.5792L14.002 25.6193M5.27007 22.5792L7.80725 21.2061L17.9312 24.5627M13.668 27.947L17.9312 24.5627M13.668 27.947L13.6437 29.8002M13.668 27.947L3.2807 23.8396M17.9312 24.5627L17.9104 26.147M3.2807 23.8396L3.25918 25.4836L3.86294 25.7346M13.6437 29.8002L13.4802 42.2948M13.6437 29.8002L15.7771 27.9736M13.6437 29.8002L10.9268 28.6709M17.9104 26.147L17.725 40.3154L16.2219 41.5222M17.9104 26.147L16.2588 27.5611M13.4802 42.2948L3.72488 36.2821L3.86294 25.7346M13.4802 42.2948L15.6835 40.9175M3.86294 25.7346L5.67419 26.4875M16.2219 41.5222L15.6835 40.9175M16.2219 41.5222L16.2588 27.5611M15.6835 40.9175L15.7771 27.9736M15.7771 27.9736L16.2588 27.5611M5.67419 26.4875L5.68028 26.0225L10.9325 28.2413L10.9268 28.6709M5.67419 26.4875L10.9268 28.6709" stroke="white" stroke-width="0.2"/>
</g>
</g>
</g>
</g>
</g>
<defs>
<clipPath id="clip0_2609_27449">
<path d="M0 8C0 3.58172 3.58172 0 8 0H32C36.4183 0 40 3.58172 40 8V32C40 36.4183 36.4183 40 32 40H8C3.58172 40 0 36.4183 0 32V8Z" fill="white"/>
</clipPath>
</defs>
</svg>
