<svg width="127" height="128" viewBox="0 0 127 128" fill="none" xmlns="http://www.w3.org/2000/svg">
<g id="Vector">
<path fill-rule="evenodd" clip-rule="evenodd" d="M0 93H35V128H0V93ZM7 100H28V121H7V100ZM23 105H12V116H23V105Z" fill="currentColor"/>
<path fill-rule="evenodd" clip-rule="evenodd" d="M0 0H35V35H0V0ZM7 7H28V28H7V7ZM23 12H12V23H23V12Z" fill="currentColor"/>
<path fill-rule="evenodd" clip-rule="evenodd" d="M92 0H127V35H92V0ZM99 7H120V28H99V7ZM115 12H104V23H115V12Z" fill="currentColor"/>
<path d="M39 118H49V128H39V118Z" fill="currentColor"/>
<path d="M91 118H101V128H91V118Z" fill="currentColor"/>
<path d="M65 118H75V128H65V118Z" fill="currentColor"/>
<path d="M104 118H114V128H104V118Z" fill="currentColor"/>
<path d="M78 118H88V128H78V118Z" fill="currentColor"/>
<path d="M117 118H127V128H117V118Z" fill="currentColor"/>
<path d="M39 105H49V115H39V105Z" fill="currentColor"/>
<path d="M52 105H62V115H52V105Z" fill="currentColor"/>
<path d="M104 105H114V115H104V105Z" fill="currentColor"/>
<path d="M78 105H88V115H78V105Z" fill="currentColor"/>
<path d="M117 105H127V115H117V105Z" fill="currentColor"/>
<path d="M39 92H49V102H39V92Z" fill="currentColor"/>
<path d="M52 92H62V102H52V92Z" fill="currentColor"/>
<path d="M91 92H101V102H91V92Z" fill="currentColor"/>
<path d="M65 92H75V102H65V92Z" fill="currentColor"/>
<path d="M0 79H10V89H0V79Z" fill="currentColor"/>
<path d="M13 79H23V89H13V79Z" fill="currentColor"/>
<path d="M26 79H36V89H26V79Z" fill="currentColor"/>
<path d="M39 79H49V89H39V79Z" fill="currentColor"/>
<path d="M52 79H62V89H52V79Z" fill="currentColor"/>
<path d="M78 79H88V89H78V79Z" fill="currentColor"/>
<path d="M91 79H101V89H91V79Z" fill="currentColor"/>
<path d="M104 79H114V89H104V79Z" fill="currentColor"/>
<path d="M117 79H127V89H117V79Z" fill="currentColor"/>
<path d="M0 66H10V76H0V66Z" fill="currentColor"/>
<path d="M26 66H36V76H26V66Z" fill="currentColor"/>
<path d="M52 66H62V76H52V66Z" fill="currentColor"/>
<path d="M65 66H75V76H65V66Z" fill="currentColor"/>
<path d="M91 66H101V76H91V66Z" fill="currentColor"/>
<path d="M117 66H127V76H117V66Z" fill="currentColor"/>
<path d="M0 53H10V63H0V53Z" fill="currentColor"/>
<path d="M26 53H36V63H26V53Z" fill="currentColor"/>
<path d="M39 53H49V63H39V53Z" fill="currentColor"/>
<path d="M65 53H75V63H65V53Z" fill="currentColor"/>
<path d="M78 53H88V63H78V53Z" fill="currentColor"/>
<path d="M117 53H127V63H117V53Z" fill="currentColor"/>
<path d="M0 40H10V50H0V40Z" fill="currentColor"/>
<path d="M13 40H23V50H13V40Z" fill="currentColor"/>
<path d="M26 40H36V50H26V40Z" fill="currentColor"/>
<path d="M52 40H62V50H52V40Z" fill="currentColor"/>
<path d="M78 40H88V50H78V40Z" fill="currentColor"/>
<path d="M91 40H101V50H91V40Z" fill="currentColor"/>
<path d="M104 40H114V50H104V40Z" fill="currentColor"/>
<path d="M117 40H127V50H117V40Z" fill="currentColor"/>
<path d="M39 27H49V37H39V27Z" fill="currentColor"/>
<path d="M52 27H62V37H52V27Z" fill="currentColor"/>
<path d="M65 27H75V37H65V27Z" fill="currentColor"/>
<path d="M78 27H88V37H78V27Z" fill="currentColor"/>
<path d="M39 14H49V24H39V14Z" fill="currentColor"/>
<path d="M65 14H75V24H65V14Z" fill="currentColor"/>
<path d="M78 14H88V24H78V14Z" fill="currentColor"/>
<path d="M39 0H49V10H39V0Z" fill="currentColor"/>
<path d="M78 0H88V10H78V0Z" fill="currentColor"/>
</g>
</svg>
