<svg width="31" height="31" viewBox="0 0 31 31" fill="none" xmlns="http://www.w3.org/2000/svg">
<g id="QR-Code">
<g id="Vector">
<path d="M3.66545 25.3032C3.66545 24.9293 3.96855 24.6263 4.34243 24.6263H5.6964C6.07029 24.6263 6.37338 24.9293 6.37338 25.3032V26.6572C6.37338 27.0311 6.07029 27.3342 5.6964 27.3342H4.34243C3.96855 27.3342 3.66545 27.0311 3.66545 26.6572V25.3032Z" fill="currentColor"/>
<path d="M25.3289 3.6398C25.3289 3.26591 25.632 2.96281 26.0059 2.96281H27.3598C27.7337 2.96281 28.0368 3.26591 28.0368 3.6398V4.99376C28.0368 5.36765 27.7337 5.67074 27.3598 5.67074H26.0059C25.632 5.67074 25.3289 5.36765 25.3289 4.99376V3.6398Z" fill="currentColor"/>
<path d="M12.4662 1.4396C12.4662 2.0939 11.9358 2.62432 11.2815 2.62432C10.6272 2.62432 10.0968 2.0939 10.0968 1.4396C10.0968 0.7853 10.6272 0.254883 11.2815 0.254883C11.9358 0.254883 12.4662 0.7853 12.4662 1.4396Z" fill="currentColor"/>
<path d="M12.4662 4.48602C12.4662 5.14033 11.9358 5.67074 11.2815 5.67074C10.6272 5.67074 10.0968 5.14033 10.0968 4.48602C10.0968 3.83172 10.6272 3.3013 11.2815 3.3013C11.9358 3.3013 12.4662 3.83172 12.4662 4.48602Z" fill="currentColor"/>
<path d="M12.4662 7.53245C12.4662 8.18675 11.9358 8.71716 11.2815 8.71716C10.6272 8.71716 10.0968 8.18675 10.0968 7.53245C10.0968 6.87814 10.6272 6.34773 11.2815 6.34773C11.9358 6.34773 12.4662 6.87814 12.4662 7.53245Z" fill="currentColor"/>
<path d="M12.4662 13.6253C12.4662 14.2796 11.9358 14.81 11.2815 14.81C10.6272 14.81 10.0968 14.2796 10.0968 13.6253C10.0968 12.971 10.6272 12.4406 11.2815 12.4406C11.9358 12.4406 12.4662 12.971 12.4662 13.6253Z" fill="currentColor"/>
<path d="M12.4662 19.7181C12.4662 20.3724 11.9358 20.9029 11.2815 20.9029C10.6272 20.9029 10.0968 20.3724 10.0968 19.7181C10.0968 19.0638 10.6272 18.5334 11.2815 18.5334C11.9358 18.5334 12.4662 19.0638 12.4662 19.7181Z" fill="currentColor"/>
<path d="M24.6519 10.5789C24.6519 11.2332 24.1215 11.7636 23.4672 11.7636C22.8129 11.7636 22.2825 11.2332 22.2825 10.5789C22.2825 9.92456 22.8129 9.39415 23.4672 9.39415C24.1215 9.39415 24.6519 9.92456 24.6519 10.5789Z" fill="currentColor"/>
<path d="M3.32696 10.5789C3.32696 11.2332 2.79654 11.7636 2.14224 11.7636C1.48794 11.7636 0.95752 11.2332 0.95752 10.5789C0.95752 9.92456 1.48794 9.39415 2.14224 9.39415C2.79654 9.39415 3.32696 9.92456 3.32696 10.5789Z" fill="currentColor"/>
<path d="M24.6519 22.7646C24.6519 23.4189 24.1215 23.9493 23.4672 23.9493C22.8129 23.9493 22.2825 23.4189 22.2825 22.7646C22.2825 22.1103 22.8129 21.5798 23.4672 21.5798C24.1215 21.5798 24.6519 22.1103 24.6519 22.7646Z" fill="currentColor"/>
<path d="M12.4662 22.7646C12.4662 23.4189 11.9358 23.9493 11.2815 23.9493C10.6272 23.9493 10.0968 23.4189 10.0968 22.7646C10.0968 22.1103 10.6272 21.5798 11.2815 21.5798C11.9358 21.5798 12.4662 22.1103 12.4662 22.7646Z" fill="currentColor"/>
<path d="M3.32696 13.6253C3.32696 14.2796 2.79654 14.81 2.14224 14.81C1.48794 14.81 0.95752 14.2796 0.95752 13.6253C0.95752 12.971 1.48794 12.4406 2.14224 12.4406C2.79654 12.4406 3.32696 12.971 3.32696 13.6253Z" fill="currentColor"/>
<path d="M12.4662 25.811C12.4662 26.4653 11.9358 26.9957 11.2815 26.9957C10.6272 26.9957 10.0968 26.4653 10.0968 25.811C10.0968 25.1567 10.6272 24.6263 11.2815 24.6263C11.9358 24.6263 12.4662 25.1567 12.4662 25.811Z" fill="currentColor"/>
<path d="M24.6519 16.6717C24.6519 17.326 24.1215 17.8564 23.4672 17.8564C22.8129 17.8564 22.2825 17.326 22.2825 16.6717C22.2825 16.0174 22.8129 15.487 23.4672 15.487C24.1215 15.487 24.6519 16.0174 24.6519 16.6717Z" fill="currentColor"/>
<path d="M3.32696 16.6717C3.32696 17.326 2.79654 17.8564 2.14224 17.8564C1.48794 17.8564 0.95752 17.326 0.95752 16.6717C0.95752 16.0174 1.48794 15.487 2.14224 15.487C2.79654 15.487 3.32696 16.0174 3.32696 16.6717Z" fill="currentColor"/>
<path d="M24.6519 28.8574C24.6519 29.5117 24.1215 30.0421 23.4672 30.0421C22.8129 30.0421 22.2825 29.5117 22.2825 28.8574C22.2825 28.2031 22.8129 27.6727 23.4672 27.6727C24.1215 27.6727 24.6519 28.2031 24.6519 28.8574Z" fill="currentColor"/>
<path d="M12.4662 28.8574C12.4662 29.5117 11.9358 30.0421 11.2815 30.0421C10.6272 30.0421 10.0968 29.5117 10.0968 28.8574C10.0968 28.2031 10.6272 27.6727 11.2815 27.6727C11.9358 27.6727 12.4662 28.2031 12.4662 28.8574Z" fill="currentColor"/>
<path d="M24.6519 19.7181C24.6519 20.3724 24.1215 20.9029 23.4672 20.9029C22.8129 20.9029 22.2825 20.3724 22.2825 19.7181C22.2825 19.0638 22.8129 18.5334 23.4672 18.5334C24.1215 18.5334 24.6519 19.0638 24.6519 19.7181Z" fill="currentColor"/>
<path d="M3.32696 19.7181C3.32696 20.3724 2.79654 20.9029 2.14224 20.9029C1.48794 20.9029 0.95752 20.3724 0.95752 19.7181C0.95752 19.0638 1.48794 18.5334 2.14224 18.5334C2.79654 18.5334 3.32696 19.0638 3.32696 19.7181Z" fill="currentColor"/>
<path d="M15.5126 7.53245C15.5126 8.18675 14.9822 8.71716 14.3279 8.71716C13.6736 8.71716 13.1432 8.18675 13.1432 7.53245C13.1432 6.87814 13.6736 6.34773 14.3279 6.34773C14.9822 6.34773 15.5126 6.87814 15.5126 7.53245Z" fill="currentColor"/>
<path d="M15.5126 10.5789C15.5126 11.2332 14.9822 11.7636 14.3279 11.7636C13.6736 11.7636 13.1432 11.2332 13.1432 10.5789C13.1432 9.92456 13.6736 9.39415 14.3279 9.39415C14.9822 9.39415 15.5126 9.92456 15.5126 10.5789Z" fill="currentColor"/>
<path d="M15.5126 16.6717C15.5126 17.326 14.9822 17.8564 14.3279 17.8564C13.6736 17.8564 13.1432 17.326 13.1432 16.6717C13.1432 16.0174 13.6736 15.487 14.3279 15.487C14.9822 15.487 15.5126 16.0174 15.5126 16.6717Z" fill="currentColor"/>
<path d="M15.5126 19.7181C15.5126 20.3724 14.9822 20.9029 14.3279 20.9029C13.6736 20.9029 13.1432 20.3724 13.1432 19.7181C13.1432 19.0638 13.6736 18.5334 14.3279 18.5334C14.9822 18.5334 15.5126 19.0638 15.5126 19.7181Z" fill="currentColor"/>
<path d="M27.6983 10.5789C27.6983 11.2332 27.1679 11.7636 26.5136 11.7636C25.8593 11.7636 25.3289 11.2332 25.3289 10.5789C25.3289 9.92456 25.8593 9.39415 26.5136 9.39415C27.1679 9.39415 27.6983 9.92456 27.6983 10.5789Z" fill="currentColor"/>
<path d="M6.37338 10.5789C6.37338 11.2332 5.84296 11.7636 5.18866 11.7636C4.53436 11.7636 4.00394 11.2332 4.00394 10.5789C4.00394 9.92456 4.53436 9.39415 5.18866 9.39415C5.84296 9.39415 6.37338 9.92456 6.37338 10.5789Z" fill="currentColor"/>
<path d="M15.5126 22.7646C15.5126 23.4189 14.9822 23.9493 14.3279 23.9493C13.6736 23.9493 13.1432 23.4189 13.1432 22.7646C13.1432 22.1103 13.6736 21.5798 14.3279 21.5798C14.9822 21.5798 15.5126 22.1103 15.5126 22.7646Z" fill="currentColor"/>
<path d="M27.6983 25.811C27.6983 26.4653 27.1679 26.9957 26.5136 26.9957C25.8593 26.9957 25.3289 26.4653 25.3289 25.811C25.3289 25.1567 25.8593 24.6263 26.5136 24.6263C27.1679 24.6263 27.6983 25.1567 27.6983 25.811Z" fill="currentColor"/>
<path d="M15.5126 25.811C15.5126 26.4653 14.9822 26.9957 14.3279 26.9957C13.6736 26.9957 13.1432 26.4653 13.1432 25.811C13.1432 25.1567 13.6736 24.6263 14.3279 24.6263C14.9822 24.6263 15.5126 25.1567 15.5126 25.811Z" fill="currentColor"/>
<path d="M27.6983 28.8574C27.6983 29.5117 27.1679 30.0421 26.5136 30.0421C25.8593 30.0421 25.3289 29.5117 25.3289 28.8574C25.3289 28.2031 25.8593 27.6727 26.5136 27.6727C27.1679 27.6727 27.6983 28.2031 27.6983 28.8574Z" fill="currentColor"/>
<path d="M27.6983 19.7181C27.6983 20.3724 27.1679 20.9029 26.5136 20.9029C25.8593 20.9029 25.3289 20.3724 25.3289 19.7181C25.3289 19.0638 25.8593 18.5334 26.5136 18.5334C27.1679 18.5334 27.6983 19.0638 27.6983 19.7181Z" fill="currentColor"/>
<path d="M6.37338 19.7181C6.37338 20.3724 5.84296 20.9029 5.18866 20.9029C4.53436 20.9029 4.00394 20.3724 4.00394 19.7181C4.00394 19.0638 4.53436 18.5334 5.18866 18.5334C5.84296 18.5334 6.37338 19.0638 6.37338 19.7181Z" fill="currentColor"/>
<path d="M18.5591 4.48602C18.5591 5.14033 18.0287 5.67074 17.3743 5.67074C16.72 5.67074 16.1896 5.14033 16.1896 4.48602C16.1896 3.83172 16.72 3.3013 17.3743 3.3013C18.0287 3.3013 18.5591 3.83172 18.5591 4.48602Z" fill="currentColor"/>
<path d="M18.5591 7.53245C18.5591 8.18675 18.0287 8.71716 17.3743 8.71716C16.72 8.71716 16.1896 8.18675 16.1896 7.53245C16.1896 6.87814 16.72 6.34773 17.3743 6.34773C18.0287 6.34773 18.5591 6.87814 18.5591 7.53245Z" fill="currentColor"/>
<path d="M18.5591 13.6253C18.5591 14.2796 18.0287 14.81 17.3743 14.81C16.72 14.81 16.1896 14.2796 16.1896 13.6253C16.1896 12.971 16.72 12.4406 17.3743 12.4406C18.0287 12.4406 18.5591 12.971 18.5591 13.6253Z" fill="currentColor"/>
<path d="M18.5591 16.6717C18.5591 17.326 18.0287 17.8564 17.3743 17.8564C16.72 17.8564 16.1896 17.326 16.1896 16.6717C16.1896 16.0174 16.72 15.487 17.3743 15.487C18.0287 15.487 18.5591 16.0174 18.5591 16.6717Z" fill="currentColor"/>
<path d="M30.7448 10.5789C30.7448 11.2332 30.2143 11.7636 29.56 11.7636C28.9057 11.7636 28.3753 11.2332 28.3753 10.5789C28.3753 9.92456 28.9057 9.39415 29.56 9.39415C30.2143 9.39415 30.7448 9.92456 30.7448 10.5789Z" fill="currentColor"/>
<path d="M9.4198 10.5789C9.4198 11.2332 8.88939 11.7636 8.23508 11.7636C7.58078 11.7636 7.05036 11.2332 7.05036 10.5789C7.05036 9.92456 7.58078 9.39415 8.23508 9.39415C8.88939 9.39415 9.4198 9.92456 9.4198 10.5789Z" fill="currentColor"/>
<path d="M18.5591 22.7646C18.5591 23.4189 18.0287 23.9493 17.3743 23.9493C16.72 23.9493 16.1896 23.4189 16.1896 22.7646C16.1896 22.1103 16.72 21.5798 17.3743 21.5798C18.0287 21.5798 18.5591 22.1103 18.5591 22.7646Z" fill="currentColor"/>
<path d="M30.7448 13.6253C30.7448 14.2796 30.2143 14.81 29.56 14.81C28.9057 14.81 28.3753 14.2796 28.3753 13.6253C28.3753 12.971 28.9057 12.4406 29.56 12.4406C30.2143 12.4406 30.7448 12.971 30.7448 13.6253Z" fill="currentColor"/>
<path d="M9.4198 13.6253C9.4198 14.2796 8.88939 14.81 8.23508 14.81C7.58078 14.81 7.05036 14.2796 7.05036 13.6253C7.05036 12.971 7.58078 12.4406 8.23508 12.4406C8.88939 12.4406 9.4198 12.971 9.4198 13.6253Z" fill="currentColor"/>
<path d="M30.7448 25.811C30.7448 26.4653 30.2143 26.9957 29.56 26.9957C28.9057 26.9957 28.3753 26.4653 28.3753 25.811C28.3753 25.1567 28.9057 24.6263 29.56 24.6263C30.2143 24.6263 30.7448 25.1567 30.7448 25.811Z" fill="currentColor"/>
<path d="M30.7448 16.6717C30.7448 17.326 30.2143 17.8564 29.56 17.8564C28.9057 17.8564 28.3753 17.326 28.3753 16.6717C28.3753 16.0174 28.9057 15.487 29.56 15.487C30.2143 15.487 30.7448 16.0174 30.7448 16.6717Z" fill="currentColor"/>
<path d="M9.4198 16.6717C9.4198 17.326 8.88939 17.8564 8.23508 17.8564C7.58078 17.8564 7.05036 17.326 7.05036 16.6717C7.05036 16.0174 7.58078 15.487 8.23508 15.487C8.88939 15.487 9.4198 16.0174 9.4198 16.6717Z" fill="currentColor"/>
<path d="M30.7448 28.8574C30.7448 29.5117 30.2143 30.0421 29.56 30.0421C28.9057 30.0421 28.3753 29.5117 28.3753 28.8574C28.3753 28.2031 28.9057 27.6727 29.56 27.6727C30.2143 27.6727 30.7448 28.2031 30.7448 28.8574Z" fill="currentColor"/>
<path d="M18.5591 28.8574C18.5591 29.5117 18.0287 30.0421 17.3743 30.0421C16.72 30.0421 16.1896 29.5117 16.1896 28.8574C16.1896 28.2031 16.72 27.6727 17.3743 27.6727C18.0287 27.6727 18.5591 28.2031 18.5591 28.8574Z" fill="currentColor"/>
<path d="M30.7448 19.7181C30.7448 20.3724 30.2143 20.9029 29.56 20.9029C28.9057 20.9029 28.3753 20.3724 28.3753 19.7181C28.3753 19.0638 28.9057 18.5334 29.56 18.5334C30.2143 18.5334 30.7448 19.0638 30.7448 19.7181Z" fill="currentColor"/>
<path d="M9.4198 19.7181C9.4198 20.3724 8.88939 20.9029 8.23508 20.9029C7.58078 20.9029 7.05036 20.3724 7.05036 19.7181C7.05036 19.0638 7.58078 18.5334 8.23508 18.5334C8.88939 18.5334 9.4198 19.0638 9.4198 19.7181Z" fill="currentColor"/>
<path d="M21.6055 1.4396C21.6055 2.0939 21.0751 2.62432 20.4208 2.62432C19.7665 2.62432 19.2361 2.0939 19.2361 1.4396C19.2361 0.7853 19.7665 0.254883 20.4208 0.254883C21.0751 0.254883 21.6055 0.7853 21.6055 1.4396Z" fill="currentColor"/>
<path d="M21.6055 4.48602C21.6055 5.14033 21.0751 5.67074 20.4208 5.67074C19.7665 5.67074 19.2361 5.14033 19.2361 4.48602C19.2361 3.83172 19.7665 3.3013 20.4208 3.3013C21.0751 3.3013 21.6055 3.83172 21.6055 4.48602Z" fill="currentColor"/>
<path d="M21.6055 7.53245C21.6055 8.18675 21.0751 8.71716 20.4208 8.71716C19.7665 8.71716 19.2361 8.18675 19.2361 7.53245C19.2361 6.87814 19.7665 6.34773 20.4208 6.34773C21.0751 6.34773 21.6055 6.87814 21.6055 7.53245Z" fill="currentColor"/>
<path d="M21.6055 10.5789C21.6055 11.2332 21.0751 11.7636 20.4208 11.7636C19.7665 11.7636 19.2361 11.2332 19.2361 10.5789C19.2361 9.92456 19.7665 9.39415 20.4208 9.39415C21.0751 9.39415 21.6055 9.92456 21.6055 10.5789Z" fill="currentColor"/>
<path d="M21.6055 13.6253C21.6055 14.2796 21.0751 14.81 20.4208 14.81C19.7665 14.81 19.2361 14.2796 19.2361 13.6253C19.2361 12.971 19.7665 12.4406 20.4208 12.4406C21.0751 12.4406 21.6055 12.971 21.6055 13.6253Z" fill="currentColor"/>
<path d="M21.6055 19.7181C21.6055 20.3724 21.0751 20.9029 20.4208 20.9029C19.7665 20.9029 19.2361 20.3724 19.2361 19.7181C19.2361 19.0638 19.7665 18.5334 20.4208 18.5334C21.0751 18.5334 21.6055 19.0638 21.6055 19.7181Z" fill="currentColor"/>
<path d="M21.6055 25.811C21.6055 26.4653 21.0751 26.9957 20.4208 26.9957C19.7665 26.9957 19.2361 26.4653 19.2361 25.811C19.2361 25.1567 19.7665 24.6263 20.4208 24.6263C21.0751 24.6263 21.6055 25.1567 21.6055 25.811Z" fill="currentColor"/>
<path d="M21.6055 28.8574C21.6055 29.5117 21.0751 30.0421 20.4208 30.0421C19.7665 30.0421 19.2361 29.5117 19.2361 28.8574C19.2361 28.2031 19.7665 27.6727 20.4208 27.6727C21.0751 27.6727 21.6055 28.2031 21.6055 28.8574Z" fill="currentColor"/>
<path d="M3.66545 3.6398C3.66545 3.26591 3.96855 2.96281 4.34243 2.96281H5.6964C6.07029 2.96281 6.37338 3.26591 6.37338 3.6398V4.99376C6.37338 5.36765 6.07029 5.67074 5.6964 5.67074H4.34243C3.96855 5.67074 3.66545 5.36765 3.66545 4.99376V3.6398Z" fill="currentColor"/>
<path fill-rule="evenodd" clip-rule="evenodd" d="M1.6345 0.254883C1.26061 0.254883 0.95752 0.557978 0.95752 0.931865V7.70169C0.95752 8.07558 1.26061 8.37867 1.6345 8.37867H8.40433C8.77822 8.37867 9.08131 8.07558 9.08131 7.70169V0.931865C9.08131 0.557978 8.77822 0.254883 8.40433 0.254883H1.6345ZM6.71187 1.94734H3.32696C2.95307 1.94734 2.64998 2.25043 2.64998 2.62432V6.00923C2.64998 6.38312 2.95307 6.68622 3.32696 6.68622H6.71187C7.08576 6.68622 7.38885 6.38312 7.38885 6.00923V2.62432C7.38885 2.25043 7.08576 1.94734 6.71187 1.94734ZM4.34243 2.96281H5.6964C6.07029 2.96281 6.37338 3.26591 6.37338 3.6398V4.99376C6.37338 5.36765 6.07029 5.67074 5.6964 5.67074H4.34243C3.96855 5.67074 3.66545 5.36765 3.66545 4.99376V3.6398C3.66545 3.26591 3.96855 2.96281 4.34243 2.96281Z" fill="currentColor"/>
<path fill-rule="evenodd" clip-rule="evenodd" d="M23.2979 0.254883C22.9241 0.254883 22.621 0.557978 22.621 0.931865V7.70169C22.621 8.07558 22.9241 8.37867 23.2979 8.37867H30.0678C30.4417 8.37867 30.7448 8.07558 30.7448 7.70169V0.931865C30.7448 0.557978 30.4417 0.254883 30.0678 0.254883H23.2979ZM28.3753 1.94734H24.9904C24.6165 1.94734 24.3134 2.25043 24.3134 2.62432V6.00923C24.3134 6.38312 24.6165 6.68622 24.9904 6.68622H28.3753C28.7492 6.68622 29.0523 6.38312 29.0523 6.00923V2.62432C29.0523 2.25043 28.7492 1.94734 28.3753 1.94734ZM26.0059 2.96281H27.3598C27.7337 2.96281 28.0368 3.26591 28.0368 3.6398V4.99376C28.0368 5.36765 27.7337 5.67074 27.3598 5.67074H26.0059C25.632 5.67074 25.3289 5.36765 25.3289 4.99376V3.6398C25.3289 3.26591 25.632 2.96281 26.0059 2.96281Z" fill="currentColor"/>
<path fill-rule="evenodd" clip-rule="evenodd" d="M1.6345 21.9183C1.26061 21.9183 0.95752 22.2214 0.95752 22.5953V29.3651C0.95752 29.739 1.26061 30.0421 1.6345 30.0421H8.40433C8.77822 30.0421 9.08131 29.739 9.08131 29.3651V22.5953C9.08131 22.2214 8.77822 21.9183 8.40433 21.9183H1.6345ZM6.71187 23.6108H3.32696C2.95307 23.6108 2.64998 23.9139 2.64998 24.2878V27.6727C2.64998 28.0466 2.95307 28.3497 3.32696 28.3497H6.71187C7.08576 28.3497 7.38885 28.0466 7.38885 27.6727V24.2878C7.38885 23.9139 7.08576 23.6108 6.71187 23.6108ZM4.34243 24.6263H5.6964C6.07029 24.6263 6.37338 24.9293 6.37338 25.3032V26.6572C6.37338 27.0311 6.07029 27.3342 5.6964 27.3342H4.34243C3.96855 27.3342 3.66545 27.0311 3.66545 26.6572V25.3032C3.66545 24.9293 3.96855 24.6263 4.34243 24.6263Z" fill="currentColor"/>
</g>
</g>
</svg>
