<svg width="172" height="71" viewBox="0 0 172 71" fill="none" xmlns="http://www.w3.org/2000/svg">
<path d="M13.5587 20.4401C15.0085 20.4401 16.1837 19.2648 16.1837 17.8151C16.1837 16.3653 15.0085 15.19 13.5587 15.19M13.5587 20.4401C12.1089 20.4401 10.9337 19.2648 10.9337 17.8151C10.9337 16.3653 12.1089 15.19 13.5587 15.19M13.5587 20.4401L13.5587 22.226M13.5587 15.19V10.0957M13.5587 22.226C10.9008 22.226 8.74615 24.3806 8.74615 27.0386C8.74615 27.478 8.80504 27.9036 8.91536 28.3081M13.5587 22.226C16.2166 22.226 18.3713 24.3806 18.3713 27.0386C18.3713 27.478 18.3124 27.9036 18.202 28.3081M8.91536 28.3081H18.202M8.91536 28.3081C9.32564 29.8122 10.4472 31.0228 11.8962 31.5562M18.202 28.3081C17.7918 29.8122 16.6702 31.0228 15.2212 31.5562M15.2212 31.5562C14.7031 31.747 14.143 31.8511 13.5587 31.8511C12.9744 31.8511 12.4143 31.747 11.8962 31.5562M15.2212 31.5562V33.7944M15.2212 42.5981C14.6953 42.4376 14.1371 42.3512 13.5587 42.3512C12.9803 42.3512 12.4221 42.4376 11.8962 42.5981M15.2212 42.5981C17.5513 43.3092 19.2463 45.476 19.2463 48.0388C19.2463 48.4565 19.2012 48.8637 19.1158 49.2558M15.2212 42.5981V39.8214M11.8962 42.5981C9.56612 43.3092 7.87114 45.476 7.87114 48.0388C7.87114 48.4565 7.91617 48.8637 8.00165 49.2558M11.8962 42.5981V39.8214M11.8962 31.5562V33.7944M11.8962 33.7944H15.2212M11.8962 33.7944V37.0448M15.2212 33.7944V37.0448M11.8962 37.0448H15.2212M11.8962 37.0448V39.8214M15.2212 37.0448V39.8214M11.8962 39.8214H15.2212M8.00165 49.2558H19.1158M8.00165 49.2558C8.3049 50.6469 9.11723 51.8479 10.2337 52.6537M19.1158 49.2558C18.8125 50.6469 18.0002 51.8479 16.8838 52.6537M5.24609 60.7272H6.74236M22.2038 60.7272H20.2088M10.2337 52.6537L6.74236 60.7272M10.2337 52.6537C10.7331 53.0142 11.2934 53.2956 11.8962 53.4795M6.74236 60.7272H11.8962M16.8838 52.6537L20.2088 60.7272M16.8838 52.6537C16.3843 53.0142 15.824 53.2956 15.2212 53.4795M20.2088 60.7272H15.2212M11.8962 53.4795C12.4221 53.64 12.9803 53.7264 13.5587 53.7264C14.1371 53.7264 14.6953 53.64 15.2212 53.4795M11.8962 53.4795V55.965M11.8962 60.7272H15.2212M11.8962 60.7272V55.965M15.2212 53.4795L15.2212 55.965M15.2212 60.7272L15.2212 55.965M11.8962 55.965H15.2212" stroke="#1E325F" stroke-width="1.79552" stroke-linecap="round"/>
<path d="M57.4375 17.4961H63.21M57.4375 17.4961V23.4268M57.4375 17.4961C56.4239 21.8123 55.0544 25.1316 53.4804 27.6995M57.4375 53.3278V36.0296M63.21 17.4961V23.4268M63.21 17.4961C63.975 19.5204 65.1306 21.9525 66.5931 24.2191C66.736 24.4405 66.8818 24.6603 67.0305 24.8781M63.21 53.3278V36.0296M82.3951 28.8228H86.1302M82.3951 28.8228V32.9614M82.3951 28.8228C81.5108 29.6432 80.6384 30.2576 79.7818 30.692C79.5406 30.8143 79.3007 30.9224 79.062 31.0167M82.3951 53.3278V41.0753M86.1302 28.8228V32.9614M86.1302 28.8228C86.4306 31.9055 87.5968 34.2813 89.1905 36.0296M86.1302 53.3278V41.0753M38.1641 37.1C39.0802 36.9303 40.09 36.7487 41.1566 36.4956M98.0148 39.9317C96.2837 39.9317 94.3388 39.4985 92.5284 38.5689M39.3197 45.4199C39.9017 45.1724 40.5149 44.9403 41.1566 44.7231M98.0148 48.1C96.8421 47.2857 94.9473 46.5009 92.5284 45.7822M63.21 23.4268H57.4375M63.21 23.4268V29.8517M57.4375 23.4268V29.8517M57.4375 29.8517H63.21M57.4375 29.8517V36.0296M63.21 29.8517V36.0296M63.21 36.0296H57.4375M82.3951 41.0753H86.1302M82.3951 41.0753V37.1M86.1302 41.0753V37.1M82.3951 37.1H86.1302M82.3951 37.1V32.9614M86.1302 37.1V32.9614M82.3951 32.9614H86.1302M39.3197 48.1C54.4301 41.6743 90.6124 45.6396 98.0148 50.7802M89.1905 36.0296V44.9079M89.1905 36.0296C90.1746 37.109 91.3216 37.9493 92.5284 38.5689M89.1905 44.9079C86.4159 44.2639 83.2171 43.6985 79.7818 43.2464C79.543 43.2149 79.3031 43.1841 79.062 43.1537M89.1905 44.9079C90.387 45.1856 91.5047 45.478 92.5284 45.7822M92.5284 38.5689V45.7822M67.0305 24.8781C67.9463 26.2194 68.9703 27.4805 70.0844 28.5365C70.4448 28.8781 70.8147 29.1983 71.1933 29.4927M67.0305 24.8781V42.1793M67.0305 42.1793C66.8847 42.1739 66.7389 42.1687 66.5931 42.1638C62.1294 42.012 57.6518 42.0821 53.4804 42.4332M67.0305 42.1793C68.051 42.2174 69.0703 42.2669 70.0844 42.3272C70.4548 42.3492 70.8245 42.3727 71.1933 42.3975M71.1933 29.4927C71.7995 29.9641 72.4282 30.3697 73.077 30.692C73.8792 31.0906 74.712 31.3621 75.5708 31.4735M71.1933 29.4927V42.3975M71.1933 42.3975C71.824 42.4401 72.4522 42.4867 73.077 42.5373C73.9152 42.6051 74.7472 42.6801 75.5708 42.7617M75.5708 31.4735C75.8996 31.5162 76.2321 31.5354 76.5683 31.5294C77.3802 31.5147 78.2127 31.3525 79.062 31.0167M75.5708 31.4735V42.7617M75.5708 42.7617C75.9047 42.7948 76.2373 42.829 76.5683 42.8643C77.4104 42.954 78.2425 43.0506 79.062 43.1537M79.062 31.0167V43.1537M53.4804 27.6995C53.3037 27.9879 53.1244 28.2668 52.9427 28.5365C51.8511 30.1572 50.6743 31.4484 49.4587 32.4856M53.4804 27.6995V42.4332M53.4804 42.4332C53.3006 42.4483 53.1214 42.464 52.9427 42.4801C51.7524 42.588 50.5885 42.7192 49.4587 42.8752M49.4587 32.4856C49.0231 32.8572 48.5826 33.1962 48.1392 33.5061C47.1479 34.1989 46.1424 34.7459 45.1466 35.186M49.4587 32.4856V42.8752M49.4587 42.8752C49.0134 42.9367 48.5734 43.002 48.1392 43.0713C47.1072 43.2359 46.1076 43.4228 45.1466 43.633M45.1466 35.186C44.8127 35.3336 44.4799 35.4692 44.1491 35.5941C43.1235 35.9817 42.117 36.2676 41.1566 36.4956M45.1466 35.186V43.633M45.1466 43.633C44.8093 43.7068 44.4767 43.7835 44.1491 43.8631C43.0967 44.119 42.0962 44.4051 41.1566 44.7231M41.1566 36.4956V44.7231" stroke="#F04650" stroke-width="1.79552" stroke-linecap="round"/>
<path d="M116.165 39.7378V60.3502M116.165 60.3502H120.181M116.165 60.3502H113.975M120.181 39.7378V60.3502M120.181 39.7378H115.435M120.181 39.7378H120.912M120.181 60.3502H124.563M124.563 39.7378V60.3502M124.563 39.7378H123.832M124.563 39.7378H128.213M124.563 60.3502H128.213M128.213 39.7378V60.3502M128.213 39.7378H128.944M128.213 60.3502H132.595M132.595 60.3502V40.4679C132.595 40.0647 132.268 39.7378 131.864 39.7378V39.7378H136.245M132.595 60.3502H136.063M136.245 39.7378H136.976M136.245 39.7378L136.063 60.3502M136.063 60.3502H144.642M144.642 60.3502V39.7369M144.642 60.3502H148.293M144.642 39.7369H148.293M144.642 39.7369H143.912M148.293 60.3502V39.7369M148.293 60.3502H152.674M148.293 39.7369H149.206M152.674 39.7369H151.944M152.674 39.7369H156.325M152.674 39.7369V60.3502M156.325 39.7369H157.055M156.325 39.7369V60.3502M152.674 60.3502H156.325M156.325 60.3502H160.706M160.706 39.7369H159.976M160.706 39.7369H164.357M160.706 39.7369V60.3502M164.357 39.7369H165.087M164.357 39.7369V60.3502M160.706 60.3502H164.357M164.357 60.3502H166.548M116.348 30.719V34.9734C116.348 35.4697 116.751 35.8721 117.247 35.8721H163.458C163.955 35.8721 164.357 35.4697 164.357 34.9734V30.719M116.348 30.719H114.523M116.348 30.719H131.864M164.357 30.719H166M164.357 30.719H148.293M114.523 27.0382H131.864M131.864 27.0382V23.5414M131.864 27.0382V30.719M131.864 23.5414H148.293M131.864 23.5414H131.134M148.293 23.5414V27.0382M148.293 23.5414H151.397M148.293 27.0382H166.548M148.293 27.0382V30.719M131.864 30.719H148.293M129.309 23.5414H131.134M131.134 23.5414C131.317 21.517 130.221 18.2043 133.142 18.2043C136.063 18.2043 135.15 21.3329 135.15 23.5414M138.253 23.5416C138.436 21.5172 137.341 18.2044 140.261 18.2044M140.261 18.2044C143.182 18.2044 142.269 21.3331 142.269 23.5416M140.261 18.2044V10.4746M145.373 23.3574C145.555 21.3329 144.46 18.0202 147.381 18.0202C150.301 18.0202 149.389 21.1489 149.389 23.3574M137.341 11.5788C138.253 14.1554 141.722 14.5235 143.182 11.5788M138.818 15.4437H141.539" stroke="#526598" stroke-width="1.79552" stroke-linecap="round"/>
</svg>
