<svg width="1508" height="1133" viewBox="0 0 1508 1133" fill="none" xmlns="http://www.w3.org/2000/svg">
<g filter="url(#filter0_f_5220_52130)">
<g filter="url(#filter1_f_5220_52130)">
<path d="M-214 700.59L-189.421 602.273H-164.842H-140.262H-115.683H-91.1039H-66.5247H-41.9454H-17.3662H7.21301H31.7922H56.3715H80.9507H105.53H130.109H154.688H179.268H203.847H228.426H253.005H277.584H302.164H326.743H351.322H375.901H400.481L375.901 700.59H351.322H326.743H302.164H277.584H253.005H228.426H203.847H179.268H154.688H130.109H105.53H80.9507H56.3715H31.7922H7.21301H-17.3662H-41.9454H-66.5247H-91.1039H-115.683H-140.262H-164.842H-189.421H-214Z" fill="#395BA9"/>
<path d="M-140.262 602.273L-164.842 700.59M-140.262 602.273H-164.842M-140.262 602.273H-115.683M-164.842 700.59H-140.262M-164.842 700.59H-189.421M-115.683 602.273L-140.262 700.59M-115.683 602.273H-91.1039M-140.262 700.59H-115.683M-91.1039 602.273L-115.683 700.59M-91.1039 602.273H-66.5247M-115.683 700.59H-91.1039M-66.5247 602.273L-91.1039 700.59M-66.5247 602.273H-41.9454M-91.1039 700.59H-66.5247M-41.9454 602.273L-66.5247 700.59M-41.9454 602.273H-17.3662M-66.5247 700.59H-41.9454M-17.3662 602.273L-41.9454 700.59M-17.3662 602.273H7.21301M-41.9454 700.59H-17.3662M7.21301 602.273L-17.3662 700.59M7.21301 602.273H31.7922M-17.3662 700.59H7.21301M31.7922 602.273L7.21301 700.59M31.7922 602.273H56.3714M7.21301 700.59H31.7922M56.3714 602.273L31.7922 700.59M56.3714 602.273H80.9507M31.7922 700.59H56.3714M80.9507 602.273L56.3714 700.59M80.9507 602.273H105.53M56.3714 700.59H80.9507M105.53 602.273L80.9507 700.59M105.53 602.273H130.109M80.9507 700.59H105.53M130.109 602.273L105.53 700.59M130.109 602.273H154.688M105.53 700.59H130.109M154.688 602.273L130.109 700.59M154.688 602.273H179.268M130.109 700.59H154.688M179.268 602.273L154.688 700.59M179.268 602.273H203.847M154.688 700.59H179.268M203.847 602.273L179.268 700.59M203.847 602.273H228.426M179.268 700.59H203.847M228.426 602.273L203.847 700.59M228.426 602.273H253.005M203.847 700.59H228.426M253.005 602.273L228.426 700.59M253.005 602.273H277.584M228.426 700.59H253.005M277.584 602.273L253.005 700.59M277.584 602.273H302.164M253.005 700.59H277.584M302.164 602.273L277.584 700.59M302.164 602.273H326.743M277.584 700.59H302.164M326.743 602.273L302.164 700.59M326.743 602.273H351.322M302.164 700.59H326.743M351.322 602.273L326.743 700.59M351.322 602.273H375.901M326.743 700.59H351.322M375.901 602.273L351.322 700.59M375.901 602.273H400.481L375.901 700.59H351.322M-164.842 602.273L-189.421 700.59M-164.842 602.273H-189.421L-214 700.59H-189.421" stroke="black"/>
<path d="M373.768 700.461L398.347 602.145H422.926H447.505H472.084H496.664H521.243H545.822H570.401H594.981H619.56H644.139H668.718H693.297H717.877H742.456H767.035H791.614H816.194H840.773H865.352H889.931H914.51H939.09H963.669H988.248L963.669 700.461H939.09H914.51H889.931H865.352H840.773H816.194H791.614H767.035H742.456H717.877H693.297H668.718H644.139H619.56H594.981H570.401H545.822H521.243H496.664H472.084H447.505H422.926H398.347H373.768Z" fill="#395BA9"/>
<path d="M447.505 602.145L422.926 700.461M447.505 602.145H422.926M447.505 602.145H472.084M422.926 700.461H447.505M422.926 700.461H398.347M472.084 602.145L447.505 700.461M472.084 602.145H496.664M447.505 700.461H472.084M496.664 602.145L472.084 700.461M496.664 602.145H521.243M472.084 700.461H496.664M521.243 602.145L496.664 700.461M521.243 602.145H545.822M496.664 700.461H521.243M545.822 602.145L521.243 700.461M545.822 602.145H570.401M521.243 700.461H545.822M570.401 602.145L545.822 700.461M570.401 602.145H594.981M545.822 700.461H570.401M594.981 602.145L570.401 700.461M594.981 602.145H619.56M570.401 700.461H594.981M619.56 602.145L594.981 700.461M619.56 602.145H644.139M594.981 700.461H619.56M644.139 602.145L619.56 700.461M644.139 602.145H668.718M619.56 700.461H644.139M668.718 602.145L644.139 700.461M668.718 602.145H693.297M644.139 700.461H668.718M693.297 602.145L668.718 700.461M693.297 602.145H717.877M668.718 700.461H693.297M717.877 602.145L693.297 700.461M717.877 602.145H742.456M693.297 700.461H717.877M742.456 602.145L717.877 700.461M742.456 602.145H767.035M717.877 700.461H742.456M767.035 602.145L742.456 700.461M767.035 602.145H791.614M742.456 700.461H767.035M791.614 602.145L767.035 700.461M791.614 602.145H816.194M767.035 700.461H791.614M816.194 602.145L791.614 700.461M816.194 602.145H840.773M791.614 700.461H816.194M840.773 602.145L816.194 700.461M840.773 602.145H865.352M816.194 700.461H840.773M865.352 602.145L840.773 700.461M865.352 602.145H889.931M840.773 700.461H865.352M889.931 602.145L865.352 700.461M889.931 602.145H914.51M865.352 700.461H889.931M914.51 602.145L889.931 700.461M914.51 602.145H939.09M889.931 700.461H914.51M939.09 602.145L914.51 700.461M939.09 602.145H963.669M914.51 700.461H939.09M963.669 602.145L939.09 700.461M963.669 602.145H988.248L963.669 700.461H939.09M422.926 602.145L398.347 700.461M422.926 602.145H398.347L373.768 700.461H398.347" stroke="black"/>
<path d="M961.518 700.459L986.097 602.143H1010.68H1035.26H1059.83H1084.41H1108.99H1133.57H1158.15H1182.73H1207.31H1231.89H1256.47H1281.05H1305.63H1330.21H1354.79H1379.36H1403.94H1428.52H1453.1H1477.68H1502.26H1526.84H1551.42H1576L1551.42 700.459H1526.84H1502.26H1477.68H1453.1H1428.52H1403.94H1379.36H1354.79H1330.21H1305.63H1281.05H1256.47H1231.89H1207.31H1182.73H1158.15H1133.57H1108.99H1084.41H1059.83H1035.26H1010.68H986.097H961.518Z" fill="#395BA9"/>
<path d="M1035.26 602.143L1010.68 700.459M1035.26 602.143H1010.68M1035.26 602.143H1059.83M1010.68 700.459H1035.26M1010.68 700.459H986.097M1059.83 602.143L1035.26 700.459M1059.83 602.143H1084.41M1035.26 700.459H1059.83M1084.41 602.143L1059.83 700.459M1084.41 602.143H1108.99M1059.83 700.459H1084.41M1108.99 602.143L1084.41 700.459M1108.99 602.143H1133.57M1084.41 700.459H1108.99M1133.57 602.143L1108.99 700.459M1133.57 602.143H1158.15M1108.99 700.459H1133.57M1158.15 602.143L1133.57 700.459M1158.15 602.143H1182.73M1133.57 700.459H1158.15M1182.73 602.143L1158.15 700.459M1182.73 602.143H1207.31M1158.15 700.459H1182.73M1207.31 602.143L1182.73 700.459M1207.31 602.143H1231.89M1182.73 700.459H1207.31M1231.89 602.143L1207.31 700.459M1231.89 602.143H1256.47M1207.31 700.459H1231.89M1256.47 602.143L1231.89 700.459M1256.47 602.143H1281.05M1231.89 700.459H1256.47M1281.05 602.143L1256.47 700.459M1281.05 602.143H1305.63M1256.47 700.459H1281.05M1305.63 602.143L1281.05 700.459M1305.63 602.143H1330.21M1281.05 700.459H1305.63M1330.21 602.143L1305.63 700.459M1330.21 602.143H1354.79M1305.63 700.459H1330.21M1354.79 602.143L1330.21 700.459M1354.79 602.143H1379.36M1330.21 700.459H1354.79M1379.36 602.143L1354.79 700.459M1379.36 602.143H1403.94M1354.79 700.459H1379.36M1403.94 602.143L1379.36 700.459M1403.94 602.143H1428.52M1379.36 700.459H1403.94M1428.52 602.143L1403.94 700.459M1428.52 602.143H1453.1M1403.94 700.459H1428.52M1453.1 602.143L1428.52 700.459M1453.1 602.143H1477.68M1428.52 700.459H1453.1M1477.68 602.143L1453.1 700.459M1477.68 602.143H1502.26M1453.1 700.459H1477.68M1502.26 602.143L1477.68 700.459M1502.26 602.143H1526.84M1477.68 700.459H1502.26M1526.84 602.143L1502.26 700.459M1526.84 602.143H1551.42M1502.26 700.459H1526.84M1551.42 602.143L1526.84 700.459M1551.42 602.143H1576L1551.42 700.459H1526.84M1010.68 602.143L986.097 700.459M1010.68 602.143H986.097L961.518 700.459H986.097" stroke="black"/>
<path d="M-37.7135 525.461L90.9826 504.012L26.6346 482.562L-102.062 504.012L-37.7135 525.461Z" fill="#B1C5FF"/>
<path d="M-37.7139 675.606V525.461L90.9822 504.012V654.157L-37.7139 675.606Z" fill="#DAE2FF"/>
<path d="M-102.062 503.369V653.515L-37.7135 674.964M-102.062 503.369L26.6346 481.92L58.8086 492.645M-102.062 503.369L-69.8875 514.094M-37.7135 524.819V674.964M-37.7135 524.819L90.9826 503.369M-37.7135 524.819L-69.8875 514.094M-37.7135 674.964L90.9826 653.515V503.369M90.9826 503.369L58.8086 492.645M-69.8875 514.094L58.8086 492.645" stroke="black" stroke-width="0.524189"/>
<g filter="url(#filter2_d_5220_52130)">
<rect width="30.5121" height="30.5121" rx="0.985504" transform="matrix(0.989651 -0.143493 0 1 46.4746 521.996)" fill="white"/>
<rect x="0.325102" y="0.281364" width="29.8551" height="29.8551" rx="0.657003" transform="matrix(0.989651 -0.143493 0 1 46.478 522.043)" stroke="#F04650" stroke-width="0.657003"/>
</g>
<path d="M267.578 525.461L396.274 504.012L331.926 482.562L203.229 504.012L267.578 525.461Z" fill="#B1C5FF"/>
<path d="M267.577 675.606V525.461L396.273 504.012V654.157L267.577 675.606Z" fill="#DAE2FF"/>
<path d="M267.578 675.606V525.461L203.229 504.012V654.157L267.578 675.606Z" fill="#89A9FC"/>
<path d="M203.229 503.369V653.515L267.578 674.964M203.229 503.369L331.926 481.92L364.1 492.645M203.229 503.369L235.404 514.094M267.578 524.819V674.964M267.578 524.819L396.274 503.369M267.578 524.819L235.404 514.094M267.578 674.964L396.274 653.515V503.369M396.274 503.369L364.1 492.645M235.404 514.094L364.1 492.645" stroke="black" stroke-width="0.524189"/>
<g filter="url(#filter3_d_5220_52130)">
<rect width="30.5121" height="30.5121" rx="0.985504" transform="matrix(0.989651 -0.143493 0 1 351.781 521.996)" fill="white"/>
<rect x="0.325102" y="0.281364" width="29.8551" height="29.8551" rx="0.657003" transform="matrix(0.989651 -0.143493 0 1 351.785 522.043)" stroke="#F04650" stroke-width="0.657003"/>
</g>
<path d="M572.888 525.461L701.584 504.012L637.236 482.562L508.54 504.012L572.888 525.461Z" fill="#B1C5FF"/>
<path d="M572.888 675.606V525.461L701.584 504.012V654.157L572.888 675.606Z" fill="#DAE2FF"/>
<path d="M572.888 675.606V525.461L508.54 504.012V654.157L572.888 675.606Z" fill="#89A9FC"/>
<path d="M508.54 503.369V653.515L572.888 674.964M508.54 503.369L637.236 481.92L669.41 492.645M508.54 503.369L540.714 514.094M572.888 524.819V674.964M572.888 524.819L701.584 503.369M572.888 524.819L540.714 514.094M572.888 674.964L701.584 653.515V503.369M701.584 503.369L669.41 492.645M540.714 514.094L669.41 492.645" stroke="black" stroke-width="0.524189"/>
<g filter="url(#filter4_d_5220_52130)">
<rect width="30.5121" height="30.5121" rx="0.985504" transform="matrix(0.989651 -0.143493 0 1 657.068 521.996)" fill="white"/>
<rect x="0.325102" y="0.281364" width="29.8551" height="29.8551" rx="0.657003" transform="matrix(0.989651 -0.143493 0 1 657.072 522.043)" stroke="#F04650" stroke-width="0.657003"/>
</g>
<path d="M878.183 525.461L1006.88 504.012L942.531 482.562L813.835 504.012L878.183 525.461Z" fill="#B1C5FF"/>
<path d="M878.183 675.606V525.461L1006.88 504.012V654.157L878.183 675.606Z" fill="#DAE2FF"/>
<path d="M878.183 675.606V525.461L813.835 504.012V654.157L878.183 675.606Z" fill="#89A9FC"/>
<path d="M813.835 503.369V653.515L878.183 674.964M813.835 503.369L942.531 481.92L974.705 492.645M813.835 503.369L846.009 514.094M878.183 524.819V674.964M878.183 524.819L1006.88 503.369M878.183 524.819L846.009 514.094M878.183 674.964L1006.88 653.515V503.369M1006.88 503.369L974.705 492.645M846.009 514.094L974.705 492.645" stroke="black" stroke-width="0.524189"/>
<g filter="url(#filter5_d_5220_52130)">
<rect width="30.5121" height="30.5121" rx="0.985504" transform="matrix(0.989651 -0.143493 0 1 962.391 521.996)" fill="white"/>
<rect x="0.325102" y="0.281364" width="29.8551" height="29.8551" rx="0.657003" transform="matrix(0.989651 -0.143493 0 1 962.394 522.043)" stroke="#F04650" stroke-width="0.657003"/>
</g>
<path d="M1183.47 525.461L1312.17 504.012L1247.82 482.562L1119.12 504.012L1183.47 525.461Z" fill="#B1C5FF"/>
<path d="M1183.47 675.606V525.461L1312.17 504.012V654.157L1183.47 675.606Z" fill="#DAE2FF"/>
<path d="M1183.47 675.606V525.461L1119.12 504.012V654.157L1183.47 675.606Z" fill="#89A9FC"/>
<path d="M1119.12 503.369V653.515L1183.47 674.964M1119.12 503.369L1247.82 481.92L1279.99 492.645M1119.12 503.369L1151.3 514.094M1183.47 524.819V674.964M1183.47 524.819L1312.17 503.369M1183.47 524.819L1151.3 514.094M1183.47 674.964L1312.17 653.515V503.369M1312.17 503.369L1279.99 492.645M1151.3 514.094L1279.99 492.645" stroke="black" stroke-width="0.524189"/>
<g filter="url(#filter6_d_5220_52130)">
<rect width="30.5121" height="30.5121" rx="0.985504" transform="matrix(0.989651 -0.143493 0 1 1267.66 521.996)" fill="white"/>
<rect x="0.325102" y="0.281364" width="29.8551" height="29.8551" rx="0.657003" transform="matrix(0.989651 -0.143493 0 1 1267.66 522.043)" stroke="#F04650" stroke-width="0.657003"/>
</g>
<path d="M1488.78 525.461L1617.48 504.012L1553.13 482.562L1424.43 504.012L1488.78 525.461Z" fill="#B1C5FF"/>
<path d="M1488.78 675.606V525.461L1617.48 504.012V654.157L1488.78 675.606Z" fill="#DAE2FF"/>
<path d="M1488.78 675.606V525.461L1424.43 504.012V654.157L1488.78 675.606Z" fill="#89A9FC"/>
<path d="M1424.43 503.369V653.515L1488.78 674.964M1424.43 503.369L1553.13 481.92L1585.3 492.645M1424.43 503.369L1456.61 514.094M1488.78 524.819V674.964M1488.78 524.819L1617.48 503.369M1488.78 524.819L1456.61 514.094M1488.78 674.964L1617.48 653.515V503.369M1617.48 503.369L1585.3 492.645M1456.61 514.094L1585.3 492.645" stroke="black" stroke-width="0.524189"/>
</g>
<path d="M-52 438.619L-37.2055 379.441H-22.411H-7.61653H7.17796H21.9725H36.7669H51.5614H66.3559H81.1504H95.9449H110.739H125.534H140.328H155.123H169.917H184.712H199.506H214.301H229.095H243.89H258.684H273.479H288.273H303.068H317.862L303.068 438.619H288.273H273.479H258.684H243.89H229.095H214.301H199.506H184.712H169.917H155.123H140.328H125.534H110.739H95.9449H81.1504H66.3559H51.5614H36.7669H21.9725H7.17796H-7.61653H-22.411H-37.2055H-52Z" fill="#395BA9"/>
<path d="M-7.61653 379.441L-22.411 438.619M-7.61653 379.441H-22.411M-7.61653 379.441H7.17796M-22.411 438.619H-7.61653M-22.411 438.619H-37.2055M7.17796 379.441L-7.61653 438.619M7.17796 379.441H21.9725M-7.61653 438.619H7.17796M21.9725 379.441L7.17796 438.619M21.9725 379.441H36.7669M7.17796 438.619H21.9725M36.7669 379.441L21.9725 438.619M36.7669 379.441H51.5614M21.9725 438.619H36.7669M51.5614 379.441L36.7669 438.619M51.5614 379.441H66.3559M36.7669 438.619H51.5614M66.3559 379.441L51.5614 438.619M66.3559 379.441H81.1504M51.5614 438.619H66.3559M81.1504 379.441L66.3559 438.619M81.1504 379.441H95.9449M66.3559 438.619H81.1504M95.9449 379.441L81.1504 438.619M95.9449 379.441H110.739M81.1504 438.619H95.9449M110.739 379.441L95.9449 438.619M110.739 379.441H125.534M95.9449 438.619H110.739M125.534 379.441L110.739 438.619M125.534 379.441H140.328M110.739 438.619H125.534M140.328 379.441L125.534 438.619M140.328 379.441H155.123M125.534 438.619H140.328M155.123 379.441L140.328 438.619M155.123 379.441H169.917M140.328 438.619H155.123M169.917 379.441L155.123 438.619M169.917 379.441H184.712M155.123 438.619H169.917M184.712 379.441L169.917 438.619M184.712 379.441H199.506M169.917 438.619H184.712M199.506 379.441L184.712 438.619M199.506 379.441H214.301M184.712 438.619H199.506M214.301 379.441L199.506 438.619M214.301 379.441H229.095M199.506 438.619H214.301M229.095 379.441L214.301 438.619M229.095 379.441H243.89M214.301 438.619H229.095M243.89 379.441L229.095 438.619M243.89 379.441H258.684M229.095 438.619H243.89M258.684 379.441L243.89 438.619M258.684 379.441H273.479M243.89 438.619H258.684M273.479 379.441L258.684 438.619M273.479 379.441H288.273M258.684 438.619H273.479M288.273 379.441L273.479 438.619M288.273 379.441H303.068M273.479 438.619H288.273M303.068 379.441L288.273 438.619M303.068 379.441H317.862L303.068 438.619H288.273M-22.411 379.441L-37.2055 438.619M-22.411 379.441H-37.2055L-52 438.619H-37.2055" stroke="black"/>
<path d="M1052 437.619L1066.79 378.441H1081.59H1096.38H1111.18H1125.97H1140.77H1155.56H1170.36H1185.15H1199.94H1214.74H1229.53H1244.33H1259.12H1273.92H1288.71H1303.51H1318.3H1333.1H1347.89H1362.68H1377.48H1392.27H1407.07H1421.86L1407.07 437.619H1392.27H1377.48H1362.68H1347.89H1333.1H1318.3H1303.51H1288.71H1273.92H1259.12H1244.33H1229.53H1214.74H1199.94H1185.15H1170.36H1155.56H1140.77H1125.97H1111.18H1096.38H1081.59H1066.79H1052Z" fill="#395BA9"/>
<path d="M1096.38 378.441L1081.59 437.619M1096.38 378.441H1081.59M1096.38 378.441H1111.18M1081.59 437.619H1096.38M1081.59 437.619H1066.79M1111.18 378.441L1096.38 437.619M1111.18 378.441H1125.97M1096.38 437.619H1111.18M1125.97 378.441L1111.18 437.619M1125.97 378.441H1140.77M1111.18 437.619H1125.97M1140.77 378.441L1125.97 437.619M1140.77 378.441H1155.56M1125.97 437.619H1140.77M1155.56 378.441L1140.77 437.619M1155.56 378.441H1170.36M1140.77 437.619H1155.56M1170.36 378.441L1155.56 437.619M1170.36 378.441H1185.15M1155.56 437.619H1170.36M1185.15 378.441L1170.36 437.619M1185.15 378.441H1199.94M1170.36 437.619H1185.15M1199.94 378.441L1185.15 437.619M1199.94 378.441H1214.74M1185.15 437.619H1199.94M1214.74 378.441L1199.94 437.619M1214.74 378.441H1229.53M1199.94 437.619H1214.74M1229.53 378.441L1214.74 437.619M1229.53 378.441H1244.33M1214.74 437.619H1229.53M1244.33 378.441L1229.53 437.619M1244.33 378.441H1259.12M1229.53 437.619H1244.33M1259.12 378.441L1244.33 437.619M1259.12 378.441H1273.92M1244.33 437.619H1259.12M1273.92 378.441L1259.12 437.619M1273.92 378.441H1288.71M1259.12 437.619H1273.92M1288.71 378.441L1273.92 437.619M1288.71 378.441H1303.51M1273.92 437.619H1288.71M1303.51 378.441L1288.71 437.619M1303.51 378.441H1318.3M1288.71 437.619H1303.51M1318.3 378.441L1303.51 437.619M1318.3 378.441H1333.1M1303.51 437.619H1318.3M1333.1 378.441L1318.3 437.619M1333.1 378.441H1347.89M1318.3 437.619H1333.1M1347.89 378.441L1333.1 437.619M1347.89 378.441H1362.68M1333.1 437.619H1347.89M1362.68 378.441L1347.89 437.619M1362.68 378.441H1377.48M1347.89 437.619H1362.68M1377.48 378.441L1362.68 437.619M1377.48 378.441H1392.27M1362.68 437.619H1377.48M1392.27 378.441L1377.48 437.619M1392.27 378.441H1407.07M1377.48 437.619H1392.27M1407.07 378.441L1392.27 437.619M1407.07 378.441H1421.86L1407.07 437.619H1392.27M1081.59 378.441L1066.79 437.619M1081.59 378.441H1066.79L1052 437.619H1066.79" stroke="black"/>
<path d="M301.781 438.541L316.576 379.363H331.37H346.165H360.959H375.754H390.548H405.343H420.137H434.932H449.726H464.521H479.315H494.11H508.904H523.699H538.493H553.288H568.082H582.877H597.671H612.466H627.26H642.055H656.849H671.644L656.849 438.541H642.055H627.26H612.466H597.671H582.877H568.082H553.288H538.493H523.699H508.904H494.11H479.315H464.521H449.726H434.932H420.137H405.343H390.548H375.754H360.959H346.165H331.37H316.576H301.781Z" fill="#395BA9"/>
<path d="M346.165 379.363L331.37 438.541M346.165 379.363H331.37M346.165 379.363H360.959M331.37 438.541H346.165M331.37 438.541H316.576M360.959 379.363L346.165 438.541M360.959 379.363H375.754M346.165 438.541H360.959M375.754 379.363L360.959 438.541M375.754 379.363H390.548M360.959 438.541H375.754M390.548 379.363L375.754 438.541M390.548 379.363H405.343M375.754 438.541H390.548M405.343 379.363L390.548 438.541M405.343 379.363H420.137M390.548 438.541H405.343M420.137 379.363L405.343 438.541M420.137 379.363H434.932M405.343 438.541H420.137M434.932 379.363L420.137 438.541M434.932 379.363H449.726M420.137 438.541H434.932M449.726 379.363L434.932 438.541M449.726 379.363H464.521M434.932 438.541H449.726M464.521 379.363L449.726 438.541M464.521 379.363H479.315M449.726 438.541H464.521M479.315 379.363L464.521 438.541M479.315 379.363H494.11M464.521 438.541H479.315M494.11 379.363L479.315 438.541M494.11 379.363H508.904M479.315 438.541H494.11M508.904 379.363L494.11 438.541M508.904 379.363H523.699M494.11 438.541H508.904M523.699 379.363L508.904 438.541M523.699 379.363H538.493M508.904 438.541H523.699M538.493 379.363L523.699 438.541M538.493 379.363H553.288M523.699 438.541H538.493M553.288 379.363L538.493 438.541M553.288 379.363H568.082M538.493 438.541H553.288M568.082 379.363L553.288 438.541M568.082 379.363H582.877M553.288 438.541H568.082M582.877 379.363L568.082 438.541M582.877 379.363H597.671M568.082 438.541H582.877M597.671 379.363L582.877 438.541M597.671 379.363H612.466M582.877 438.541H597.671M612.466 379.363L597.671 438.541M612.466 379.363H627.26M597.671 438.541H612.466M627.26 379.363L612.466 438.541M627.26 379.363H642.055M612.466 438.541H627.26M642.055 379.363L627.26 438.541M642.055 379.363H656.849M627.26 438.541H642.055M656.849 379.363L642.055 438.541M656.849 379.363H671.644L656.849 438.541H642.055M331.37 379.363L316.576 438.541M331.37 379.363H316.576L301.781 438.541H316.576" stroke="black"/>
<path d="M1405.78 437.541L1420.58 378.363H1435.37H1450.16H1464.96H1479.75H1494.55H1509.34H1524.14H1538.93H1553.73H1568.52H1583.32H1598.11H1612.9H1627.7H1642.49H1657.29H1672.08H1686.88H1701.67H1716.47H1731.26H1746.05H1760.85H1775.64L1760.85 437.541H1746.05H1731.26H1716.47H1701.67H1686.88H1672.08H1657.29H1642.49H1627.7H1612.9H1598.11H1583.32H1568.52H1553.73H1538.93H1524.14H1509.34H1494.55H1479.75H1464.96H1450.16H1435.37H1420.58H1405.78Z" fill="#395BA9"/>
<path d="M1450.16 378.363L1435.37 437.541M1450.16 378.363H1435.37M1450.16 378.363H1464.96M1435.37 437.541H1450.16M1435.37 437.541H1420.58M1464.96 378.363L1450.16 437.541M1464.96 378.363H1479.75M1450.16 437.541H1464.96M1479.75 378.363L1464.96 437.541M1479.75 378.363H1494.55M1464.96 437.541H1479.75M1494.55 378.363L1479.75 437.541M1494.55 378.363H1509.34M1479.75 437.541H1494.55M1509.34 378.363L1494.55 437.541M1509.34 378.363H1524.14M1494.55 437.541H1509.34M1524.14 378.363L1509.34 437.541M1524.14 378.363H1538.93M1509.34 437.541H1524.14M1538.93 378.363L1524.14 437.541M1538.93 378.363H1553.73M1524.14 437.541H1538.93M1553.73 378.363L1538.93 437.541M1553.73 378.363H1568.52M1538.93 437.541H1553.73M1568.52 378.363L1553.73 437.541M1568.52 378.363H1583.32M1553.73 437.541H1568.52M1583.32 378.363L1568.52 437.541M1583.32 378.363H1598.11M1568.52 437.541H1583.32M1598.11 378.363L1583.32 437.541M1598.11 378.363H1612.9M1583.32 437.541H1598.11M1612.9 378.363L1598.11 437.541M1612.9 378.363H1627.7M1598.11 437.541H1612.9M1627.7 378.363L1612.9 437.541M1627.7 378.363H1642.49M1612.9 437.541H1627.7M1642.49 378.363L1627.7 437.541M1642.49 378.363H1657.29M1627.7 437.541H1642.49M1657.29 378.363L1642.49 437.541M1657.29 378.363H1672.08M1642.49 437.541H1657.29M1672.08 378.363L1657.29 437.541M1672.08 378.363H1686.88M1657.29 437.541H1672.08M1686.88 378.363L1672.08 437.541M1686.88 378.363H1701.67M1672.08 437.541H1686.88M1701.67 378.363L1686.88 437.541M1701.67 378.363H1716.47M1686.88 437.541H1701.67M1716.47 378.363L1701.67 437.541M1716.47 378.363H1731.26M1701.67 437.541H1716.47M1731.26 378.363L1716.47 437.541M1731.26 378.363H1746.05M1716.47 437.541H1731.26M1746.05 378.363L1731.26 437.541M1746.05 378.363H1760.85M1731.26 437.541H1746.05M1760.85 378.363L1746.05 437.541M1760.85 378.363H1775.64L1760.85 437.541H1746.05M1435.37 378.363L1420.58 437.541M1435.37 378.363H1420.58L1405.78 437.541H1420.58" stroke="black"/>
<path d="M655.555 438.541L670.349 379.363H685.144H699.938H714.733H729.527H744.322H759.116H773.911H788.705H803.5H818.294H833.089H847.883H862.678H877.472H892.267H907.061H921.855H936.65H951.444H966.239H981.033H995.828H1010.62H1025.42L1010.62 438.541H995.828H981.033H966.239H951.444H936.65H921.855H907.061H892.267H877.472H862.678H847.883H833.089H818.294H803.5H788.705H773.911H759.116H744.322H729.527H714.733H699.938H685.144H670.349H655.555Z" fill="#395BA9"/>
<path d="M699.938 379.363L685.144 438.541M699.938 379.363H685.144M699.938 379.363H714.733M685.144 438.541H699.938M685.144 438.541H670.349M714.733 379.363L699.938 438.541M714.733 379.363H729.527M699.938 438.541H714.733M729.527 379.363L714.733 438.541M729.527 379.363H744.322M714.733 438.541H729.527M744.322 379.363L729.527 438.541M744.322 379.363H759.116M729.527 438.541H744.322M759.116 379.363L744.322 438.541M759.116 379.363H773.911M744.322 438.541H759.116M773.911 379.363L759.116 438.541M773.911 379.363H788.705M759.116 438.541H773.911M788.705 379.363L773.911 438.541M788.705 379.363H803.5M773.911 438.541H788.705M803.5 379.363L788.705 438.541M803.5 379.363H818.294M788.705 438.541H803.5M818.294 379.363L803.5 438.541M818.294 379.363H833.089M803.5 438.541H818.294M833.089 379.363L818.294 438.541M833.089 379.363H847.883M818.294 438.541H833.089M847.883 379.363L833.089 438.541M847.883 379.363H862.678M833.089 438.541H847.883M862.678 379.363L847.883 438.541M862.678 379.363H877.472M847.883 438.541H862.678M877.472 379.363L862.678 438.541M877.472 379.363H892.267M862.678 438.541H877.472M892.267 379.363L877.472 438.541M892.267 379.363H907.061M877.472 438.541H892.267M907.061 379.363L892.267 438.541M907.061 379.363H921.856M892.267 438.541H907.061M921.856 379.363L907.061 438.541M921.856 379.363H936.65M907.061 438.541H921.856M936.65 379.363L921.856 438.541M936.65 379.363H951.444M921.856 438.541H936.65M951.444 379.363L936.65 438.541M951.444 379.363H966.239M936.65 438.541H951.444M966.239 379.363L951.444 438.541M966.239 379.363H981.033M951.444 438.541H966.239M981.033 379.363L966.239 438.541M981.033 379.363H995.828M966.239 438.541H981.033M995.828 379.363L981.033 438.541M995.828 379.363H1010.62M981.033 438.541H995.828M1010.62 379.363L995.828 438.541M1010.62 379.363H1025.42L1010.62 438.541H995.828M685.144 379.363L670.349 438.541M685.144 379.363H670.349L655.555 438.541H670.349" stroke="black"/>
<path d="M1007.15 438.846L1021.95 379.668H1036.74H1051.53H1066.33H1081.12H1095.92H1110.71H1125.51H1140.3H1155.1H1169.89H1184.69H1199.48H1214.27H1229.07H1243.86H1258.66H1273.45H1288.25H1303.04H1317.84H1332.63H1347.42H1362.22H1377.01L1362.22 438.846H1347.42H1332.63H1317.84H1303.04H1288.25H1273.45H1258.66H1243.86H1229.07H1214.27H1199.48H1184.69H1169.89H1155.1H1140.3H1125.51H1110.71H1095.92H1081.12H1066.33H1051.53H1036.74H1021.95H1007.15Z" fill="#395BA9"/>
<path d="M1051.53 379.668L1036.74 438.846M1051.53 379.668H1036.74M1051.53 379.668H1066.33M1036.74 438.846H1051.53M1036.74 438.846H1021.95M1066.33 379.668L1051.53 438.846M1066.33 379.668H1081.12M1051.53 438.846H1066.33M1081.12 379.668L1066.33 438.846M1081.12 379.668H1095.92M1066.33 438.846H1081.12M1095.92 379.668L1081.12 438.846M1095.92 379.668H1110.71M1081.12 438.846H1095.92M1110.71 379.668L1095.92 438.846M1110.71 379.668H1125.51M1095.92 438.846H1110.71M1125.51 379.668L1110.71 438.846M1125.51 379.668H1140.3M1110.71 438.846H1125.51M1140.3 379.668L1125.51 438.846M1140.3 379.668H1155.1M1125.51 438.846H1140.3M1155.1 379.668L1140.3 438.846M1155.1 379.668H1169.89M1140.3 438.846H1155.1M1169.89 379.668L1155.1 438.846M1169.89 379.668H1184.69M1155.1 438.846H1169.89M1184.69 379.668L1169.89 438.846M1184.69 379.668H1199.48M1169.89 438.846H1184.69M1199.48 379.668L1184.69 438.846M1199.48 379.668H1214.27M1184.69 438.846H1199.48M1214.27 379.668L1199.48 438.846M1214.27 379.668H1229.07M1199.48 438.846H1214.27M1229.07 379.668L1214.27 438.846M1229.07 379.668H1243.86M1214.27 438.846H1229.07M1243.86 379.668L1229.07 438.846M1243.86 379.668H1258.66M1229.07 438.846H1243.86M1258.66 379.668L1243.86 438.846M1258.66 379.668H1273.45M1243.86 438.846H1258.66M1273.45 379.668L1258.66 438.846M1273.45 379.668H1288.25M1258.66 438.846H1273.45M1288.25 379.668L1273.45 438.846M1288.25 379.668H1303.04M1273.45 438.846H1288.25M1303.04 379.668L1288.25 438.846M1303.04 379.668H1317.84M1288.25 438.846H1303.04M1317.84 379.668L1303.04 438.846M1317.84 379.668H1332.63M1303.04 438.846H1317.84M1332.63 379.668L1317.84 438.846M1332.63 379.668H1347.42M1317.84 438.846H1332.63M1347.42 379.668L1332.63 438.846M1347.42 379.668H1362.22M1332.63 438.846H1347.42M1362.22 379.668L1347.42 438.846M1362.22 379.668H1377.01L1362.22 438.846H1347.42M1036.74 379.668L1021.95 438.846M1036.74 379.668H1021.95L1007.15 438.846H1021.95" stroke="black"/>
<path d="M1007.15 995.592L1021.95 936.414H1036.74H1051.53H1066.33H1081.12H1095.92H1110.71H1125.51H1140.3H1155.1H1169.89H1184.69H1199.48H1214.27H1229.07H1243.86H1258.66H1273.45H1288.25H1303.04H1317.84H1332.63H1347.42H1362.22H1377.01L1362.22 995.592H1347.42H1332.63H1317.84H1303.04H1288.25H1273.45H1258.66H1243.86H1229.07H1214.27H1199.48H1184.69H1169.89H1155.1H1140.3H1125.51H1110.71H1095.92H1081.12H1066.33H1051.53H1036.74H1021.95H1007.15Z" fill="#395BA9"/>
<path d="M1051.53 936.414L1036.74 995.592M1051.53 936.414H1036.74M1051.53 936.414H1066.33M1036.74 995.592H1051.53M1036.74 995.592H1021.95M1066.33 936.414L1051.53 995.592M1066.33 936.414H1081.12M1051.53 995.592H1066.33M1081.12 936.414L1066.33 995.592M1081.12 936.414H1095.92M1066.33 995.592H1081.12M1095.92 936.414L1081.12 995.592M1095.92 936.414H1110.71M1081.12 995.592H1095.92M1110.71 936.414L1095.92 995.592M1110.71 936.414H1125.51M1095.92 995.592H1110.71M1125.51 936.414L1110.71 995.592M1125.51 936.414H1140.3M1110.71 995.592H1125.51M1140.3 936.414L1125.51 995.592M1140.3 936.414H1155.1M1125.51 995.592H1140.3M1155.1 936.414L1140.3 995.592M1155.1 936.414H1169.89M1140.3 995.592H1155.1M1169.89 936.414L1155.1 995.592M1169.89 936.414H1184.69M1155.1 995.592H1169.89M1184.69 936.414L1169.89 995.592M1184.69 936.414H1199.48M1169.89 995.592H1184.69M1199.48 936.414L1184.69 995.592M1199.48 936.414H1214.27M1184.69 995.592H1199.48M1214.27 936.414L1199.48 995.592M1214.27 936.414H1229.07M1199.48 995.592H1214.27M1229.07 936.414L1214.27 995.592M1229.07 936.414H1243.86M1214.27 995.592H1229.07M1243.86 936.414L1229.07 995.592M1243.86 936.414H1258.66M1229.07 995.592H1243.86M1258.66 936.414L1243.86 995.592M1258.66 936.414H1273.45M1243.86 995.592H1258.66M1273.45 936.414L1258.66 995.592M1273.45 936.414H1288.25M1258.66 995.592H1273.45M1288.25 936.414L1273.45 995.592M1288.25 936.414H1303.04M1273.45 995.592H1288.25M1303.04 936.414L1288.25 995.592M1303.04 936.414H1317.84M1288.25 995.592H1303.04M1317.84 936.414L1303.04 995.592M1317.84 936.414H1332.63M1303.04 995.592H1317.84M1332.63 936.414L1317.84 995.592M1332.63 936.414H1347.42M1317.84 995.592H1332.63M1347.42 936.414L1332.63 995.592M1347.42 936.414H1362.22M1332.63 995.592H1347.42M1362.22 936.414L1347.42 995.592M1362.22 936.414H1377.01L1362.22 995.592H1347.42M1036.74 936.414L1021.95 995.592M1036.74 936.414H1021.95L1007.15 995.592H1021.95" stroke="black"/>
<path d="M54.1136 333.208L131.577 320.297L92.8454 307.387L15.3818 320.297L54.1136 333.208Z" fill="#B1C5FF"/>
<path d="M54.1133 423.582V333.207L131.577 320.297V410.671L54.1133 423.582Z" fill="#DAE2FF"/>
<path d="M54.1136 423.582V333.207L15.3818 320.297V410.671L54.1136 423.582Z" fill="#89A9FC"/>
<path d="M15.3818 319.911V410.285L54.1136 423.195M15.3818 319.911L92.8454 307L112.211 313.455M15.3818 319.911L34.7477 326.366M54.1136 332.821V423.195M54.1136 332.821L131.577 319.911M54.1136 332.821L34.7477 326.366M54.1136 423.195L131.577 410.285V319.911M131.577 319.911L112.211 313.455M34.7477 326.366L112.211 313.455" stroke="black" stroke-width="0.524189"/>
<g filter="url(#filter7_d_5220_52130)">
<rect width="18.3656" height="18.3656" rx="0.985504" transform="matrix(0.989651 -0.143493 0 1 104.781 331.123)" fill="white"/>
<rect x="0.325102" y="0.281364" width="17.7086" height="17.7086" rx="0.657003" transform="matrix(0.989651 -0.143493 0 1 104.785 331.17)" stroke="#F04650" stroke-width="0.657003"/>
</g>
<path d="M1158.11 332.208L1235.58 319.297L1196.85 306.387L1119.38 319.297L1158.11 332.208Z" fill="#B1C5FF"/>
<path d="M1158.11 422.582V332.207L1235.58 319.297V409.671L1158.11 422.582Z" fill="#DAE2FF"/>
<path d="M1158.11 422.582V332.207L1119.38 319.297V409.671L1158.11 422.582Z" fill="#89A9FC"/>
<path d="M1119.38 318.911V409.285L1158.11 422.195M1119.38 318.911L1196.85 306L1216.21 312.455M1119.38 318.911L1138.75 325.366M1158.11 331.821V422.195M1158.11 331.821L1235.58 318.911M1158.11 331.821L1138.75 325.366M1158.11 422.195L1235.58 409.285V318.911M1235.58 318.911L1216.21 312.455M1138.75 325.366L1216.21 312.455" stroke="black" stroke-width="0.524189"/>
<g filter="url(#filter8_d_5220_52130)">
<rect width="18.3656" height="18.3656" rx="0.985504" transform="matrix(0.989651 -0.143493 0 1 1208.78 330.123)" fill="white"/>
<rect x="0.325102" y="0.281364" width="17.7086" height="17.7086" rx="0.657003" transform="matrix(0.989651 -0.143493 0 1 1208.78 330.17)" stroke="#F04650" stroke-width="0.657003"/>
</g>
<path d="M237.862 333.208L315.325 320.297L276.593 307.387L199.13 320.297L237.862 333.208Z" fill="#B1C5FF"/>
<path d="M237.861 423.582V333.207L315.325 320.297V410.671L237.861 423.582Z" fill="#DAE2FF"/>
<path d="M237.862 423.582V333.207L199.13 320.297V410.671L237.862 423.582Z" fill="#89A9FC"/>
<path d="M199.13 319.911V410.285L237.862 423.195M199.13 319.911L276.593 307L295.959 313.455M199.13 319.911L218.496 326.366M237.862 332.821V423.195M237.862 332.821L315.325 319.911M237.862 332.821L218.496 326.366M237.862 423.195L315.325 410.285V319.911M315.325 319.911L295.959 313.455M218.496 326.366L295.959 313.455" stroke="black" stroke-width="0.524189"/>
<g filter="url(#filter9_d_5220_52130)">
<rect width="18.3656" height="18.3656" rx="0.985504" transform="matrix(0.989651 -0.143493 0 1 288.545 331.123)" fill="white"/>
<rect x="0.325102" y="0.281364" width="17.7086" height="17.7086" rx="0.657003" transform="matrix(0.989651 -0.143493 0 1 288.548 331.17)" stroke="#F04650" stroke-width="0.657003"/>
</g>
<path d="M1342.86 332.208L1420.33 319.297L1381.59 306.387L1304.13 319.297L1342.86 332.208Z" fill="#B1C5FF"/>
<path d="M1342.86 422.582V332.207L1420.32 319.297V409.671L1342.86 422.582Z" fill="#DAE2FF"/>
<path d="M1342.86 422.582V332.207L1304.13 319.297V409.671L1342.86 422.582Z" fill="#89A9FC"/>
<path d="M1304.13 318.911V409.285L1342.86 422.195M1304.13 318.911L1381.59 306L1400.96 312.455M1304.13 318.911L1323.5 325.366M1342.86 331.821V422.195M1342.86 331.821L1420.33 318.911M1342.86 331.821L1323.5 325.366M1342.86 422.195L1420.33 409.285V318.911M1420.33 318.911L1400.96 312.455M1323.5 325.366L1400.96 312.455" stroke="black" stroke-width="0.524189"/>
<path d="M1541.86 331.208L1619.33 318.297L1580.59 305.387L1503.13 318.297L1541.86 331.208Z" fill="#B1C5FF"/>
<path d="M1541.86 421.582V331.207L1503.13 318.297V408.671L1541.86 421.582Z" fill="#89A9FC"/>
<path d="M1503.13 317.911V408.285L1541.86 421.195M1503.13 317.911L1580.59 305L1599.96 311.455M1503.13 317.911L1522.5 324.366M1541.86 330.821V421.195M1541.86 330.821L1619.33 317.911M1541.86 330.821L1522.5 324.366M1541.86 421.195L1619.33 408.285V317.911M1619.33 317.911L1599.96 311.455M1522.5 324.366L1599.96 311.455" stroke="black" stroke-width="0.524189"/>
<g filter="url(#filter10_d_5220_52130)">
<rect width="18.3656" height="18.3656" rx="0.985504" transform="matrix(0.989651 -0.143493 0 1 1392.54 330.123)" fill="white"/>
<rect x="0.325102" y="0.281364" width="17.7086" height="17.7086" rx="0.657003" transform="matrix(0.989651 -0.143493 0 1 1392.55 330.17)" stroke="#F04650" stroke-width="0.657003"/>
</g>
<path d="M421.634 333.208L499.098 320.297L460.366 307.387L382.902 320.297L421.634 333.208Z" fill="#B1C5FF"/>
<path d="M421.634 423.582V333.207L499.097 320.297V410.671L421.634 423.582Z" fill="#DAE2FF"/>
<path d="M421.634 423.582V333.207L382.902 320.297V410.671L421.634 423.582Z" fill="#89A9FC"/>
<path d="M382.902 319.911V410.285L421.634 423.195M382.902 319.911L460.366 307L479.732 313.455M382.902 319.911L402.268 326.366M421.634 332.821V423.195M421.634 332.821L499.098 319.911M421.634 332.821L402.268 326.366M421.634 423.195L499.098 410.285V319.911M499.098 319.911L479.732 313.455M402.268 326.366L479.732 313.455" stroke="black" stroke-width="0.524189"/>
<g filter="url(#filter11_d_5220_52130)">
<rect width="18.3656" height="18.3656" rx="0.985504" transform="matrix(0.989651 -0.143493 0 1 472.306 331.123)" fill="white"/>
<rect x="0.325102" y="0.281364" width="17.7086" height="17.7086" rx="0.657003" transform="matrix(0.989651 -0.143493 0 1 472.309 331.17)" stroke="#F04650" stroke-width="0.657003"/>
</g>
<path d="M605.397 333.208L682.86 320.297L644.129 307.387L566.665 320.297L605.397 333.208Z" fill="#B1C5FF"/>
<path d="M605.396 423.582V333.207L682.86 320.297V410.671L605.396 423.582Z" fill="#DAE2FF"/>
<path d="M605.397 423.582V333.207L566.665 320.297V410.671L605.397 423.582Z" fill="#89A9FC"/>
<path d="M566.665 319.911V410.285L605.397 423.195M566.665 319.911L644.129 307L663.494 313.455M566.665 319.911L586.031 326.366M605.397 332.821V423.195M605.397 332.821L682.86 319.911M605.397 332.821L586.031 326.366M605.397 423.195L682.86 410.285V319.911M682.86 319.911L663.494 313.455M586.031 326.366L663.494 313.455" stroke="black" stroke-width="0.524189"/>
<g filter="url(#filter12_d_5220_52130)">
<rect width="18.3656" height="18.3656" rx="0.985504" transform="matrix(0.989651 -0.143493 0 1 656.08 331.123)" fill="white"/>
<rect x="0.325102" y="0.281364" width="17.7086" height="17.7086" rx="0.657003" transform="matrix(0.989651 -0.143493 0 1 656.083 331.17)" stroke="#F04650" stroke-width="0.657003"/>
</g>
<path d="M789.155 333.208L866.618 320.297L827.886 307.387L750.423 320.297L789.155 333.208Z" fill="#B1C5FF"/>
<path d="M789.154 423.582V333.207L866.618 320.297V410.671L789.154 423.582Z" fill="#DAE2FF"/>
<path d="M789.155 423.582V333.207L750.423 320.297V410.671L789.155 423.582Z" fill="#89A9FC"/>
<path d="M750.423 319.911V410.285L789.155 423.195M750.423 319.911L827.886 307L847.252 313.455M750.423 319.911L769.789 326.366M789.155 332.821V423.195M789.155 332.821L866.618 319.911M789.155 332.821L769.789 326.366M789.155 423.195L866.618 410.285V319.911M866.618 319.911L847.252 313.455M769.789 326.366L847.252 313.455" stroke="black" stroke-width="0.524189"/>
<g filter="url(#filter13_d_5220_52130)">
<rect width="18.3656" height="18.3656" rx="0.985504" transform="matrix(0.989651 -0.143493 0 1 839.826 331.123)" fill="white"/>
<rect x="0.325102" y="0.281364" width="17.7086" height="17.7086" rx="0.657003" transform="matrix(0.989651 -0.143493 0 1 839.83 331.17)" stroke="#F04650" stroke-width="0.657003"/>
</g>
<path d="M972.923 333.208L1050.39 320.297L1011.65 307.387L934.191 320.297L972.923 333.208Z" fill="#B1C5FF"/>
<path d="M972.923 423.582V333.207L1050.39 320.297V410.671L972.923 423.582Z" fill="#DAE2FF"/>
<path d="M972.923 423.582V333.207L934.191 320.297V410.671L972.923 423.582Z" fill="#89A9FC"/>
<path d="M934.191 319.911V410.285L972.923 423.195M934.191 319.911L1011.65 307L1031.02 313.455M934.191 319.911L953.557 326.366M972.923 332.821V423.195M972.923 332.821L1050.39 319.911M972.923 332.821L953.557 326.366M972.923 423.195L1050.39 410.285V319.911M1050.39 319.911L1031.02 313.455M953.557 326.366L1031.02 313.455" stroke="black" stroke-width="0.524189"/>
<g filter="url(#filter14_d_5220_52130)">
<rect width="18.3656" height="18.3656" rx="0.985504" transform="matrix(0.989651 -0.143493 0 1 1023.61 331.123)" fill="white"/>
<rect x="0.325102" y="0.281364" width="17.7086" height="17.7086" rx="0.657003" transform="matrix(0.989651 -0.143493 0 1 1023.61 331.17)" stroke="#F04650" stroke-width="0.657003"/>
</g>
<path d="M271.769 1112L307.752 968.068H343.734H379.717H415.7H451.683H487.666H523.649H559.632H595.615H631.598H667.581H703.564H739.547H775.53H811.513H847.496H883.479H919.462H955.445H991.428H1027.41H1063.39H1099.38H1135.36H1171.34L1135.36 1112H1099.38H1063.39H1027.41H991.428H955.445H919.462H883.479H847.496H811.513H775.53H739.547H703.564H667.581H631.598H595.615H559.632H523.649H487.666H451.683H415.7H379.717H343.734H307.752H271.769Z" fill="#395BA9"/>
<path d="M379.717 968.068L343.734 1112M379.717 968.068H343.734M379.717 968.068H415.7M343.734 1112H379.717M343.734 1112H307.752M415.7 968.068L379.717 1112M415.7 968.068H451.683M379.717 1112H415.7M451.683 968.068L415.7 1112M451.683 968.068H487.666M415.7 1112H451.683M487.666 968.068L451.683 1112M487.666 968.068H523.649M451.683 1112H487.666M523.649 968.068L487.666 1112M523.649 968.068H559.632M487.666 1112H523.649M559.632 968.068L523.649 1112M559.632 968.068H595.615M523.649 1112H559.632M595.615 968.068L559.632 1112M595.615 968.068H631.598M559.632 1112H595.615M631.598 968.068L595.615 1112M631.598 968.068H667.581M595.615 1112H631.598M667.581 968.068L631.598 1112M667.581 968.068H703.564M631.598 1112H667.581M703.564 968.068L667.581 1112M703.564 968.068H739.547M667.581 1112H703.564M739.547 968.068L703.564 1112M739.547 968.068H775.53M703.564 1112H739.547M775.53 968.068L739.547 1112M775.53 968.068H811.513M739.547 1112H775.53M811.513 968.068L775.53 1112M811.513 968.068H847.496M775.53 1112H811.513M847.496 968.068L811.513 1112M847.496 968.068H883.479M811.513 1112H847.496M883.479 968.068L847.496 1112M883.479 968.068H919.462M847.496 1112H883.479M919.462 968.068L883.479 1112M919.462 968.068H955.445M883.479 1112H919.462M955.445 968.068L919.462 1112M955.445 968.068H991.428M919.462 1112H955.445M991.428 968.068L955.445 1112M991.428 968.068H1027.41M955.445 1112H991.428M1027.41 968.068L991.428 1112M1027.41 968.068H1063.39M991.428 1112H1027.41M1063.39 968.068L1027.41 1112M1063.39 968.068H1099.38M1027.41 1112H1063.39M1099.38 968.068L1063.39 1112M1099.38 968.068H1135.36M1063.39 1112H1099.38M1135.36 968.068L1099.38 1112M1135.36 968.068H1171.34L1135.36 1112H1099.38M343.734 968.068L307.752 1112M343.734 968.068H307.752L271.769 1112H307.752" stroke="black"/>
<path d="M1132.23 1111.81L1168.21 967.879H1204.19H1240.18H1276.16H1312.14H1348.13H1384.11H1420.09H1456.07H1492.06H1528.04H1564.02H1600.01H1635.99H1671.97H1707.95H1743.94H1779.92H1815.9H1851.89H1887.87H1923.85H1959.84H1995.82H2031.8L1995.82 1111.81H1959.84H1923.85H1887.87H1851.89H1815.9H1779.92H1743.94H1707.95H1671.97H1635.99H1600.01H1564.02H1528.04H1492.06H1456.07H1420.09H1384.11H1348.13H1312.14H1276.16H1240.18H1204.19H1168.21H1132.23Z" fill="#395BA9"/>
<path d="M1240.18 967.879L1204.19 1111.81M1240.18 967.879H1204.19M1240.18 967.879H1276.16M1204.19 1111.81H1240.18M1204.19 1111.81H1168.21M1276.16 967.879L1240.18 1111.81M1276.16 967.879H1312.14M1240.18 1111.81H1276.16M1312.14 967.879L1276.16 1111.81M1312.14 967.879H1348.13M1276.16 1111.81H1312.14M1348.13 967.879L1312.14 1111.81M1348.13 967.879H1384.11M1312.14 1111.81H1348.13M1384.11 967.879L1348.13 1111.81M1384.11 967.879H1420.09M1348.13 1111.81H1384.11M1420.09 967.879L1384.11 1111.81M1420.09 967.879H1456.07M1384.11 1111.81H1420.09M1456.07 967.879L1420.09 1111.81M1456.07 967.879H1492.06M1420.09 1111.81H1456.07M1492.06 967.879L1456.07 1111.81M1492.06 967.879H1528.04M1456.07 1111.81H1492.06M1528.04 967.879L1492.06 1111.81M1528.04 967.879H1564.02M1492.06 1111.81H1528.04M1564.02 967.879L1528.04 1111.81M1564.02 967.879H1600.01M1528.04 1111.81H1564.02M1600.01 967.879L1564.02 1111.81M1600.01 967.879H1635.99M1564.02 1111.81H1600.01M1635.99 967.879L1600.01 1111.81M1635.99 967.879H1671.97M1600.01 1111.81H1635.99M1671.97 967.879L1635.99 1111.81M1671.97 967.879H1707.95M1635.99 1111.81H1671.97M1707.95 967.879L1671.97 1111.81M1707.95 967.879H1743.94M1671.97 1111.81H1707.95M1743.94 967.879L1707.95 1111.81M1743.94 967.879H1779.92M1707.95 1111.81H1743.94M1779.92 967.879L1743.94 1111.81M1779.92 967.879H1815.9M1743.94 1111.81H1779.92M1815.9 967.879L1779.92 1111.81M1815.9 967.879H1851.89M1779.92 1111.81H1815.9M1851.89 967.879L1815.9 1111.81M1851.89 967.879H1887.87M1815.9 1111.81H1851.89M1887.87 967.879L1851.89 1111.81M1887.87 967.879H1923.85M1851.89 1111.81H1887.87M1923.85 967.879L1887.87 1111.81M1923.85 967.879H1959.84M1887.87 1111.81H1923.85M1959.84 967.879L1923.85 1111.81M1959.84 967.879H1995.82M1923.85 1111.81H1959.84M1995.82 967.879L1959.84 1111.81M1995.82 967.879H2031.8L1995.82 1111.81H1959.84M1204.19 967.879L1168.21 1111.81M1204.19 967.879H1168.21L1132.23 1111.81H1168.21" stroke="black"/>
<path d="M529.851 855.62L718.257 824.219L624.054 792.818L435.648 824.219L529.851 855.62Z" fill="#B1C5FF"/>
<path d="M529.852 1075.43V855.62L718.257 824.219V1044.03L529.852 1075.43Z" fill="#DAE2FF"/>
<path d="M529.851 1075.43V855.62L435.648 824.219V1044.03L529.851 1075.43Z" fill="#89A9FC"/>
<path d="M435.648 823.278V1043.08L529.851 1074.49M435.648 823.278L624.054 791.877L671.156 807.577M435.648 823.278L482.75 838.978M529.851 854.679V1074.49M529.851 854.679L718.257 823.278M529.851 854.679L482.75 838.978M529.851 1074.49L718.257 1043.08V823.278M718.257 823.278L671.156 807.577M482.75 838.978L671.156 807.577" stroke="black" stroke-width="0.524189"/>
<g filter="url(#filter15_d_5220_52130)">
<rect width="44.6685" height="44.6685" rx="0.985504" transform="matrix(0.989651 -0.143493 0 1 653.091 850.549)" fill="white"/>
<rect x="0.325102" y="0.281364" width="44.0115" height="44.0115" rx="0.657003" transform="matrix(0.989651 -0.143493 0 1 653.094 850.595)" stroke="#F04650" stroke-width="0.657003"/>
</g>
<path d="M976.77 855.62L1165.18 824.219L1070.97 792.818L882.567 824.219L976.77 855.62Z" fill="#B1C5FF"/>
<path d="M976.771 1075.43V855.62L1165.18 824.219V1044.03L976.771 1075.43Z" fill="#DAE2FF"/>
<path d="M976.77 1075.43V855.62L882.567 824.219V1044.03L976.77 1075.43Z" fill="#89A9FC"/>
<path d="M882.567 823.278V1043.08L976.77 1074.49M882.567 823.278L1070.97 791.877L1118.07 807.577M882.567 823.278L929.669 838.978M976.77 854.679V1074.49M976.77 854.679L1165.18 823.278M976.77 854.679L929.669 838.978M976.77 1074.49L1165.18 1043.08V823.278M1165.18 823.278L1118.07 807.577M929.669 838.978L1118.07 807.577" stroke="black" stroke-width="0.524189"/>
<g filter="url(#filter16_d_5220_52130)">
<rect width="44.6685" height="44.6685" rx="0.985504" transform="matrix(0.989651 -0.143493 0 1 1100.04 850.549)" fill="white"/>
<rect x="0.325102" y="0.281364" width="44.0115" height="44.0115" rx="0.657003" transform="matrix(0.989651 -0.143493 0 1 1100.04 850.595)" stroke="#F04650" stroke-width="0.657003"/>
</g>
<path d="M-592 1111.39L-556.017 967.457H-520.034H-484.051H-448.068H-412.085H-376.102H-340.119H-304.136H-268.153H-232.17H-196.188H-160.205H-124.222H-88.2387H-52.2557H-16.2728H19.7101H55.6931H91.676H127.659H163.642H199.625H235.608H271.591H307.574L271.591 1111.39H235.608H199.625H163.642H127.659H91.676H55.6931H19.7101H-16.2728H-52.2557H-88.2387H-124.222H-160.205H-196.188H-232.17H-268.153H-304.136H-340.119H-376.102H-412.085H-448.068H-484.051H-520.034H-556.017H-592Z" fill="#395BA9"/>
<path d="M-484.051 967.457L-520.034 1111.39M-484.051 967.457H-520.034M-484.051 967.457H-448.068M-520.034 1111.39H-484.051M-520.034 1111.39H-556.017M-448.068 967.457L-484.051 1111.39M-448.068 967.457H-412.085M-484.051 1111.39H-448.068M-412.085 967.457L-448.068 1111.39M-412.085 967.457H-376.102M-448.068 1111.39H-412.085M-376.102 967.457L-412.085 1111.39M-376.102 967.457H-340.119M-412.085 1111.39H-376.102M-340.119 967.457L-376.102 1111.39M-340.119 967.457H-304.136M-376.102 1111.39H-340.119M-304.136 967.457L-340.119 1111.39M-304.136 967.457H-268.153M-340.119 1111.39H-304.136M-268.153 967.457L-304.136 1111.39M-268.153 967.457H-232.17M-304.136 1111.39H-268.153M-232.17 967.457L-268.153 1111.39M-232.17 967.457H-196.188M-268.153 1111.39H-232.17M-196.188 967.457L-232.17 1111.39M-196.188 967.457H-160.205M-232.17 1111.39H-196.188M-160.205 967.457L-196.188 1111.39M-160.205 967.457H-124.222M-196.188 1111.39H-160.205M-124.222 967.457L-160.205 1111.39M-124.222 967.457H-88.2387M-160.205 1111.39H-124.222M-88.2387 967.457L-124.222 1111.39M-88.2387 967.457H-52.2557M-124.222 1111.39H-88.2387M-52.2557 967.457L-88.2387 1111.39M-52.2557 967.457H-16.2728M-88.2387 1111.39H-52.2557M-16.2728 967.457L-52.2557 1111.39M-16.2728 967.457H19.7101M-52.2557 1111.39H-16.2728M19.7101 967.457L-16.2728 1111.39M19.7101 967.457H55.6931M-16.2728 1111.39H19.7101M55.6931 967.457L19.7101 1111.39M55.6931 967.457H91.6761M19.7101 1111.39H55.6931M91.6761 967.457L55.6931 1111.39M91.6761 967.457H127.659M55.6931 1111.39H91.6761M127.659 967.457L91.6761 1111.39M127.659 967.457H163.642M91.6761 1111.39H127.659M163.642 967.457L127.659 1111.39M163.642 967.457H199.625M127.659 1111.39H163.642M199.625 967.457L163.642 1111.39M199.625 967.457H235.608M163.642 1111.39H199.625M235.608 967.457L199.625 1111.39M235.608 967.457H271.591M199.625 1111.39H235.608M271.591 967.457L235.608 1111.39M271.591 967.457H307.574L271.591 1111.39H235.608M-520.034 967.457L-556.017 1111.39M-520.034 967.457H-556.017L-592 1111.39H-556.017" stroke="black"/>
<path d="M113.003 855.009L301.408 823.608L207.206 792.207L18.7998 823.608L113.003 855.009Z" fill="#B1C5FF"/>
<path d="M113.003 1074.82V855.008L301.409 823.607V1043.41L113.003 1074.82Z" fill="#DAE2FF"/>
<path d="M113.003 1074.82V855.008L18.7998 823.607V1043.41L113.003 1074.82Z" fill="#89A9FC"/>
<path d="M18.7998 822.667V1042.47L113.003 1073.87M18.7998 822.667L207.206 791.266L254.307 806.966M18.7998 822.667L65.9012 838.367M113.003 854.068V1073.87M113.003 854.068L301.408 822.667M113.003 854.068L65.9012 838.367M113.003 1073.87L301.408 1042.47V822.667M301.408 822.667L254.307 806.966M65.9012 838.367L254.307 806.966" stroke="black" stroke-width="0.524189"/>
<g filter="url(#filter17_d_5220_52130)">
<rect width="44.6685" height="44.6685" rx="0.985504" transform="matrix(0.989651 -0.143493 0 1 236.273 849.938)" fill="white"/>
<rect x="0.325102" y="0.281364" width="44.0115" height="44.0115" rx="0.657003" transform="matrix(0.989651 -0.143493 0 1 236.277 849.984)" stroke="#F04650" stroke-width="0.657003"/>
</g>
<path d="M1423.74 855.62L1612.15 824.219L1517.94 792.818L1329.54 824.219L1423.74 855.62Z" fill="#B1C5FF"/>
<path d="M1423.74 1075.43V855.62L1612.15 824.219V1044.03L1423.74 1075.43Z" fill="#DAE2FF"/>
<path d="M1423.74 1075.43V855.62L1329.54 824.219V1044.03L1423.74 1075.43Z" fill="#89A9FC"/>
<path d="M1329.54 823.278V1043.08L1423.74 1074.49M1329.54 823.278L1517.94 791.877L1565.05 807.577M1329.54 823.278L1376.64 838.978M1423.74 854.679V1074.49M1423.74 854.679L1612.15 823.278M1423.74 854.679L1376.64 838.978M1423.74 1074.49L1612.15 1043.08V823.278M1612.15 823.278L1565.05 807.577M1376.64 838.978L1565.05 807.577" stroke="black" stroke-width="0.524189"/>
</g>
<defs>
<filter id="filter0_f_5220_52130" x="-612.641" y="-584.27" width="3590.52" height="1716.77" filterUnits="userSpaceOnUse" color-interpolation-filters="sRGB">
<feFlood flood-opacity="0" result="BackgroundImageFix"/>
<feBlend mode="normal" in="SourceGraphic" in2="BackgroundImageFix" result="shape"/>
<feGaussianBlur stdDeviation="10" result="effect1_foregroundBlur_5220_52130"/>
</filter>
<filter id="filter1_f_5220_52130" x="-234.641" y="461.65" width="1875.47" height="259.439" filterUnits="userSpaceOnUse" color-interpolation-filters="sRGB">
<feFlood flood-opacity="0" result="BackgroundImageFix"/>
<feBlend mode="normal" in="SourceGraphic" in2="BackgroundImageFix" result="shape"/>
<feGaussianBlur stdDeviation="10" result="effect1_foregroundBlur_5220_52130"/>
</filter>
<filter id="filter2_d_5220_52130" x="45.8176" y="517.748" width="30.8533" height="35.2859" filterUnits="userSpaceOnUse" color-interpolation-filters="sRGB">
<feFlood flood-opacity="0" result="BackgroundImageFix"/>
<feColorMatrix in="SourceAlpha" type="matrix" values="0 0 0 0 0 0 0 0 0 0 0 0 0 0 0 0 0 0 127 0" result="hardAlpha"/>
<feOffset dx="-0.657003" dy="0.657003"/>
<feComposite in2="hardAlpha" operator="out"/>
<feColorMatrix type="matrix" values="0 0 0 0 0 0 0 0 0 0.0980392 0 0 0 0 0.27451 0 0 0 1 0"/>
<feBlend mode="normal" in2="BackgroundImageFix" result="effect1_dropShadow_5220_52130"/>
<feBlend mode="normal" in="SourceGraphic" in2="effect1_dropShadow_5220_52130" result="shape"/>
</filter>
<filter id="filter3_d_5220_52130" x="351.124" y="517.748" width="30.8533" height="35.2859" filterUnits="userSpaceOnUse" color-interpolation-filters="sRGB">
<feFlood flood-opacity="0" result="BackgroundImageFix"/>
<feColorMatrix in="SourceAlpha" type="matrix" values="0 0 0 0 0 0 0 0 0 0 0 0 0 0 0 0 0 0 127 0" result="hardAlpha"/>
<feOffset dx="-0.657003" dy="0.657003"/>
<feComposite in2="hardAlpha" operator="out"/>
<feColorMatrix type="matrix" values="0 0 0 0 0 0 0 0 0 0.0980392 0 0 0 0 0.27451 0 0 0 1 0"/>
<feBlend mode="normal" in2="BackgroundImageFix" result="effect1_dropShadow_5220_52130"/>
<feBlend mode="normal" in="SourceGraphic" in2="effect1_dropShadow_5220_52130" result="shape"/>
</filter>
<filter id="filter4_d_5220_52130" x="656.411" y="517.748" width="30.8533" height="35.2859" filterUnits="userSpaceOnUse" color-interpolation-filters="sRGB">
<feFlood flood-opacity="0" result="BackgroundImageFix"/>
<feColorMatrix in="SourceAlpha" type="matrix" values="0 0 0 0 0 0 0 0 0 0 0 0 0 0 0 0 0 0 127 0" result="hardAlpha"/>
<feOffset dx="-0.657003" dy="0.657003"/>
<feComposite in2="hardAlpha" operator="out"/>
<feColorMatrix type="matrix" values="0 0 0 0 0 0 0 0 0 0.0980392 0 0 0 0 0.27451 0 0 0 1 0"/>
<feBlend mode="normal" in2="BackgroundImageFix" result="effect1_dropShadow_5220_52130"/>
<feBlend mode="normal" in="SourceGraphic" in2="effect1_dropShadow_5220_52130" result="shape"/>
</filter>
<filter id="filter5_d_5220_52130" x="961.734" y="517.748" width="30.8533" height="35.2859" filterUnits="userSpaceOnUse" color-interpolation-filters="sRGB">
<feFlood flood-opacity="0" result="BackgroundImageFix"/>
<feColorMatrix in="SourceAlpha" type="matrix" values="0 0 0 0 0 0 0 0 0 0 0 0 0 0 0 0 0 0 127 0" result="hardAlpha"/>
<feOffset dx="-0.657003" dy="0.657003"/>
<feComposite in2="hardAlpha" operator="out"/>
<feColorMatrix type="matrix" values="0 0 0 0 0 0 0 0 0 0.0980392 0 0 0 0 0.27451 0 0 0 1 0"/>
<feBlend mode="normal" in2="BackgroundImageFix" result="effect1_dropShadow_5220_52130"/>
<feBlend mode="normal" in="SourceGraphic" in2="effect1_dropShadow_5220_52130" result="shape"/>
</filter>
<filter id="filter6_d_5220_52130" x="1267" y="517.748" width="30.8533" height="35.2859" filterUnits="userSpaceOnUse" color-interpolation-filters="sRGB">
<feFlood flood-opacity="0" result="BackgroundImageFix"/>
<feColorMatrix in="SourceAlpha" type="matrix" values="0 0 0 0 0 0 0 0 0 0 0 0 0 0 0 0 0 0 127 0" result="hardAlpha"/>
<feOffset dx="-0.657003" dy="0.657003"/>
<feComposite in2="hardAlpha" operator="out"/>
<feColorMatrix type="matrix" values="0 0 0 0 0 0 0 0 0 0.0980392 0 0 0 0 0.27451 0 0 0 1 0"/>
<feBlend mode="normal" in2="BackgroundImageFix" result="effect1_dropShadow_5220_52130"/>
<feBlend mode="normal" in="SourceGraphic" in2="effect1_dropShadow_5220_52130" result="shape"/>
</filter>
<filter id="filter7_d_5220_52130" x="104.124" y="328.619" width="18.8328" height="21.3953" filterUnits="userSpaceOnUse" color-interpolation-filters="sRGB">
<feFlood flood-opacity="0" result="BackgroundImageFix"/>
<feColorMatrix in="SourceAlpha" type="matrix" values="0 0 0 0 0 0 0 0 0 0 0 0 0 0 0 0 0 0 127 0" result="hardAlpha"/>
<feOffset dx="-0.657003" dy="0.657003"/>
<feComposite in2="hardAlpha" operator="out"/>
<feColorMatrix type="matrix" values="0 0 0 0 0 0 0 0 0 0.0980392 0 0 0 0 0.27451 0 0 0 1 0"/>
<feBlend mode="normal" in2="BackgroundImageFix" result="effect1_dropShadow_5220_52130"/>
<feBlend mode="normal" in="SourceGraphic" in2="effect1_dropShadow_5220_52130" result="shape"/>
</filter>
<filter id="filter8_d_5220_52130" x="1208.12" y="327.619" width="18.8328" height="21.3953" filterUnits="userSpaceOnUse" color-interpolation-filters="sRGB">
<feFlood flood-opacity="0" result="BackgroundImageFix"/>
<feColorMatrix in="SourceAlpha" type="matrix" values="0 0 0 0 0 0 0 0 0 0 0 0 0 0 0 0 0 0 127 0" result="hardAlpha"/>
<feOffset dx="-0.657003" dy="0.657003"/>
<feComposite in2="hardAlpha" operator="out"/>
<feColorMatrix type="matrix" values="0 0 0 0 0 0 0 0 0 0.0980392 0 0 0 0 0.27451 0 0 0 1 0"/>
<feBlend mode="normal" in2="BackgroundImageFix" result="effect1_dropShadow_5220_52130"/>
<feBlend mode="normal" in="SourceGraphic" in2="effect1_dropShadow_5220_52130" result="shape"/>
</filter>
<filter id="filter9_d_5220_52130" x="287.888" y="328.619" width="18.8328" height="21.3953" filterUnits="userSpaceOnUse" color-interpolation-filters="sRGB">
<feFlood flood-opacity="0" result="BackgroundImageFix"/>
<feColorMatrix in="SourceAlpha" type="matrix" values="0 0 0 0 0 0 0 0 0 0 0 0 0 0 0 0 0 0 127 0" result="hardAlpha"/>
<feOffset dx="-0.657003" dy="0.657003"/>
<feComposite in2="hardAlpha" operator="out"/>
<feColorMatrix type="matrix" values="0 0 0 0 0 0 0 0 0 0.0980392 0 0 0 0 0.27451 0 0 0 1 0"/>
<feBlend mode="normal" in2="BackgroundImageFix" result="effect1_dropShadow_5220_52130"/>
<feBlend mode="normal" in="SourceGraphic" in2="effect1_dropShadow_5220_52130" result="shape"/>
</filter>
<filter id="filter10_d_5220_52130" x="1391.89" y="327.619" width="18.8328" height="21.3953" filterUnits="userSpaceOnUse" color-interpolation-filters="sRGB">
<feFlood flood-opacity="0" result="BackgroundImageFix"/>
<feColorMatrix in="SourceAlpha" type="matrix" values="0 0 0 0 0 0 0 0 0 0 0 0 0 0 0 0 0 0 127 0" result="hardAlpha"/>
<feOffset dx="-0.657003" dy="0.657003"/>
<feComposite in2="hardAlpha" operator="out"/>
<feColorMatrix type="matrix" values="0 0 0 0 0 0 0 0 0 0.0980392 0 0 0 0 0.27451 0 0 0 1 0"/>
<feBlend mode="normal" in2="BackgroundImageFix" result="effect1_dropShadow_5220_52130"/>
<feBlend mode="normal" in="SourceGraphic" in2="effect1_dropShadow_5220_52130" result="shape"/>
</filter>
<filter id="filter11_d_5220_52130" x="471.649" y="328.619" width="18.8328" height="21.3953" filterUnits="userSpaceOnUse" color-interpolation-filters="sRGB">
<feFlood flood-opacity="0" result="BackgroundImageFix"/>
<feColorMatrix in="SourceAlpha" type="matrix" values="0 0 0 0 0 0 0 0 0 0 0 0 0 0 0 0 0 0 127 0" result="hardAlpha"/>
<feOffset dx="-0.657003" dy="0.657003"/>
<feComposite in2="hardAlpha" operator="out"/>
<feColorMatrix type="matrix" values="0 0 0 0 0 0 0 0 0 0.0980392 0 0 0 0 0.27451 0 0 0 1 0"/>
<feBlend mode="normal" in2="BackgroundImageFix" result="effect1_dropShadow_5220_52130"/>
<feBlend mode="normal" in="SourceGraphic" in2="effect1_dropShadow_5220_52130" result="shape"/>
</filter>
<filter id="filter12_d_5220_52130" x="655.423" y="328.619" width="18.8328" height="21.3953" filterUnits="userSpaceOnUse" color-interpolation-filters="sRGB">
<feFlood flood-opacity="0" result="BackgroundImageFix"/>
<feColorMatrix in="SourceAlpha" type="matrix" values="0 0 0 0 0 0 0 0 0 0 0 0 0 0 0 0 0 0 127 0" result="hardAlpha"/>
<feOffset dx="-0.657003" dy="0.657003"/>
<feComposite in2="hardAlpha" operator="out"/>
<feColorMatrix type="matrix" values="0 0 0 0 0 0 0 0 0 0.0980392 0 0 0 0 0.27451 0 0 0 1 0"/>
<feBlend mode="normal" in2="BackgroundImageFix" result="effect1_dropShadow_5220_52130"/>
<feBlend mode="normal" in="SourceGraphic" in2="effect1_dropShadow_5220_52130" result="shape"/>
</filter>
<filter id="filter13_d_5220_52130" x="839.169" y="328.619" width="18.8328" height="21.3953" filterUnits="userSpaceOnUse" color-interpolation-filters="sRGB">
<feFlood flood-opacity="0" result="BackgroundImageFix"/>
<feColorMatrix in="SourceAlpha" type="matrix" values="0 0 0 0 0 0 0 0 0 0 0 0 0 0 0 0 0 0 127 0" result="hardAlpha"/>
<feOffset dx="-0.657003" dy="0.657003"/>
<feComposite in2="hardAlpha" operator="out"/>
<feColorMatrix type="matrix" values="0 0 0 0 0 0 0 0 0 0.0980392 0 0 0 0 0.27451 0 0 0 1 0"/>
<feBlend mode="normal" in2="BackgroundImageFix" result="effect1_dropShadow_5220_52130"/>
<feBlend mode="normal" in="SourceGraphic" in2="effect1_dropShadow_5220_52130" result="shape"/>
</filter>
<filter id="filter14_d_5220_52130" x="1022.95" y="328.619" width="18.8328" height="21.3953" filterUnits="userSpaceOnUse" color-interpolation-filters="sRGB">
<feFlood flood-opacity="0" result="BackgroundImageFix"/>
<feColorMatrix in="SourceAlpha" type="matrix" values="0 0 0 0 0 0 0 0 0 0 0 0 0 0 0 0 0 0 127 0" result="hardAlpha"/>
<feOffset dx="-0.657003" dy="0.657003"/>
<feComposite in2="hardAlpha" operator="out"/>
<feColorMatrix type="matrix" values="0 0 0 0 0 0 0 0 0 0.0980392 0 0 0 0 0.27451 0 0 0 1 0"/>
<feBlend mode="normal" in2="BackgroundImageFix" result="effect1_dropShadow_5220_52130"/>
<feBlend mode="normal" in="SourceGraphic" in2="effect1_dropShadow_5220_52130" result="shape"/>
</filter>
<filter id="filter15_d_5220_52130" x="652.434" y="844.27" width="44.8631" height="51.4734" filterUnits="userSpaceOnUse" color-interpolation-filters="sRGB">
<feFlood flood-opacity="0" result="BackgroundImageFix"/>
<feColorMatrix in="SourceAlpha" type="matrix" values="0 0 0 0 0 0 0 0 0 0 0 0 0 0 0 0 0 0 127 0" result="hardAlpha"/>
<feOffset dx="-0.657003" dy="0.657003"/>
<feComposite in2="hardAlpha" operator="out"/>
<feColorMatrix type="matrix" values="0 0 0 0 0 0 0 0 0 0.0980392 0 0 0 0 0.27451 0 0 0 1 0"/>
<feBlend mode="normal" in2="BackgroundImageFix" result="effect1_dropShadow_5220_52130"/>
<feBlend mode="normal" in="SourceGraphic" in2="effect1_dropShadow_5220_52130" result="shape"/>
</filter>
<filter id="filter16_d_5220_52130" x="1099.38" y="844.27" width="44.8631" height="51.4734" filterUnits="userSpaceOnUse" color-interpolation-filters="sRGB">
<feFlood flood-opacity="0" result="BackgroundImageFix"/>
<feColorMatrix in="SourceAlpha" type="matrix" values="0 0 0 0 0 0 0 0 0 0 0 0 0 0 0 0 0 0 127 0" result="hardAlpha"/>
<feOffset dx="-0.657003" dy="0.657003"/>
<feComposite in2="hardAlpha" operator="out"/>
<feColorMatrix type="matrix" values="0 0 0 0 0 0 0 0 0 0.0980392 0 0 0 0 0.27451 0 0 0 1 0"/>
<feBlend mode="normal" in2="BackgroundImageFix" result="effect1_dropShadow_5220_52130"/>
<feBlend mode="normal" in="SourceGraphic" in2="effect1_dropShadow_5220_52130" result="shape"/>
</filter>
<filter id="filter17_d_5220_52130" x="235.616" y="843.658" width="44.8631" height="51.4734" filterUnits="userSpaceOnUse" color-interpolation-filters="sRGB">
<feFlood flood-opacity="0" result="BackgroundImageFix"/>
<feColorMatrix in="SourceAlpha" type="matrix" values="0 0 0 0 0 0 0 0 0 0 0 0 0 0 0 0 0 0 127 0" result="hardAlpha"/>
<feOffset dx="-0.657003" dy="0.657003"/>
<feComposite in2="hardAlpha" operator="out"/>
<feColorMatrix type="matrix" values="0 0 0 0 0 0 0 0 0 0.0980392 0 0 0 0 0.27451 0 0 0 1 0"/>
<feBlend mode="normal" in2="BackgroundImageFix" result="effect1_dropShadow_5220_52130"/>
<feBlend mode="normal" in="SourceGraphic" in2="effect1_dropShadow_5220_52130" result="shape"/>
</filter>
</defs>
</svg>
