<svg width="714" height="676" viewBox="0 0 714 676" fill="none" xmlns="http://www.w3.org/2000/svg">
<ellipse cx="363.242" cy="353.482" rx="319.794" ry="322.308" fill="#F4F3FB"/>
<g opacity="0.5">
<path d="M0 0.209778C238 0.209778 476 0.209778 714 0.209778H0ZM229.852 63.733C229.737 62.7695 229.613 61.7964 229.499 60.8329C228.601 60.9871 227.655 61.0063 226.824 61.3146C225.955 61.6422 225.009 62.0854 224.407 62.7599C223.72 63.5307 223.376 64.6098 222.879 65.554C223.911 65.66 225.009 66.0261 225.974 65.7949C227.197 65.5058 228.314 64.7447 229.48 64.1859C229.403 65.0145 229.327 65.8527 229.241 66.6813C229.575 66.874 229.909 67.0667 230.244 67.2594C231.4 65.949 232.565 64.6483 233.721 63.338C233.425 63.0104 233.128 62.6732 232.842 62.3456C231.848 62.8081 230.855 63.2609 229.862 63.7234L229.852 63.733ZM224.952 75.0059C223.978 76.7787 223.156 78.5034 226.337 79.0622C227.579 77.3376 228.868 75.6418 230.024 73.8497C230.129 73.6859 229.384 72.9633 229.031 72.5008C230.081 71.123 231.132 69.7452 232.469 67.9917C222.287 67.8664 218.084 70.7762 218.905 77.6074C221.055 76.6824 223.003 75.8442 224.961 75.0059H224.952ZM213.537 83.6003C213.394 84.0242 213.174 84.4385 213.107 84.8817C212.897 86.1728 212.735 87.4735 212.553 88.7646C213.766 88.6683 215.094 88.8802 216.154 88.4274C218.982 87.2134 221.761 85.8356 224.417 84.2844C225.592 83.6003 226.442 82.3381 227.741 81.0277C223.844 79.014 220.844 78.5805 217.797 80.9988C216.46 82.0587 214.874 82.8295 213.413 83.7255C213.604 82.6175 213.785 81.5095 213.967 80.4593C208.675 79.0141 205.829 83.7159 201.53 85.1515C201.74 83.9568 201.855 83.3498 201.96 82.7331C196.238 82.2707 192.761 85.9994 189.16 89.4776C188.874 89.1693 188.587 88.861 188.31 88.5527C190.125 86.0187 191.94 83.4847 193.755 80.9507C193.592 80.652 193.42 80.3533 193.258 80.0643C191.835 80.5653 190.259 80.8158 189.026 81.6155C183.133 85.4309 177.201 89.2175 171.565 93.3894C169.082 95.2297 164.735 96.0294 165.748 100.828C165.777 100.982 165.528 101.242 165.356 101.386C162.414 103.988 159.472 106.58 156.263 109.403C160.045 111.031 163.121 108.921 166.35 108.275C167.935 107.957 169.703 107.264 171.145 107.649C176.637 109.133 184.117 106.127 185.779 100.664C187.794 94.0735 192.351 90.1424 197.299 86.9243C198.072 88.4852 198.483 90.7591 199.687 91.3372C200.795 91.8671 202.801 90.6723 204.348 90.0557C204.95 89.8148 205.504 89.15 205.829 88.543C207.5 85.4406 210.175 84.005 213.528 83.6003H213.537ZM239.118 106.551C240.235 107.774 241.334 109.017 242.48 110.212C246.329 114.22 246.014 115.367 241.2 118.142C237.532 120.261 232.679 121.36 232.488 126.813C229.145 126.813 225.955 126.283 223.032 126.958C220.08 127.642 217.406 129.53 214.464 130.966C215.151 131.881 215.314 132.218 215.572 132.43C219.631 135.802 223.767 134.001 227.913 132.613C228.849 132.295 230.502 131.65 230.683 131.91C231.925 133.808 233.09 135.822 233.845 137.951C234.657 140.225 234.982 142.672 235.392 144.484C237.857 144.484 239.614 144.137 241.152 144.561C243.884 145.312 246.444 146.651 249.147 147.519C250.15 147.837 251.354 147.519 252.462 147.499C252.376 146.266 252.624 144.869 252.137 143.828C251.402 142.248 250.15 140.899 249.128 139.454C249.3 139.3 249.472 139.136 249.654 138.982C252.309 140.668 254.965 142.345 257.41 143.896C259.196 142.084 260.763 140.61 262.167 138.982C262.549 138.539 262.702 137.537 262.492 136.968C261.422 134.087 262.492 130.021 258.174 128.856C257.696 128.73 257.009 127.94 257.066 127.555C257.257 126.264 257.515 124.857 258.203 123.807C258.642 123.132 260.065 122.516 260.734 122.757C261.546 123.046 262.119 124.221 262.654 125.098C263.638 126.688 264.392 128.432 265.481 129.944C266.8 131.775 267.774 131.264 269.36 129.675C271.805 127.218 274.9 125.416 277.699 123.306C278.501 122.699 279.704 122.063 279.848 121.283C279.981 120.55 279.103 119.433 278.396 118.787C276.868 117.4 275.196 116.147 273.505 114.952C272.072 113.941 270.42 112.178 269.054 112.332C266.035 112.679 264.507 111.426 262.921 108.979C264.287 108.67 265.644 108.776 266.274 108.141C267.497 106.926 268.471 105.366 269.197 103.786C269.474 103.179 269.063 101.772 268.509 101.348C266.484 99.8159 264.259 98.5537 262.129 97.1567C261.909 97.0121 261.813 96.6556 261.708 96.3762C260.228 92.5126 259.234 92.0887 256.273 93.6206C254.277 91.3564 252.376 89.2078 250.36 86.9243C251.707 86.6738 253.025 86.6064 254.172 86.1343C254.783 85.8838 255.347 84.9588 255.471 84.2555C255.557 83.7448 255.022 82.8391 254.516 82.5597C250.676 80.4015 245.126 83.4172 244.629 88.0227C243.33 88.148 242.002 88.2732 240.273 88.437C241.821 86.2499 243.063 84.4963 244.304 82.7331C244.056 82.4441 243.808 82.1454 243.559 81.8564C237.389 83.7063 231.762 86.6546 226.881 91.2408C226.805 90.5471 226.872 90.0172 227.168 89.8052C230.005 87.7722 232.89 85.8163 235.727 83.7737C236.328 83.3401 236.739 82.6561 237.236 82.0876C236.5 81.654 235.803 80.941 235.02 80.8543C234.15 80.7483 233.128 81.0278 232.317 81.4324C228.811 83.186 225.191 84.795 221.924 86.9436C219.278 88.6875 216.957 91.0096 214.722 93.3027C213.556 94.4878 212.888 96.1546 211.627 98.1972C211.799 98.3899 212.353 99.5847 213.145 99.7774C221.131 101.743 229.021 104.624 237.647 102.523C238.21 104.007 238.707 105.317 239.213 106.637C237.045 108.092 234.313 109.133 232.851 111.118C231.371 113.122 227.149 114.066 229.078 118.026C234.943 118.392 238.449 115.877 238.697 111.301C238.783 109.701 238.974 108.112 239.108 106.512L239.118 106.551ZM286.697 60.5053L286.668 60.4764C285.579 65.0145 289.562 62.8755 291.482 64.2148C288.206 64.7832 285.226 65.3035 282.322 65.8045C281.835 70.5835 283.716 73.0404 288.11 72.9922C292.495 72.944 296.879 72.2889 301.264 72.1347C308.342 71.8842 312.019 76.9136 309.784 83.7255C309.115 85.7585 307.759 87.5988 307.281 89.651C306.89 91.3661 306.938 93.4087 307.492 95.0755C308.132 96.9832 309.555 98.6212 310.634 100.375C308.685 100.452 307.492 99.9797 306.326 99.4498C304.549 98.6501 302.887 97.7444 301.541 100.259C300.347 102.494 300.003 104.383 301.999 106.387C305.056 109.451 311.179 107.582 313.118 103.092H318.457C318.648 103.458 318.849 103.824 319.04 104.19C317.177 105.327 315.315 106.445 313.452 107.591C312.382 108.256 311.054 108.728 310.319 109.672C308.6 111.879 307.014 114.22 305.677 116.677C304.979 117.959 304.588 119.606 304.655 121.061C304.76 123.19 305.333 125.31 305.839 127.41C306.469 130.05 307.425 132.411 310.462 133.23C311.074 133.394 311.599 134.511 311.866 135.301C313.299 139.473 314.407 143.78 316.079 147.846C317.76 151.951 321.208 153.81 325.583 154.417C327.943 154.745 330.149 156.065 332.489 156.73C334.323 157.25 336.396 158.098 338.096 157.683C341.994 156.739 344.458 153.964 346.12 150.168C347.668 146.622 349.951 143.404 351.765 139.965C352.568 138.433 353.705 136.621 353.494 135.099C352.979 131.274 355.166 130.118 358.032 129.53C361.642 128.798 365.282 128.2 368.94 127.815C372.656 127.43 374.939 125.561 376.515 122.188C377.499 120.078 379.209 118.315 380.594 116.388C381.568 115.03 382.533 113.661 383.66 112.081C384.577 112.081 386 112.014 387.423 112.091C393.097 112.399 398.599 111.879 403.624 108.892C406.298 107.302 408.983 105.722 407.817 101.81C408.61 101.81 409.097 101.762 409.556 101.81C412.221 102.157 414.246 100.856 414.742 98.4863C415.067 96.9447 414.322 94.7576 413.3 93.4568C412.02 91.8382 410.043 90.7205 408.237 89.5932C405.888 88.1287 403.404 86.8665 400.978 85.5176C402.649 84.7758 404.13 84.9106 405.572 84.7372C407.148 84.5541 408.696 84.082 410.253 83.7352C409.326 82.7139 408.4 81.7022 407.492 80.6713C407.349 80.5075 407.273 80.2666 407.168 80.0739C411.915 73.8112 411.81 73.0115 405.486 68.5698C405.773 67.799 406.069 66.9896 406.451 65.9683C404.808 65.1686 403.356 64.3689 401.838 63.733C399.239 62.6443 397.52 61.3243 398.905 58.0195C399.278 57.1427 398.848 55.5433 398.217 54.6954C396.469 52.2963 397.281 50.8896 399.421 49.4155C400.252 48.847 400.624 47.5945 401.217 46.6599C400.147 46.3323 399.048 45.6482 398.017 45.7446C393.795 46.1492 389.601 46.7948 384.692 47.4499C384.567 45.9084 384.415 44.1066 384.243 41.958C382.342 41.7557 380.126 41.457 377.9 41.3028C368.826 40.6958 359.741 39.8287 350.743 41.9869C348.967 42.4109 346.12 40.7055 345.939 44.4438C345.929 44.6365 344.917 44.9256 344.372 44.9352C337.963 44.9738 331.553 44.9545 325.316 44.9545V40.5031C319.479 41.3125 314.006 42.0833 308.523 42.8348C307.635 42.9601 306.727 43.1046 305.839 43.066C303.47 42.9697 301.025 42.3242 298.77 42.7577C296.889 43.1239 294.95 43.3647 293.182 43.7694C287.375 45.0894 281.796 47.4114 276.122 49.348C276.161 49.9261 276.208 50.5042 276.247 51.0823C278.415 51.4388 280.583 51.8049 282.752 52.1614C282.78 52.3349 282.799 52.4987 282.828 52.6721C280.001 52.8648 277.173 53.0575 274.269 53.2598C274.441 51.6893 274.604 50.2248 274.833 48.0859C267.831 50.6584 261.078 52.1422 255.882 57.1042C254.095 58.8096 251.831 60.5631 255.452 63.2416C253.962 64.3207 252.844 65.1301 251.421 66.1707C251.23 64.6772 251.115 63.8294 251.01 62.9719C249.138 64.7543 247.323 66.267 245.823 68.0398C245.393 68.5409 245.546 70.0343 245.995 70.6509C246.415 71.229 247.667 71.6048 248.421 71.441C252.204 70.6316 255.776 67.7508 259.664 71.9709C261.154 73.5896 268.739 68.0784 268.92 66.1032C273.324 64.4556 277.441 62.8177 281.624 61.4014C283.229 60.8618 284.987 60.804 286.677 60.5246L286.697 60.5053ZM195.722 422.731C195.465 422.596 195.216 422.452 194.958 422.317C193.678 423.502 192.522 424.89 191.09 425.843C188.348 427.655 185.626 429.861 182.56 430.728C178.71 431.827 176.093 433.349 175.386 437.56C174.899 440.489 172.874 441.519 170.094 440.845C167.439 440.199 164.86 439.207 162.185 438.696C159.176 438.118 156.062 437.415 153.063 437.627C145.889 438.138 143.425 436.268 142.871 428.888C142.546 424.581 142.422 420.255 142.087 415.948C141.629 410.013 138.735 406.631 132.917 405.726C130.281 405.311 127.482 405.35 124.836 405.726C121.254 406.256 120.06 405.504 120.872 401.872C121.598 398.625 122.821 395.474 124.015 392.352C125.629 388.123 126.728 383.864 125.362 379.374C124.263 375.761 121.665 374.826 118.866 377.293C116.746 379.152 115.275 381.744 113.269 383.758C110.699 386.34 108.168 389.182 105.092 390.984C100.746 393.528 96.6481 392.14 94.1741 387.699C93.0565 385.685 92.6649 383.218 92.1682 380.906C90.7545 374.374 89.9712 367.658 87.9748 361.318C84.536 350.383 89.2357 336.103 98.9024 329.976C102.112 327.943 105.006 327.48 108.474 329.716C113.001 332.645 114.023 332.259 117.338 328.126C120.299 324.426 123.365 323.751 127.301 326.363C130.176 328.27 133.089 329.003 136.423 328.27C138.935 327.721 140.588 328.848 141.419 331.19C141.973 332.76 142.498 334.379 142.756 336.017C143.749 342.511 146.586 348.147 150.875 352.936C152.194 354.4 154.601 354.872 156.502 355.797C156.454 353.687 156.97 351.336 156.234 349.515C154.4 344.977 151.926 340.699 149.834 336.267C147.704 331.768 147.026 326.844 150.436 323C156.75 315.88 163.398 308.991 170.438 302.603C174.612 298.816 175.739 297.525 174.641 291.937C173.944 288.42 173.265 284.865 172.988 281.3C172.759 278.294 174.326 275.712 177.115 274.796C178.519 274.334 180.449 275.519 181.872 275.895C183.629 274.035 185.253 271.183 187.68 270.037C190.86 268.534 192.647 267.117 191.032 263.109C193.248 263.234 195.006 263.263 196.745 263.446C202.256 264.024 203.116 263.572 204.721 258.243C205.552 255.478 207.166 254.033 210.012 253.734C213.394 253.387 215.992 251.663 217.922 248.801C220.434 245.063 224.092 245.092 226.786 248.811C227.349 249.591 227.703 250.516 228.295 251.643C229.766 249.321 230.97 247.25 232.326 245.294C234.638 241.96 237.895 241.344 241.324 243.348C242.193 243.858 243.502 244.581 244.18 244.263C248.909 242.076 253.608 239.783 258.126 237.191C259.005 236.69 259.702 234.474 259.32 233.539C258.929 232.586 257.047 231.67 255.891 231.757C253.446 231.94 251.058 232.798 248.641 233.356C246.349 233.886 244.066 234.551 241.744 234.85C239.595 235.129 238.544 233.915 238.353 231.68C238.134 229.059 237.838 226.419 237.226 223.866C236.252 219.819 234.256 218.538 230.167 219.183C225.573 219.906 221.465 221.669 218.485 225.456C217.396 226.843 216.536 228.404 215.572 229.878C215.104 229.454 214.636 229.04 214.177 228.616C214.158 225.725 215.782 223.615 218.132 222.161C221.876 219.848 225.62 217.411 229.651 215.744C232.269 214.665 235.602 213.99 238.258 214.626C247.418 216.842 255.652 213.98 263.867 210.801C269.073 208.787 274.145 206.427 279.217 204.105C281.968 202.842 285.321 201.908 285.493 198.064C285.589 195.78 281.118 193.217 277.125 193.256C275.272 193.275 273.429 194.026 271.557 194.238C270.248 194.393 268.901 194.19 267.573 194.152C268.146 192.938 268.443 191.396 269.36 190.568C271.194 188.92 273.381 187.667 275.931 185.885C272.817 185.153 269.99 184.767 267.363 183.804C264.631 182.802 261.976 181.443 259.502 179.892C257.763 178.803 257.439 177.291 259.148 175.431C260.056 174.439 260.61 172.618 260.486 171.249C259.999 166.075 257.773 161.653 253.923 157.982C246.501 164.534 239.538 172.473 228.524 164.736C228.629 164.418 228.639 163.994 228.849 163.753C230.291 162.164 231.801 160.632 233.253 159.042C236.567 155.41 236.223 153.685 232.001 151.305C226.423 148.164 220.644 146.671 214.129 146.112C209.181 145.688 208.417 147.779 207.051 151.064C205.781 154.128 204.673 157.626 202.418 159.813C199.419 162.742 199.152 164.958 201.129 168.475C203.775 173.186 202.734 176.77 198.435 180.075C197.394 180.875 196.286 181.588 195.168 182.262C190.631 185.008 188.033 188.978 186.743 194.19C185.664 198.584 183.964 202.842 182.225 207.024C180.773 210.512 178.567 210.859 175.93 208.103C172.205 204.201 170.658 199.615 172.53 194.267C173.772 190.722 175.09 187.195 176.628 182.975C174.87 183.659 173.896 183.987 172.96 184.42C169.693 185.952 166.493 187.86 163.58 183.679C163.073 182.946 161.669 182.542 160.666 182.513C154.486 182.32 152.108 176.52 150.522 172.839C148.783 168.821 150.99 163.06 151.592 158.069C151.668 157.471 152.365 156.845 152.91 156.412C157.657 152.635 162.5 148.983 167.162 145.1C169.464 143.183 171.393 140.803 173.571 138.722C174.316 138.009 175.3 137.084 176.198 137.055C183.085 136.843 187.995 132.257 188.568 125.329C188.635 124.491 188.902 123.682 189.217 122.217C192.112 126.081 194.137 123.711 196.248 122.275C198.703 120.599 201.148 118.065 203.335 122.198C211.502 118.816 220.061 116.051 220.023 104.132C214.836 105.924 210.509 107.582 207.682 111.821C206.688 113.314 205.962 115.29 204.568 116.118C203.24 116.899 201.215 116.475 199.486 116.571C199.419 115.184 199.171 113.767 199.343 112.418C199.457 111.561 200.221 110.8 200.766 109.856C199.696 109.624 198.836 109.432 197.576 109.152C200.307 103.882 202.896 98.891 205.485 93.8904C203.909 93.9675 202.695 94.324 201.941 95.1333C198.731 98.6019 195.407 102.013 192.599 105.809C190.096 109.2 188.09 113.411 183.591 113.893C178.51 114.432 173.332 115.897 168.146 113.671C164.764 112.226 161.535 112.968 159.51 116.455C158.976 117.38 158.775 118.508 158.422 119.548C157.867 119.124 157.313 118.691 156.769 118.267C156.32 114.538 149.194 113.257 153.827 107.765C153.12 107.861 152.862 107.813 152.728 107.919C151.429 108.969 150.121 110.019 148.86 111.108C125.228 131.563 104.605 154.745 87.9079 181.26C71.9464 206.61 57.1597 232.624 51.7915 262.791C50.7694 268.534 49.7091 274.324 49.4703 280.124C49.1455 287.919 49.5467 295.666 46.1844 303.065C44.5701 306.601 45.296 310.455 47.7509 313.615C50.8076 317.566 53.2243 321.718 53.0619 327.018C53.5299 325.958 53.6446 324.888 54.0075 323.915C54.3514 322.961 54.915 321.372 55.4213 321.362C56.4338 321.333 57.9621 321.911 58.4111 322.73C59.3376 324.436 59.8439 326.43 60.2833 328.357C61.1907 332.423 61.2385 336.836 62.891 340.536C67.753 351.462 70.0455 362.84 70.5231 374.701C70.9816 386.003 76.6365 393.509 86.9623 397.69C92.1395 399.791 97.2499 402.055 102.312 404.444C106.219 406.284 108.779 409.483 110.852 413.308C111.817 415.091 113.651 416.777 115.494 417.625C120.127 419.773 125.085 421.18 129.708 423.329C133.519 425.102 136.69 427.645 137.885 432.241C138.372 434.129 140.101 435.96 141.724 437.203C145.211 439.891 148.936 442.281 152.69 444.603C158.316 448.081 158.593 447.917 160.294 441.481C160.341 441.288 160.618 441.163 160.972 440.835C161.507 440.99 162.347 440.98 162.787 441.394C165.872 444.314 169.043 447.175 171.861 450.345C176.217 455.269 176.847 461.059 174.861 467.197C173.791 470.501 172.616 473.768 171.47 477.044C169.788 481.832 170.428 486.168 173.581 490.234C177 494.637 176.618 496.044 171.622 498.086C169.473 498.963 168.251 500.505 169.492 502.509C172.234 506.922 174.756 511.758 178.462 515.227C185.511 521.817 193.392 527.492 200.766 533.745C202.294 535.036 203.995 537.079 204.128 538.89C204.482 543.881 206.774 547.523 210.872 549.633C217.301 552.938 223.911 555.935 230.645 558.546C238.707 561.667 243.636 567.159 245.078 575.734C246.559 584.512 250.045 592.451 254.745 599.918C260.552 609.168 264.173 619.236 265.711 630.085C266.656 636.772 268.93 642.909 274.05 647.553C281.137 653.961 288.282 660.3 295.484 666.573C300.089 670.581 305.486 673.038 311.475 674.021C313.337 674.329 315.286 674.069 317.196 674.069C317.301 673.751 317.407 673.423 317.512 673.105C312.841 670.33 308.122 667.633 303.527 664.732C301.751 663.615 299.554 662.353 298.79 660.599C297.242 657.053 295.045 654.751 291.559 653.17C288.903 651.966 288.836 649.413 291.31 647.929C294.109 646.253 293.402 644.807 291.396 643.372C288.655 641.416 289.247 638.978 289.897 636.3C290.565 633.534 292.734 633.756 294.654 633.515C300.251 632.812 301.397 630.047 298.073 625.277C296.898 623.601 295.886 621.809 294.787 620.074C295.026 619.737 295.265 619.39 295.504 619.053C298.331 619.689 301.168 620.286 303.986 620.951C310.787 622.57 312.974 621.125 313.328 613.976C313.567 609.12 315.248 605.323 318.753 601.951C324.905 596.045 325.077 594.397 321.609 586.506C320.511 584.011 320.836 582.228 322.823 580.109C327.446 575.185 333.206 573.644 339.558 573.383C346.493 573.104 351.66 570.088 354.364 563.479C355.443 560.829 356.618 558.093 356.971 555.299C357.793 548.766 358.194 542.185 358.653 535.614C358.824 533.138 359.436 531.635 362.349 532.522C363.018 532.724 364.145 532.425 364.642 531.934C367.536 529.082 370.602 526.336 373.028 523.108C375.359 520.006 377.422 516.528 378.807 512.905C380.403 508.733 378.655 506.488 374.308 505.351C372.283 504.821 369.742 504.339 368.548 502.904C364.164 497.595 358.003 496.207 351.995 494.444C345.184 492.44 338.287 489.617 330.971 495.764C331.152 489.453 328.993 485.465 323.167 486.418C318.906 487.122 314.875 489.222 310.395 490.831C310.395 490.176 310.481 489.155 310.376 488.153C310.204 486.438 309.918 484.732 309.679 483.027C307.969 483.643 306.221 484.164 304.569 484.896C303.384 485.426 302.343 486.283 301.206 486.929C298.904 488.239 296.583 489.502 294.09 490.889C292.657 486.958 293.326 484.356 296.296 482.468C299.009 480.743 301.751 479.057 304.454 477.313C306.603 475.936 306.727 474.259 305.323 472.139C303.174 468.892 301.311 465.453 299.114 462.244C298.36 461.146 297.051 460.105 295.8 459.749C287.585 457.417 279.389 454.902 271.041 453.197C264.058 451.771 257.181 450.307 251.86 445.325C249.864 443.456 248.526 440.498 247.762 437.791C247.103 435.43 246.501 434.226 243.884 434.284C242.767 434.313 240.913 433.542 240.636 432.713C239.691 429.871 237.809 429.688 235.564 430.304C232.355 431.181 229.26 432.646 226.003 433.147C219.173 434.197 212.572 433.484 206.746 429.1C205.704 428.32 204.128 427.848 202.839 427.915C200.775 428.021 200.432 429.717 200.413 431.567C200.393 433.233 200.212 434.948 199.801 436.558C199.591 437.376 198.722 438.6 198.13 438.61C197.26 438.639 196.095 437.935 195.57 437.174C195.035 436.394 194.911 435.16 194.958 434.149C195.14 430.333 195.474 426.518 195.742 422.702L195.722 422.731ZM575.972 460.529C575.323 462.196 574.922 463.41 574.396 464.576C570.413 473.508 570.403 482.458 574.176 491.448C575.103 493.654 576.03 495.861 577.071 498.019C579.717 503.54 580.061 509.253 577.482 514.716C574.578 520.854 571.712 527.203 567.681 532.589C556.314 547.735 547.698 564.307 540.352 581.698C534.745 594.975 528.164 607.732 518.335 618.494C517.466 619.438 516.845 621.645 517.351 622.57C518.001 623.755 520.064 625.056 521.267 624.844C524.926 624.189 528.909 623.553 531.975 621.616C544.278 613.87 556.324 605.709 568.388 597.586C578.8 590.572 587.311 581.66 594.542 571.331C597.799 566.678 601.61 562.168 605.975 558.613C613.359 552.591 619.262 545.577 623.408 537.05C628.385 526.818 634.88 517.771 642.904 509.735C650.125 502.509 652.36 494.348 656.076 484.751C660.613 473.045 664.364 458.871 668.5 447.001C669.56 443.975 673.442 443.447 671.627 440.662C670.767 439.342 670.271 437.473 670.376 435.902C670.538 433.359 669.802 431.875 667.434 430.882C664.845 429.794 663.689 427.568 664.052 424.764C664.358 422.404 664.673 419.995 665.408 417.74C667.835 410.322 668.57 402.768 667.911 395.021C667.262 387.371 666.727 379.711 666.096 372.061C665.313 362.542 663.297 353.379 658.827 344.813C657.423 342.116 656.783 338.965 656.076 335.949C655.436 333.242 656.372 331.122 659.391 330.689C662.142 330.294 664.119 330.457 665.046 334.186C668.198 346.846 671.656 359.439 675.457 371.926C677.215 377.688 677.874 383.295 677.224 389.26C676.384 396.996 675.916 404.772 675.476 412.547C675.333 415.072 676.116 417.316 679.536 417.162C679.823 415.765 680.128 414.484 680.339 413.202C687.073 371.753 685.879 330.477 676.938 289.518C662.887 225.176 631.986 170.228 585.219 124.318C583.91 123.036 582.057 122.323 580.462 121.35C580.232 121.629 580.013 121.899 579.784 122.179C580.758 125.609 580.634 129.472 584.292 131.823C584.913 132.218 585.152 133.981 584.865 134.897C583.958 137.778 579.573 138.124 577.357 134.897C574.167 130.243 569.601 127.574 565.226 124.52C564.357 123.913 563.22 123.711 562.198 123.325L563.392 121.36C566.076 121.061 568.751 120.772 571.741 120.435C571.244 119.645 571.034 119.047 570.623 118.71C563.984 113.392 557.059 108.738 548.644 106.474C544.403 105.337 540.41 103.034 536.513 100.876C533.628 99.2764 530.218 100.442 529.864 103.92C529.645 106.117 529.893 108.526 530.6 110.617C532.157 115.232 532.291 119.674 530.905 124.366C530.113 127.073 529.406 130.195 529.979 132.835C531.23 138.597 529.845 143.27 526.655 148.029C524.066 151.893 525.279 155.988 529.1 158.676C531.335 160.246 533.676 161.711 536.102 162.973C540.095 165.054 541.843 164.168 543.199 159.774C543.638 158.348 544.25 156.97 544.785 155.573C548.004 165.44 548.032 165.401 557.871 170.594C560.068 171.75 562.141 173.205 564.166 174.66C566.974 176.693 567.414 179.198 565.35 182.098C564.366 183.486 563.469 184.941 561.978 187.195C567.031 184.979 569.19 181.79 569.821 177.522C571.196 168.186 567.49 160.285 559.199 155.843C552.694 152.355 550.086 147.393 550.917 139.955C551.414 135.513 550.592 130.937 550.583 126.428C550.583 125.464 551.299 124.144 552.092 123.614C554.681 121.861 558.444 122.911 559.533 125.946C560.526 128.711 560.947 131.737 561.252 134.685C562.131 143.125 566.535 149.243 572.83 154.571C577.959 158.917 583.06 157.019 588.342 155.756C589.04 155.593 589.727 155.323 590.434 155.304C591.294 155.284 592.144 155.487 593.844 155.708C591.953 157.963 590.616 159.591 589.25 161.2C586.601 164.335 586.655 167.27 589.412 170.007C589.67 170.257 590.1 170.517 590.109 170.787C590.167 172.02 590.539 173.581 589.937 174.381C589.479 174.997 587.702 174.891 586.604 174.651C585.62 174.439 584.779 173.61 583.872 173.051C585.276 176.289 587.158 178.89 589.211 181.356C590.988 183.495 590.558 185.056 588.237 186.193C586.642 186.974 584.922 187.484 583.318 188.255C580.977 189.382 578.437 190.298 576.44 191.888C570.948 196.281 565.303 195.761 559.323 193.304C553.888 191.069 553.401 186.569 553.181 181.501C553.038 178.235 551.786 175.017 550.994 171.616C549.809 172.145 549.542 172.194 549.389 172.357C549.14 172.608 548.892 172.897 548.777 173.215C547.326 177.165 546.561 180.634 550.497 184.151C554.977 188.149 553.955 192.967 548.567 194.181C543.514 195.318 541.078 198.285 539.837 202.929C539.244 205.126 538.347 207.236 537.802 209.442C535.538 218.538 530.027 224.608 521.325 227.836C519.968 228.337 518.746 229.213 517.456 229.907C517.475 230.254 517.485 230.61 517.504 230.957C519.94 231.67 522.337 232.634 524.821 233.038C529.148 233.732 531.842 236.189 533.58 240.082C537.248 248.3 535.261 251.268 526.359 251.528C520.083 251.711 513.807 252.279 507.579 253.079C504.494 253.474 501.963 255.767 502.593 259.053C504.169 267.242 506.146 275.365 508.334 283.41C509.069 286.098 511.562 287.495 514.495 287.457C517.848 287.408 520.408 288.825 522.481 291.445C523.092 292.216 524.439 293.286 525.012 293.074C529.702 291.272 535.529 290.328 538.604 286.917C542.731 282.331 546.065 276.492 547.163 269.815C547.536 267.57 549.561 265.643 550.65 263.485C551.891 261.009 553.601 258.513 553.916 255.883C554.576 250.372 557.728 247.847 562.819 249.851C565.866 251.056 568.617 251.036 571.158 248.859C573.145 247.154 575.036 247.279 576.889 248.984C579 250.921 581.054 252.915 583.155 254.862C584.856 256.432 586.594 257.954 588.314 259.496C588.103 257.974 587.377 256.962 586.661 255.941C585.84 254.765 584.732 253.686 584.263 252.385C583.48 250.198 582.582 247.847 582.678 245.602C582.85 241.517 584.789 240.775 588.371 242.693C592.755 245.044 597.455 246.893 601.591 249.62C605.077 251.923 608.793 254.659 610.933 258.128C615.747 265.942 619.74 274.286 623.866 282.514C625.175 285.115 626.904 286.503 629.722 286.117C630.754 285.973 631.699 285.183 632.683 284.682C632.148 283.805 631.785 282.745 631.05 282.1C628.919 280.202 626.388 278.689 624.497 276.588C623.188 275.143 621.66 272.638 622.109 271.193C622.548 269.786 625.261 268.63 627.152 268.225C633.562 266.857 635.721 264.333 634.861 257.685C633.982 250.911 632.674 244.196 631.814 237.422C631.661 236.247 632.779 234.908 633.304 233.636C634.718 234.455 636.437 235.023 637.459 236.199C638.195 237.047 638.042 238.704 638.252 240.004C638.548 241.748 638.968 243.801 641.204 242.712C642.035 242.307 642.331 240.024 642.235 238.646C642.14 237.316 641.232 236.045 640.554 234.464C644.423 233.607 646.419 235.563 648.148 238.203C650.899 242.394 653.793 246.489 656.487 250.719C657.881 252.915 659.19 255.237 660.107 257.665C660.556 258.841 660.537 261.066 659.821 261.616C658.856 262.358 656.955 262.232 655.57 261.934C653.736 261.539 652.055 260.488 650.23 259.958C647.279 259.101 645.569 260.219 646.381 262.965C647.594 267.079 645.693 268.293 642.407 269.102C641.404 269.353 640.468 270.017 639.57 270.586C636.055 272.811 635.53 274.97 637.048 278.804C638.357 282.119 639.169 285.645 640.516 288.94C640.974 290.058 642.312 291.397 643.391 291.542C647.078 292.024 650.823 292.024 654.538 292.207L654.691 293.266C655.522 291.937 656.353 290.617 657.557 288.671C658.579 290.636 659.859 291.956 659.878 293.295C659.983 301.398 660.002 309.511 659.496 317.595C659.41 318.905 656.668 320.331 654.901 321.169C652.914 322.113 650.631 322.412 648.501 323.058C646.19 323.761 643.907 324.551 641.567 325.322C640.821 323.588 640.535 322.036 639.637 321.015C636.876 317.826 634.164 314.483 630.887 311.891C628.432 309.945 627.124 310.908 626.694 314.078C626.302 316.92 626.216 319.849 625.5 322.605C624.182 327.654 619.616 329.06 615.547 325.775C612.862 323.597 609.863 321.545 607.895 318.789C604.18 313.577 599.136 311.178 593.328 309.261C586.843 307.122 584.435 300.849 586.852 294.346C587.225 293.334 587.788 292.39 588.132 291.378C589.192 288.256 587.951 286.117 584.703 286.483C581.875 286.801 579.172 288.218 576.44 289.239C572.935 290.549 569.41 293.189 565.981 293.045C557.002 292.679 548.558 295.203 539.865 296.321C530.81 297.496 523.894 302.294 517.905 308.634C516.062 310.58 515.173 313.567 514.218 316.207C513.578 317.97 513.607 319.984 513.291 321.873C512.651 325.775 510.684 328.367 506.681 329.436C504.542 330.005 502.268 330.92 500.625 332.355C491.876 340.006 483.689 348.186 478.837 359.083C476.592 364.132 476.258 369.248 478.55 374.412C480.127 377.977 479.716 381.446 477.758 384.731C476.353 387.101 474.653 389.308 473.44 391.765C472.237 394.193 470.66 396.852 470.66 399.405C470.67 414.956 473.392 429.524 487.138 439.381C487.52 439.66 487.845 440.016 488.188 440.344C493.538 445.229 498.791 450.21 504.255 454.96C508.353 458.525 513.272 459.498 518.631 458.853C520.322 458.65 522.395 458.65 523.799 459.441C530.437 463.169 536.379 461.705 542.674 458.246C547.287 455.712 552.407 453.708 557.537 452.619C563.402 451.376 564.567 452.85 564.92 458.911C564.93 459.103 565.178 459.277 565.331 459.489C568.694 459.816 572.075 460.153 575.963 460.539L575.972 460.529ZM508.745 180.971C508.85 178.919 509.05 176.414 509.089 173.909C509.117 171.365 507.751 170.44 505.373 171.115C503.93 171.529 502.526 172.117 500.74 172.753C500.482 171.346 499.985 170.267 500.215 169.38C500.425 168.542 501.399 167.906 502.201 166.981C495.591 165.69 493.824 169.265 496.508 177.377C497.12 177.252 497.683 177.146 498.323 177.021C498.428 178.533 498.514 179.728 498.533 180.017C500.587 181.511 502.966 182.32 503.462 183.775C504.656 187.311 506.739 187.59 509.862 186.405C511.238 189.623 512.508 192.591 513.826 195.655C511.868 196.31 510.722 196.686 509.404 197.129C510.483 198.15 511.305 198.931 512.088 199.682C511.429 201.079 510.875 202.245 510.196 203.681C512.499 205.116 514.696 206.475 517.122 207.988C515.164 209.481 513.33 210.878 511.438 212.314C513.034 213.017 514.409 213.624 515.947 214.298C517.389 210.223 520.484 211.119 523.417 211.456C525.289 211.668 527.171 212.025 529.043 211.957C535.108 211.755 537.344 206.513 533.418 201.388C532.816 203.999 532.329 206.118 531.832 208.248C531.125 207.12 531.02 205.858 531.144 204.625C531.545 200.809 530.915 200.116 527.19 199.499C526.244 199.345 525.146 198.256 524.687 197.322C521.239 190.24 515.89 185.172 508.735 180.981L508.745 180.971ZM295.437 235.746C294.787 232.672 294.271 229.772 293.545 226.911C292.982 224.685 291.205 222.315 291.625 220.378C292.523 216.293 290.135 217.093 288.072 217.237C286.209 217.372 284.366 217.806 283.143 218.008C281.663 216.168 280.488 214.722 279.437 213.422C280.755 211.331 282.198 209.038 283.64 206.735C283.363 206.484 283.095 206.234 282.818 205.983C279.189 206.937 275.855 208.46 273.41 211.61C269.961 216.052 266.484 220.484 263.132 225.003C262.453 225.918 261.651 227.624 262.033 228.259C262.568 229.136 264.173 229.734 265.329 229.743C268.29 229.791 271.251 229.367 274.222 229.29C275.865 229.252 277.507 229.551 278.568 229.647C278.682 231.516 278.319 233.106 278.873 233.559C281.978 236.112 283.095 231.959 285.292 231.304C287.155 234.628 289.944 236.045 295.427 235.746H295.437ZM162.73 384.933C165.958 386.263 169.148 387.439 172.826 386.244C174.689 385.637 176.666 385.415 178.586 384.972C179.885 384.664 181.155 384.259 182.435 383.902C181.929 382.688 181.767 380.973 180.859 380.328C174.087 375.549 167.668 370.038 158.937 369.007C155.527 368.602 152.203 367.311 148.803 367.07C144.953 366.791 140.922 366.666 137.206 367.513C132.831 368.515 132.449 371.83 135.907 375.231C138.677 373.526 141.486 371.801 143.157 370.78C146.701 372.408 149.213 373.805 151.888 374.73C154.687 375.703 157.648 376.175 160.504 376.965C165.738 378.411 166.168 379.682 162.959 383.893C162.835 384.057 162.854 384.346 162.739 384.943L162.73 384.933ZM416.834 122.246C416.987 123.807 416.873 124.385 417.102 124.722C418.917 127.353 419.662 129.925 418.009 133.085C417.608 133.847 418.726 136.207 419.719 136.737C421.286 137.585 423.349 137.768 425.192 137.758C427.896 137.749 430.666 136.776 433.273 137.161C440.858 138.279 445.806 134.29 451.212 128.499C448.538 126.977 446.398 125.088 443.972 124.597C441.689 124.125 438.957 124.713 436.703 125.561C431.583 127.487 427.046 126.919 422.527 123.884C421.104 122.93 419.108 122.863 416.834 122.236V122.246ZM472.428 68.2614C473.803 67.375 475.962 66.7584 476.353 65.5444C476.783 64.234 476.01 62.018 475.026 60.804C469.419 53.915 461.099 52.094 453.247 49.4829C452.072 49.0879 450.601 49.1842 449.359 49.4733C446.58 50.1188 444.612 51.7664 444.679 54.9074C444.736 58.0388 447.21 58.2796 449.464 58.5398C450.868 58.7036 452.416 58.2989 453.705 58.7325C455.759 59.4262 458.386 60.091 459.456 61.6711C462.598 66.3248 466.859 67.7315 472.428 68.2518V68.2614ZM485.495 190.587C485.762 192.369 485.972 193.766 486.249 195.664C486.555 195.799 487.482 196.185 488.523 196.628C488.103 199.268 487.596 201.734 487.386 204.23C487.319 205.068 487.797 206.465 488.408 206.754C491.264 208.094 498.438 206.061 500.654 203.421C503.424 200.125 501.686 197.167 499.861 194.238C499.613 193.834 499.422 193.391 499.202 192.967C499.479 193.024 499.766 193.082 500.043 193.13C500.415 191.579 501.542 189.623 500.988 188.563C499.737 186.164 493.289 184.96 490.089 186.107C490.691 186.974 491.264 187.802 491.981 188.833C489.602 189.469 487.443 190.057 485.485 190.587H485.495ZM185.846 388.624C184.69 388.624 183.544 388.267 182.923 388.701C181.614 389.597 180.592 390.907 179.446 392.054C180.506 392.699 181.509 393.547 182.655 393.923C183.754 394.27 185.034 393.981 186.18 394.221C187.613 394.52 189.456 394.636 190.326 395.58C193.048 398.557 194.318 399.145 196.525 395.994C199.19 392.198 202.772 391.273 206.755 390.531C207.596 390.377 208.36 389.838 209.229 389.433C208.914 388.807 208.847 388.392 208.599 388.209C202.113 383.353 194.605 382.881 186.944 383.305C186.447 383.334 185.769 384.596 185.626 385.367C185.454 386.359 185.74 387.439 185.846 388.633V388.624ZM243.091 72.6068C243.321 71.017 244.094 69.2346 243.645 67.8568C243.024 65.9683 237.14 65.1397 235.555 66.479C234.972 66.9704 234.17 68.0398 234.342 68.483C235.727 71.9227 233.014 73.0885 231.189 74.8325C230.568 75.4298 229.718 76.6149 229.938 77.0871C230.311 77.9157 231.342 78.6383 232.259 78.9562C233.214 79.2838 234.351 79.1104 235.411 79.1008C240.025 79.0622 244.667 79.2549 249.252 78.8599C251.574 78.6576 253.876 77.5399 256.044 76.5282C256.818 76.1717 257.161 74.8807 257.696 74.0231C256.799 73.551 255.92 72.7032 255.012 72.6742C250.781 72.5297 246.54 72.6068 243.101 72.6068H243.091ZM219.154 67.6641C216.995 68.9455 214.846 70.2173 212.391 71.6722C212.181 68.6468 210.834 68.9263 209.057 69.9668C206.707 71.3446 204.329 72.7032 201.864 73.8401C199.41 74.977 198.712 76.692 199.467 79.5632C203.441 78.6768 207.29 77.6652 211.206 77.0003C216.288 76.1332 218.227 72.5394 219.163 67.6641H219.154ZM199.247 134.184C200.241 135.446 200.995 136.939 202.199 137.758C203.135 138.394 204.625 138.202 205.867 138.375C205.657 137.219 205.647 135.976 205.169 134.945C204.768 134.068 203.106 133.211 203.259 132.719C204.864 127.324 200.594 128.759 198.158 128.162C198.273 127.43 198.387 126.755 198.569 125.628C194.796 129.761 191.405 133.48 187.813 137.421C188.224 137.807 189.17 139.078 189.504 138.934C192.704 137.546 195.799 135.908 199.247 134.184ZM412.144 71.4892C412.24 73.4643 412.097 75.2082 412.479 76.8173C412.803 78.1758 413.472 80.1702 414.446 80.5075C417.379 81.5095 420.541 81.8371 423.693 82.4441C423.96 77.5206 416.634 71.0363 412.144 71.4988V71.4892ZM236.768 63.55C238.315 63.55 239.652 63.2609 240.827 63.5981C247.313 65.4384 247.304 65.4962 251 59.6478C250.026 59.089 248.517 58.7614 248.192 57.952C246.855 54.5509 245.155 56.4875 243.55 57.4318C242.451 58.0773 241.315 59.7056 240.455 59.5418C236.787 58.8577 237.656 61.7 236.777 63.55H236.768ZM160.437 389.192C160.198 389.626 159.959 390.059 159.711 390.483C160.37 395.002 164.888 396.168 167.773 398.153C170.62 400.108 173.027 396.746 175.281 393.807C170.085 392.189 165.261 390.685 160.437 389.182V389.192ZM477.872 61.6422C478.474 64.1762 478.866 66.479 479.62 68.6565C479.983 69.6971 481.034 70.4967 481.779 71.4024C482.964 70.2366 484.864 69.2538 485.189 67.8857C486.211 63.5692 483.489 61.1027 477.882 61.6422H477.872ZM222.879 395.937C223.385 390.329 221.188 389.703 213.566 390.965C213.661 393.403 218.074 395.811 222.879 395.937ZM603.224 267.059C604.695 271.443 601.314 277.07 606.405 280.038C608.66 277.089 602.766 273.64 607.838 270.913C606.205 269.545 604.714 268.302 603.224 267.05V267.059ZM205.236 142.672C204.329 146.266 198.741 145.11 200.193 149.918C204.558 149.995 206.153 148.01 205.236 142.672ZM490.624 164.264C489.574 167.058 488.771 169.178 487.797 171.76C491.99 169.881 492.525 168.609 490.624 164.264ZM198.426 142.21C198.273 141.738 198.12 141.265 197.977 140.793L191.434 143.607L192.045 145.023C194.175 144.079 196.296 143.144 198.426 142.2V142.21Z" fill="#DAE2FF"/>
<path d="M195.722 422.741C195.445 426.556 195.121 430.372 194.939 434.187C194.891 435.199 195.016 436.432 195.551 437.213C196.076 437.974 197.251 438.677 198.11 438.648C198.712 438.629 199.572 437.415 199.782 436.596C200.193 434.987 200.384 433.282 200.393 431.605C200.412 429.746 200.756 428.059 202.82 427.953C204.109 427.886 205.685 428.358 206.726 429.139C212.553 433.513 219.154 434.235 225.983 433.185C229.241 432.684 232.336 431.22 235.545 430.343C237.799 429.726 239.681 429.909 240.617 432.752C240.894 433.58 242.747 434.351 243.865 434.322C246.482 434.264 247.084 435.469 247.743 437.829C248.507 440.537 249.845 443.495 251.841 445.364C257.162 450.345 264.039 451.81 271.022 453.236C279.37 454.941 287.566 457.456 295.781 459.787C297.032 460.144 298.341 461.184 299.095 462.283C301.302 465.491 303.164 468.931 305.304 472.178C306.708 474.298 306.584 475.964 304.435 477.352C301.732 479.096 298.99 480.782 296.277 482.507C293.316 484.385 292.638 486.996 294.071 490.928C296.564 489.54 298.895 488.278 301.187 486.968C302.324 486.322 303.365 485.465 304.549 484.935C306.202 484.193 307.95 483.672 309.66 483.065C309.899 484.771 310.185 486.476 310.357 488.191C310.462 489.193 310.376 490.215 310.376 490.87C314.856 489.261 318.887 487.16 323.147 486.457C328.965 485.503 331.133 489.492 330.951 495.803C338.278 489.656 345.165 492.479 351.976 494.483C357.984 496.256 364.145 497.643 368.529 502.942C369.723 504.388 372.264 504.86 374.289 505.39C378.635 506.517 380.384 508.762 378.788 512.943C377.403 516.566 375.34 520.044 373.009 523.147C370.583 526.375 367.517 529.12 364.623 531.972C364.116 532.464 362.989 532.763 362.33 532.56C359.417 531.683 358.805 533.186 358.633 535.653C358.175 542.224 357.774 548.805 356.952 555.337C356.599 558.131 355.424 560.868 354.345 563.517C351.641 570.127 346.474 573.143 339.539 573.422C333.187 573.682 327.436 575.224 322.803 580.147C320.817 582.257 320.492 584.049 321.59 586.545C325.058 594.445 324.886 596.083 318.734 601.99C315.219 605.362 313.548 609.158 313.309 614.014C312.955 621.163 310.768 622.608 303.967 620.99C301.149 620.315 298.312 619.718 295.485 619.092C295.246 619.429 295.007 619.776 294.768 620.113C295.857 621.847 296.879 623.639 298.054 625.316C301.378 630.085 300.232 632.85 294.634 633.554C292.705 633.795 290.546 633.563 289.877 636.338C289.228 639.026 288.636 641.454 291.377 643.41C293.383 644.846 294.09 646.291 291.291 647.968C288.817 649.451 288.884 652.005 291.54 653.209C295.026 654.789 297.223 657.092 298.77 660.638C299.535 662.391 301.741 663.653 303.508 664.771C308.103 667.671 312.822 670.369 317.493 673.144C317.387 673.462 317.282 673.789 317.177 674.107C315.267 674.107 313.318 674.367 311.456 674.059C305.466 673.067 300.069 670.619 295.465 666.611C288.263 660.339 281.109 653.999 274.031 647.592C268.901 642.957 266.637 636.81 265.692 630.124C264.154 619.275 260.533 609.206 254.726 599.957C250.026 592.48 246.54 584.55 245.059 575.773C243.617 567.188 238.688 561.706 230.626 558.584C223.892 555.973 217.282 552.977 210.853 549.672C206.755 547.562 204.472 543.92 204.109 538.929C203.975 537.117 202.275 535.075 200.747 533.784C193.373 527.54 185.483 521.865 178.443 515.265C174.736 511.797 172.215 506.96 169.473 502.547C168.231 500.543 169.454 499.002 171.603 498.125C176.599 496.082 176.981 494.676 173.562 490.272C170.409 486.216 169.769 481.88 171.451 477.082C172.606 473.806 173.781 470.54 174.842 467.235C176.828 461.088 176.198 455.297 171.842 450.384C169.034 447.204 165.853 444.352 162.768 441.433C162.328 441.018 161.497 441.028 160.953 440.874C160.609 441.192 160.332 441.327 160.275 441.52C158.574 447.956 158.297 448.129 152.671 444.641C148.927 442.319 145.201 439.93 141.705 437.242C140.081 435.989 138.353 434.158 137.865 432.28C136.662 427.684 133.5 425.14 129.689 423.367C125.066 421.219 120.098 419.802 115.475 417.663C113.632 416.815 111.798 415.129 110.833 413.347C108.76 409.522 106.2 406.323 102.293 404.483C97.2403 402.103 92.1204 399.829 86.9432 397.729C76.6174 393.547 70.9625 386.041 70.504 374.74C70.0264 362.879 67.7339 351.5 62.8719 340.574C61.2194 336.865 61.1716 332.452 60.2642 328.395C59.8343 326.468 59.3281 324.474 58.392 322.769C57.9526 321.959 56.4242 321.372 55.4022 321.401C54.8959 321.42 54.3323 323.01 53.9884 323.954C53.635 324.927 53.5108 325.996 53.0428 327.056C53.2052 321.757 50.798 317.604 47.7318 313.654C45.2769 310.494 44.551 306.64 46.1653 303.104C49.5372 295.704 49.136 287.958 49.4512 280.163C49.69 274.363 50.7503 268.572 51.7724 262.83C57.1502 232.663 71.9368 206.648 87.8888 181.299C104.576 154.783 125.209 131.602 148.841 111.147C150.102 110.058 151.41 109.008 152.709 107.957C152.843 107.851 153.111 107.89 153.808 107.803C149.175 113.295 156.291 114.577 156.75 118.305C157.304 118.729 157.858 119.163 158.402 119.587C158.756 118.556 158.956 117.419 159.491 116.494C161.516 113.006 164.745 112.264 168.126 113.71C173.323 115.935 178.49 114.471 183.572 113.931C188.071 113.449 190.077 109.239 192.58 105.847C195.379 102.051 198.703 98.6404 201.922 95.1719C202.667 94.3625 203.889 93.9964 205.466 93.929C202.877 98.9199 200.288 103.911 197.556 109.191C198.817 109.47 199.687 109.663 200.747 109.894C200.193 110.838 199.438 111.599 199.324 112.457C199.142 113.815 199.39 115.222 199.467 116.61C201.186 116.504 203.221 116.937 204.549 116.157C205.943 115.328 206.669 113.353 207.663 111.86C210.49 107.611 214.817 105.963 220.004 104.171C220.033 116.089 211.483 118.855 203.316 122.236C201.129 118.103 198.684 120.637 196.229 122.314C194.118 123.759 192.093 126.119 189.198 122.256C188.883 123.72 188.625 124.539 188.549 125.368C187.976 132.305 183.066 136.882 176.179 137.094C175.281 137.122 174.297 138.047 173.552 138.76C171.374 140.842 169.445 143.221 167.143 145.139C162.481 149.022 157.629 152.664 152.891 156.45C152.346 156.884 151.649 157.5 151.573 158.107C150.971 163.098 148.764 168.86 150.503 172.878C152.098 176.558 154.467 182.349 160.647 182.551C161.65 182.58 163.045 182.985 163.561 183.717C166.474 187.899 169.683 185.991 172.941 184.459C173.867 184.025 174.851 183.698 176.609 183.014C175.071 187.234 173.753 190.76 172.511 194.306C170.639 199.653 172.196 204.249 175.911 208.142C178.538 210.897 180.754 210.55 182.206 207.063C183.945 202.881 185.645 198.613 186.724 194.229C188.014 189.007 190.612 185.037 195.149 182.301C196.267 181.626 197.375 180.913 198.416 180.114C202.715 176.818 203.756 173.234 201.11 168.513C199.133 164.996 199.4 162.78 202.399 159.851C204.644 157.664 205.752 154.167 207.032 151.103C208.398 147.817 209.162 145.736 214.11 146.15C220.625 146.709 226.404 148.203 231.982 151.344C236.204 153.723 236.548 155.448 233.234 159.081C231.791 160.67 230.272 162.202 228.83 163.792C228.61 164.033 228.601 164.457 228.505 164.775C239.519 172.512 246.482 164.563 253.904 158.021C257.754 161.701 259.979 166.114 260.467 171.288C260.591 172.656 260.037 174.477 259.129 175.47C257.419 177.329 257.744 178.842 259.483 179.931C261.957 181.482 264.612 182.84 267.344 183.842C269.971 184.796 272.798 185.191 275.912 185.923C273.362 187.696 271.174 188.958 269.34 190.606C268.423 191.435 268.127 192.976 267.554 194.19C268.882 194.229 270.229 194.422 271.537 194.277C273.41 194.065 275.244 193.313 277.106 193.294C281.099 193.256 285.579 195.809 285.474 198.102C285.312 201.946 281.959 202.881 279.198 204.143C274.126 206.465 269.044 208.826 263.848 210.839C255.633 214.019 247.399 216.881 238.239 214.665C235.583 214.019 232.24 214.693 229.632 215.782C225.601 217.449 221.847 219.887 218.113 222.199C215.763 223.654 214.139 225.764 214.158 228.654C214.626 229.078 215.094 229.493 215.553 229.917C216.517 228.433 217.377 226.872 218.466 225.494C221.437 221.708 225.554 219.935 230.148 219.222C234.236 218.586 236.233 219.858 237.207 223.904C237.819 226.448 238.124 229.098 238.334 231.718C238.516 233.954 239.576 235.168 241.725 234.888C244.046 234.59 246.329 233.925 248.622 233.395C251.039 232.836 253.427 231.979 255.872 231.795C257.028 231.709 258.9 232.624 259.301 233.578C259.683 234.513 258.986 236.729 258.107 237.23C253.589 239.821 248.899 242.124 244.161 244.302C243.483 244.62 242.174 243.887 241.305 243.386C237.876 241.382 234.628 241.999 232.307 245.333C230.951 247.288 229.747 249.35 228.276 251.682C227.684 250.555 227.33 249.63 226.767 248.849C224.083 245.13 220.415 245.101 217.902 248.84C215.973 251.701 213.375 253.416 209.993 253.773C207.147 254.072 205.542 255.517 204.701 258.282C203.097 263.6 202.237 264.063 196.725 263.485C194.987 263.302 193.229 263.273 191.013 263.148C192.628 267.156 190.841 268.572 187.66 270.075C185.234 271.222 183.61 274.083 181.853 275.933C180.43 275.557 178.5 274.372 177.096 274.835C174.316 275.75 172.74 278.332 172.969 281.338C173.246 284.903 173.925 288.459 174.622 291.975C175.72 297.564 174.593 298.855 170.419 302.641C163.379 309.029 156.731 315.909 150.417 323.038C147.016 326.873 147.695 331.797 149.815 336.306C151.907 340.747 154.381 345.016 156.215 349.554C156.95 351.384 156.435 353.726 156.482 355.836C154.572 354.911 152.165 354.439 150.856 352.974C146.567 348.186 143.721 342.549 142.737 336.055C142.489 334.417 141.963 332.799 141.4 331.228C140.569 328.887 138.916 327.75 136.404 328.309C133.07 329.041 130.157 328.309 127.282 326.401C123.346 323.79 120.28 324.464 117.319 328.164C114.004 332.298 112.982 332.693 108.454 329.754C104.997 327.509 102.093 327.981 98.8833 330.014C89.2166 336.142 84.5169 350.421 87.9557 361.357C89.9521 367.696 90.7258 374.422 92.1491 380.945C92.6458 383.257 93.0374 385.723 94.155 387.737C96.6385 392.179 100.736 393.576 105.073 391.023C108.149 389.221 110.68 386.379 113.25 383.797C115.256 381.783 116.727 379.191 118.847 377.331C121.646 374.875 124.244 375.809 125.343 379.413C126.709 383.902 125.61 388.161 123.996 392.391C122.802 395.513 121.579 398.663 120.853 401.91C120.041 405.543 121.235 406.294 124.817 405.764C127.463 405.379 130.262 405.34 132.898 405.764C138.706 406.68 141.6 410.052 142.068 415.987C142.403 420.294 142.527 424.62 142.852 428.927C143.406 436.317 145.88 438.176 153.044 437.665C156.053 437.454 159.157 438.157 162.166 438.735C164.841 439.246 167.42 440.248 170.075 440.884C172.855 441.558 174.88 440.527 175.367 437.598C176.074 433.388 178.691 431.865 182.541 430.767C185.597 429.9 188.329 427.693 191.071 425.882C192.503 424.928 193.659 423.55 194.939 422.356C195.197 422.49 195.445 422.635 195.703 422.77L195.722 422.741Z" fill="#DAE2FF"/>
<path d="M575.972 460.539C572.094 460.153 568.703 459.826 565.341 459.489C565.178 459.277 564.94 459.103 564.93 458.911C564.567 452.85 563.411 451.376 557.546 452.619C552.417 453.708 547.297 455.702 542.683 458.246C536.388 461.705 530.447 463.169 523.808 459.441C522.395 458.65 520.331 458.641 518.641 458.853C513.282 459.508 508.362 458.525 504.265 454.96C498.801 450.22 493.547 445.229 488.198 440.344C487.845 440.026 487.529 439.66 487.147 439.381C473.402 429.524 470.679 414.946 470.67 399.405C470.67 396.852 472.246 394.193 473.45 391.765C474.663 389.308 476.363 387.101 477.767 384.731C479.716 381.446 480.136 377.977 478.56 374.412C476.277 369.238 476.602 364.132 478.847 359.083C483.699 348.186 491.885 339.996 500.635 332.355C502.278 330.92 504.551 330.014 506.691 329.436C510.693 328.367 512.651 325.765 513.301 321.873C513.616 319.984 513.588 317.97 514.228 316.207C515.183 313.567 516.071 310.58 517.915 308.634C523.904 302.294 530.81 297.487 539.875 296.321C548.567 295.193 557.011 292.679 565.99 293.045C569.419 293.18 572.944 290.54 576.45 289.239C579.182 288.218 581.895 286.801 584.712 286.483C587.97 286.117 589.202 288.256 588.142 291.378C587.798 292.399 587.244 293.334 586.862 294.346C584.445 300.849 586.862 307.122 593.338 309.261C599.146 311.178 604.189 313.577 607.905 318.789C609.873 321.545 612.862 323.597 615.556 325.775C619.625 329.07 624.191 327.663 625.509 322.605C626.235 319.849 626.312 316.92 626.703 314.078C627.133 310.918 628.451 309.945 630.897 311.891C634.164 314.483 636.876 317.826 639.647 321.015C640.535 322.036 640.831 323.597 641.576 325.322C643.907 324.561 646.199 323.771 648.511 323.058C650.641 322.403 652.924 322.113 654.911 321.169C656.678 320.331 659.419 318.905 659.505 317.595C660.021 309.521 659.993 301.398 659.887 293.295C659.868 291.956 658.598 290.636 657.566 288.671C656.353 290.607 655.522 291.937 654.701 293.266L654.548 292.207C650.823 292.024 647.078 292.024 643.401 291.542C642.321 291.397 640.974 290.048 640.525 288.94C639.178 285.645 638.367 282.119 637.058 278.804C635.549 274.979 636.064 272.821 639.58 270.586C640.487 270.017 641.414 269.353 642.417 269.102C645.703 268.283 647.604 267.079 646.39 262.965C645.578 260.219 647.288 259.101 650.24 259.958C652.055 260.488 653.745 261.539 655.579 261.934C656.964 262.232 658.865 262.348 659.83 261.616C660.547 261.076 660.566 258.85 660.117 257.665C659.19 255.237 657.891 252.915 656.496 250.719C653.803 246.489 650.908 242.394 648.157 238.203C646.428 235.563 644.432 233.607 640.563 234.464C641.242 236.045 642.149 237.316 642.245 238.646C642.34 240.024 642.044 242.307 641.213 242.712C638.968 243.801 638.548 241.748 638.261 240.004C638.042 238.704 638.204 237.047 637.469 236.199C636.447 235.023 634.737 234.464 633.313 233.636C632.788 234.898 631.671 236.237 631.823 237.422C632.693 244.196 634.001 250.911 634.87 257.685C635.73 264.333 633.571 266.857 627.162 268.225C625.271 268.63 622.558 269.776 622.118 271.193C621.669 272.628 623.198 275.134 624.506 276.588C626.398 278.689 628.919 280.202 631.059 282.1C631.785 282.745 632.158 283.815 632.693 284.682C631.709 285.183 630.763 285.973 629.731 286.117C626.914 286.503 625.185 285.125 623.876 282.514C619.749 274.286 615.757 265.942 610.943 258.128C608.803 254.659 605.097 251.923 601.6 249.62C597.464 246.893 592.765 245.044 588.38 242.693C584.798 240.775 582.859 241.517 582.687 245.602C582.592 247.847 583.49 250.198 584.273 252.385C584.741 253.696 585.849 254.765 586.671 255.941C587.387 256.962 588.113 257.974 588.323 259.496C586.604 257.954 584.865 256.432 583.165 254.862C581.064 252.915 579.01 250.921 576.899 248.984C575.046 247.279 573.154 247.154 571.168 248.859C568.627 251.036 565.876 251.056 562.828 249.851C557.737 247.847 554.585 250.372 553.926 255.883C553.611 258.513 551.901 261.009 550.659 263.485C549.57 265.653 547.545 267.58 547.173 269.815C546.074 276.492 542.74 282.34 538.614 286.917C535.538 290.328 529.711 291.272 525.021 293.074C524.448 293.295 523.101 292.226 522.49 291.445C520.417 288.825 517.857 287.408 514.505 287.457C511.572 287.495 509.079 286.108 508.343 283.41C506.156 275.365 504.179 267.242 502.603 259.053C501.972 255.767 504.504 253.474 507.589 253.079C513.817 252.279 520.092 251.711 526.368 251.528C535.271 251.268 537.258 248.3 533.59 240.082C531.851 236.189 529.157 233.732 524.83 233.038C522.347 232.634 519.949 231.67 517.513 230.957C517.494 230.61 517.485 230.254 517.466 229.907C518.755 229.204 519.978 228.337 521.334 227.836C530.036 224.608 535.548 218.538 537.812 209.442C538.356 207.236 539.254 205.126 539.846 202.929C541.088 198.285 543.524 195.318 548.577 194.181C553.974 192.967 554.986 188.149 550.506 184.151C546.571 180.634 547.335 177.165 548.787 173.215C548.902 172.897 549.15 172.598 549.398 172.357C549.551 172.203 549.819 172.155 551.003 171.616C551.796 175.017 553.047 178.235 553.19 181.501C553.42 186.569 553.897 191.069 559.333 193.304C565.322 195.761 570.967 196.271 576.45 191.888C578.446 190.288 580.987 189.373 583.327 188.255C584.932 187.484 586.651 186.974 588.247 186.193C590.577 185.056 591.007 183.495 589.221 181.356C587.167 178.89 585.286 176.289 583.881 173.051C584.789 173.61 585.639 174.439 586.613 174.651C587.712 174.891 589.488 174.997 589.947 174.381C590.539 173.581 590.176 172.02 590.119 170.787C590.109 170.517 589.67 170.257 589.422 170.007C586.664 167.264 586.61 164.328 589.259 161.2C590.616 159.591 591.963 157.972 593.854 155.708C592.154 155.496 591.294 155.294 590.444 155.304C589.746 155.313 589.049 155.583 588.352 155.756C583.069 157.019 577.959 158.907 572.839 154.571C566.544 149.243 562.141 143.125 561.262 134.685C560.956 131.737 560.536 128.711 559.543 125.946C558.454 122.911 554.69 121.87 552.102 123.614C551.309 124.154 550.592 125.474 550.592 126.428C550.592 130.946 551.423 135.523 550.927 139.955C550.096 147.393 552.703 152.355 559.208 155.843C567.49 160.285 571.206 168.186 569.83 177.522C569.2 181.78 567.041 184.979 561.988 187.195C563.478 184.931 564.376 183.476 565.36 182.098C567.423 179.198 566.984 176.684 564.175 174.66C562.15 173.196 560.087 171.75 557.881 170.594C548.032 165.401 548.013 165.44 544.794 155.573C544.259 156.97 543.648 158.348 543.209 159.774C541.852 164.168 540.104 165.054 536.111 162.973C533.695 161.711 531.345 160.256 529.11 158.676C525.289 155.978 524.066 151.893 526.664 148.029C529.855 143.27 531.24 138.606 529.989 132.835C529.415 130.185 530.122 127.064 530.915 124.366C532.3 119.674 532.166 115.232 530.609 110.617C529.902 108.526 529.645 106.117 529.874 103.92C530.227 100.442 533.637 99.2764 536.522 100.876C540.419 103.034 544.412 105.337 548.653 106.474C557.078 108.728 563.994 113.382 570.633 118.71C571.043 119.047 571.253 119.645 571.75 120.435C568.76 120.762 566.076 121.061 563.402 121.36L562.208 123.325C563.22 123.711 564.366 123.923 565.236 124.52C569.601 127.565 574.176 130.233 577.367 134.897C579.583 138.124 583.967 137.778 584.875 134.897C585.161 133.991 584.913 132.218 584.302 131.823C580.634 129.472 580.767 125.609 579.793 122.179C580.022 121.899 580.242 121.629 580.471 121.35C582.066 122.323 583.919 123.036 585.228 124.318C631.995 170.228 662.896 225.176 676.947 289.518C685.888 330.477 687.082 371.753 680.348 413.202C680.138 414.493 679.832 415.765 679.546 417.162C676.126 417.316 675.343 415.072 675.486 412.547C675.925 404.772 676.393 396.996 677.234 389.26C677.884 383.295 677.224 377.688 675.467 371.926C671.665 359.449 668.207 346.856 665.055 334.186C664.129 330.457 662.151 330.294 659.4 330.689C656.372 331.122 655.446 333.232 656.086 335.949C656.792 338.965 657.432 342.116 658.837 344.813C663.307 353.379 665.323 362.542 666.106 372.061C666.736 379.711 667.271 387.371 667.921 395.021C668.57 402.768 667.835 410.331 665.418 417.74C664.682 419.985 664.367 422.394 664.062 424.764C663.699 427.568 664.854 429.794 667.443 430.882C669.812 431.875 670.548 433.359 670.385 435.902C670.29 437.473 670.376 438.727 671.637 440.662C673.451 443.447 669.215 444.975 668.154 448.001C664.009 459.861 660.604 471.794 656.076 483.501C652.36 493.088 650.135 502.499 642.913 509.735C634.89 517.771 628.394 526.818 623.418 537.05C619.272 545.577 613.369 552.591 605.985 558.613C601.62 562.178 597.808 566.678 594.551 571.331C587.32 581.66 578.809 590.572 568.397 597.586C556.333 605.709 544.288 613.879 531.985 621.616C528.919 623.543 524.935 624.189 521.277 624.844C520.083 625.056 518.02 623.745 517.361 622.57C516.854 621.645 517.485 619.438 518.344 618.494C528.183 607.732 534.755 594.975 540.362 581.698C547.708 564.307 556.324 547.735 567.691 532.589C571.722 527.213 574.587 520.863 577.491 514.716C580.08 509.253 579.736 503.54 577.08 498.019C576.049 495.861 575.113 493.654 574.186 491.448C570.413 482.458 570.423 473.508 574.406 464.576C574.922 463.41 575.332 462.206 575.982 460.529L575.972 460.539Z" fill="#DAE2FF"/>
<path d="M286.697 60.5149C285.006 60.7944 283.239 60.8522 281.643 61.3917C277.46 62.8177 273.352 64.446 268.939 66.0936C268.758 68.0687 261.173 73.5799 259.683 71.9613C255.796 67.7315 252.233 70.6124 248.44 71.4313C247.686 71.5951 246.434 71.2194 246.014 70.6413C245.565 70.0246 245.412 68.5312 245.842 68.0302C247.352 66.2574 249.157 64.7447 251.029 62.9622C251.134 63.8101 251.249 64.6676 251.44 66.161C252.863 65.1301 253.99 64.3111 255.471 63.232C251.851 60.5631 254.114 58.7999 255.901 57.0945C261.087 52.1422 267.85 50.6488 274.852 48.0762C274.623 50.2152 274.46 51.6797 274.288 53.2502C277.192 53.0479 280.02 52.8552 282.847 52.6625C282.818 52.489 282.799 52.3252 282.771 52.1518C280.602 51.7953 278.434 51.4292 276.266 51.0727C276.227 50.4946 276.18 49.9165 276.141 49.3384C281.806 47.4018 287.394 45.0701 293.202 43.7598C294.959 43.3647 296.908 43.1142 298.79 42.7481C301.044 42.3145 303.489 42.9601 305.858 43.0564C306.746 43.095 307.654 42.9504 308.542 42.8252C314.025 42.0736 319.498 41.3028 325.335 40.4935V44.9449C331.572 44.9449 337.982 44.9545 344.391 44.9256C344.936 44.9256 345.948 44.6365 345.958 44.4342C346.139 40.7055 348.986 42.4109 350.762 41.9773C359.77 39.8191 368.845 40.6862 377.919 41.2932C380.145 41.4474 382.361 41.7461 384.262 41.9484C384.434 44.097 384.586 45.9084 384.711 47.4403C389.62 46.7851 393.814 46.1396 398.036 45.7349C399.067 45.6386 400.166 46.3227 401.236 46.6502C400.653 47.5945 400.281 48.8374 399.44 49.4058C397.3 50.88 396.488 52.2963 398.236 54.6858C398.857 55.5337 399.287 57.1331 398.924 58.0099C397.539 61.305 399.258 62.6346 401.857 63.7234C403.375 64.3593 404.827 65.159 406.47 65.9587C406.098 66.98 405.792 67.7893 405.506 68.5601C411.829 72.9922 411.934 73.7919 407.187 80.0643C407.292 80.2666 407.368 80.4978 407.512 80.6616C408.419 81.6926 409.355 82.7042 410.272 83.7255C408.715 84.0724 407.168 84.5349 405.592 84.7276C404.149 84.901 402.669 84.7661 400.997 85.508C403.423 86.8569 405.897 88.1191 408.257 89.5836C410.062 90.7109 412.039 91.8285 413.319 93.4472C414.341 94.7383 415.077 96.9351 414.762 98.4766C414.265 100.847 412.24 102.148 409.575 101.801C409.107 101.743 408.629 101.801 407.836 101.801C409.002 105.712 406.308 107.293 403.643 108.882C398.618 111.869 393.116 112.39 387.443 112.081C386.019 112.004 384.596 112.072 383.679 112.072C382.552 113.661 381.587 115.02 380.613 116.378C379.228 118.305 377.518 120.069 376.534 122.179C374.958 125.551 372.675 127.42 368.959 127.805C365.301 128.191 361.652 128.788 358.051 129.52C355.185 130.099 352.998 131.255 353.513 135.089C353.714 136.612 352.587 138.423 351.785 139.955C349.97 143.395 347.687 146.613 346.139 150.159C344.477 153.955 342.003 156.739 338.116 157.674C336.415 158.088 334.342 157.24 332.508 156.72C330.178 156.055 327.962 154.735 325.602 154.408C321.227 153.801 317.789 151.941 316.098 147.837C314.426 143.771 313.318 139.464 311.885 135.292C311.618 134.511 311.102 133.394 310.481 133.22C307.444 132.401 306.479 130.041 305.858 127.401C305.361 125.31 304.779 123.181 304.674 121.051C304.607 119.596 304.998 117.949 305.696 116.667C307.033 114.211 308.619 111.869 310.338 109.663C311.074 108.719 312.401 108.246 313.471 107.582C315.324 106.435 317.196 105.317 319.059 104.181C318.868 103.814 318.667 103.448 318.476 103.082H313.137C311.198 107.572 305.075 109.441 302.018 106.377C300.022 104.373 300.366 102.485 301.56 100.249C302.906 97.7348 304.568 98.6405 306.345 99.4402C307.52 99.9701 308.705 100.442 310.653 100.365C309.574 98.6115 308.151 96.964 307.511 95.0659C306.957 93.4087 306.899 91.3661 307.3 89.6414C307.778 87.5795 309.134 85.7489 309.803 83.7159C312.048 76.904 308.361 71.8745 301.283 72.1251C296.889 72.2792 292.514 72.9344 288.129 72.9826C283.735 73.0307 281.863 70.5738 282.341 65.7949C285.245 65.2939 288.234 64.7736 291.501 64.2051C289.581 62.8659 285.598 65.0048 286.677 60.4571C288.043 59.8212 289.409 58.6747 290.785 58.6747C295.561 58.6747 299.64 57.056 303.193 54.0114C304.225 53.1249 304.865 51.7857 305.533 50.8704C299.019 53.1153 292.705 55.2832 286.209 57.5185C286.286 57.9424 286.496 59.2239 286.716 60.5053L286.697 60.5149ZM257.868 61.912C262.501 61.7675 271.356 58.1062 272.359 55.8709C270.563 56.4586 268.758 57.3643 266.857 57.6148C263.265 58.0869 259.511 57.9135 257.859 61.912H257.868ZM307.52 49.0879C315.897 49.5022 317.664 49.1361 319.833 46.9971C315.611 47.7101 311.57 48.4038 307.52 49.0879Z" fill="#DAE2FF"/>
<path d="M239.204 106.666C238.707 105.356 238.201 104.036 237.637 102.562C229.011 104.662 221.121 101.781 213.136 99.8159C212.343 99.6232 211.789 98.4285 211.617 98.2358C212.878 96.2028 213.547 94.5263 214.712 93.3412C216.947 91.0481 219.268 88.7261 221.914 86.9822C225.181 84.8336 228.792 83.2245 232.307 81.471C233.119 81.0663 234.141 80.7869 235.01 80.8929C235.784 80.9892 236.491 81.6926 237.226 82.1261C236.73 82.6946 236.309 83.3787 235.717 83.8122C232.89 85.8549 229.995 87.8108 227.158 89.8437C226.862 90.0557 226.795 90.5856 226.872 91.2793C231.762 86.6931 237.379 83.7448 243.55 81.8949C243.798 82.184 244.046 82.4826 244.295 82.7717C243.053 84.5253 241.811 86.2884 240.264 88.4756C241.993 88.3118 243.321 88.1865 244.62 88.0613C245.116 83.4558 250.666 80.4304 254.506 82.5983C255.012 82.8777 255.547 83.7834 255.461 84.294C255.347 84.9974 254.773 85.9223 254.162 86.1728C253.016 86.6449 251.698 86.7124 250.351 86.9629C252.366 89.2367 254.267 91.395 256.264 93.6592C259.225 92.1272 260.218 92.5415 261.699 96.4148C261.804 96.6942 261.899 97.0507 262.119 97.1952C264.249 98.5923 266.475 99.8544 268.5 101.386C269.063 101.81 269.465 103.227 269.188 103.824C268.462 105.404 267.478 106.955 266.265 108.179C265.625 108.815 264.268 108.719 262.912 109.017C264.498 111.465 266.026 112.717 269.044 112.37C270.41 112.206 272.063 113.97 273.496 114.991C275.186 116.186 276.848 117.438 278.386 118.826C279.093 119.471 279.972 120.589 279.838 121.321C279.695 122.102 278.501 122.737 277.689 123.344C274.89 125.455 271.795 127.256 269.35 129.713C267.764 131.303 266.79 131.814 265.472 129.983C264.383 128.48 263.628 126.726 262.644 125.137C262.1 124.26 261.536 123.084 260.724 122.795C260.056 122.554 258.633 123.171 258.193 123.845C257.505 124.896 257.247 126.302 257.056 127.593C256.999 127.979 257.696 128.769 258.164 128.894C262.482 130.06 261.403 134.136 262.482 137.007C262.692 137.575 262.549 138.577 262.157 139.021C260.753 140.649 259.177 142.123 257.4 143.934C254.955 142.383 252.3 140.707 249.644 139.021C249.472 139.175 249.3 139.338 249.119 139.493C250.15 140.938 251.392 142.277 252.128 143.867C252.615 144.907 252.366 146.305 252.452 147.538C251.344 147.567 250.141 147.875 249.138 147.557C246.435 146.69 243.865 145.36 241.143 144.599C239.605 144.175 237.857 144.522 235.383 144.522C234.972 142.72 234.638 140.273 233.835 137.99C233.081 135.86 231.915 133.837 230.674 131.948C230.502 131.679 228.849 132.334 227.903 132.652C223.767 134.03 219.622 135.841 215.562 132.469C215.304 132.257 215.142 131.92 214.454 131.004C217.396 129.569 220.071 127.68 223.022 126.996C225.936 126.312 229.136 126.852 232.479 126.852C232.66 121.398 237.522 120.29 241.19 118.18C246.005 115.396 246.32 114.259 242.47 110.251C241.324 109.056 240.226 107.813 239.108 106.589L239.194 106.695L239.204 106.666Z" fill="#DAE2FF"/>
<path d="M508.745 180.981C515.899 185.182 521.239 190.24 524.697 197.322C525.155 198.266 526.254 199.345 527.199 199.499C530.925 200.116 531.555 200.809 531.154 204.625C531.02 205.868 531.135 207.13 531.842 208.248C532.329 206.118 532.825 203.989 533.427 201.388C537.353 206.513 535.118 211.755 529.052 211.957C527.18 212.025 525.298 211.668 523.426 211.456C520.494 211.119 517.399 210.223 515.956 214.298C514.419 213.624 513.043 213.017 511.448 212.314C513.339 210.878 515.164 209.481 517.131 207.988C514.705 206.484 512.518 205.116 510.206 203.681C510.884 202.245 511.438 201.079 512.097 199.682C511.305 198.931 510.483 198.15 509.413 197.129C510.731 196.686 511.878 196.31 513.836 195.655C512.527 192.591 511.257 189.623 509.872 186.405C506.748 187.59 504.656 187.311 503.472 183.775C502.985 182.32 500.597 181.511 498.543 180.017C498.524 179.719 498.438 178.533 498.333 177.021C497.693 177.146 497.129 177.262 496.518 177.377C493.834 169.265 495.601 165.7 502.211 166.981C501.409 167.906 500.434 168.542 500.224 169.38C500.004 170.276 500.501 171.346 500.749 172.753C502.545 172.107 503.94 171.529 505.382 171.115C507.761 170.43 509.136 171.365 509.098 173.909C509.069 176.414 508.859 178.919 508.754 180.971L508.745 180.981Z" fill="#DAE2FF"/>
<path d="M213.537 83.6003C210.184 84.005 207.51 85.4406 205.838 88.543C205.513 89.15 204.959 89.8148 204.358 90.0557C202.82 90.6723 200.814 91.8767 199.696 91.3372C198.483 90.7591 198.072 88.4852 197.308 86.9243C192.351 90.1424 187.804 94.0735 185.788 100.664C184.117 106.117 176.647 109.133 171.154 107.649C169.712 107.264 167.954 107.957 166.359 108.275C163.131 108.921 160.055 111.031 156.272 109.403C159.482 106.58 162.424 103.988 165.366 101.386C165.538 101.232 165.796 100.982 165.758 100.828C164.755 96.0294 169.091 95.2297 171.575 93.3894C177.21 89.2078 183.142 85.4309 189.036 81.6155C190.268 80.8158 191.844 80.5653 193.268 80.0643C193.43 80.3629 193.602 80.6616 193.764 80.9507C191.949 83.4847 190.134 86.0187 188.32 88.5527C188.606 88.861 188.893 89.1693 189.17 89.4776C192.771 85.9994 196.248 82.2707 201.969 82.7331C201.855 83.3594 201.75 83.9568 201.54 85.1515C205.838 83.7063 208.685 79.0044 213.976 80.4593C213.795 81.5095 213.614 82.6175 213.422 83.7255L213.537 83.6099V83.6003Z" fill="#DAE2FF"/>
<path d="M295.437 235.765C289.954 236.064 287.165 234.657 285.302 231.323C283.105 231.979 281.987 236.131 278.883 233.578C278.329 233.125 278.682 231.535 278.577 229.666C277.517 229.57 275.874 229.271 274.231 229.31C271.27 229.377 268.299 229.801 265.338 229.763C264.182 229.743 262.568 229.146 262.043 228.279C261.651 227.643 262.463 225.947 263.141 225.022C266.494 220.503 269.971 216.081 273.419 211.63C275.865 208.479 279.198 206.957 282.828 206.003C283.105 206.253 283.372 206.504 283.649 206.754C282.207 209.047 280.765 211.35 279.447 213.441C280.497 214.742 281.672 216.187 283.153 218.027C284.375 217.825 286.219 217.391 288.082 217.256C290.135 217.112 292.523 216.322 291.635 220.397C291.215 222.334 292.982 224.704 293.555 226.93C294.281 229.782 294.797 232.692 295.446 235.765H295.437Z" fill="#DAE2FF"/>
<path d="M162.73 384.953C162.844 384.355 162.825 384.066 162.949 383.902C166.159 379.692 165.729 378.411 160.494 376.975C157.629 376.185 154.668 375.713 151.878 374.74C149.213 373.815 146.701 372.418 143.148 370.789C141.476 371.811 138.677 373.535 135.898 375.241C132.43 371.84 132.822 368.525 137.197 367.523C140.913 366.675 144.943 366.8 148.793 367.08C152.203 367.33 155.518 368.621 158.928 369.016C167.658 370.047 174.077 375.559 180.85 380.338C181.757 380.973 181.92 382.688 182.426 383.912C181.146 384.269 179.876 384.673 178.576 384.982C176.666 385.434 174.679 385.656 172.816 386.253C169.139 387.448 165.949 386.273 162.72 384.943L162.73 384.953Z" fill="#DAE2FF"/>
<path d="M416.834 122.246C419.108 122.872 421.104 122.94 422.527 123.894C427.046 126.919 431.583 127.497 436.703 125.57C438.967 124.713 441.698 124.135 443.972 124.607C446.389 125.108 448.528 126.996 451.212 128.509C445.806 134.29 440.858 138.288 433.273 137.171C430.666 136.785 427.896 137.758 425.192 137.768C423.339 137.768 421.286 137.585 419.719 136.747C418.726 136.207 417.618 133.856 418.009 133.095C419.662 129.935 418.917 127.362 417.102 124.732C416.873 124.395 416.987 123.817 416.834 122.256V122.246Z" fill="#DAE2FF"/>
<path d="M472.428 68.2711C466.868 67.7508 462.608 66.3537 459.456 61.6904C458.386 60.1103 455.75 59.4455 453.705 58.7517C452.416 58.3182 450.868 58.7228 449.464 58.559C447.21 58.2989 444.736 58.058 444.679 54.9267C444.621 51.7857 446.589 50.1381 449.359 49.4926C450.601 49.2035 452.072 49.1168 453.247 49.5022C461.099 52.1133 469.419 53.9343 475.026 60.8233C476.01 62.0373 476.783 64.2437 476.353 65.5637C475.952 66.7777 473.803 67.3943 472.428 68.2807V68.2711Z" fill="#DAE2FF"/>
<path d="M485.495 190.587C487.453 190.057 489.612 189.479 491.99 188.833C491.274 187.802 490.701 186.974 490.099 186.107C493.299 184.95 499.747 186.155 500.998 188.563C501.552 189.623 500.415 191.579 500.052 193.13C499.775 193.073 499.489 193.015 499.212 192.967C499.431 193.391 499.622 193.834 499.871 194.238C501.695 197.167 503.434 200.125 500.664 203.421C498.447 206.061 491.274 208.094 488.418 206.754C487.797 206.465 487.319 205.068 487.396 204.23C487.606 201.734 488.112 199.268 488.532 196.628C487.491 196.185 486.565 195.799 486.259 195.664C485.972 193.766 485.772 192.379 485.504 190.587H485.495Z" fill="#DAE2FF"/>
<path d="M185.846 388.633C185.74 387.439 185.454 386.359 185.626 385.367C185.76 384.596 186.447 383.334 186.944 383.305C194.605 382.872 202.103 383.344 208.599 388.209C208.847 388.392 208.914 388.807 209.229 389.433C208.36 389.828 207.596 390.367 206.755 390.531C202.772 391.273 199.19 392.198 196.525 395.994C194.309 399.145 193.048 398.567 190.326 395.58C189.466 394.636 187.622 394.52 186.18 394.221C185.034 393.981 183.744 394.279 182.655 393.923C181.509 393.557 180.506 392.699 179.446 392.054C180.582 390.917 181.614 389.606 182.923 388.701C183.544 388.277 184.69 388.624 185.846 388.624V388.633Z" fill="#DAE2FF"/>
<path d="M243.101 72.6164C246.549 72.6164 250.79 72.5394 255.012 72.6839C255.92 72.7128 256.799 73.5607 257.696 74.0328C257.161 74.8999 256.818 76.1814 256.044 76.5379C253.876 77.5495 251.574 78.6672 249.252 78.8695C244.667 79.2646 240.025 79.0719 235.411 79.1104C234.351 79.1104 233.214 79.2935 232.259 78.9659C231.352 78.6479 230.311 77.9253 229.938 77.0967C229.728 76.6246 230.568 75.4395 231.189 74.8421C233.014 73.0982 235.727 71.9324 234.342 68.4927C234.16 68.0495 234.972 66.9896 235.555 66.4886C237.14 65.1494 243.024 65.978 243.645 67.8664C244.094 69.2442 243.321 71.0267 243.091 72.6164H243.101Z" fill="#DAE2FF"/>
<path d="M219.163 67.6737C218.237 72.549 216.298 76.1428 211.206 77.01C207.3 77.6748 203.441 78.6961 199.467 79.5729C198.722 76.7017 199.41 74.9866 201.864 73.8497C204.329 72.7128 206.707 71.3543 209.057 69.9765C210.834 68.9359 212.181 68.6565 212.391 71.6818C214.846 70.227 217.005 68.9455 219.154 67.6737H219.163Z" fill="#DAE2FF"/>
<path d="M199.257 134.203C195.808 135.928 192.714 137.556 189.514 138.953C189.179 139.098 188.234 137.826 187.823 137.44C191.414 133.5 194.805 129.781 198.579 125.647C198.397 126.775 198.282 127.449 198.168 128.181C200.613 128.788 204.873 127.353 203.269 132.739C203.125 133.23 204.778 134.087 205.179 134.964C205.647 135.995 205.666 137.238 205.876 138.394C204.635 138.221 203.135 138.414 202.208 137.778C201.005 136.949 200.25 135.465 199.257 134.203Z" fill="#DAE2FF"/>
<path d="M412.154 71.5084C416.643 71.046 423.97 77.5303 423.702 82.4537C420.55 81.8467 417.388 81.5191 414.456 80.5171C413.482 80.1799 412.813 78.1854 412.488 76.8269C412.106 75.2179 412.249 73.4836 412.154 71.4988V71.5084Z" fill="#DAE2FF"/>
<path d="M213.422 83.7255C214.893 82.8295 216.47 82.0683 217.807 80.9988C220.854 78.5805 223.853 79.014 227.751 81.0277C226.442 82.3381 225.601 83.6003 224.426 84.2844C221.761 85.8356 218.991 87.2134 216.164 88.4274C215.104 88.8802 213.766 88.6779 212.563 88.7646C212.744 87.4735 212.897 86.1728 213.117 84.8817C213.193 84.4385 213.403 84.0242 213.547 83.6003L213.422 83.7255Z" fill="#DAE2FF"/>
<path d="M236.768 63.5692C237.647 61.7289 236.787 58.877 240.445 59.5611C241.315 59.7249 242.442 58.0966 243.54 57.451C245.145 56.5068 246.845 54.5702 248.183 57.9713C248.498 58.7807 250.017 59.1179 250.991 59.6671C247.294 65.5058 247.313 65.4577 240.818 63.6174C239.653 63.2898 238.315 63.5692 236.758 63.5692H236.768Z" fill="#DAE2FF"/>
<path d="M160.437 389.211C165.261 390.714 170.085 392.217 175.281 393.836C173.017 396.775 170.61 400.137 167.773 398.181C164.888 396.197 160.38 395.021 159.711 390.512C159.95 390.078 160.189 389.645 160.437 389.221V389.211Z" fill="#DAE2FF"/>
<path d="M224.952 75.0155C222.994 75.8538 221.045 76.692 218.896 77.617C218.074 70.7858 222.287 67.876 232.46 68.0013C231.122 69.7549 230.072 71.1327 229.021 72.5105C227.665 73.3391 226.299 74.1773 224.942 75.0059L224.952 75.0155Z" fill="#DAE2FF"/>
<path d="M239.118 106.56C238.974 108.16 238.793 109.75 238.707 111.349C238.459 115.916 234.943 118.431 229.088 118.074C227.158 114.114 231.38 113.17 232.861 111.166C234.322 109.181 237.045 108.141 239.213 106.676L239.118 106.56Z" fill="#DAE2FF"/>
<path d="M477.872 61.6422C483.479 61.1027 486.202 63.5692 485.18 67.8857C484.855 69.2538 482.954 70.2462 481.769 71.4024C481.024 70.4967 479.974 69.6971 479.611 68.6565C478.856 66.4886 478.474 64.1859 477.863 61.6422H477.872Z" fill="#DAE2FF"/>
<path d="M213.566 390.965C213.661 393.403 218.074 395.811 222.879 395.937C223.385 390.329 221.198 389.703 213.566 390.965Z" fill="#DAE2FF"/>
<path d="M603.224 267.059C604.714 268.302 606.205 269.555 607.838 270.923C602.766 273.65 608.669 277.099 606.405 280.047C601.314 277.07 604.695 271.453 603.224 267.069V267.059Z" fill="#DAE2FF"/>
<path d="M229.47 64.1955C228.305 64.7543 227.187 65.5155 225.964 65.8045C225.009 66.0261 223.911 65.66 222.869 65.5637C223.366 64.6194 223.71 63.5403 224.398 62.7695C225 62.0951 225.945 61.6519 226.814 61.3243C227.655 61.016 228.591 60.9871 229.489 60.8425C229.604 61.806 229.728 62.7792 229.843 63.7426C229.728 63.9064 229.604 64.0606 229.46 64.2051L229.47 64.1955Z" fill="#DAE2FF"/>
<path d="M205.236 142.672C206.153 148.01 204.549 149.995 200.193 149.918C198.741 145.11 204.329 146.266 205.236 142.672Z" fill="#DAE2FF"/>
<path d="M224.952 75.0155C226.308 74.1869 227.674 73.3487 229.031 72.5201C229.384 72.9826 230.129 73.7052 230.024 73.869C228.868 75.6611 227.588 77.3568 226.337 79.0815C223.156 78.5227 223.978 76.798 224.952 75.0252V75.0155Z" fill="#DAE2FF"/>
<path d="M490.615 164.264C492.506 168.6 491.981 169.872 487.787 171.76C488.762 169.178 489.564 167.058 490.615 164.264Z" fill="#DAE2FF"/>
<path d="M229.47 64.1955C229.613 64.051 229.737 63.8968 229.852 63.733C230.845 63.2705 231.839 62.8177 232.832 62.3552C233.128 62.6828 233.425 63.02 233.711 63.3476C232.555 64.658 231.39 65.9587 230.234 67.269C229.9 67.0763 229.566 66.8836 229.231 66.6909C229.308 65.8623 229.384 65.0241 229.47 64.1955Z" fill="#DAE2FF"/>
<path d="M198.416 142.21C196.286 143.154 194.165 144.089 192.035 145.033L191.424 143.616L197.967 140.803C198.12 141.275 198.273 141.747 198.416 142.219V142.21Z" fill="#DAE2FF"/>
<path d="M286.697 60.5149C286.477 59.2335 286.267 57.952 286.19 57.5281C292.686 55.2928 299 53.1249 305.514 50.88C304.846 51.7953 304.206 53.1442 303.174 54.021C299.621 57.0656 295.542 58.6939 290.766 58.6843C289.4 58.6843 288.024 59.8309 286.658 60.4668C286.658 60.486 286.697 60.5149 286.697 60.5149Z" fill="#DAE2FF"/>
<path d="M257.868 61.912C259.511 57.9135 263.275 58.0869 266.866 57.6148C268.758 57.3643 270.573 56.4586 272.368 55.8709C271.356 58.1062 262.501 61.7675 257.878 61.912H257.868Z" fill="#DAE2FF"/>
<path d="M319.833 46.9971C315.611 47.7101 311.57 48.4038 307.52 49.0879C315.897 49.5022 317.664 49.1361 319.833 46.9971Z" fill="#DAE2FF"/>
</g>
</svg>
