<svg width="315" height="212" viewBox="0 0 315 212" fill="none" xmlns="http://www.w3.org/2000/svg">
<g filter="url(#filter0_ddd_3990_98721)">
<rect x="6.98633" y="5.29077" width="299.328" height="149.065" rx="16.7787" fill="white"/>
<path d="M102.709 43.8306C102.709 45.2589 102.441 46.4823 101.906 47.5007C101.376 48.5147 100.651 49.2915 99.7315 49.8309C98.8167 50.3703 97.7789 50.64 96.6181 50.64C95.4573 50.64 94.4174 50.3703 93.4982 49.8309C92.5834 49.2872 91.8584 48.5083 91.3233 47.4942C90.7926 46.4758 90.5272 45.2546 90.5272 43.8306C90.5272 42.4022 90.7926 41.181 91.3233 40.167C91.8584 39.1486 92.5834 38.3697 93.4982 37.8303C94.4174 37.2909 95.4573 37.0212 96.6181 37.0212C97.7789 37.0212 98.8167 37.2909 99.7315 37.8303C100.651 38.3697 101.376 39.1486 101.906 40.167C102.441 41.181 102.709 42.4022 102.709 43.8306ZM100.295 43.8306C100.295 42.8251 100.137 41.9772 99.8222 41.2868C99.5115 40.592 99.0799 40.0677 98.5276 39.7139C97.9752 39.3557 97.3388 39.1766 96.6181 39.1766C95.8975 39.1766 95.261 39.3557 94.7086 39.7139C94.1563 40.0677 93.7226 40.592 93.4076 41.2868C93.0969 41.9772 92.9416 42.8251 92.9416 43.8306C92.9416 44.836 93.0969 45.6861 93.4076 46.3809C93.7226 47.0713 94.1563 47.5956 94.7086 47.9538C95.261 48.3076 95.8975 48.4845 96.6181 48.4845C97.3388 48.4845 97.9752 48.3076 98.5276 47.9538C99.0799 47.5956 99.5115 47.0713 99.8222 46.3809C100.137 45.6861 100.295 44.836 100.295 43.8306ZM112.124 46.2773V40.5165H114.467V50.4587H112.195V48.6917H112.092C111.867 49.2483 111.498 49.7036 110.985 50.0574C110.476 50.4113 109.848 50.5882 109.101 50.5882C108.45 50.5882 107.874 50.4436 107.373 50.1545C106.877 49.8611 106.488 49.436 106.208 48.8794C105.927 48.3184 105.787 47.6409 105.787 46.8469V40.5165H108.13V46.4844C108.13 47.1145 108.303 47.615 108.648 47.9861C108.993 48.3572 109.446 48.5428 110.007 48.5428C110.353 48.5428 110.687 48.4586 111.011 48.2903C111.334 48.1221 111.6 47.8718 111.807 47.5395C112.018 47.2029 112.124 46.7822 112.124 46.2773ZM122.753 40.5165V42.3289H117.037V40.5165H122.753ZM118.448 38.1345H120.791V47.4683C120.791 47.7833 120.839 48.025 120.934 48.1933C121.033 48.3572 121.163 48.4694 121.322 48.5298C121.482 48.5903 121.659 48.6205 121.853 48.6205C122 48.6205 122.134 48.6097 122.254 48.5881C122.379 48.5665 122.474 48.5471 122.539 48.5298L122.934 50.3616C122.809 50.4048 122.63 50.4523 122.397 50.504C122.168 50.5558 121.888 50.586 121.555 50.5947C120.968 50.6119 120.44 50.5235 119.969 50.3293C119.499 50.1308 119.126 49.8244 118.85 49.4101C118.578 48.9959 118.444 48.4781 118.448 47.8567V38.1345ZM129.206 50.6335C128.425 50.6335 127.726 50.4328 127.109 50.0315C126.492 49.6302 126.005 49.0477 125.646 48.2839C125.288 47.5201 125.109 46.5923 125.109 45.5006C125.109 44.3959 125.29 43.4638 125.653 42.7043C126.02 41.9405 126.514 41.3644 127.135 40.9761C127.757 40.5834 128.449 40.387 129.213 40.387C129.796 40.387 130.274 40.4863 130.65 40.6848C131.025 40.879 131.323 41.1141 131.543 41.3903C131.763 41.6622 131.934 41.9189 132.055 42.1606H132.152V37.2024H134.501V50.4587H132.197V48.8923H132.055C131.934 49.134 131.759 49.3907 131.53 49.6626C131.302 49.9301 130.999 50.1588 130.624 50.3487C130.249 50.5386 129.776 50.6335 129.206 50.6335ZM129.86 48.7111C130.356 48.7111 130.779 48.5773 131.129 48.3098C131.478 48.0379 131.744 47.6603 131.925 47.177C132.106 46.6937 132.197 46.1306 132.197 45.4876C132.197 44.8446 132.106 44.2858 131.925 43.8112C131.748 43.3365 131.485 42.9675 131.135 42.7043C130.79 42.4411 130.365 42.3095 129.86 42.3095C129.338 42.3095 128.902 42.4454 128.553 42.7172C128.203 42.9891 127.94 43.3645 127.763 43.8435C127.586 44.3225 127.498 44.8705 127.498 45.4876C127.498 46.109 127.586 46.6635 127.763 47.1511C127.944 47.6344 128.21 48.0163 128.559 48.2968C128.913 48.573 129.347 48.7111 129.86 48.7111ZM140.77 50.6594C140.14 50.6594 139.573 50.5472 139.068 50.3228C138.568 50.0941 138.171 49.7575 137.877 49.3131C137.588 48.8686 137.443 48.3206 137.443 47.669C137.443 47.108 137.547 46.6441 137.754 46.2773C137.961 45.9105 138.244 45.6171 138.602 45.397C138.96 45.1769 139.364 45.0108 139.813 44.8986C140.266 44.7821 140.734 44.6979 141.217 44.6461C141.8 44.5857 142.272 44.5318 142.635 44.4843C142.997 44.4325 143.26 44.3549 143.424 44.2513C143.593 44.1434 143.677 43.9773 143.677 43.7529V43.7141C143.677 43.2264 143.532 42.8489 143.243 42.5813C142.954 42.3138 142.538 42.18 141.994 42.18C141.42 42.18 140.965 42.3051 140.628 42.5554C140.296 42.8057 140.071 43.1013 139.955 43.4422L137.767 43.1315C137.94 42.5274 138.225 42.0225 138.622 41.6169C139.019 41.2069 139.504 40.9005 140.078 40.6977C140.652 40.4906 141.286 40.387 141.981 40.387C142.46 40.387 142.937 40.4431 143.411 40.5553C143.886 40.6675 144.32 40.8531 144.712 41.112C145.105 41.3666 145.42 41.714 145.657 42.1541C145.899 42.5943 146.02 43.1445 146.02 43.8047V50.4587H143.767V49.093H143.69C143.547 49.3691 143.347 49.6281 143.088 49.8697C142.833 50.1071 142.512 50.2991 142.123 50.4458C141.739 50.5882 141.288 50.6594 140.77 50.6594ZM141.379 48.9376C141.849 48.9376 142.257 48.8449 142.602 48.6593C142.948 48.4694 143.213 48.2191 143.398 47.9084C143.588 47.5978 143.683 47.259 143.683 46.8922V45.7206C143.61 45.7811 143.485 45.8371 143.308 45.8889C143.135 45.9407 142.941 45.986 142.725 46.0249C142.51 46.0637 142.296 46.0982 142.084 46.1284C141.873 46.1586 141.69 46.1845 141.534 46.2061C141.185 46.2536 140.872 46.3312 140.596 46.4391C140.32 46.547 140.102 46.698 139.942 46.8922C139.782 47.0821 139.702 47.3281 139.702 47.6301C139.702 48.0616 139.86 48.3874 140.175 48.6075C140.49 48.8276 140.891 48.9376 141.379 48.9376ZM154.252 40.5165V42.3289H148.537V40.5165H154.252ZM149.948 38.1345H152.291V47.4683C152.291 47.7833 152.338 48.025 152.433 48.1933C152.532 48.3572 152.662 48.4694 152.822 48.5298C152.981 48.5903 153.158 48.6205 153.352 48.6205C153.499 48.6205 153.633 48.6097 153.754 48.5881C153.879 48.5665 153.974 48.5471 154.038 48.5298L154.433 50.3616C154.308 50.4048 154.129 50.4523 153.896 50.504C153.667 50.5558 153.387 50.586 153.055 50.5947C152.468 50.6119 151.939 50.5235 151.469 50.3293C150.998 50.1308 150.625 49.8244 150.349 49.4101C150.077 48.9959 149.943 48.4781 149.948 47.8567V38.1345ZM161.418 50.6529C160.421 50.6529 159.56 50.4458 158.835 50.0315C158.115 49.613 157.56 49.0218 157.172 48.258C156.783 47.4899 156.589 46.5858 156.589 45.5459C156.589 44.5232 156.783 43.6256 157.172 42.8532C157.564 42.0764 158.112 41.4723 158.816 41.0408C159.519 40.605 160.345 40.387 161.295 40.387C161.908 40.387 162.486 40.4863 163.03 40.6848C163.578 40.879 164.061 41.181 164.479 41.591C164.902 42.0009 165.235 42.5231 165.476 43.1574C165.718 43.7874 165.839 44.5383 165.839 45.4099V46.1284H157.689V44.5491H163.593C163.588 44.1003 163.491 43.7011 163.301 43.3516C163.112 42.9977 162.846 42.7194 162.505 42.5166C162.169 42.3138 161.776 42.2124 161.327 42.2124C160.848 42.2124 160.427 42.3289 160.065 42.5619C159.703 42.7906 159.42 43.0927 159.217 43.4681C159.019 43.8392 158.917 44.247 158.913 44.6915V46.0702C158.913 46.6484 159.019 47.1447 159.23 47.5589C159.441 47.9689 159.737 48.2839 160.117 48.5039C160.497 48.7197 160.941 48.8276 161.45 48.8276C161.791 48.8276 162.1 48.7801 162.376 48.6852C162.652 48.5859 162.891 48.4414 163.094 48.2515C163.297 48.0616 163.45 47.8265 163.554 47.546L165.742 47.7919C165.604 48.3702 165.34 48.8751 164.952 49.3066C164.568 49.7338 164.076 50.0661 163.476 50.3034C162.876 50.5364 162.19 50.6529 161.418 50.6529ZM172.422 50.6335C171.641 50.6335 170.942 50.4328 170.325 50.0315C169.708 49.6302 169.22 49.0477 168.862 48.2839C168.504 47.5201 168.325 46.5923 168.325 45.5006C168.325 44.3959 168.506 43.4638 168.868 42.7043C169.235 41.9405 169.729 41.3644 170.351 40.9761C170.972 40.5834 171.665 40.387 172.428 40.387C173.011 40.387 173.49 40.4863 173.865 40.6848C174.241 40.879 174.539 41.1141 174.759 41.3903C174.979 41.6622 175.149 41.9189 175.27 42.1606H175.367V37.2024H177.717V50.4587H175.412V48.8923H175.27C175.149 49.134 174.974 49.3907 174.746 49.6626C174.517 49.9301 174.215 50.1588 173.839 50.3487C173.464 50.5386 172.992 50.6335 172.422 50.6335ZM173.076 48.7111C173.572 48.7111 173.995 48.5773 174.344 48.3098C174.694 48.0379 174.959 47.6603 175.141 47.177C175.322 46.6937 175.412 46.1306 175.412 45.4876C175.412 44.8446 175.322 44.2858 175.141 43.8112C174.964 43.3365 174.7 42.9675 174.351 42.7043C174.006 42.4411 173.581 42.3095 173.076 42.3095C172.554 42.3095 172.118 42.4454 171.768 42.7172C171.419 42.9891 171.155 43.3645 170.978 43.8435C170.802 44.3225 170.713 44.8705 170.713 45.4876C170.713 46.109 170.802 46.6635 170.978 47.1511C171.16 47.6344 171.425 48.0163 171.775 48.2968C172.128 48.573 172.562 48.7111 173.076 48.7111ZM186.661 50.4587V37.2024H191.632C192.651 37.2024 193.505 37.3923 194.196 37.772C194.89 38.1518 195.415 38.6739 195.768 39.3384C196.127 39.9987 196.306 40.7495 196.306 41.591C196.306 42.4411 196.127 43.1962 195.768 43.8565C195.41 44.5167 194.882 45.0367 194.183 45.4164C193.483 45.7918 192.623 45.9796 191.6 45.9796H188.305V44.0053H191.276C191.872 44.0053 192.359 43.9018 192.739 43.6946C193.119 43.4875 193.399 43.2027 193.581 42.8402C193.766 42.4778 193.859 42.0613 193.859 41.591C193.859 41.1206 193.766 40.7064 193.581 40.3482C193.399 39.99 193.117 39.7117 192.733 39.5132C192.353 39.3104 191.863 39.209 191.263 39.209H189.063V50.4587H186.661ZM201.882 50.6594C201.252 50.6594 200.685 50.5472 200.18 50.3228C199.679 50.0941 199.282 49.7575 198.989 49.3131C198.7 48.8686 198.555 48.3206 198.555 47.669C198.555 47.108 198.659 46.6441 198.866 46.2773C199.073 45.9105 199.356 45.6171 199.714 45.397C200.072 45.1769 200.476 45.0108 200.924 44.8986C201.377 44.7821 201.846 44.6979 202.329 44.6461C202.911 44.5857 203.384 44.5318 203.746 44.4843C204.109 44.4325 204.372 44.3549 204.536 44.2513C204.704 44.1434 204.789 43.9773 204.789 43.7529V43.7141C204.789 43.2264 204.644 42.8489 204.355 42.5813C204.066 42.3138 203.649 42.18 203.106 42.18C202.532 42.18 202.076 42.3051 201.74 42.5554C201.408 42.8057 201.183 43.1013 201.067 43.4422L198.879 43.1315C199.052 42.5274 199.336 42.0225 199.733 41.6169C200.13 41.2069 200.616 40.9005 201.19 40.6977C201.764 40.4906 202.398 40.387 203.093 40.387C203.572 40.387 204.049 40.4431 204.523 40.5553C204.998 40.6675 205.432 40.8531 205.824 41.112C206.217 41.3666 206.532 41.714 206.769 42.1541C207.011 42.5943 207.132 43.1445 207.132 43.8047V50.4587H204.879V49.093H204.802C204.659 49.3691 204.458 49.6281 204.2 49.8697C203.945 50.1071 203.624 50.2991 203.235 50.4458C202.851 50.5882 202.4 50.6594 201.882 50.6594ZM202.491 48.9376C202.961 48.9376 203.369 48.8449 203.714 48.6593C204.059 48.4694 204.325 48.2191 204.51 47.9084C204.7 47.5978 204.795 47.259 204.795 46.8922V45.7206C204.722 45.7811 204.597 45.8371 204.42 45.8889C204.247 45.9407 204.053 45.986 203.837 46.0249C203.621 46.0637 203.408 46.0982 203.196 46.1284C202.985 46.1586 202.801 46.1845 202.646 46.2061C202.297 46.2536 201.984 46.3312 201.708 46.4391C201.431 46.547 201.213 46.698 201.054 46.8922C200.894 47.0821 200.814 47.3281 200.814 47.6301C200.814 48.0616 200.972 48.3874 201.287 48.6075C201.602 48.8276 202.003 48.9376 202.491 48.9376ZM214.723 54.3942C213.882 54.3942 213.159 54.2799 212.555 54.0512C211.951 53.8268 211.465 53.5247 211.098 53.145C210.732 52.7652 210.477 52.3445 210.335 51.8828L212.445 51.3714C212.54 51.5656 212.678 51.7576 212.859 51.9475C213.04 52.1417 213.284 52.3013 213.59 52.4265C213.901 52.5559 214.292 52.6207 214.762 52.6207C215.426 52.6207 215.977 52.4588 216.412 52.1352C216.848 51.8159 217.066 51.2894 217.066 50.5558V48.6722H216.95C216.829 48.9139 216.652 49.162 216.419 49.4166C216.19 49.6712 215.886 49.8848 215.506 50.0574C215.131 50.23 214.658 50.3163 214.089 50.3163C213.325 50.3163 212.632 50.1373 212.011 49.7791C211.394 49.4166 210.902 48.8772 210.535 48.1609C210.173 47.4402 209.991 46.5384 209.991 45.4553C209.991 44.3635 210.173 43.4422 210.535 42.6914C210.902 41.9362 211.396 41.3644 212.017 40.9761C212.639 40.5834 213.331 40.387 214.095 40.387C214.678 40.387 215.157 40.4863 215.532 40.6848C215.912 40.879 216.214 41.1141 216.438 41.3903C216.663 41.6622 216.833 41.9189 216.95 42.1606H217.079V40.5165H219.39V50.6206C219.39 51.4707 219.187 52.174 218.782 52.7307C218.376 53.2874 217.821 53.7038 217.118 53.98C216.415 54.2561 215.616 54.3942 214.723 54.3942ZM214.743 48.4781C215.239 48.4781 215.662 48.3572 216.011 48.1156C216.361 47.8739 216.626 47.5266 216.807 47.0735C216.989 46.6204 217.079 46.0766 217.079 45.4423C217.079 44.8166 216.989 44.2686 216.807 43.7982C216.63 43.3279 216.367 42.9632 216.018 42.7043C215.672 42.4411 215.247 42.3095 214.743 42.3095C214.22 42.3095 213.785 42.4454 213.435 42.7172C213.085 42.9891 212.822 43.3624 212.645 43.837C212.468 44.3074 212.38 44.8425 212.38 45.4423C212.38 46.0508 212.468 46.5837 212.645 47.0411C212.827 47.4942 213.092 47.848 213.441 48.1026C213.795 48.3529 214.229 48.4781 214.743 48.4781ZM227.104 50.6529C226.107 50.6529 225.247 50.4458 224.522 50.0315C223.801 49.613 223.247 49.0218 222.858 48.258C222.47 47.4899 222.276 46.5858 222.276 45.5459C222.276 44.5232 222.47 43.6256 222.858 42.8532C223.251 42.0764 223.799 41.4723 224.502 41.0408C225.206 40.605 226.032 40.387 226.981 40.387C227.594 40.387 228.172 40.4863 228.716 40.6848C229.264 40.879 229.747 41.181 230.166 41.591C230.589 42.0009 230.921 42.5231 231.163 43.1574C231.404 43.7874 231.525 44.5383 231.525 45.4099V46.1284H223.376V44.5491H229.279C229.275 44.1003 229.178 43.7011 228.988 43.3516C228.798 42.9977 228.533 42.7194 228.192 42.5166C227.855 42.3138 227.462 42.2124 227.014 42.2124C226.535 42.2124 226.114 42.3289 225.751 42.5619C225.389 42.7906 225.106 43.0927 224.904 43.4681C224.705 43.8392 224.604 44.247 224.599 44.6915V46.0702C224.599 46.6484 224.705 47.1447 224.916 47.5589C225.128 47.9689 225.424 48.2839 225.803 48.5039C226.183 48.7197 226.627 48.8276 227.137 48.8276C227.478 48.8276 227.786 48.7801 228.062 48.6852C228.338 48.5859 228.578 48.4414 228.781 48.2515C228.984 48.0616 229.137 47.8265 229.24 47.546L231.428 47.7919C231.29 48.3702 231.027 48.8751 230.638 49.3066C230.254 49.7338 229.762 50.0661 229.163 50.3034C228.563 50.5364 227.877 50.6529 227.104 50.6529Z" fill="black"/>
<path d="M45.9094 70.2806V69.2125H53.3661V70.2806H50.2398V79.1548H49.0358V70.2806H45.9094ZM57.5816 74.6691V79.1548H56.4359V69.2125H57.5816V72.8632H57.6787C57.8535 72.4781 58.1156 72.1722 58.4652 71.9457C58.8179 71.7159 59.2872 71.601 59.873 71.601C60.3811 71.601 60.8261 71.703 61.208 71.9068C61.5899 72.1075 61.8861 72.4166 62.0964 72.8341C62.31 73.2483 62.4168 73.7759 62.4168 74.4167V79.1548H61.2711V74.4944C61.2711 73.9021 61.1174 73.4441 60.81 73.1205C60.5057 72.7936 60.0834 72.6302 59.5429 72.6302C59.1675 72.6302 58.8309 72.7095 58.5331 72.8681C58.2386 73.0266 58.0056 73.258 57.8341 73.5623C57.6658 73.8665 57.5816 74.2354 57.5816 74.6691ZM69.0062 79.3101C68.2878 79.3101 67.668 79.1515 67.1469 78.8344C66.6291 78.514 66.2294 78.0674 65.9478 77.4945C65.6695 76.9184 65.5303 76.2485 65.5303 75.4847C65.5303 74.7209 65.6695 74.0477 65.9478 73.4652C66.2294 72.8794 66.621 72.4231 67.1227 72.0962C67.6275 71.7661 68.2166 71.601 68.8897 71.601C69.2781 71.601 69.6616 71.6657 70.0403 71.7952C70.4189 71.9246 70.7636 72.135 71.0743 72.4263C71.385 72.7143 71.6326 73.0962 71.8171 73.572C72.0015 74.0477 72.0938 74.6335 72.0938 75.3293V75.8148H66.3459V74.8245H70.9287C70.9287 74.4037 70.8445 74.0283 70.6762 73.6982C70.5112 73.3681 70.2749 73.1076 69.9675 72.9166C69.6632 72.7257 69.304 72.6302 68.8897 72.6302C68.4334 72.6302 68.0386 72.7435 67.7052 72.97C67.3751 73.1933 67.121 73.4846 66.943 73.8438C66.765 74.2031 66.676 74.5882 66.676 74.9992V75.6595C66.676 76.2226 66.7731 76.7 66.9673 77.0916C67.1647 77.4799 67.4382 77.7761 67.7877 77.98C68.1373 78.1806 68.5434 78.281 69.0062 78.281C69.3072 78.281 69.5791 78.2389 69.8218 78.1547C70.0678 78.0674 70.2798 77.9379 70.4578 77.7664C70.6358 77.5916 70.7733 77.3748 70.8704 77.1158L71.9773 77.4265C71.8608 77.802 71.665 78.1321 71.3899 78.4169C71.1148 78.6985 70.7749 78.9185 70.3704 79.0771C69.9658 79.2325 69.5111 79.3101 69.0062 79.3101ZM83.4448 79.3101C82.7458 79.3101 82.1438 79.1451 81.6389 78.815C81.134 78.4848 80.7457 78.0301 80.4738 77.4508C80.202 76.8715 80.066 76.2097 80.066 75.4653C80.066 74.708 80.2052 74.0396 80.4835 73.4603C80.7651 72.8778 81.1567 72.4231 81.6583 72.0962C82.1632 71.7661 82.7522 71.601 83.4254 71.601C83.9497 71.601 84.4222 71.6981 84.843 71.8923C85.2637 72.0865 85.6084 72.3583 85.877 72.7079C86.1456 73.0574 86.3123 73.4652 86.377 73.9312H85.2313C85.1439 73.5914 84.9498 73.2904 84.6488 73.0283C84.351 72.7629 83.9497 72.6302 83.4448 72.6302C82.9982 72.6302 82.6066 72.7467 82.27 72.9797C81.9367 73.2095 81.6761 73.5348 81.4884 73.9555C81.3039 74.373 81.2117 74.8633 81.2117 75.4264C81.2117 76.0025 81.3023 76.5042 81.4836 76.9314C81.668 77.3586 81.927 77.6903 82.2603 77.9266C82.5969 78.1628 82.9917 78.281 83.4448 78.281C83.7426 78.281 84.0128 78.2292 84.2556 78.1256C84.4983 78.022 84.7038 77.8732 84.8721 77.679C85.0404 77.4848 85.1601 77.2518 85.2313 76.9799H86.377C86.3123 77.4201 86.1521 77.8165 85.8964 78.1693C85.644 78.5188 85.309 78.7972 84.8915 79.0043C84.4772 79.2082 83.995 79.3101 83.4448 79.3101ZM92.4482 79.3101C91.775 79.3101 91.1844 79.1499 90.6763 78.8295C90.1714 78.5091 89.7765 78.0609 89.4917 77.4848C89.2102 76.9087 89.0694 76.2355 89.0694 75.4653C89.0694 74.6885 89.2102 74.0105 89.4917 73.4312C89.7765 72.8519 90.1714 72.402 90.6763 72.0816C91.1844 71.7612 91.775 71.601 92.4482 71.601C93.1214 71.601 93.7104 71.7612 94.2153 72.0816C94.7234 72.402 95.1182 72.8519 95.3998 73.4312C95.6846 74.0105 95.827 74.6885 95.827 75.4653C95.827 76.2355 95.6846 76.9087 95.3998 77.4848C95.1182 78.0609 94.7234 78.5091 94.2153 78.8295C93.7104 79.1499 93.1214 79.3101 92.4482 79.3101ZM92.4482 78.281C92.9596 78.281 93.3803 78.1499 93.7104 77.8877C94.0405 77.6256 94.2849 77.2809 94.4434 76.8537C94.602 76.4265 94.6813 75.9637 94.6813 75.4653C94.6813 74.9669 94.602 74.5024 94.4434 74.072C94.2849 73.6416 94.0405 73.2936 93.7104 73.0283C93.3803 72.7629 92.9596 72.6302 92.4482 72.6302C91.9368 72.6302 91.5161 72.7629 91.186 73.0283C90.8559 73.2936 90.6115 73.6416 90.453 74.072C90.2944 74.5024 90.2151 74.9669 90.2151 75.4653C90.2151 75.9637 90.2944 76.4265 90.453 76.8537C90.6115 77.2809 90.8559 77.6256 91.186 77.8877C91.5161 78.1499 91.9368 78.281 92.4482 78.281ZM100.089 74.6691V79.1548H98.9429V71.6981H100.05V72.8632H100.147C100.322 72.4845 100.587 72.1803 100.943 71.9505C101.299 71.7175 101.759 71.601 102.322 71.601C102.827 71.601 103.268 71.7046 103.647 71.9117C104.026 72.1156 104.32 72.4263 104.531 72.8438C104.741 73.258 104.846 73.7823 104.846 74.4167V79.1548H103.7V74.4944C103.7 73.9086 103.548 73.4522 103.244 73.1254C102.94 72.7952 102.522 72.6302 101.992 72.6302C101.626 72.6302 101.299 72.7095 101.011 72.8681C100.726 73.0266 100.501 73.258 100.336 73.5623C100.171 73.8665 100.089 74.2354 100.089 74.6691ZM111.55 71.6981V72.669H107.685V71.6981H111.55ZM108.812 69.9116H109.957V77.0188C109.957 77.3424 110.004 77.5851 110.098 77.7469C110.195 77.9055 110.318 78.0123 110.467 78.0674C110.619 78.1191 110.779 78.145 110.948 78.145C111.074 78.145 111.177 78.1386 111.258 78.1256C111.339 78.1094 111.404 78.0965 111.453 78.0868L111.686 79.1159C111.608 79.1451 111.499 79.1742 111.36 79.2033C111.221 79.2357 111.045 79.2519 110.831 79.2519C110.508 79.2519 110.19 79.1823 109.88 79.0431C109.572 78.904 109.317 78.692 109.113 78.4072C108.912 78.1224 108.812 77.7631 108.812 77.3295V69.9116ZM117.686 79.3101C116.968 79.3101 116.348 79.1515 115.827 78.8344C115.309 78.514 114.91 78.0674 114.628 77.4945C114.35 76.9184 114.21 76.2485 114.21 75.4847C114.21 74.7209 114.35 74.0477 114.628 73.4652C114.91 72.8794 115.301 72.4231 115.803 72.0962C116.308 71.7661 116.897 71.601 117.57 71.601C117.958 71.601 118.342 71.6657 118.72 71.7952C119.099 71.9246 119.444 72.135 119.754 72.4263C120.065 72.7143 120.313 73.0962 120.497 73.572C120.682 74.0477 120.774 74.6335 120.774 75.3293V75.8148H115.026V74.8245H119.609C119.609 74.4037 119.525 74.0283 119.356 73.6982C119.191 73.3681 118.955 73.1076 118.648 72.9166C118.343 72.7257 117.984 72.6302 117.57 72.6302C117.114 72.6302 116.719 72.7435 116.385 72.97C116.055 73.1933 115.801 73.4846 115.623 73.8438C115.445 74.2031 115.356 74.5882 115.356 74.9992V75.6595C115.356 76.2226 115.453 76.7 115.647 77.0916C115.845 77.4799 116.118 77.7761 116.468 77.98C116.817 78.1806 117.224 78.281 117.686 78.281C117.987 78.281 118.259 78.2389 118.502 78.1547C118.748 78.0674 118.96 77.9379 119.138 77.7664C119.316 77.5916 119.453 77.3748 119.551 77.1158L120.657 77.4265C120.541 77.802 120.345 78.1321 120.07 78.4169C119.795 78.6985 119.455 78.9185 119.051 79.0771C118.646 79.2325 118.191 79.3101 117.686 79.3101ZM125.029 74.6691V79.1548H123.884V71.6981H124.991V72.8632H125.088C125.262 72.4845 125.528 72.1803 125.884 71.9505C126.24 71.7175 126.699 71.601 127.263 71.601C127.767 71.601 128.209 71.7046 128.588 71.9117C128.967 72.1156 129.261 72.4263 129.471 72.8438C129.682 73.258 129.787 73.7823 129.787 74.4167V79.1548H128.641V74.4944C128.641 73.9086 128.489 73.4522 128.185 73.1254C127.881 72.7952 127.463 72.6302 126.932 72.6302C126.567 72.6302 126.24 72.7095 125.952 72.8681C125.667 73.0266 125.442 73.258 125.277 73.5623C125.112 73.8665 125.029 74.2354 125.029 74.6691ZM136.49 71.6981V72.669H132.626V71.6981H136.49ZM133.752 69.9116H134.898V77.0188C134.898 77.3424 134.945 77.5851 135.039 77.7469C135.136 77.9055 135.259 78.0123 135.408 78.0674C135.56 78.1191 135.72 78.145 135.888 78.145C136.015 78.145 136.118 78.1386 136.199 78.1256C136.28 78.1094 136.345 78.0965 136.393 78.0868L136.626 79.1159C136.549 79.1451 136.44 79.1742 136.301 79.2033C136.162 79.2357 135.986 79.2519 135.772 79.2519C135.448 79.2519 135.131 79.1823 134.82 79.0431C134.513 78.904 134.257 78.692 134.053 78.4072C133.853 78.1224 133.752 77.7631 133.752 77.3295V69.9116ZM144.729 73.3681L143.7 73.6594C143.635 73.4878 143.54 73.3212 143.414 73.1593C143.291 72.9943 143.122 72.8584 142.909 72.7515C142.695 72.6447 142.422 72.5913 142.088 72.5913C141.632 72.5913 141.252 72.6965 140.947 72.9069C140.646 73.114 140.496 73.3778 140.496 73.6982C140.496 73.983 140.6 74.2079 140.807 74.373C141.014 74.538 141.337 74.6756 141.778 74.7856L142.884 75.0575C143.551 75.2193 144.048 75.4669 144.375 75.8002C144.702 76.1304 144.865 76.5559 144.865 77.077C144.865 77.5042 144.742 77.8861 144.496 78.2227C144.253 78.5593 143.914 78.8247 143.477 79.0189C143.04 79.213 142.532 79.3101 141.952 79.3101C141.192 79.3101 140.562 79.1451 140.064 78.815C139.566 78.4848 139.25 78.0026 139.117 77.3683L140.205 77.0964C140.308 77.4977 140.504 77.7987 140.792 77.9994C141.083 78.2 141.464 78.3004 141.933 78.3004C142.467 78.3004 142.891 78.1871 143.205 77.9606C143.522 77.7308 143.681 77.4557 143.681 77.1353C143.681 76.8764 143.59 76.6595 143.409 76.4847C143.228 76.3067 142.949 76.1741 142.574 76.0867L141.331 75.7954C140.648 75.6336 140.146 75.3828 139.826 75.0429C139.509 74.6999 139.35 74.271 139.35 73.7565C139.35 73.3357 139.468 72.9635 139.705 72.6399C139.944 72.3163 140.269 72.0622 140.68 71.8777C141.095 71.6932 141.564 71.601 142.088 71.601C142.826 71.601 143.406 71.7628 143.826 72.0865C144.25 72.4101 144.551 72.8373 144.729 73.3681ZM156.198 79.3101C155.525 79.3101 154.934 79.1499 154.426 78.8295C153.921 78.5091 153.526 78.0609 153.242 77.4848C152.96 76.9087 152.819 76.2355 152.819 75.4653C152.819 74.6885 152.96 74.0105 153.242 73.4312C153.526 72.8519 153.921 72.402 154.426 72.0816C154.934 71.7612 155.525 71.601 156.198 71.601C156.871 71.601 157.46 71.7612 157.965 72.0816C158.473 72.402 158.868 72.8519 159.15 73.4312C159.434 74.0105 159.577 74.6885 159.577 75.4653C159.577 76.2355 159.434 76.9087 159.15 77.4848C158.868 78.0609 158.473 78.5091 157.965 78.8295C157.46 79.1499 156.871 79.3101 156.198 79.3101ZM156.198 78.281C156.709 78.281 157.13 78.1499 157.46 77.8877C157.79 77.6256 158.035 77.2809 158.193 76.8537C158.352 76.4265 158.431 75.9637 158.431 75.4653C158.431 74.9669 158.352 74.5024 158.193 74.072C158.035 73.6416 157.79 73.2936 157.46 73.0283C157.13 72.7629 156.709 72.6302 156.198 72.6302C155.687 72.6302 155.266 72.7629 154.936 73.0283C154.606 73.2936 154.361 73.6416 154.203 74.072C154.044 74.5024 153.965 74.9669 153.965 75.4653C153.965 75.9637 154.044 76.4265 154.203 76.8537C154.361 77.2809 154.606 77.6256 154.936 77.8877C155.266 78.1499 155.687 78.281 156.198 78.281ZM166.013 71.6981V72.669H161.994V71.6981H166.013ZM163.198 79.1548V70.6689C163.198 70.2417 163.298 69.8857 163.499 69.6009C163.699 69.3161 163.96 69.1025 164.28 68.9601C164.601 68.8177 164.939 68.7465 165.295 68.7465C165.576 68.7465 165.806 68.7691 165.984 68.8145C166.162 68.8598 166.295 68.9018 166.382 68.9407L166.052 69.931C165.994 69.9116 165.913 69.8873 165.809 69.8582C165.709 69.8291 165.576 69.8145 165.411 69.8145C165.033 69.8145 164.759 69.91 164.591 70.1009C164.426 70.2919 164.343 70.5718 164.343 70.9408V79.1548H163.198ZM177.441 71.6981V72.669H173.577V71.6981H177.441ZM174.703 69.9116H175.849V77.0188C175.849 77.3424 175.895 77.5851 175.989 77.7469C176.086 77.9055 176.209 78.0123 176.358 78.0674C176.51 78.1191 176.671 78.145 176.839 78.145C176.965 78.145 177.069 78.1386 177.15 78.1256C177.23 78.1094 177.295 78.0965 177.344 78.0868L177.577 79.1159C177.499 79.1451 177.391 79.1742 177.252 79.2033C177.112 79.2357 176.936 79.2519 176.722 79.2519C176.399 79.2519 176.082 79.1823 175.771 79.0431C175.463 78.904 175.208 78.692 175.004 78.4072C174.803 78.1224 174.703 77.7631 174.703 77.3295V69.9116ZM181.837 74.6691V79.1548H180.691V69.2125H181.837V72.8632H181.934C182.109 72.4781 182.371 72.1722 182.721 71.9457C183.073 71.7159 183.543 71.601 184.129 71.601C184.637 71.601 185.082 71.703 185.464 71.9068C185.845 72.1075 186.142 72.4166 186.352 72.8341C186.566 73.2483 186.672 73.7759 186.672 74.4167V79.1548H185.527V74.4944C185.527 73.9021 185.373 73.4441 185.065 73.1205C184.761 72.7936 184.339 72.6302 183.798 72.6302C183.423 72.6302 183.086 72.7095 182.789 72.8681C182.494 73.0266 182.261 73.258 182.09 73.5623C181.921 73.8665 181.837 74.2354 181.837 74.6691ZM190.135 79.1548V71.6981H191.281V79.1548H190.135ZM190.718 70.4553C190.495 70.4553 190.302 70.3793 190.14 70.2272C189.982 70.075 189.902 69.8922 189.902 69.6786C189.902 69.465 189.982 69.2821 190.14 69.13C190.302 68.9779 190.495 68.9018 190.718 68.9018C190.941 68.9018 191.132 68.9779 191.291 69.13C191.453 69.2821 191.534 69.465 191.534 69.6786C191.534 69.8922 191.453 70.075 191.291 70.2272C191.132 70.3793 190.941 70.4553 190.718 70.4553ZM200.028 73.3681L198.999 73.6594C198.934 73.4878 198.839 73.3212 198.713 73.1593C198.59 72.9943 198.421 72.8584 198.208 72.7515C197.994 72.6447 197.721 72.5913 197.387 72.5913C196.931 72.5913 196.551 72.6965 196.247 72.9069C195.946 73.114 195.795 73.3778 195.795 73.6982C195.795 73.983 195.899 74.2079 196.106 74.373C196.313 74.538 196.637 74.6756 197.077 74.7856L198.184 75.0575C198.85 75.2193 199.347 75.4669 199.674 75.8002C200.001 76.1304 200.164 76.5559 200.164 77.077C200.164 77.5042 200.041 77.8861 199.795 78.2227C199.553 78.5593 199.213 78.8247 198.776 79.0189C198.339 79.213 197.831 79.3101 197.252 79.3101C196.491 79.3101 195.861 79.1451 195.363 78.815C194.865 78.4848 194.549 78.0026 194.416 77.3683L195.504 77.0964C195.607 77.4977 195.803 77.7987 196.091 77.9994C196.383 78.2 196.763 78.3004 197.232 78.3004C197.766 78.3004 198.19 78.1871 198.504 77.9606C198.821 77.7308 198.98 77.4557 198.98 77.1353C198.98 76.8764 198.889 76.6595 198.708 76.4847C198.527 76.3067 198.248 76.1741 197.873 76.0867L196.63 75.7954C195.947 75.6336 195.446 75.3828 195.125 75.0429C194.808 74.6999 194.649 74.271 194.649 73.7565C194.649 73.3357 194.768 72.9635 195.004 72.6399C195.243 72.3163 195.569 72.0622 195.98 71.8777C196.394 71.6932 196.863 71.601 197.387 71.601C198.125 71.601 198.705 71.7628 199.125 72.0865C199.549 72.4101 199.85 72.8373 200.028 73.3681ZM210.157 79.1548L207.885 71.6981H209.089L210.701 77.4071H210.779L212.371 71.6981H213.594L215.167 77.3877H215.245L216.857 71.6981H218.061L215.789 79.1548H214.662L213.031 73.4263H212.915L211.284 79.1548H210.157ZM223.815 79.3101C223.097 79.3101 222.477 79.1515 221.956 78.8344C221.438 78.514 221.038 78.0674 220.757 77.4945C220.478 76.9184 220.339 76.2485 220.339 75.4847C220.339 74.7209 220.478 74.0477 220.757 73.4652C221.038 72.8794 221.43 72.4231 221.931 72.0962C222.436 71.7661 223.025 71.601 223.699 71.601C224.087 71.601 224.47 71.6657 224.849 71.7952C225.228 71.9246 225.572 72.135 225.883 72.4263C226.194 72.7143 226.441 73.0962 226.626 73.572C226.81 74.0477 226.903 74.6335 226.903 75.3293V75.8148H221.155V74.8245H225.737C225.737 74.4037 225.653 74.0283 225.485 73.6982C225.32 73.3681 225.084 73.1076 224.776 72.9166C224.472 72.7257 224.113 72.6302 223.699 72.6302C223.242 72.6302 222.847 72.7435 222.514 72.97C222.184 73.1933 221.93 73.4846 221.752 73.8438C221.574 74.2031 221.485 74.5882 221.485 74.9992V75.6595C221.485 76.2226 221.582 76.7 221.776 77.0916C221.973 77.4799 222.247 77.7761 222.597 77.98C222.946 78.1806 223.352 78.281 223.815 78.281C224.116 78.281 224.388 78.2389 224.631 78.1547C224.877 78.0674 225.089 77.9379 225.267 77.7664C225.445 77.5916 225.582 77.3748 225.679 77.1158L226.786 77.4265C226.67 77.802 226.474 78.1321 226.199 78.4169C225.924 78.6985 225.584 78.9185 225.179 79.0771C224.775 79.2325 224.32 79.3101 223.815 79.3101ZM230.168 79.1548V69.2125H231.313V72.8826H231.411C231.495 72.7532 231.611 72.5881 231.76 72.3875C231.912 72.1836 232.129 72.0023 232.411 71.8437C232.695 71.6819 233.081 71.601 233.566 71.601C234.194 71.601 234.747 71.758 235.226 72.0719C235.705 72.3858 236.079 72.8308 236.348 73.4069C236.616 73.983 236.751 74.6626 236.751 75.4459C236.751 76.2355 236.616 76.92 236.348 77.4994C236.079 78.0754 235.707 78.5221 235.231 78.8392C234.755 79.1532 234.207 79.3101 233.585 79.3101C233.106 79.3101 232.723 79.2308 232.435 79.0723C232.147 78.9104 231.925 78.7276 231.77 78.5237C231.614 78.3166 231.495 78.145 231.411 78.0091H231.275V79.1548H230.168ZM231.294 75.4264C231.294 75.9896 231.377 76.4864 231.542 76.9168C231.707 77.344 231.948 77.679 232.265 77.9217C232.582 78.1612 232.97 78.281 233.43 78.281C233.909 78.281 234.309 78.1547 234.629 77.9023C234.953 77.6466 235.196 77.3036 235.357 76.8731C235.522 76.4394 235.605 75.9572 235.605 75.4264C235.605 74.9021 235.524 74.4296 235.362 74.0089C235.204 73.5849 234.962 73.25 234.639 73.004C234.318 72.7548 233.916 72.6302 233.43 72.6302C232.964 72.6302 232.572 72.7483 232.255 72.9846C231.938 73.2176 231.699 73.5445 231.537 73.9652C231.375 74.3827 231.294 74.8698 231.294 75.4264ZM239.87 81.951V71.6981H240.977V72.8826H241.113C241.197 72.7532 241.314 72.5881 241.463 72.3875C241.615 72.1836 241.831 72.0023 242.113 71.8437C242.398 71.6819 242.783 71.601 243.268 71.601C243.896 71.601 244.45 71.758 244.929 72.0719C245.408 72.3858 245.781 72.8308 246.05 73.4069C246.319 73.983 246.453 74.6626 246.453 75.4459C246.453 76.2355 246.319 76.92 246.05 77.4994C245.781 78.0754 245.409 78.5221 244.934 78.8392C244.458 79.1532 243.909 79.3101 243.288 79.3101C242.809 79.3101 242.425 79.2308 242.137 79.0723C241.849 78.9104 241.628 78.7276 241.472 78.5237C241.317 78.3166 241.197 78.145 241.113 78.0091H241.016V81.951H239.87ZM240.996 75.4264C240.996 75.9896 241.079 76.4864 241.244 76.9168C241.409 77.344 241.65 77.679 241.967 77.9217C242.285 78.1612 242.673 78.281 243.132 78.281C243.611 78.281 244.011 78.1547 244.332 77.9023C244.655 77.6466 244.898 77.3036 245.06 76.8731C245.225 76.4394 245.307 75.9572 245.307 75.4264C245.307 74.9021 245.226 74.4296 245.065 74.0089C244.906 73.5849 244.665 73.25 244.341 73.004C244.021 72.7548 243.618 72.6302 243.132 72.6302C242.666 72.6302 242.275 72.7483 241.958 72.9846C241.641 73.2176 241.401 73.5445 241.239 73.9652C241.077 74.3827 240.996 74.8698 240.996 75.4264ZM251.762 79.3296C251.29 79.3296 250.861 79.2406 250.476 79.0625C250.09 78.8813 249.785 78.6208 249.558 78.281C249.332 77.9379 249.218 77.5236 249.218 77.0382C249.218 76.611 249.302 76.2647 249.471 75.9993C249.639 75.7307 249.864 75.5203 250.145 75.3682C250.427 75.2161 250.738 75.1028 251.078 75.0284C251.421 74.9507 251.765 74.8892 252.112 74.8439C252.565 74.7856 252.932 74.7419 253.214 74.7128C253.498 74.6804 253.706 74.627 253.835 74.5526C253.968 74.4782 254.034 74.3487 254.034 74.1642V74.1254C254.034 73.6464 253.903 73.2742 253.641 73.0088C253.382 72.7435 252.989 72.6108 252.461 72.6108C251.914 72.6108 251.485 72.7305 251.175 72.97C250.864 73.2095 250.645 73.4652 250.519 73.737L249.432 73.3487C249.626 72.8956 249.885 72.5428 250.209 72.2904C250.535 72.0347 250.891 71.8567 251.277 71.7564C251.665 71.6528 252.047 71.601 252.422 71.601C252.662 71.601 252.937 71.6301 253.248 71.6884C253.561 71.7434 253.864 71.8583 254.155 72.0331C254.45 72.2078 254.694 72.4716 254.888 72.8244C255.083 73.1771 255.18 73.6497 255.18 74.2419V79.1548H254.034V78.145H253.976C253.898 78.3068 253.769 78.48 253.587 78.6645C253.406 78.8489 253.165 79.0059 252.864 79.1354C252.563 79.2648 252.196 79.3296 251.762 79.3296ZM251.937 78.3004C252.39 78.3004 252.772 78.2114 253.083 78.0334C253.396 77.8554 253.633 77.6256 253.791 77.344C253.953 77.0624 254.034 76.7663 254.034 76.4556V75.407C253.985 75.4653 253.879 75.5187 253.714 75.5672C253.552 75.6125 253.364 75.653 253.15 75.6886C252.94 75.721 252.735 75.7501 252.534 75.776C252.337 75.7986 252.176 75.818 252.053 75.8342C251.756 75.8731 251.477 75.9362 251.218 76.0236C250.963 76.1077 250.756 76.2355 250.597 76.4071C250.442 76.5754 250.364 76.8052 250.364 77.0964C250.364 77.4945 250.511 77.7955 250.806 77.9994C251.103 78.2 251.48 78.3004 251.937 78.3004ZM261.648 82.1064C261.094 82.1064 260.619 82.0352 260.22 81.8928C259.822 81.7536 259.491 81.5691 259.225 81.3394C258.963 81.1128 258.754 80.8701 258.599 80.6112L259.512 79.9704C259.615 80.1063 259.746 80.2616 259.905 80.4364C260.064 80.6144 260.28 80.7681 260.555 80.8976C260.834 81.0303 261.198 81.0966 261.648 81.0966C262.25 81.0966 262.746 80.951 263.138 80.6597C263.53 80.3684 263.726 79.9121 263.726 79.2907V77.7761H263.628C263.544 77.912 263.425 78.0803 263.269 78.281C263.117 78.4784 262.897 78.6548 262.609 78.8101C262.324 78.9622 261.939 79.0383 261.454 79.0383C260.852 79.0383 260.311 78.8959 259.832 78.6111C259.356 78.3263 258.979 77.912 258.701 77.3683C258.426 76.8246 258.288 76.1643 258.288 75.3876C258.288 74.6238 258.423 73.9587 258.691 73.3924C258.96 72.8228 259.334 72.3826 259.813 72.0719C260.292 71.758 260.845 71.601 261.473 71.601C261.958 71.601 262.344 71.6819 262.628 71.8437C262.916 72.0023 263.136 72.1836 263.289 72.3875C263.444 72.5881 263.564 72.7532 263.648 72.8826H263.764V71.6981H264.871V79.3684C264.871 80.0092 264.726 80.5303 264.434 80.9316C264.146 81.3361 263.758 81.6323 263.269 81.82C262.784 82.0109 262.243 82.1064 261.648 82.1064ZM261.609 78.0091C262.068 78.0091 262.457 77.9039 262.774 77.6935C263.091 77.4832 263.332 77.1806 263.497 76.7857C263.662 76.3909 263.745 75.9184 263.745 75.3682C263.745 74.8309 263.664 74.3568 263.502 73.9458C263.34 73.5348 263.101 73.2127 262.784 72.9797C262.467 72.7467 262.075 72.6302 261.609 72.6302C261.123 72.6302 260.719 72.7532 260.395 72.9991C260.075 73.2451 259.834 73.5752 259.672 73.9895C259.513 74.4037 259.434 74.8633 259.434 75.3682C259.434 75.886 259.515 76.344 259.677 76.742C259.842 77.1369 260.085 77.4476 260.405 77.6741C260.729 77.8974 261.13 78.0091 261.609 78.0091ZM271.462 79.3101C270.743 79.3101 270.124 79.1515 269.603 78.8344C269.085 78.514 268.685 78.0674 268.403 77.4945C268.125 76.9184 267.986 76.2485 267.986 75.4847C267.986 74.7209 268.125 74.0477 268.403 73.4652C268.685 72.8794 269.077 72.4231 269.578 72.0962C270.083 71.7661 270.672 71.601 271.345 71.601C271.734 71.601 272.117 71.6657 272.496 71.7952C272.875 71.9246 273.219 72.135 273.53 72.4263C273.841 72.7143 274.088 73.0962 274.273 73.572C274.457 74.0477 274.549 74.6335 274.549 75.3293V75.8148H268.802V74.8245H273.384C273.384 74.4037 273.3 74.0283 273.132 73.6982C272.967 73.3681 272.731 73.1076 272.423 72.9166C272.119 72.7257 271.76 72.6302 271.345 72.6302C270.889 72.6302 270.494 72.7435 270.161 72.97C269.831 73.1933 269.577 73.4846 269.399 73.8438C269.221 74.2031 269.132 74.5882 269.132 74.9992V75.6595C269.132 76.2226 269.229 76.7 269.423 77.0916C269.62 77.4799 269.894 77.7761 270.243 77.98C270.593 78.1806 270.999 78.281 271.462 78.281C271.763 78.281 272.035 78.2389 272.277 78.1547C272.523 78.0674 272.735 77.9379 272.913 77.7664C273.091 77.5916 273.229 77.3748 273.326 77.1158L274.433 77.4265C274.316 77.802 274.121 78.1321 273.845 78.4169C273.57 78.6985 273.231 78.9185 272.826 79.0771C272.421 79.2325 271.967 79.3101 271.462 79.3101ZM58.677 100.33C58.2044 100.33 57.7756 100.241 57.3905 100.063C57.0054 99.8813 56.6995 99.6208 56.473 99.281C56.2464 98.9379 56.1331 98.5236 56.1331 98.0382C56.1331 97.611 56.2173 97.2647 56.3856 96.9993C56.5539 96.7307 56.7788 96.5203 57.0604 96.3682C57.3419 96.2161 57.6526 96.1028 57.9925 96.0284C58.3355 95.9507 58.6802 95.8892 59.0265 95.8439C59.4796 95.7856 59.8469 95.7419 60.1285 95.7128C60.4133 95.6804 60.6204 95.627 60.7499 95.5526C60.8826 95.4782 60.9489 95.3487 60.9489 95.1642V95.1254C60.9489 94.6464 60.8178 94.2742 60.5557 94.0088C60.2968 93.7435 59.9036 93.6108 59.376 93.6108C58.8291 93.6108 58.4002 93.7305 58.0895 93.97C57.7789 94.2095 57.5604 94.4652 57.4342 94.737L56.3467 94.3487C56.5409 93.8956 56.7998 93.5428 57.1235 93.2904C57.4504 93.0347 57.8064 92.8567 58.1915 92.7564C58.5799 92.6528 58.9618 92.601 59.3372 92.601C59.5767 92.601 59.8518 92.6301 60.1625 92.6884C60.4764 92.7434 60.779 92.8583 61.0703 93.0331C61.3648 93.2078 61.6091 93.4716 61.8033 93.8244C61.9975 94.1771 62.0946 94.6497 62.0946 95.2419V100.155H60.9489V99.145H60.8907C60.813 99.3068 60.6835 99.48 60.5023 99.6645C60.3211 99.8489 60.0799 100.006 59.779 100.135C59.478 100.265 59.1106 100.33 58.677 100.33ZM58.8517 99.3004C59.3048 99.3004 59.6867 99.2114 59.9974 99.0334C60.3113 98.8554 60.5476 98.6256 60.7062 98.344C60.868 98.0624 60.9489 97.7663 60.9489 97.4556V96.407C60.9004 96.4653 60.7936 96.5187 60.6285 96.5672C60.4667 96.6125 60.279 96.653 60.0654 96.6886C59.855 96.721 59.6495 96.7501 59.4488 96.776C59.2514 96.7986 59.0912 96.818 58.9682 96.8342C58.6705 96.8731 58.3922 96.9362 58.1332 97.0236C57.8776 97.1077 57.6704 97.2355 57.5118 97.4071C57.3565 97.5754 57.2788 97.8052 57.2788 98.0964C57.2788 98.4945 57.4261 98.7955 57.7206 98.9994C58.0183 99.2 58.3954 99.3004 58.8517 99.3004ZM65.5528 100.155V92.6981H66.6596V93.8244H66.7373C66.8732 93.4554 67.1192 93.1561 67.4752 92.9263C67.8312 92.6965 68.2325 92.5816 68.6792 92.5816C68.7633 92.5816 68.8685 92.5832 68.9947 92.5864C69.1209 92.5897 69.2164 92.5945 69.2811 92.601V93.7661C69.2423 93.7564 69.1533 93.7418 69.0141 93.7224C68.8782 93.6998 68.7342 93.6884 68.5821 93.6884C68.2196 93.6884 67.8959 93.7645 67.6111 93.9166C67.3296 94.0655 67.1063 94.2726 66.9412 94.538C66.7794 94.8001 66.6985 95.0995 66.6985 95.4361V100.155H65.5528ZM74.9057 100.31C74.1872 100.31 73.5674 100.152 73.0464 99.8344C72.5285 99.514 72.1288 99.0674 71.8473 98.4945C71.5689 97.9184 71.4298 97.2485 71.4298 96.4847C71.4298 95.7209 71.5689 95.0477 71.8473 94.4652C72.1288 93.8794 72.5205 93.4231 73.0221 93.0962C73.527 92.7661 74.116 92.601 74.7892 92.601C75.1775 92.601 75.5611 92.6657 75.9397 92.7952C76.3184 92.9246 76.6631 93.135 76.9738 93.4263C77.2844 93.7143 77.532 94.0962 77.7165 94.572C77.901 95.0477 77.9932 95.6335 77.9932 96.3293V96.8148H72.2454V95.8245H76.8281C76.8281 95.4037 76.744 95.0283 76.5757 94.6982C76.4106 94.3681 76.1744 94.1076 75.8669 93.9166C75.5627 93.7257 75.2034 93.6302 74.7892 93.6302C74.3328 93.6302 73.938 93.7435 73.6046 93.97C73.2745 94.1933 73.0205 94.4846 72.8425 94.8438C72.6645 95.2031 72.5755 95.5882 72.5755 95.9992V96.6595C72.5755 97.2226 72.6726 97.7 72.8667 98.0916C73.0642 98.4799 73.3376 98.7761 73.6872 98.98C74.0367 99.1806 74.4429 99.281 74.9057 99.281C75.2067 99.281 75.4785 99.2389 75.7213 99.1547C75.9672 99.0674 76.1792 98.9379 76.3572 98.7664C76.5352 98.5916 76.6728 98.3748 76.7699 98.1158L77.8767 98.4265C77.7602 98.802 77.5644 99.1321 77.2893 99.4169C77.0142 99.6985 76.6744 99.9185 76.2698 100.077C75.8653 100.232 75.4106 100.31 74.9057 100.31ZM87.4607 95.6691V100.155H86.315V92.6981H87.4219V93.8632H87.5189C87.6937 93.4845 87.9591 93.1803 88.3151 92.9505C88.6711 92.7175 89.1307 92.601 89.6938 92.601C90.1987 92.601 90.6405 92.7046 91.0191 92.9117C91.3978 93.1156 91.6923 93.4263 91.9027 93.8438C92.113 94.258 92.2182 94.7823 92.2182 95.4167V100.155H91.0725V95.4944C91.0725 94.9086 90.9204 94.4522 90.6162 94.1254C90.312 93.7952 89.8945 93.6302 89.3637 93.6302C88.998 93.6302 88.6711 93.7095 88.3831 93.8681C88.0983 94.0266 87.8733 94.258 87.7083 94.5623C87.5432 94.8665 87.4607 95.2354 87.4607 95.6691ZM98.7081 100.31C98.0349 100.31 97.4443 100.15 96.9362 99.8295C96.4313 99.5091 96.0364 99.0609 95.7516 98.4848C95.4701 97.9087 95.3293 97.2355 95.3293 96.4653C95.3293 95.6885 95.4701 95.0105 95.7516 94.4312C96.0364 93.8519 96.4313 93.402 96.9362 93.0816C97.4443 92.7612 98.0349 92.601 98.7081 92.601C99.3813 92.601 99.9703 92.7612 100.475 93.0816C100.983 93.402 101.378 93.8519 101.66 94.4312C101.945 95.0105 102.087 95.6885 102.087 96.4653C102.087 97.2355 101.945 97.9087 101.66 98.4848C101.378 99.0609 100.983 99.5091 100.475 99.8295C99.9703 100.15 99.3813 100.31 98.7081 100.31ZM98.7081 99.281C99.2195 99.281 99.6402 99.1499 99.9703 98.8877C100.3 98.6256 100.545 98.2809 100.703 97.8537C100.862 97.4265 100.941 96.9637 100.941 96.4653C100.941 95.9669 100.862 95.5024 100.703 95.072C100.545 94.6416 100.3 94.2936 99.9703 94.0283C99.6402 93.7629 99.2195 93.6302 98.7081 93.6302C98.1967 93.6302 97.776 93.7629 97.4459 94.0283C97.1158 94.2936 96.8714 94.6416 96.7129 95.072C96.5543 95.5024 96.475 95.9669 96.475 96.4653C96.475 96.9637 96.5543 97.4265 96.7129 97.8537C96.8714 98.2809 97.1158 98.6256 97.4459 98.8877C97.776 99.1499 98.1967 99.281 98.7081 99.281ZM111.56 90.2125V100.155H110.415V90.2125H111.56ZM118.055 100.31C117.382 100.31 116.791 100.15 116.283 99.8295C115.778 99.5091 115.384 99.0609 115.099 98.4848C114.817 97.9087 114.676 97.2355 114.676 96.4653C114.676 95.6885 114.817 95.0105 115.099 94.4312C115.384 93.8519 115.778 93.402 116.283 93.0816C116.791 92.7612 117.382 92.601 118.055 92.601C118.728 92.601 119.317 92.7612 119.822 93.0816C120.33 93.402 120.725 93.8519 121.007 94.4312C121.292 95.0105 121.434 95.6885 121.434 96.4653C121.434 97.2355 121.292 97.9087 121.007 98.4848C120.725 99.0609 120.33 99.5091 119.822 99.8295C119.317 100.15 118.728 100.31 118.055 100.31ZM118.055 99.281C118.567 99.281 118.987 99.1499 119.317 98.8877C119.647 98.6256 119.892 98.2809 120.05 97.8537C120.209 97.4265 120.288 96.9637 120.288 96.4653C120.288 95.9669 120.209 95.5024 120.05 95.072C119.892 94.6416 119.647 94.2936 119.317 94.0283C118.987 93.7629 118.567 93.6302 118.055 93.6302C117.544 93.6302 117.123 93.7629 116.793 94.0283C116.463 94.2936 116.219 94.6416 116.06 95.072C115.901 95.5024 115.822 95.9669 115.822 96.4653C115.822 96.9637 115.901 97.4265 116.06 97.8537C116.219 98.2809 116.463 98.6256 116.793 98.8877C117.123 99.1499 117.544 99.281 118.055 99.281ZM125.696 95.6691V100.155H124.55V92.6981H125.657V93.8632H125.754C125.929 93.4845 126.194 93.1803 126.55 92.9505C126.906 92.7175 127.366 92.601 127.929 92.601C128.434 92.601 128.875 92.7046 129.254 92.9117C129.633 93.1156 129.927 93.4263 130.138 93.8438C130.348 94.258 130.453 94.7823 130.453 95.4167V100.155H129.307V95.4944C129.307 94.9086 129.155 94.4522 128.851 94.1254C128.547 93.7952 128.129 93.6302 127.599 93.6302C127.233 93.6302 126.906 93.7095 126.618 93.8681C126.333 94.0266 126.108 94.258 125.943 94.5623C125.778 94.8665 125.696 95.2354 125.696 95.6691ZM136.924 103.106C136.37 103.106 135.894 103.035 135.496 102.893C135.098 102.754 134.767 102.569 134.501 102.339C134.239 102.113 134.03 101.87 133.875 101.611L134.788 100.97C134.891 101.106 135.022 101.262 135.181 101.436C135.339 101.614 135.556 101.768 135.831 101.898C136.11 102.03 136.474 102.097 136.924 102.097C137.526 102.097 138.022 101.951 138.414 101.66C138.806 101.368 139.001 100.912 139.001 100.291V98.7761H138.904C138.82 98.912 138.7 99.0803 138.545 99.281C138.393 99.4784 138.173 99.6548 137.885 99.8101C137.6 99.9622 137.215 100.038 136.729 100.038C136.127 100.038 135.587 99.8959 135.108 99.6111C134.632 99.3263 134.255 98.912 133.977 98.3683C133.702 97.8246 133.564 97.1643 133.564 96.3876C133.564 95.6238 133.699 94.9587 133.967 94.3924C134.236 93.8228 134.61 93.3826 135.089 93.0719C135.568 92.758 136.121 92.601 136.749 92.601C137.234 92.601 137.619 92.6819 137.904 92.8437C138.192 93.0023 138.412 93.1836 138.564 93.3875C138.72 93.5881 138.84 93.7532 138.924 93.8826H139.04V92.6981H140.147V100.368C140.147 101.009 140.001 101.53 139.71 101.932C139.422 102.336 139.034 102.632 138.545 102.82C138.06 103.011 137.519 103.106 136.924 103.106ZM136.885 99.0091C137.344 99.0091 137.733 98.9039 138.05 98.6935C138.367 98.4832 138.608 98.1806 138.773 97.7857C138.938 97.3909 139.021 96.9184 139.021 96.3682C139.021 95.8309 138.94 95.3568 138.778 94.9458C138.616 94.5348 138.377 94.2127 138.06 93.9797C137.742 93.7467 137.351 93.6302 136.885 93.6302C136.399 93.6302 135.995 93.7532 135.671 93.9991C135.351 94.2451 135.11 94.5752 134.948 94.9895C134.789 95.4037 134.71 95.8633 134.71 96.3682C134.71 96.886 134.791 97.344 134.953 97.742C135.118 98.1369 135.36 98.4476 135.681 98.6741C136.004 98.8974 136.406 99.0091 136.885 99.0091ZM146.738 100.31C146.019 100.31 145.399 100.152 144.878 99.8344C144.361 99.514 143.961 99.0674 143.679 98.4945C143.401 97.9184 143.262 97.2485 143.262 96.4847C143.262 95.7209 143.401 95.0477 143.679 94.4652C143.961 93.8794 144.352 93.4231 144.854 93.0962C145.359 92.7661 145.948 92.601 146.621 92.601C147.01 92.601 147.393 92.6657 147.772 92.7952C148.15 92.9246 148.495 93.135 148.806 93.4263C149.116 93.7143 149.364 94.0962 149.549 94.572C149.733 95.0477 149.825 95.6335 149.825 96.3293V96.8148H144.077V95.8245H148.66C148.66 95.4037 148.576 95.0283 148.408 94.6982C148.243 94.3681 148.006 94.1076 147.699 93.9166C147.395 93.7257 147.035 93.6302 146.621 93.6302C146.165 93.6302 145.77 93.7435 145.437 93.97C145.107 94.1933 144.852 94.4846 144.674 94.8438C144.496 95.2031 144.407 95.5882 144.407 95.9992V96.6595C144.407 97.2226 144.505 97.7 144.699 98.0916C144.896 98.4799 145.17 98.7761 145.519 98.98C145.869 99.1806 146.275 99.281 146.738 99.281C147.039 99.281 147.311 99.2389 147.553 99.1547C147.799 99.0674 148.011 98.9379 148.189 98.7664C148.367 98.5916 148.505 98.3748 148.602 98.1158L149.709 98.4265C149.592 98.802 149.396 99.1321 149.121 99.4169C148.846 99.6985 148.506 99.9185 148.102 100.077C147.697 100.232 147.243 100.31 146.738 100.31ZM152.935 100.155V92.6981H154.042V93.8244H154.12C154.256 93.4554 154.502 93.1561 154.858 92.9263C155.214 92.6965 155.615 92.5816 156.061 92.5816C156.146 92.5816 156.251 92.5832 156.377 92.5864C156.503 92.5897 156.599 92.5945 156.663 92.601V93.7661C156.625 93.7564 156.536 93.7418 156.396 93.7224C156.261 93.6998 156.116 93.6884 155.964 93.6884C155.602 93.6884 155.278 93.7645 154.993 93.9166C154.712 94.0655 154.489 94.2726 154.324 94.538C154.162 94.8001 154.081 95.0995 154.081 95.4361V100.155H152.935ZM169.882 94.3681L168.853 94.6594C168.788 94.4878 168.693 94.3212 168.567 94.1593C168.444 93.9943 168.275 93.8584 168.062 93.7515C167.848 93.6447 167.575 93.5913 167.241 93.5913C166.785 93.5913 166.405 93.6965 166.101 93.9069C165.8 94.114 165.649 94.3778 165.649 94.6982C165.649 94.983 165.753 95.2079 165.96 95.373C166.167 95.538 166.491 95.6756 166.931 95.7856L168.038 96.0575C168.704 96.2193 169.201 96.4669 169.528 96.8002C169.855 97.1304 170.018 97.5559 170.018 98.077C170.018 98.5042 169.895 98.8861 169.649 99.2227C169.407 99.5593 169.067 99.8247 168.63 100.019C168.193 100.213 167.685 100.31 167.105 100.31C166.345 100.31 165.715 100.145 165.217 99.815C164.719 99.4848 164.403 99.0026 164.27 98.3683L165.358 98.0964C165.461 98.4977 165.657 98.7987 165.945 98.9994C166.236 99.2 166.617 99.3004 167.086 99.3004C167.62 99.3004 168.044 99.1871 168.358 98.9606C168.675 98.7308 168.834 98.4557 168.834 98.1353C168.834 97.8764 168.743 97.6595 168.562 97.4847C168.381 97.3067 168.102 97.1741 167.727 97.0867L166.484 96.7954C165.801 96.6336 165.3 96.3828 164.979 96.0429C164.662 95.6999 164.503 95.271 164.503 94.7565C164.503 94.3357 164.622 93.9635 164.858 93.6399C165.097 93.3163 165.423 93.0622 165.834 92.8777C166.248 92.6932 166.717 92.601 167.241 92.601C167.979 92.601 168.559 92.7628 168.979 93.0865C169.403 93.4101 169.704 93.8373 169.882 94.3681ZM177.809 97.1061V92.6981H178.955V100.155H177.809V98.8926H177.731C177.557 99.2712 177.285 99.5933 176.916 99.8587C176.547 100.121 176.081 100.252 175.518 100.252C175.052 100.252 174.637 100.15 174.275 99.946C173.913 99.7389 173.628 99.4282 173.421 99.014C173.213 98.5965 173.11 98.0705 173.11 97.4362V92.6981H174.256V97.3585C174.256 97.9022 174.408 98.3359 174.712 98.6596C175.019 98.9832 175.411 99.145 175.887 99.145C176.172 99.145 176.461 99.0722 176.756 98.9266C177.053 98.7809 177.303 98.5576 177.503 98.2566C177.707 97.9556 177.809 97.5721 177.809 97.1061ZM182.42 102.951V92.6981H183.527V93.8826H183.663C183.747 93.7532 183.864 93.5881 184.013 93.3875C184.165 93.1836 184.382 93.0023 184.663 92.8437C184.948 92.6819 185.333 92.601 185.819 92.601C186.446 92.601 187 92.758 187.479 93.0719C187.958 93.3858 188.332 93.8308 188.6 94.4069C188.869 94.983 189.003 95.6626 189.003 96.4459C189.003 97.2355 188.869 97.92 188.6 98.4994C188.332 99.0754 187.959 99.5221 187.484 99.8392C187.008 100.153 186.459 100.31 185.838 100.31C185.359 100.31 184.975 100.231 184.687 100.072C184.399 99.9104 184.178 99.7276 184.022 99.5237C183.867 99.3166 183.747 99.145 183.663 99.0091H183.566V102.951H182.42ZM183.547 96.4264C183.547 96.9896 183.629 97.4864 183.794 97.9168C183.959 98.344 184.2 98.679 184.518 98.9217C184.835 99.1612 185.223 99.281 185.683 99.281C186.162 99.281 186.561 99.1547 186.882 98.9023C187.205 98.6466 187.448 98.3036 187.61 97.8731C187.775 97.4394 187.857 96.9572 187.857 96.4264C187.857 95.9021 187.777 95.4296 187.615 95.0089C187.456 94.5849 187.215 94.25 186.891 94.004C186.571 93.7548 186.168 93.6302 185.683 93.6302C185.217 93.6302 184.825 93.7483 184.508 93.9846C184.191 94.2176 183.951 94.5445 183.789 94.9652C183.628 95.3827 183.547 95.8698 183.547 96.4264ZM192.118 102.951V92.6981H193.225V93.8826H193.361C193.445 93.7532 193.561 93.5881 193.71 93.3875C193.862 93.1836 194.079 93.0023 194.361 92.8437C194.646 92.6819 195.031 92.601 195.516 92.601C196.144 92.601 196.697 92.758 197.176 93.0719C197.655 93.3858 198.029 93.8308 198.298 94.4069C198.566 94.983 198.701 95.6626 198.701 96.4459C198.701 97.2355 198.566 97.92 198.298 98.4994C198.029 99.0754 197.657 99.5221 197.181 99.8392C196.706 100.153 196.157 100.31 195.536 100.31C195.057 100.31 194.673 100.231 194.385 100.072C194.097 99.9104 193.875 99.7276 193.72 99.5237C193.565 99.3166 193.445 99.145 193.361 99.0091H193.264V102.951H192.118ZM193.244 96.4264C193.244 96.9896 193.327 97.4864 193.492 97.9168C193.657 98.344 193.898 98.679 194.215 98.9217C194.532 99.1612 194.921 99.281 195.38 99.281C195.859 99.281 196.259 99.1547 196.579 98.9023C196.903 98.6466 197.146 98.3036 197.307 97.8731C197.473 97.4394 197.555 96.9572 197.555 96.4264C197.555 95.9021 197.474 95.4296 197.312 95.0089C197.154 94.5849 196.913 94.25 196.589 94.004C196.269 93.7548 195.866 93.6302 195.38 93.6302C194.914 93.6302 194.523 93.7483 194.205 93.9846C193.888 94.2176 193.649 94.5445 193.487 94.9652C193.325 95.3827 193.244 95.8698 193.244 96.4264ZM204.845 100.31C204.172 100.31 203.581 100.15 203.073 99.8295C202.568 99.5091 202.173 99.0609 201.888 98.4848C201.607 97.9087 201.466 97.2355 201.466 96.4653C201.466 95.6885 201.607 95.0105 201.888 94.4312C202.173 93.8519 202.568 93.402 203.073 93.0816C203.581 92.7612 204.172 92.601 204.845 92.601C205.518 92.601 206.107 92.7612 206.612 93.0816C207.12 93.402 207.515 93.8519 207.796 94.4312C208.081 95.0105 208.224 95.6885 208.224 96.4653C208.224 97.2355 208.081 97.9087 207.796 98.4848C207.515 99.0609 207.12 99.5091 206.612 99.8295C206.107 100.15 205.518 100.31 204.845 100.31ZM204.845 99.281C205.356 99.281 205.777 99.1499 206.107 98.8877C206.437 98.6256 206.681 98.2809 206.84 97.8537C206.999 97.4265 207.078 96.9637 207.078 96.4653C207.078 95.9669 206.999 95.5024 206.84 95.072C206.681 94.6416 206.437 94.2936 206.107 94.0283C205.777 93.7629 205.356 93.6302 204.845 93.6302C204.333 93.6302 203.913 93.7629 203.583 94.0283C203.252 94.2936 203.008 94.6416 202.85 95.072C202.691 95.5024 202.612 95.9669 202.612 96.4653C202.612 96.9637 202.691 97.4265 202.85 97.8537C203.008 98.2809 203.252 98.6256 203.583 98.8877C203.913 99.1499 204.333 99.281 204.845 99.281ZM211.339 100.155V92.6981H212.446V93.8244H212.524C212.66 93.4554 212.906 93.1561 213.262 92.9263C213.618 92.6965 214.019 92.5816 214.466 92.5816C214.55 92.5816 214.655 92.5832 214.781 92.5864C214.908 92.5897 215.003 92.5945 215.068 92.601V93.7661C215.029 93.7564 214.94 93.7418 214.801 93.7224C214.665 93.6998 214.521 93.6884 214.369 93.6884C214.006 93.6884 213.683 93.7645 213.398 93.9166C213.116 94.0655 212.893 94.2726 212.728 94.538C212.566 94.8001 212.485 95.0995 212.485 95.4361V100.155H211.339ZM221.503 92.6981V93.669H217.639V92.6981H221.503ZM218.765 90.9116H219.911V98.0188C219.911 98.3424 219.958 98.5851 220.052 98.7469C220.149 98.9055 220.272 99.0123 220.421 99.0674C220.573 99.1191 220.733 99.145 220.901 99.145C221.027 99.145 221.131 99.1386 221.212 99.1256C221.293 99.1094 221.357 99.0965 221.406 99.0868L221.639 100.116C221.561 100.145 221.453 100.174 221.314 100.203C221.175 100.236 220.998 100.252 220.785 100.252C220.461 100.252 220.144 100.182 219.833 100.043C219.526 99.904 219.27 99.692 219.066 99.4072C218.865 99.1224 218.765 98.7631 218.765 98.3295V90.9116ZM227.64 100.31C226.921 100.31 226.302 100.152 225.781 99.8344C225.263 99.514 224.863 99.0674 224.581 98.4945C224.303 97.9184 224.164 97.2485 224.164 96.4847C224.164 95.7209 224.303 95.0477 224.581 94.4652C224.863 93.8794 225.255 93.4231 225.756 93.0962C226.261 92.7661 226.85 92.601 227.523 92.601C227.912 92.601 228.295 92.6657 228.674 92.7952C229.053 92.9246 229.397 93.135 229.708 93.4263C230.019 93.7143 230.266 94.0962 230.451 94.572C230.635 95.0477 230.727 95.6335 230.727 96.3293V96.8148H224.98V95.8245H229.562C229.562 95.4037 229.478 95.0283 229.31 94.6982C229.145 94.3681 228.909 94.1076 228.601 93.9166C228.297 93.7257 227.938 93.6302 227.523 93.6302C227.067 93.6302 226.672 93.7435 226.339 93.97C226.009 94.1933 225.755 94.4846 225.577 94.8438C225.399 95.2031 225.31 95.5882 225.31 95.9992V96.6595C225.31 97.2226 225.407 97.7 225.601 98.0916C225.798 98.4799 226.072 98.7761 226.421 98.98C226.771 99.1806 227.177 99.281 227.64 99.281C227.941 99.281 228.213 99.2389 228.455 99.1547C228.701 99.0674 228.913 98.9379 229.091 98.7664C229.269 98.5916 229.407 98.3748 229.504 98.1158L230.611 98.4265C230.494 98.802 230.299 99.1321 230.023 99.4169C229.748 99.6985 229.409 99.9185 229.004 100.077C228.599 100.232 228.145 100.31 227.64 100.31ZM236.653 100.31C236.032 100.31 235.483 100.153 235.007 99.8392C234.531 99.5221 234.159 99.0754 233.891 98.4994C233.622 97.92 233.488 97.2355 233.488 96.4459C233.488 95.6626 233.622 94.983 233.891 94.4069C234.159 93.8308 234.533 93.3858 235.012 93.0719C235.491 92.758 236.044 92.601 236.672 92.601C237.158 92.601 237.541 92.6819 237.823 92.8437C238.108 93.0023 238.325 93.1836 238.473 93.3875C238.625 93.5881 238.744 93.7532 238.828 93.8826H238.925V90.2125H240.071V100.155H238.964V99.0091H238.828C238.744 99.145 238.624 99.3166 238.469 99.5237C238.313 99.7276 238.091 99.9104 237.803 100.072C237.515 100.231 237.132 100.31 236.653 100.31ZM236.808 99.281C237.268 99.281 237.656 99.1612 237.973 98.9217C238.291 98.679 238.532 98.344 238.697 97.9168C238.862 97.4864 238.944 96.9896 238.944 96.4264C238.944 95.8698 238.863 95.3827 238.702 94.9652C238.54 94.5445 238.3 94.2176 237.983 93.9846C237.666 93.7483 237.274 93.6302 236.808 93.6302C236.323 93.6302 235.918 93.7548 235.595 94.004C235.274 94.25 235.033 94.5849 234.871 95.0089C234.713 95.4296 234.633 95.9021 234.633 96.4264C234.633 96.9572 234.714 97.4394 234.876 97.8731C235.041 98.3036 235.284 98.6466 235.604 98.9023C235.928 99.1547 236.329 99.281 236.808 99.281ZM249.062 100.155V90.2125H250.208V93.8826H250.305C250.389 93.7532 250.506 93.5881 250.655 93.3875C250.807 93.1836 251.024 93.0023 251.305 92.8437C251.59 92.6819 251.975 92.601 252.461 92.601C253.088 92.601 253.642 92.758 254.121 93.0719C254.6 93.3858 254.974 93.8308 255.242 94.4069C255.511 94.983 255.645 95.6626 255.645 96.4459C255.645 97.2355 255.511 97.92 255.242 98.4994C254.974 99.0754 254.601 99.5221 254.126 99.8392C253.65 100.153 253.101 100.31 252.48 100.31C252.001 100.31 251.617 100.231 251.329 100.072C251.041 99.9104 250.82 99.7276 250.664 99.5237C250.509 99.3166 250.389 99.145 250.305 99.0091H250.169V100.155H249.062ZM250.189 96.4264C250.189 96.9896 250.271 97.4864 250.436 97.9168C250.601 98.344 250.842 98.679 251.159 98.9217C251.477 99.1612 251.865 99.281 252.325 99.281C252.804 99.281 253.203 99.1547 253.524 98.9023C253.847 98.6466 254.09 98.3036 254.252 97.8731C254.417 97.4394 254.499 96.9572 254.499 96.4264C254.499 95.9021 254.419 95.4296 254.257 95.0089C254.098 94.5849 253.857 94.25 253.533 94.004C253.213 93.7548 252.81 93.6302 252.325 93.6302C251.859 93.6302 251.467 93.7483 251.15 93.9846C250.833 94.2176 250.593 94.5445 250.431 94.9652C250.269 95.3827 250.189 95.8698 250.189 96.4264ZM259.236 102.951C259.041 102.951 258.868 102.935 258.716 102.902C258.564 102.873 258.459 102.844 258.401 102.815L258.692 101.805C258.97 101.877 259.216 101.902 259.43 101.883C259.643 101.864 259.833 101.768 259.998 101.597C260.166 101.428 260.32 101.155 260.459 100.776L260.673 100.194L257.915 92.6981H259.158L261.216 98.6401H261.294L263.352 92.6981H264.595L261.43 101.242C261.287 101.627 261.111 101.946 260.901 102.199C260.69 102.454 260.446 102.644 260.168 102.767C259.893 102.89 259.582 102.951 259.236 102.951ZM120.769 112.698V113.669H116.905V112.698H120.769ZM118.031 110.912H119.177V118.019C119.177 118.342 119.224 118.585 119.318 118.747C119.415 118.906 119.538 119.012 119.687 119.067C119.839 119.119 119.999 119.145 120.167 119.145C120.294 119.145 120.397 119.139 120.478 119.126C120.559 119.109 120.624 119.096 120.672 119.087L120.905 120.116C120.828 120.145 120.719 120.174 120.58 120.203C120.441 120.236 120.264 120.252 120.051 120.252C119.727 120.252 119.41 120.182 119.099 120.043C118.792 119.904 118.536 119.692 118.332 119.407C118.132 119.122 118.031 118.763 118.031 118.329V110.912ZM125.166 115.669V120.155H124.02V110.213H125.166V113.863H125.263C125.437 113.478 125.7 113.172 126.049 112.946C126.402 112.716 126.871 112.601 127.457 112.601C127.965 112.601 128.41 112.703 128.792 112.907C129.174 113.108 129.47 113.417 129.68 113.834C129.894 114.248 130.001 114.776 130.001 115.417V120.155H128.855V115.494C128.855 114.902 128.701 114.444 128.394 114.121C128.09 113.794 127.667 113.63 127.127 113.63C126.751 113.63 126.415 113.709 126.117 113.868C125.823 114.027 125.59 114.258 125.418 114.562C125.25 114.866 125.166 115.235 125.166 115.669ZM133.464 120.155V112.698H134.61V120.155H133.464ZM134.046 111.455C133.823 111.455 133.631 111.379 133.469 111.227C133.31 111.075 133.231 110.892 133.231 110.679C133.231 110.465 133.31 110.282 133.469 110.13C133.631 109.978 133.823 109.902 134.046 109.902C134.27 109.902 134.461 109.978 134.619 110.13C134.781 110.282 134.862 110.465 134.862 110.679C134.862 110.892 134.781 111.075 134.619 111.227C134.461 111.379 134.27 111.455 134.046 111.455ZM143.357 114.368L142.328 114.659C142.263 114.488 142.167 114.321 142.041 114.159C141.918 113.994 141.75 113.858 141.536 113.752C141.323 113.645 141.049 113.591 140.716 113.591C140.26 113.591 139.879 113.697 139.575 113.907C139.274 114.114 139.124 114.378 139.124 114.698C139.124 114.983 139.227 115.208 139.434 115.373C139.641 115.538 139.965 115.676 140.405 115.786L141.512 116.057C142.179 116.219 142.676 116.467 143.002 116.8C143.329 117.13 143.493 117.556 143.493 118.077C143.493 118.504 143.37 118.886 143.124 119.223C142.881 119.559 142.541 119.825 142.104 120.019C141.667 120.213 141.159 120.31 140.58 120.31C139.819 120.31 139.19 120.145 138.692 119.815C138.193 119.485 137.878 119.003 137.745 118.368L138.832 118.096C138.936 118.498 139.132 118.799 139.42 118.999C139.711 119.2 140.091 119.3 140.561 119.3C141.095 119.3 141.519 119.187 141.832 118.961C142.15 118.731 142.308 118.456 142.308 118.135C142.308 117.876 142.218 117.66 142.036 117.485C141.855 117.307 141.577 117.174 141.201 117.087L139.959 116.795C139.276 116.634 138.774 116.383 138.454 116.043C138.137 115.7 137.978 115.271 137.978 114.756C137.978 114.336 138.096 113.964 138.332 113.64C138.572 113.316 138.897 113.062 139.308 112.878C139.722 112.693 140.192 112.601 140.716 112.601C141.454 112.601 142.033 112.763 142.454 113.086C142.878 113.41 143.179 113.837 143.357 114.368ZM154.612 120.31C153.991 120.31 153.442 120.153 152.966 119.839C152.491 119.522 152.118 119.075 151.85 118.499C151.581 117.92 151.447 117.236 151.447 116.446C151.447 115.663 151.581 114.983 151.85 114.407C152.118 113.831 152.492 113.386 152.971 113.072C153.45 112.758 154.004 112.601 154.631 112.601C155.117 112.601 155.5 112.682 155.782 112.844C156.067 113.002 156.284 113.184 156.432 113.387C156.585 113.588 156.703 113.753 156.787 113.883H156.884V110.213H158.03V120.155H156.923V119.009H156.787C156.703 119.145 156.583 119.317 156.428 119.524C156.272 119.728 156.051 119.91 155.763 120.072C155.475 120.231 155.091 120.31 154.612 120.31ZM154.767 119.281C155.227 119.281 155.615 119.161 155.932 118.922C156.25 118.679 156.491 118.344 156.656 117.917C156.821 117.486 156.903 116.99 156.903 116.426C156.903 115.87 156.822 115.383 156.661 114.965C156.499 114.544 156.259 114.218 155.942 113.985C155.625 113.748 155.233 113.63 154.767 113.63C154.282 113.63 153.877 113.755 153.554 114.004C153.233 114.25 152.992 114.585 152.83 115.009C152.672 115.43 152.592 115.902 152.592 116.426C152.592 116.957 152.673 117.439 152.835 117.873C153 118.304 153.243 118.647 153.563 118.902C153.887 119.155 154.288 119.281 154.767 119.281ZM164.78 120.31C164.062 120.31 163.442 120.152 162.921 119.834C162.403 119.514 162.004 119.067 161.722 118.495C161.444 117.918 161.305 117.248 161.305 116.485C161.305 115.721 161.444 115.048 161.722 114.465C162.004 113.879 162.395 113.423 162.897 113.096C163.402 112.766 163.991 112.601 164.664 112.601C165.052 112.601 165.436 112.666 165.815 112.795C166.193 112.925 166.538 113.135 166.849 113.426C167.159 113.714 167.407 114.096 167.591 114.572C167.776 115.048 167.868 115.634 167.868 116.329V116.815H162.12V115.824H166.703C166.703 115.404 166.619 115.028 166.45 114.698C166.285 114.368 166.049 114.108 165.742 113.917C165.437 113.726 165.078 113.63 164.664 113.63C164.208 113.63 163.813 113.743 163.479 113.97C163.149 114.193 162.895 114.485 162.717 114.844C162.539 115.203 162.45 115.588 162.45 115.999V116.659C162.45 117.223 162.547 117.7 162.742 118.092C162.939 118.48 163.212 118.776 163.562 118.98C163.912 119.181 164.318 119.281 164.78 119.281C165.081 119.281 165.353 119.239 165.596 119.155C165.842 119.067 166.054 118.938 166.232 118.766C166.41 118.592 166.548 118.375 166.645 118.116L167.752 118.427C167.635 118.802 167.439 119.132 167.164 119.417C166.889 119.698 166.549 119.919 166.145 120.077C165.74 120.232 165.285 120.31 164.78 120.31ZM176.848 112.698L174.091 120.155H172.926L170.168 112.698H171.411L173.47 118.64H173.547L175.606 112.698H176.848ZM179.728 120.155V112.698H180.873V120.155H179.728ZM180.31 111.455C180.087 111.455 179.894 111.379 179.732 111.227C179.574 111.075 179.495 110.892 179.495 110.679C179.495 110.465 179.574 110.282 179.732 110.13C179.894 109.978 180.087 109.902 180.31 109.902C180.533 109.902 180.724 109.978 180.883 110.13C181.045 110.282 181.126 110.465 181.126 110.679C181.126 110.892 181.045 111.075 180.883 111.227C180.724 111.379 180.533 111.455 180.31 111.455ZM187.368 120.31C186.669 120.31 186.067 120.145 185.562 119.815C185.057 119.485 184.669 119.03 184.397 118.451C184.125 117.871 183.989 117.21 183.989 116.465C183.989 115.708 184.128 115.04 184.407 114.46C184.688 113.878 185.08 113.423 185.582 113.096C186.086 112.766 186.675 112.601 187.349 112.601C187.873 112.601 188.345 112.698 188.766 112.892C189.187 113.086 189.532 113.358 189.8 113.708C190.069 114.057 190.235 114.465 190.3 114.931H189.155C189.067 114.591 188.873 114.29 188.572 114.028C188.274 113.763 187.873 113.63 187.368 113.63C186.921 113.63 186.53 113.747 186.193 113.98C185.86 114.21 185.599 114.535 185.412 114.955C185.227 115.373 185.135 115.863 185.135 116.426C185.135 117.003 185.226 117.504 185.407 117.931C185.591 118.359 185.85 118.69 186.184 118.927C186.52 119.163 186.915 119.281 187.368 119.281C187.666 119.281 187.936 119.229 188.179 119.126C188.421 119.022 188.627 118.873 188.795 118.679C188.964 118.485 189.083 118.252 189.155 117.98H190.3C190.235 118.42 190.075 118.817 189.82 119.169C189.567 119.519 189.232 119.797 188.815 120.004C188.4 120.208 187.918 120.31 187.368 120.31ZM196.468 120.31C195.75 120.31 195.13 120.152 194.609 119.834C194.091 119.514 193.692 119.067 193.41 118.495C193.132 117.918 192.993 117.248 192.993 116.485C192.993 115.721 193.132 115.048 193.41 114.465C193.692 113.879 194.083 113.423 194.585 113.096C195.09 112.766 195.679 112.601 196.352 112.601C196.74 112.601 197.124 112.666 197.503 112.795C197.881 112.925 198.226 113.135 198.537 113.426C198.847 113.714 199.095 114.096 199.279 114.572C199.464 115.048 199.556 115.634 199.556 116.329V116.815H193.808V115.824H198.391C198.391 115.404 198.307 115.028 198.138 114.698C197.973 114.368 197.737 114.108 197.43 113.917C197.125 113.726 196.766 113.63 196.352 113.63C195.896 113.63 195.501 113.743 195.167 113.97C194.837 114.193 194.583 114.485 194.405 114.844C194.227 115.203 194.138 115.588 194.138 115.999V116.659C194.138 117.223 194.235 117.7 194.43 118.092C194.627 118.48 194.9 118.776 195.25 118.98C195.6 119.181 196.006 119.281 196.468 119.281C196.769 119.281 197.041 119.239 197.284 119.155C197.53 119.067 197.742 118.938 197.92 118.766C198.098 118.592 198.236 118.375 198.333 118.116L199.44 118.427C199.323 118.802 199.127 119.132 198.852 119.417C198.577 119.698 198.237 119.919 197.833 120.077C197.428 120.232 196.973 120.31 196.468 120.31ZM203.501 120.232C203.261 120.232 203.056 120.147 202.884 119.975C202.713 119.804 202.627 119.598 202.627 119.359C202.627 119.119 202.713 118.914 202.884 118.742C203.056 118.571 203.261 118.485 203.501 118.485C203.74 118.485 203.946 118.571 204.117 118.742C204.289 118.914 204.375 119.119 204.375 119.359C204.375 119.517 204.334 119.663 204.253 119.796C204.176 119.928 204.07 120.035 203.938 120.116C203.808 120.194 203.663 120.232 203.501 120.232Z" fill="black"/>
<mask id="path-4-inside-1_3990_98721" fill="white">
<path d="M6.98633 140.597H306.253V180.184C306.253 188.009 299.908 194.354 292.083 194.354H21.1597C13.3319 194.354 6.98633 188.008 6.98633 180.18V140.597Z"/>
</mask>
<path d="M6.98633 140.597H306.253V180.184C306.253 188.009 299.908 194.354 292.083 194.354H21.1597C13.3319 194.354 6.98633 188.008 6.98633 180.18V140.597Z" fill="white"/>
<path d="M155.727 166.877C155.727 168.084 155.501 169.117 155.049 169.977C154.601 170.833 153.989 171.489 153.212 171.945C152.44 172.4 151.563 172.628 150.583 172.628C149.603 172.628 148.724 172.4 147.948 171.945C147.176 171.486 146.563 170.828 146.111 169.971C145.663 169.111 145.439 168.08 145.439 166.877C145.439 165.671 145.663 164.64 146.111 163.783C146.563 162.923 147.176 162.266 147.948 161.81C148.724 161.355 149.603 161.127 150.583 161.127C151.563 161.127 152.44 161.355 153.212 161.81C153.989 162.266 154.601 162.923 155.049 163.783C155.501 164.64 155.727 165.671 155.727 166.877ZM153.688 166.877C153.688 166.028 153.555 165.312 153.289 164.729C153.027 164.142 152.662 163.7 152.196 163.401C151.729 163.098 151.192 162.947 150.583 162.947C149.974 162.947 149.437 163.098 148.97 163.401C148.504 163.7 148.138 164.142 147.872 164.729C147.609 165.312 147.478 166.028 147.478 166.877C147.478 167.727 147.609 168.445 147.872 169.031C148.138 169.614 148.504 170.057 148.97 170.36C149.437 170.658 149.974 170.808 150.583 170.808C151.192 170.808 151.729 170.658 152.196 170.36C152.662 170.057 153.027 169.614 153.289 169.031C153.555 168.445 153.688 167.727 153.688 166.877ZM158.414 172.475V161.28H160.442V166.424H160.579L164.946 161.28H167.423L163.093 166.303L167.461 172.475H165.023L161.683 167.676L160.442 169.141V172.475H158.414Z" fill="#4591F6"/>
<path d="M6.98633 139.888H306.253V141.305H6.98633V139.888ZM306.253 194.354H6.98633H306.253ZM6.98633 194.354V140.597V194.354ZM306.253 140.597V194.354V140.597Z" fill="#8A90A5" mask="url(#path-4-inside-1_3990_98721)"/>
</g>
<defs>
<filter id="filter0_ddd_3990_98721" x="0.151032" y="0.733908" width="314.106" height="210.549" filterUnits="userSpaceOnUse" color-interpolation-filters="sRGB">
<feFlood flood-opacity="0" result="BackgroundImageFix"/>
<feColorMatrix in="SourceAlpha" type="matrix" values="0 0 0 0 0 0 0 0 0 0 0 0 0 0 0 0 0 0 127 0" result="hardAlpha"/>
<feMorphology radius="2.27843" operator="erode" in="SourceAlpha" result="effect1_dropShadow_3990_98721"/>
<feOffset dy="2.27843"/>
<feGaussianBlur stdDeviation="2.27843"/>
<feColorMatrix type="matrix" values="0 0 0 0 0 0 0 0 0 0 0 0 0 0 0 0 0 0 0.06 0"/>
<feBlend mode="normal" in2="BackgroundImageFix" result="effect1_dropShadow_3990_98721"/>
<feColorMatrix in="SourceAlpha" type="matrix" values="0 0 0 0 0 0 0 0 0 0 0 0 0 0 0 0 0 0 127 0" result="hardAlpha"/>
<feMorphology radius="2.27843" operator="erode" in="SourceAlpha" result="effect2_dropShadow_3990_98721"/>
<feOffset dy="4.55686"/>
<feGaussianBlur stdDeviation="4.55686"/>
<feColorMatrix type="matrix" values="0 0 0 0 0 0 0 0 0 0 0 0 0 0 0 0 0 0 0.1 0"/>
<feBlend mode="normal" in2="effect1_dropShadow_3990_98721" result="effect2_dropShadow_3990_98721"/>
<feColorMatrix in="SourceAlpha" type="matrix" values="0 0 0 0 0 0 0 0 0 0 0 0 0 0 0 0 0 0 127 0" result="hardAlpha"/>
<feOffset/>
<feGaussianBlur stdDeviation="2.27843"/>
<feComposite in2="hardAlpha" operator="out"/>
<feColorMatrix type="matrix" values="0 0 0 0 0 0 0 0 0 0 0 0 0 0 0 0 0 0 0.08 0"/>
<feBlend mode="normal" in2="effect2_dropShadow_3990_98721" result="effect3_dropShadow_3990_98721"/>
<feBlend mode="normal" in="SourceGraphic" in2="effect3_dropShadow_3990_98721" result="shape"/>
</filter>
</defs>
</svg>
