<svg width="658" height="285" viewBox="0 0 658 285" fill="none" xmlns="http://www.w3.org/2000/svg">
<mask id="mask0_6708_74038" style="mask-type:alpha" maskUnits="userSpaceOnUse" x="0" y="0" width="658" height="285">
<path d="M0 8.45785C0 4.2829 3.38447 0.898438 7.55942 0.898438H650.441C654.616 0.898438 658 4.28291 658 8.45786V276.817C658 280.992 654.616 284.377 650.441 284.377H7.55943C3.38448 284.377 0 280.992 0 276.817V8.45785Z" fill="#D9D9D9"/>
</mask>
<g mask="url(#mask0_6708_74038)">
<rect x="-10.0918" y="-12.1016" width="668.092" height="296" fill="url(#paint0_linear_6708_74038)"/>
<path d="M542.99 79.3018L580.903 60.6774L552.388 58.9264L542.99 79.3018Z" fill="#B1C5FF"/>
<path d="M580.903 60.6774L561.786 38.5511L552.388 58.9264L580.903 60.6774Z" fill="#89A9FC"/>
<path d="M466.522 156.983L454.312 156.028V179.746L468.61 181.179C470.163 187.44 477.928 200.44 496.563 202.35C515.198 204.26 525.426 191.685 528.21 185.158L542.99 186.432V162.554L528.21 160.803C525.104 153.109 514.427 137.594 496.563 137.085C478.699 136.576 469.092 150.138 466.522 156.983Z" fill="#B1C5FF"/>
<path d="M561.786 38.5511L473.751 32.1838L454.312 71.9794L542.99 79.3018L552.388 58.9264L561.786 38.5511Z" fill="#DAE2FF"/>
<path fill-rule="evenodd" clip-rule="evenodd" d="M561.786 38.5511V27.4083L473.751 20.4043V32.1838L561.786 38.5511ZM454.312 71.9794L542.99 79.3018V162.554L528.21 160.803C525.104 153.109 514.427 137.594 496.563 137.085C478.699 136.576 469.092 150.138 466.522 156.983L454.312 156.028V71.9794ZM542.99 186.432L528.21 185.158C525.426 191.685 515.198 204.26 496.563 202.35C477.928 200.44 470.163 187.44 468.61 181.179L454.312 179.746V251.855L542.99 259.496V186.432Z" fill="#DAE2FF"/>
<path d="M580.903 60.6774L542.99 79.3018V162.554V186.432V259.496L580.903 240.076V60.6774Z" fill="#B1C5FF"/>
<path d="M473.751 32.1838L561.786 38.5511M473.751 32.1838V20.4043L561.786 27.4083V38.5511M473.751 32.1838L454.312 71.9794M561.786 38.5511L580.903 60.6774M561.786 38.5511L552.388 58.9264M454.312 71.9794L542.99 79.3018M454.312 71.9794V156.028M542.99 79.3018L580.903 60.6774M542.99 79.3018L552.388 58.9264M542.99 79.3018V162.554M580.903 60.6774V240.076L542.99 259.496M580.903 60.6774L552.388 58.9264M542.99 259.496L454.312 251.855V179.746M542.99 259.496V186.432M454.312 156.028L466.522 156.983C469.092 150.138 478.699 136.576 496.563 137.085C514.427 137.594 525.104 153.109 528.21 160.803L542.99 162.554M454.312 156.028V179.746M542.99 162.554V186.432M542.99 186.432L528.21 185.158C525.426 191.685 515.198 204.26 496.563 202.35C477.928 200.44 470.163 187.44 468.61 181.179L454.312 179.746" stroke="white" stroke-width="0.508984"/>
<path d="M464.275 114.994C462.09 114.994 461.651 112.659 461.704 111.492V89.6842C461.704 87.9332 462.508 87.6148 464.275 87.2964C465.688 87.0417 466.899 88.2515 467.327 88.8882L474.556 100.031C476.484 97.1657 480.564 91.1486 481.464 90.0025C482.589 88.5699 482.91 88.729 485.159 88.8882C486.958 89.0156 487.087 90.6392 486.926 91.4351V114.198C486.926 116.108 485.962 116.268 483.713 116.268C481.914 116.268 481.464 114.888 481.464 114.198V100.031C480.339 101.623 477.769 105.284 476.484 107.194C476.056 107.831 475.841 108.627 474.556 108.627C473.432 108.627 472.95 108.308 472.307 107.194L467.327 99.0759C467.381 102.419 467.456 109.582 467.327 111.492C467.166 113.88 467.006 114.994 464.275 114.994Z" fill="#6E8EDF"/>
<path d="M493.191 117.064C491.392 117.191 490.728 115.525 490.621 114.676C490.674 107.3 490.782 92.3903 490.782 91.7535C490.782 90.9576 491.263 89.2066 493.673 89.3658C495.601 89.4931 496.083 91.0107 496.083 91.7535V114.676C496.083 116.108 495.44 116.904 493.191 117.064Z" fill="#6E8EDF"/>
<path d="M502.188 90.1617C500.517 90.0344 499.885 91.4882 499.778 92.2311V114.676C499.778 117.223 501.17 117.859 501.866 117.859C505.989 118.125 514.332 118.655 514.718 118.655C515.2 118.655 516.485 118.655 516.646 115.79C516.774 113.498 515.307 112.925 514.557 112.925L505.4 112.447C505.4 106.133 505.368 93.1543 505.24 91.7535C505.079 90.0025 504.276 90.3209 502.188 90.1617Z" fill="#6E8EDF"/>
<path d="M522.108 91.4352C520.051 91.4352 519.645 93.1331 519.698 93.9821C519.591 100.455 519.409 113.88 519.537 115.79C519.698 118.178 520.341 118.815 522.59 119.133C524.389 119.388 525.053 117.859 525.16 117.064V108.945C527.141 111.704 531.297 117.477 532.068 118.496C533.032 119.77 534.638 120.247 536.566 119.133C538.108 118.241 537.423 116.321 536.887 115.472L529.658 105.921C531.693 103.586 536.052 98.5984 537.209 97.3249C538.365 96.0515 537.209 93.9821 536.405 93.3454C534.913 92.1627 532.925 92.8147 532.389 93.6637L525.16 102.419V93.3454C525.16 92.3903 524.678 91.4352 522.108 91.4352Z" fill="#6E8EDF"/>
<path d="M464.275 114.994C462.09 114.994 461.651 112.659 461.704 111.492V89.6842C461.704 87.9332 462.508 87.6148 464.275 87.2964C465.688 87.0417 466.899 88.2515 467.327 88.8882L474.556 100.031C476.484 97.1657 480.564 91.1486 481.464 90.0025C482.589 88.5699 482.91 88.729 485.159 88.8882C486.958 89.0156 487.087 90.6392 486.926 91.4351V114.198C486.926 116.108 485.962 116.268 483.713 116.268C481.914 116.268 481.464 114.888 481.464 114.198V100.031C480.339 101.623 477.769 105.284 476.484 107.194C476.056 107.831 475.841 108.627 474.556 108.627C473.432 108.627 472.95 108.308 472.307 107.194L467.327 99.0759C467.381 102.419 467.456 109.582 467.327 111.492C467.166 113.88 467.006 114.994 464.275 114.994Z" stroke="white" stroke-width="0.508984"/>
<path d="M493.191 117.064C491.392 117.191 490.728 115.525 490.621 114.676C490.674 107.3 490.782 92.3903 490.782 91.7535C490.782 90.9576 491.263 89.2066 493.673 89.3658C495.601 89.4931 496.083 91.0107 496.083 91.7535V114.676C496.083 116.108 495.44 116.904 493.191 117.064Z" stroke="white" stroke-width="0.508984"/>
<path d="M502.188 90.1617C500.517 90.0344 499.885 91.4882 499.778 92.2311V114.676C499.778 117.223 501.17 117.859 501.866 117.859C505.989 118.125 514.332 118.655 514.718 118.655C515.2 118.655 516.485 118.655 516.646 115.79C516.774 113.498 515.307 112.925 514.557 112.925L505.4 112.447C505.4 106.133 505.368 93.1543 505.24 91.7535C505.079 90.0025 504.276 90.3209 502.188 90.1617Z" stroke="white" stroke-width="0.508984"/>
<path d="M522.108 91.4352C520.051 91.4352 519.645 93.1331 519.698 93.9821C519.591 100.455 519.409 113.88 519.537 115.79C519.698 118.178 520.341 118.815 522.59 119.133C524.389 119.388 525.053 117.859 525.16 117.064V108.945C527.141 111.704 531.297 117.477 532.068 118.496C533.032 119.77 534.638 120.247 536.566 119.133C538.108 118.241 537.423 116.321 536.887 115.472L529.658 105.921C531.693 103.586 536.052 98.5984 537.209 97.3249C538.365 96.0515 537.209 93.9821 536.405 93.3454C534.913 92.1627 532.925 92.8147 532.389 93.6637L525.16 102.419V93.3454C525.16 92.3903 524.678 91.4352 522.108 91.4352Z" stroke="white" stroke-width="0.508984"/>
<path fill-rule="evenodd" clip-rule="evenodd" d="M480.094 175.432C482.617 171.879 487.343 168.686 495.439 168.686C497.058 168.686 498.537 168.785 499.887 168.965C495.439 164.645 498.861 160.245 499.887 159.491C500.914 158.737 503.613 158.511 502.016 156.137C500.739 154.238 501.966 152.799 502.739 152.318C500.819 151.492 498.544 151.017 495.857 151.012C492.324 151.005 489.517 151.816 487.302 153.17C485.973 153.983 484.857 154.992 483.926 156.137C483.388 156.799 482.912 157.506 482.491 158.247C482.477 158.273 482.463 158.298 482.449 158.323C479.435 163.705 479.351 170.853 480.094 175.432ZM488.063 162.091C486.656 162.091 486.846 165.898 488.063 165.898C489.396 165.898 489.355 162.091 488.063 162.091Z" fill="#EEF0FF"/>
<path d="M482.491 158.247C480.074 157.632 475.134 156.635 474.708 157.569C474.176 158.737 472.755 166.467 480.094 165.412C480.495 162.951 481.234 160.493 482.449 158.323C482.463 158.298 482.477 158.273 482.491 158.247Z" fill="#EEF0FF"/>
<path d="M482.55 147.432C481.63 148.952 480.617 152.821 483.926 156.137C484.857 154.992 485.973 153.983 487.302 153.17C484.017 151.611 482.765 148.695 482.55 147.432Z" fill="#EEF0FF"/>
<path d="M508.67 147.922C509.126 149.64 505.768 151.993 504.031 152.954C505.423 153.733 506.599 154.713 507.59 155.836C510.437 152.911 509.496 149.341 508.67 147.922Z" fill="#EEF0FF"/>
<path fill-rule="evenodd" clip-rule="evenodd" d="M502.739 152.318C501.966 152.799 500.739 154.238 502.016 156.137C503.613 158.511 500.914 158.737 499.887 159.491C498.861 160.245 495.439 164.645 499.887 168.965C506.705 169.87 510.251 172.824 512.038 175.432C512.443 172.654 512.525 168.925 511.827 165.219C511.37 162.795 510.58 160.38 509.327 158.247C508.825 157.392 508.249 156.582 507.59 155.836C506.599 154.713 505.423 153.733 504.031 152.954C503.619 152.724 503.189 152.511 502.739 152.318ZM503.081 162.129C501.674 162.129 501.864 165.935 503.081 165.935C504.414 165.935 504.374 162.129 503.081 162.129Z" fill="#395BA9"/>
<path d="M517.11 157.569C516.685 156.635 511.744 157.632 509.327 158.247C510.58 160.38 511.37 162.795 511.827 165.219C519.166 166.275 517.643 158.737 517.11 157.569Z" fill="#395BA9"/>
<path d="M488.063 162.091C486.656 162.091 486.846 165.898 488.063 165.898C489.396 165.898 489.355 162.091 488.063 162.091Z" fill="#395BA9"/>
<path d="M503.081 162.129C501.674 162.129 501.864 165.935 503.081 165.935C504.414 165.935 504.374 162.129 503.081 162.129Z" fill="#EEF0FF"/>
<path d="M483.386 178.598C483.538 179.477 484.169 181.115 485.477 180.633C487.112 180.03 486.998 178.07 485.781 177.43C484.565 176.789 483.082 176.789 482.512 176.977C481.941 177.166 481.409 177.392 481.447 178.07C481.485 178.749 482.588 178.862 483.386 178.598Z" fill="#395BA9"/>
<path d="M507.643 178.598C507.491 179.477 506.86 181.115 505.552 180.633C503.917 180.03 504.031 178.07 505.248 177.43C506.465 176.789 507.947 176.789 508.518 176.977C509.088 177.166 509.62 177.392 509.582 178.07C509.544 178.749 508.442 178.862 507.643 178.598Z" fill="#395BA9"/>
<path fill-rule="evenodd" clip-rule="evenodd" d="M495.439 192.315C512.548 192.617 513.727 181.974 513.727 179.804C513.727 178.07 513.467 177.517 512.038 175.432C510.251 172.824 506.705 169.87 499.887 168.965C498.537 168.785 497.058 168.686 495.439 168.686C487.343 168.686 482.617 171.879 480.094 175.432C478.589 177.552 477.683 178.07 477.683 181.575C477.683 186.272 481.751 192.074 495.439 192.315ZM485.477 180.633C484.169 181.115 483.538 179.477 483.386 178.598C482.588 178.862 481.485 178.749 481.447 178.07C481.409 177.392 481.941 177.166 482.512 176.977C483.082 176.789 484.565 176.789 485.781 177.43C486.998 178.07 487.112 180.03 485.477 180.633ZM505.552 180.633C506.86 181.115 507.491 179.477 507.643 178.598C508.442 178.862 509.544 178.749 509.582 178.07C509.62 177.392 509.088 177.166 508.518 176.977C507.947 176.789 506.465 176.789 505.248 177.43C504.031 178.07 503.917 180.03 505.552 180.633Z" fill="#FFB3B1"/>
<path d="M480.094 175.432C478.589 177.552 477.683 178.07 477.683 181.575C477.683 186.272 481.751 192.074 495.439 192.315C512.548 192.617 513.727 181.974 513.727 179.804C513.727 178.07 513.467 177.517 512.038 175.432M480.094 175.432C482.617 171.879 487.343 168.686 495.439 168.686C497.058 168.686 498.537 168.785 499.887 168.965M480.094 175.432C479.351 170.853 479.435 163.705 482.449 158.323M512.038 175.432C510.251 172.824 506.705 169.87 499.887 168.965M512.038 175.432C512.443 172.654 512.525 168.925 511.827 165.219M502.739 152.318C500.819 151.492 498.544 151.017 495.857 151.012C492.324 151.005 489.517 151.816 487.302 153.17M502.739 152.318C501.966 152.799 500.739 154.238 502.016 156.137C503.613 158.511 500.914 158.737 499.887 159.491C498.861 160.245 495.439 164.645 499.887 168.965M502.739 152.318C503.189 152.511 503.619 152.724 504.031 152.954M483.926 156.137C480.617 152.821 481.63 148.952 482.55 147.432C482.765 148.695 484.017 151.611 487.302 153.17M483.926 156.137C484.857 154.992 485.973 153.983 487.302 153.17M483.926 156.137C483.388 156.799 482.912 157.506 482.491 158.247M483.926 156.137C483.37 156.821 482.88 157.554 482.449 158.323M504.031 152.954C505.768 151.993 509.126 149.64 508.67 147.922C509.496 149.341 510.437 152.911 507.59 155.836M504.031 152.954C505.423 153.733 506.599 154.713 507.59 155.836M507.59 155.836C508.249 156.582 508.825 157.392 509.327 158.247M509.327 158.247C511.744 157.632 516.685 156.635 517.11 157.569C517.643 158.737 519.166 166.275 511.827 165.219M509.327 158.247C510.58 160.38 511.37 162.795 511.827 165.219M482.491 158.247C480.074 157.632 475.134 156.635 474.708 157.569C474.176 158.737 472.755 166.467 480.094 165.412C480.495 162.951 481.234 160.493 482.449 158.323M482.491 158.247C482.477 158.273 482.463 158.298 482.449 158.323M483.386 178.598C483.538 179.477 484.169 181.115 485.477 180.633C487.112 180.03 486.998 178.07 485.782 177.429C484.565 176.789 483.082 176.789 482.512 176.977C481.941 177.166 481.409 177.392 481.447 178.07C481.485 178.749 482.588 178.862 483.386 178.598ZM507.643 178.598C507.491 179.477 506.86 181.115 505.552 180.633C503.917 180.03 504.031 178.07 505.248 177.429C506.465 176.789 507.947 176.789 508.518 176.977C509.088 177.166 509.62 177.392 509.582 178.07C509.544 178.749 508.442 178.862 507.643 178.598ZM488.063 162.091C486.656 162.091 486.846 165.898 488.063 165.898C489.396 165.898 489.355 162.091 488.063 162.091ZM503.081 162.129C501.674 162.129 501.864 165.935 503.081 165.935C504.414 165.935 504.374 162.129 503.081 162.129Z" stroke="white" stroke-width="0.508984"/>
<g filter="url(#filter0_ddd_6708_74038)">
<path d="M389.007 222.377L374.022 237.249L365.621 229.362L381.06 214.039C382.498 215.917 386.101 220.213 389.007 222.377Z" fill="#89A9FC"/>
<path d="M365.621 229.362L374.022 237.249L378.109 241.306V243.108L359.945 225.306H361.534L365.621 229.362Z" fill="#89A9FC"/>
<path d="M378.109 243.108L375.157 246.038L356.993 228.236L359.945 225.306L378.109 243.108Z" fill="#6E8EDF"/>
<path d="M356.993 228.236L375.157 246.038L373.341 246.263L358.356 231.39L356.993 230.038V228.236Z" fill="#5375C3"/>
<path d="M371.978 244.911L368.8 248.066L355.177 234.545L358.356 231.39L371.978 244.911Z" fill="#89A9FC"/>
<path d="M355.177 234.545L368.8 248.066L370.162 249.418V251.221L351.771 232.968H353.588L355.177 234.545Z" fill="#89A9FC"/>
<path d="M351.771 232.968L370.162 251.221L367.437 253.699L349.047 235.672L351.771 232.968Z" fill="#6E8EDF"/>
<path d="M367.437 253.699L365.394 253.925L349.047 237.475V235.672L367.437 253.699Z" fill="#5375C3"/>
<path d="M349.047 237.475L365.394 253.925L275.03 343.836L258.228 327.386L349.047 237.475Z" fill="#395BA9"/>
<path d="M258.228 327.386L275.03 343.836V345.639L256.639 327.386H258.228Z" fill="#89A9FC"/>
<path d="M256.639 327.386L275.03 345.639L271.851 348.569L253.687 330.316L256.639 327.386Z" fill="#6E8EDF"/>
<path d="M253.687 330.316L271.851 348.569H270.035L253.687 332.119V330.316Z" fill="#5375C3"/>
<path d="M253.687 332.119L270.035 348.569L268.899 350.371L251.644 333.245L253.687 332.119Z" fill="#89A9FC"/>
<path d="M251.644 333.245L268.899 350.371L267.31 351.723L250.281 334.597L251.644 333.245Z" fill="#6E8EDF"/>
<path d="M374.022 237.249L389.007 222.377C386.101 220.213 382.498 215.917 381.06 214.039L365.621 229.362M374.022 237.249L365.621 229.362M374.022 237.249L378.109 241.306V243.108M365.621 229.362L361.534 225.306H359.945M378.109 243.108L375.157 246.038M378.109 243.108L359.945 225.306M375.157 246.038L356.993 228.236M375.157 246.038L373.341 246.263L358.356 231.39M356.993 228.236L359.945 225.306M356.993 228.236V230.038L358.356 231.39M368.8 248.066L371.978 244.911L358.356 231.39M368.8 248.066L355.177 234.545M368.8 248.066L370.162 249.418V251.221M355.177 234.545L358.356 231.39M355.177 234.545L353.588 232.968H351.771M370.162 251.221L351.771 232.968M370.162 251.221L367.437 253.699M351.771 232.968L349.047 235.672M367.437 253.699L365.394 253.925M367.437 253.699L349.047 235.672M365.394 253.925L349.047 237.475M365.394 253.925L275.03 343.836M349.047 237.475V235.672M349.047 237.475L258.228 327.386M275.03 343.836L258.228 327.386M275.03 343.836V345.639M258.228 327.386H256.639M275.03 345.639L256.639 327.386M275.03 345.639L271.851 348.569M256.639 327.386L253.687 330.316M271.851 348.569L253.687 330.316M271.851 348.569H270.035M253.687 330.316V332.119M253.687 332.119L270.035 348.569M253.687 332.119L251.644 333.245M270.035 348.569L268.899 350.371M268.899 350.371L251.644 333.245M268.899 350.371L267.31 351.723L250.281 334.597L251.644 333.245" stroke="white" stroke-width="0.602222"/>
<path d="M359.792 175.957C359.792 212.253 389.439 241.681 426.015 241.681C462.592 241.681 492.239 212.253 492.239 175.957C492.239 139.661 462.592 110.233 426.015 110.233C389.439 110.233 359.792 139.661 359.792 175.957Z" fill="#6E8EDF" stroke="white" stroke-width="0.602222"/>
<path d="M362.854 175.767C362.854 210.492 391.217 238.646 426.21 238.646C461.203 238.646 489.566 210.492 489.566 175.767C489.566 141.043 461.203 112.889 426.21 112.889C391.217 112.889 362.854 141.043 362.854 175.767Z" fill="#89A9FC" stroke="white" stroke-width="0.602222"/>
<path d="M364.383 175.956C364.383 209.738 391.976 237.127 426.018 237.127C460.061 237.127 487.654 209.738 487.654 175.956C487.654 142.175 460.061 114.785 426.018 114.785C391.976 114.785 364.383 142.175 364.383 175.956Z" fill="#EEF0FF" stroke="white" stroke-width="0.602222"/>
<mask id="mask1_6708_74038" style="mask-type:alpha" maskUnits="userSpaceOnUse" x="364" y="113" width="125" height="125">
<path d="M364.792 175.507C364.792 209.314 392.406 236.724 426.474 236.724C460.543 236.724 488.157 209.314 488.157 175.507C488.157 141.699 460.543 114.289 426.474 114.289C392.406 114.289 364.792 141.699 364.792 175.507Z" fill="#EEF0FF" stroke="white" stroke-width="0.602222"/>
</mask>
<g mask="url(#mask1_6708_74038)">
<path d="M486.562 112.625C469.798 112.625 456.213 126.091 456.213 142.695C456.213 159.3 469.798 172.765 486.562 172.765C503.326 172.765 516.912 159.3 516.912 142.695C516.912 126.091 503.326 112.625 486.562 112.625Z" fill="#C6FFC8" stroke="#52A160" stroke-width="0.602222"/>
<path d="M486.562 129.98C479.471 129.98 473.727 135.675 473.727 142.695C473.727 149.714 479.471 155.41 486.562 155.41C493.653 155.41 499.397 149.714 499.397 142.695C499.397 135.675 493.653 129.98 486.562 129.98Z" fill="#C6FFC8" stroke="#52A160" stroke-width="0.602222"/>
<path d="M408.848 158.061C392.084 158.061 378.499 171.526 378.499 188.131C378.499 204.735 392.084 218.201 408.848 218.201C425.613 218.201 439.198 204.735 439.198 188.131C439.198 171.526 425.613 158.061 408.848 158.061Z" fill="#C6FFC8" stroke="#52A160" stroke-width="0.602222"/>
<path d="M408.848 175.415C401.757 175.415 396.014 181.111 396.014 188.13C396.014 195.15 401.757 200.845 408.848 200.845C415.94 200.845 421.683 195.15 421.683 188.13C421.683 181.111 415.94 175.415 408.848 175.415Z" fill="#C6FFC8" stroke="#52A160" stroke-width="0.602222"/>
</g>
</g>
<path d="M254.448 -104.716L330.011 -141.835L273.179 -145.325L254.448 -104.716Z" fill="#B1C5FF"/>
<path d="M330.011 -141.835L291.909 -185.934L273.179 -145.325L330.011 -141.835Z" fill="#89A9FC"/>
<path d="M102.044 50.1066L77.71 48.203V95.4746L106.206 98.3299C109.301 110.809 124.776 136.718 161.917 140.525C199.058 144.332 219.442 119.269 224.992 106.261L254.448 108.799V61.2106L224.992 57.7208C218.802 42.3866 197.521 11.4644 161.917 10.4492C126.313 9.43398 107.166 36.4644 102.044 50.1066Z" fill="#B1C5FF"/>
<path d="M291.909 -185.934L116.452 -198.624L77.71 -119.31L254.448 -104.716L273.179 -145.325L291.909 -185.934Z" fill="#DAE2FF"/>
<path fill-rule="evenodd" clip-rule="evenodd" d="M291.909 -185.934V-208.142L116.452 -222.102V-198.624L291.909 -185.934ZM77.71 -119.31L254.448 -104.716V61.2106L224.992 57.7208C218.802 42.3866 197.521 11.4644 161.917 10.4492C126.313 9.43398 107.166 36.4644 102.044 50.1066L77.71 48.203V-119.31ZM254.448 108.799L224.992 106.261C219.442 119.269 199.058 144.332 161.917 140.525C124.776 136.718 109.301 110.809 106.206 98.3299L77.71 95.4746V239.193L254.448 254.421V108.799Z" fill="#DAE2FF"/>
<path d="M330.011 -141.835L254.448 -104.716V61.2106V108.799V254.421L330.011 215.716V-141.835Z" fill="#B1C5FF"/>
<path d="M116.452 -198.624L291.909 -185.934M116.452 -198.624V-222.102L291.909 -208.142V-185.934M116.452 -198.624L77.71 -119.31M291.909 -185.934L330.011 -141.835M291.909 -185.934L273.179 -145.325M77.71 -119.31L254.448 -104.716M77.71 -119.31V48.203M254.448 -104.716L330.011 -141.835M254.448 -104.716L273.179 -145.325M254.448 -104.716V61.2106M330.011 -141.835V215.716L254.448 254.421M330.011 -141.835L273.179 -145.325M254.448 254.421L77.71 239.193V95.4746M254.448 254.421V108.799M77.71 48.203L102.044 50.1066C107.166 36.4644 126.313 9.43398 161.917 10.4492C197.521 11.4644 218.802 42.3866 224.992 57.7208L254.448 61.2106M77.71 48.203V95.4746M254.448 61.2106V108.799M254.448 108.799L224.992 106.261C219.442 119.269 199.058 144.332 161.917 140.525C124.776 136.718 109.301 110.809 106.206 98.3299L77.71 95.4746" stroke="white" stroke-width="0.845178"/>
<path fill-rule="evenodd" clip-rule="evenodd" d="M129.087 86.8768C134.115 79.7957 143.534 73.4322 159.67 73.4322C162.896 73.4322 165.844 73.6294 168.535 73.9869C159.67 65.3782 166.489 56.6076 168.535 55.1054C170.581 53.6032 175.962 53.1526 172.779 48.4207C170.233 44.6351 172.678 41.7683 174.219 40.8081C170.392 39.1632 165.858 38.216 160.503 38.2057C153.462 38.1923 147.867 39.8085 143.453 42.5079C140.804 44.128 138.58 46.1383 136.724 48.4207C135.652 49.7395 134.703 51.1491 133.865 52.6268C133.837 52.6767 133.808 52.7267 133.78 52.7768C127.774 63.503 127.606 77.7505 129.087 86.8768ZM144.969 60.288C142.165 60.288 142.544 67.8741 144.969 67.8741C147.625 67.8741 147.545 60.288 144.969 60.288Z" fill="#EEF0FF"/>
<path d="M133.865 52.6268C129.048 51.4 119.202 49.4121 118.353 51.2748C117.292 53.6032 114.46 69.0088 129.087 66.9058C129.885 62.0013 131.358 57.1027 133.78 52.7768C133.808 52.7267 133.837 52.6767 133.865 52.6268Z" fill="#EEF0FF"/>
<path d="M133.981 31.0703C132.147 34.0997 130.129 41.811 136.724 48.4207C138.58 46.1383 140.804 44.128 143.453 42.5079C136.906 39.4 134.411 33.5879 133.981 31.0703Z" fill="#EEF0FF"/>
<path d="M186.04 32.0467C186.949 35.4717 180.256 40.1607 176.795 42.0771C179.568 43.6286 181.913 45.5824 183.887 47.8198C189.561 41.9913 187.686 34.8759 186.04 32.0467Z" fill="#EEF0FF"/>
<path fill-rule="evenodd" clip-rule="evenodd" d="M174.219 40.8081C172.678 41.7683 170.233 44.6351 172.779 48.4207C175.962 53.1526 170.581 53.6032 168.535 55.1054C166.489 56.6076 159.67 65.3782 168.535 73.9869C182.123 75.7914 189.191 81.6779 192.753 86.8768C193.56 81.3398 193.723 73.9083 192.332 66.5221C191.421 61.6899 189.846 56.8771 187.35 52.6268C186.35 50.9223 185.201 49.3083 183.887 47.8198C181.913 45.5824 179.568 43.6286 176.795 42.0771C175.974 41.6178 175.116 41.1938 174.219 40.8081ZM174.901 60.3631C172.097 60.3631 172.476 67.9492 174.901 67.9492C177.557 67.9492 177.477 60.3631 174.901 60.3631Z" fill="#395BA9"/>
<path d="M202.862 51.2748C202.014 49.4121 192.167 51.4 187.35 52.6268C189.846 56.8771 191.421 61.6899 192.332 66.5221C206.959 68.6252 203.923 53.6032 202.862 51.2748Z" fill="#395BA9"/>
<path d="M144.969 60.288C142.165 60.288 142.544 67.8741 144.969 67.8741C147.625 67.8741 147.545 60.288 144.969 60.288Z" fill="#395BA9"/>
<path d="M174.901 60.3631C172.097 60.3631 172.476 67.9492 174.901 67.9492C177.557 67.9492 177.477 60.3631 174.901 60.3631Z" fill="#EEF0FF"/>
<path d="M135.648 93.186C135.951 94.9386 137.209 98.2034 139.816 97.242C143.074 96.0402 142.847 92.1345 140.422 90.8576C137.997 89.5808 135.042 89.5808 133.905 89.9563C132.769 90.3319 131.708 90.7825 131.784 92.1345C131.859 93.4865 134.057 93.7118 135.648 93.186Z" fill="#395BA9"/>
<path d="M183.994 93.186C183.691 94.9386 182.433 98.2034 179.826 97.242C176.568 96.0402 176.795 92.1345 179.22 90.8576C181.645 89.5808 184.6 89.5808 185.737 89.9563C186.873 90.3319 187.934 90.7825 187.859 92.1345C187.783 93.4865 185.585 93.7118 183.994 93.186Z" fill="#395BA9"/>
<path fill-rule="evenodd" clip-rule="evenodd" d="M159.67 120.526C193.769 121.127 196.118 99.9155 196.118 95.5895C196.118 92.1345 195.601 91.032 192.753 86.8768C189.191 81.6779 182.123 75.7914 168.535 73.9869C165.844 73.6294 162.896 73.4322 159.67 73.4322C143.534 73.4322 134.115 79.7957 129.087 86.8768C126.087 91.1021 124.282 92.1345 124.282 99.1197C124.282 108.481 132.39 120.045 159.67 120.526ZM139.816 97.242C137.209 98.2034 135.951 94.9386 135.648 93.186C134.057 93.7118 131.859 93.4865 131.784 92.1345C131.708 90.7825 132.769 90.3319 133.905 89.9563C135.042 89.5808 137.997 89.5808 140.422 90.8576C142.847 92.1345 143.074 96.0402 139.816 97.242ZM179.826 97.242C182.433 98.2034 183.691 94.9386 183.994 93.186C185.585 93.7118 187.783 93.4865 187.859 92.1345C187.934 90.7825 186.873 90.3319 185.737 89.9563C184.6 89.5808 181.645 89.5808 179.22 90.8576C176.795 92.1345 176.568 96.0402 179.826 97.242Z" fill="#FFB3B1"/>
<path d="M129.087 86.8768C126.087 91.1021 124.282 92.1345 124.282 99.1197C124.282 108.481 132.39 120.045 159.67 120.526C193.769 121.127 196.118 99.9155 196.118 95.5895C196.118 92.1345 195.601 91.032 192.753 86.8768M129.087 86.8768C134.115 79.7957 143.534 73.4322 159.67 73.4322C162.896 73.4322 165.844 73.6294 168.535 73.9869M129.087 86.8768C127.606 77.7505 127.774 63.503 133.78 52.7768M192.753 86.8768C189.191 81.6779 182.123 75.7914 168.535 73.9869M192.753 86.8768C193.56 81.3398 193.723 73.9083 192.332 66.5221M174.219 40.8081C170.392 39.1632 165.858 38.216 160.503 38.2057C153.462 38.1923 147.867 39.8085 143.453 42.5079M174.219 40.8081C172.678 41.7683 170.233 44.6351 172.779 48.4207C175.962 53.1526 170.581 53.6032 168.535 55.1054C166.489 56.6076 159.67 65.3782 168.535 73.9869M174.219 40.8081C175.116 41.1938 175.974 41.6178 176.795 42.0771M136.724 48.4207C130.129 41.811 132.147 34.0997 133.981 31.0703C134.411 33.5879 136.906 39.4 143.453 42.5079M136.724 48.4207C138.58 46.1383 140.804 44.128 143.453 42.5079M136.724 48.4207C135.652 49.7395 134.703 51.1491 133.865 52.6268M136.724 48.4207C135.616 49.784 134.638 51.2445 133.78 52.7768M176.795 42.0771C180.256 40.1607 186.949 35.4717 186.04 32.0467C187.686 34.8759 189.561 41.9913 183.887 47.8198M176.795 42.0771C179.568 43.6286 181.913 45.5824 183.887 47.8198M183.887 47.8198C185.201 49.3083 186.35 50.9223 187.35 52.6268M187.35 52.6268C192.167 51.4 202.014 49.4121 202.862 51.2748C203.923 53.6032 206.959 68.6252 192.332 66.5221M187.35 52.6268C189.846 56.8771 191.421 61.6899 192.332 66.5221M133.865 52.6268C129.048 51.4 119.202 49.4121 118.353 51.2748C117.292 53.6032 114.46 69.0088 129.087 66.9058C129.885 62.0013 131.358 57.1027 133.78 52.7768M133.865 52.6268C133.837 52.6767 133.808 52.7267 133.78 52.7768M135.648 93.186C135.951 94.9386 137.209 98.2034 139.816 97.242C143.074 96.0402 142.847 92.1345 140.422 90.8576C137.997 89.5808 135.042 89.5808 133.905 89.9563C132.769 90.3319 131.708 90.7825 131.784 92.1345C131.859 93.4865 134.057 93.7118 135.648 93.186ZM183.994 93.186C183.691 94.9386 182.433 98.2034 179.826 97.242C176.568 96.0402 176.795 92.1345 179.22 90.8576C181.645 89.5808 184.6 89.5808 185.737 89.9563C186.873 90.3319 187.934 90.7825 187.859 92.1345C187.783 93.4865 185.585 93.7118 183.994 93.186ZM144.969 60.288C142.165 60.288 142.544 67.8741 144.969 67.8741C147.625 67.8741 147.545 60.288 144.969 60.288ZM174.901 60.3631C172.097 60.3631 172.476 67.9492 174.901 67.9492C177.557 67.9492 177.477 60.3631 174.901 60.3631Z" stroke="white" stroke-width="0.845178"/>
<rect x="88.832" y="175.898" width="54.4779" height="53.9811" rx="1.88372" fill="white"/>
<path d="M98.7358 217.202C98.7358 216.675 99.1669 216.248 99.6988 216.248H101.625C102.157 216.248 102.588 216.675 102.588 217.202V219.111C102.588 219.638 102.157 220.065 101.625 220.065H99.6988C99.1669 220.065 98.7358 219.638 98.7358 219.111V217.202Z" fill="#001946"/>
<path d="M129.552 186.668C129.552 186.141 129.983 185.713 130.515 185.713H132.441C132.972 185.713 133.404 186.141 133.404 186.668V188.576C133.404 189.103 132.972 189.53 132.441 189.53H130.515C129.983 189.53 129.552 189.103 129.552 188.576V186.668Z" fill="#001946"/>
<path d="M111.255 183.566C111.255 184.489 110.5 185.236 109.569 185.236C108.639 185.236 107.884 184.489 107.884 183.566C107.884 182.644 108.639 181.896 109.569 181.896C110.5 181.896 111.255 182.644 111.255 183.566Z" fill="#001946"/>
<path d="M111.255 187.86C111.255 188.783 110.5 189.53 109.569 189.53C108.639 189.53 107.884 188.783 107.884 187.86C107.884 186.938 108.639 186.19 109.569 186.19C110.5 186.19 111.255 186.938 111.255 187.86Z" fill="#001946"/>
<path d="M111.255 192.154C111.255 193.077 110.5 193.824 109.569 193.824C108.639 193.824 107.884 193.077 107.884 192.154C107.884 191.232 108.639 190.484 109.569 190.484C110.5 190.484 111.255 191.232 111.255 192.154Z" fill="#001946"/>
<path d="M111.255 200.742C111.255 201.664 110.5 202.412 109.569 202.412C108.639 202.412 107.884 201.664 107.884 200.742C107.884 199.82 108.639 199.072 109.569 199.072C110.5 199.072 111.255 199.82 111.255 200.742Z" fill="#001946"/>
<path d="M111.255 209.33C111.255 210.252 110.5 211 109.569 211C108.639 211 107.884 210.252 107.884 209.33C107.884 208.408 108.639 207.66 109.569 207.66C110.5 207.66 111.255 208.408 111.255 209.33Z" fill="#001946"/>
<path d="M128.589 196.448C128.589 197.37 127.834 198.118 126.903 198.118C125.973 198.118 125.218 197.37 125.218 196.448C125.218 195.526 125.973 194.778 126.903 194.778C127.834 194.778 128.589 195.526 128.589 196.448Z" fill="#001946"/>
<path d="M98.2543 196.448C98.2543 197.37 97.4998 198.118 96.569 198.118C95.6383 198.118 94.8838 197.37 94.8838 196.448C94.8838 195.526 95.6383 194.778 96.569 194.778C97.4998 194.778 98.2543 195.526 98.2543 196.448Z" fill="#001946"/>
<path d="M128.589 213.624C128.589 214.546 127.834 215.294 126.903 215.294C125.973 215.294 125.218 214.546 125.218 213.624C125.218 212.702 125.973 211.954 126.903 211.954C127.834 211.954 128.589 212.702 128.589 213.624Z" fill="#001946"/>
<path d="M111.255 213.624C111.255 214.546 110.5 215.294 109.569 215.294C108.639 215.294 107.884 214.546 107.884 213.624C107.884 212.702 108.639 211.954 109.569 211.954C110.5 211.954 111.255 212.702 111.255 213.624Z" fill="#001946"/>
<path d="M98.2543 200.742C98.2543 201.664 97.4998 202.412 96.569 202.412C95.6383 202.412 94.8838 201.664 94.8838 200.742C94.8838 199.82 95.6383 199.072 96.569 199.072C97.4998 199.072 98.2543 199.82 98.2543 200.742Z" fill="#001946"/>
<path d="M111.255 217.918C111.255 218.84 110.5 219.588 109.569 219.588C108.639 219.588 107.884 218.84 107.884 217.918C107.884 216.996 108.639 216.248 109.569 216.248C110.5 216.248 111.255 216.996 111.255 217.918Z" fill="#001946"/>
<path d="M128.589 205.036C128.589 205.958 127.834 206.706 126.903 206.706C125.973 206.706 125.218 205.958 125.218 205.036C125.218 204.114 125.973 203.366 126.903 203.366C127.834 203.366 128.589 204.114 128.589 205.036Z" fill="#001946"/>
<path d="M98.2543 205.036C98.2543 205.958 97.4998 206.706 96.569 206.706C95.6383 206.706 94.8838 205.958 94.8838 205.036C94.8838 204.114 95.6383 203.366 96.569 203.366C97.4998 203.366 98.2543 204.114 98.2543 205.036Z" fill="#001946"/>
<path d="M128.589 222.212C128.589 223.134 127.834 223.882 126.903 223.882C125.973 223.882 125.218 223.134 125.218 222.212C125.218 221.29 125.973 220.542 126.903 220.542C127.834 220.542 128.589 221.29 128.589 222.212Z" fill="#001946"/>
<path d="M111.255 222.212C111.255 223.134 110.5 223.882 109.569 223.882C108.639 223.882 107.884 223.134 107.884 222.212C107.884 221.29 108.639 220.542 109.569 220.542C110.5 220.542 111.255 221.29 111.255 222.212Z" fill="#001946"/>
<path d="M128.589 209.33C128.589 210.252 127.834 211 126.903 211C125.973 211 125.218 210.252 125.218 209.33C125.218 208.408 125.973 207.66 126.903 207.66C127.834 207.66 128.589 208.408 128.589 209.33Z" fill="#001946"/>
<path d="M98.2543 209.33C98.2543 210.252 97.4998 211 96.569 211C95.6383 211 94.8838 210.252 94.8838 209.33C94.8838 208.408 95.6383 207.66 96.569 207.66C97.4998 207.66 98.2543 208.408 98.2543 209.33Z" fill="#001946"/>
<path d="M115.588 192.154C115.588 193.077 114.834 193.824 113.903 193.824C112.972 193.824 112.218 193.077 112.218 192.154C112.218 191.232 112.972 190.484 113.903 190.484C114.834 190.484 115.588 191.232 115.588 192.154Z" fill="#001946"/>
<path d="M115.588 196.448C115.588 197.37 114.834 198.118 113.903 198.118C112.972 198.118 112.218 197.37 112.218 196.448C112.218 195.526 112.972 194.778 113.903 194.778C114.834 194.778 115.588 195.526 115.588 196.448Z" fill="#001946"/>
<path d="M115.588 205.036C115.588 205.958 114.834 206.706 113.903 206.706C112.972 206.706 112.218 205.958 112.218 205.036C112.218 204.114 112.972 203.366 113.903 203.366C114.834 203.366 115.588 204.114 115.588 205.036Z" fill="#001946"/>
<path d="M115.588 209.33C115.588 210.252 114.834 211 113.903 211C112.972 211 112.218 210.252 112.218 209.33C112.218 208.408 112.972 207.66 113.903 207.66C114.834 207.66 115.588 208.408 115.588 209.33Z" fill="#001946"/>
<path d="M132.922 196.448C132.922 197.37 132.168 198.118 131.237 198.118C130.306 198.118 129.552 197.37 129.552 196.448C129.552 195.526 130.306 194.778 131.237 194.778C132.168 194.778 132.922 195.526 132.922 196.448Z" fill="#001946"/>
<path d="M102.588 196.448C102.588 197.37 101.833 198.118 100.902 198.118C99.9718 198.118 99.2173 197.37 99.2173 196.448C99.2173 195.526 99.9718 194.778 100.902 194.778C101.833 194.778 102.588 195.526 102.588 196.448Z" fill="#001946"/>
<path d="M115.588 213.624C115.588 214.546 114.834 215.294 113.903 215.294C112.972 215.294 112.218 214.546 112.218 213.624C112.218 212.702 112.972 211.954 113.903 211.954C114.834 211.954 115.588 212.702 115.588 213.624Z" fill="#001946"/>
<path d="M132.922 217.918C132.922 218.84 132.168 219.588 131.237 219.588C130.306 219.588 129.552 218.84 129.552 217.918C129.552 216.996 130.306 216.248 131.237 216.248C132.168 216.248 132.922 216.996 132.922 217.918Z" fill="#001946"/>
<path d="M115.588 217.918C115.588 218.84 114.834 219.588 113.903 219.588C112.972 219.588 112.218 218.84 112.218 217.918C112.218 216.996 112.972 216.248 113.903 216.248C114.834 216.248 115.588 216.996 115.588 217.918Z" fill="#001946"/>
<path d="M132.922 222.212C132.922 223.134 132.168 223.882 131.237 223.882C130.306 223.882 129.552 223.134 129.552 222.212C129.552 221.29 130.306 220.542 131.237 220.542C132.168 220.542 132.922 221.29 132.922 222.212Z" fill="#001946"/>
<path d="M132.922 209.33C132.922 210.252 132.168 211 131.237 211C130.306 211 129.552 210.252 129.552 209.33C129.552 208.408 130.306 207.66 131.237 207.66C132.168 207.66 132.922 208.408 132.922 209.33Z" fill="#001946"/>
<path d="M102.588 209.33C102.588 210.252 101.833 211 100.902 211C99.9718 211 99.2173 210.252 99.2173 209.33C99.2173 208.408 99.9718 207.66 100.902 207.66C101.833 207.66 102.588 208.408 102.588 209.33Z" fill="#001946"/>
<path d="M119.922 187.86C119.922 188.783 119.167 189.53 118.236 189.53C117.306 189.53 116.551 188.783 116.551 187.86C116.551 186.938 117.306 186.19 118.236 186.19C119.167 186.19 119.922 186.938 119.922 187.86Z" fill="#001946"/>
<path d="M119.922 192.154C119.922 193.077 119.167 193.824 118.236 193.824C117.306 193.824 116.551 193.077 116.551 192.154C116.551 191.232 117.306 190.484 118.236 190.484C119.167 190.484 119.922 191.232 119.922 192.154Z" fill="#001946"/>
<path d="M119.922 200.742C119.922 201.664 119.167 202.412 118.236 202.412C117.306 202.412 116.551 201.664 116.551 200.742C116.551 199.82 117.306 199.072 118.236 199.072C119.167 199.072 119.922 199.82 119.922 200.742Z" fill="#001946"/>
<path d="M119.922 205.036C119.922 205.958 119.167 206.706 118.236 206.706C117.306 206.706 116.551 205.958 116.551 205.036C116.551 204.114 117.306 203.366 118.236 203.366C119.167 203.366 119.922 204.114 119.922 205.036Z" fill="#001946"/>
<path d="M137.255 196.448C137.255 197.37 136.501 198.118 135.57 198.118C134.64 198.118 133.885 197.37 133.885 196.448C133.885 195.526 134.64 194.778 135.57 194.778C136.501 194.778 137.255 195.526 137.255 196.448Z" fill="#001946"/>
<path d="M106.921 196.448C106.921 197.37 106.167 198.118 105.236 198.118C104.305 198.118 103.551 197.37 103.551 196.448C103.551 195.526 104.305 194.778 105.236 194.778C106.167 194.778 106.921 195.526 106.921 196.448Z" fill="#001946"/>
<path d="M119.922 213.624C119.922 214.546 119.167 215.294 118.236 215.294C117.306 215.294 116.551 214.546 116.551 213.624C116.551 212.702 117.306 211.954 118.236 211.954C119.167 211.954 119.922 212.702 119.922 213.624Z" fill="#001946"/>
<path d="M137.255 200.742C137.255 201.664 136.501 202.412 135.57 202.412C134.64 202.412 133.885 201.664 133.885 200.742C133.885 199.82 134.64 199.072 135.57 199.072C136.501 199.072 137.255 199.82 137.255 200.742Z" fill="#001946"/>
<path d="M106.921 200.742C106.921 201.664 106.167 202.412 105.236 202.412C104.305 202.412 103.551 201.664 103.551 200.742C103.551 199.82 104.305 199.072 105.236 199.072C106.167 199.072 106.921 199.82 106.921 200.742Z" fill="#001946"/>
<path d="M137.255 217.918C137.255 218.84 136.501 219.588 135.57 219.588C134.64 219.588 133.885 218.84 133.885 217.918C133.885 216.996 134.64 216.248 135.57 216.248C136.501 216.248 137.255 216.996 137.255 217.918Z" fill="#001946"/>
<path d="M137.255 205.036C137.255 205.958 136.501 206.706 135.57 206.706C134.64 206.706 133.885 205.958 133.885 205.036C133.885 204.114 134.64 203.366 135.57 203.366C136.501 203.366 137.255 204.114 137.255 205.036Z" fill="#001946"/>
<path d="M106.921 205.036C106.921 205.958 106.167 206.706 105.236 206.706C104.305 206.706 103.551 205.958 103.551 205.036C103.551 204.114 104.305 203.366 105.236 203.366C106.167 203.366 106.921 204.114 106.921 205.036Z" fill="#001946"/>
<path d="M137.255 222.212C137.255 223.134 136.501 223.882 135.57 223.882C134.64 223.882 133.885 223.134 133.885 222.212C133.885 221.29 134.64 220.542 135.57 220.542C136.501 220.542 137.255 221.29 137.255 222.212Z" fill="#001946"/>
<path d="M119.922 222.212C119.922 223.134 119.167 223.882 118.236 223.882C117.306 223.882 116.551 223.134 116.551 222.212C116.551 221.29 117.306 220.542 118.236 220.542C119.167 220.542 119.922 221.29 119.922 222.212Z" fill="#001946"/>
<path d="M137.255 209.33C137.255 210.252 136.501 211 135.57 211C134.64 211 133.885 210.252 133.885 209.33C133.885 208.408 134.64 207.66 135.57 207.66C136.501 207.66 137.255 208.408 137.255 209.33Z" fill="#001946"/>
<path d="M106.921 209.33C106.921 210.252 106.167 211 105.236 211C104.305 211 103.551 210.252 103.551 209.33C103.551 208.408 104.305 207.66 105.236 207.66C106.167 207.66 106.921 208.408 106.921 209.33Z" fill="#001946"/>
<path d="M124.255 183.566C124.255 184.489 123.501 185.236 122.57 185.236C121.639 185.236 120.885 184.489 120.885 183.566C120.885 182.644 121.639 181.896 122.57 181.896C123.501 181.896 124.255 182.644 124.255 183.566Z" fill="#001946"/>
<path d="M124.255 187.86C124.255 188.783 123.501 189.53 122.57 189.53C121.639 189.53 120.885 188.783 120.885 187.86C120.885 186.938 121.639 186.19 122.57 186.19C123.501 186.19 124.255 186.938 124.255 187.86Z" fill="#001946"/>
<path d="M124.255 192.154C124.255 193.077 123.501 193.824 122.57 193.824C121.639 193.824 120.885 193.077 120.885 192.154C120.885 191.232 121.639 190.484 122.57 190.484C123.501 190.484 124.255 191.232 124.255 192.154Z" fill="#001946"/>
<path d="M124.255 196.448C124.255 197.37 123.501 198.118 122.57 198.118C121.639 198.118 120.885 197.37 120.885 196.448C120.885 195.526 121.639 194.778 122.57 194.778C123.501 194.778 124.255 195.526 124.255 196.448Z" fill="#001946"/>
<path d="M124.255 200.742C124.255 201.664 123.501 202.412 122.57 202.412C121.639 202.412 120.885 201.664 120.885 200.742C120.885 199.82 121.639 199.072 122.57 199.072C123.501 199.072 124.255 199.82 124.255 200.742Z" fill="#001946"/>
<path d="M124.255 209.33C124.255 210.252 123.501 211 122.57 211C121.639 211 120.885 210.252 120.885 209.33C120.885 208.408 121.639 207.66 122.57 207.66C123.501 207.66 124.255 208.408 124.255 209.33Z" fill="#001946"/>
<path d="M124.255 217.918C124.255 218.84 123.501 219.588 122.57 219.588C121.639 219.588 120.885 218.84 120.885 217.918C120.885 216.996 121.639 216.248 122.57 216.248C123.501 216.248 124.255 216.996 124.255 217.918Z" fill="#001946"/>
<path d="M124.255 222.212C124.255 223.134 123.501 223.882 122.57 223.882C121.639 223.882 120.885 223.134 120.885 222.212C120.885 221.29 121.639 220.542 122.57 220.542C123.501 220.542 124.255 221.29 124.255 222.212Z" fill="#001946"/>
<path d="M98.7358 186.668C98.7358 186.141 99.1669 185.713 99.6988 185.713H101.625C102.157 185.713 102.588 186.141 102.588 186.668V188.576C102.588 189.103 102.157 189.53 101.625 189.53H99.6988C99.1669 189.53 98.7358 189.103 98.7358 188.576V186.668Z" fill="#001946"/>
<path fill-rule="evenodd" clip-rule="evenodd" d="M95.8468 181.896C95.3149 181.896 94.8838 182.324 94.8838 182.851V192.393C94.8838 192.92 95.3149 193.347 95.8468 193.347H105.477C106.009 193.347 106.44 192.92 106.44 192.393V182.851C106.44 182.324 106.009 181.896 105.477 181.896H95.8468ZM103.069 184.282H98.2543C97.7224 184.282 97.2913 184.709 97.2913 185.236V190.007C97.2913 190.534 97.7224 190.961 98.2543 190.961H103.069C103.601 190.961 104.032 190.534 104.032 190.007V185.236C104.032 184.709 103.601 184.282 103.069 184.282ZM99.6988 185.713H101.625C102.157 185.713 102.588 186.141 102.588 186.668V188.576C102.588 189.103 102.157 189.53 101.625 189.53H99.6988C99.1669 189.53 98.7358 189.103 98.7358 188.576V186.668C98.7358 186.141 99.1669 185.713 99.6988 185.713Z" fill="#001946"/>
<path fill-rule="evenodd" clip-rule="evenodd" d="M126.663 181.896C126.131 181.896 125.7 182.324 125.7 182.851V192.393C125.7 192.92 126.131 193.347 126.663 193.347H136.292C136.824 193.347 137.255 192.92 137.255 192.393V182.851C137.255 182.324 136.824 181.896 136.292 181.896H126.663ZM133.885 184.282H129.07C128.538 184.282 128.107 184.709 128.107 185.236V190.007C128.107 190.534 128.538 190.961 129.07 190.961H133.885C134.417 190.961 134.848 190.534 134.848 190.007V185.236C134.848 184.709 134.417 184.282 133.885 184.282ZM130.515 185.713H132.441C132.972 185.713 133.404 186.141 133.404 186.668V188.576C133.404 189.103 132.972 189.53 132.441 189.53H130.515C129.983 189.53 129.552 189.103 129.552 188.576V186.668C129.552 186.141 129.983 185.713 130.515 185.713Z" fill="#001946"/>
<path fill-rule="evenodd" clip-rule="evenodd" d="M95.8468 212.431C95.3149 212.431 94.8838 212.858 94.8838 213.385V222.928C94.8838 223.455 95.3149 223.882 95.8468 223.882H105.477C106.009 223.882 106.44 223.455 106.44 222.928V213.385C106.44 212.858 106.009 212.431 105.477 212.431H95.8468ZM103.069 214.817H98.2543C97.7224 214.817 97.2913 215.244 97.2913 215.771V220.542C97.2913 221.069 97.7224 221.496 98.2543 221.496H103.069C103.601 221.496 104.032 221.069 104.032 220.542V215.771C104.032 215.244 103.601 214.817 103.069 214.817ZM99.6988 216.248H101.625C102.157 216.248 102.588 216.675 102.588 217.202V219.111C102.588 219.638 102.157 220.065 101.625 220.065H99.6988C99.1669 220.065 98.7358 219.638 98.7358 219.111V217.202C98.7358 216.675 99.1669 216.248 99.6988 216.248Z" fill="#001946"/>
<path d="M124.952 222.493C125.391 212.129 118.191 188.801 110.549 178.461C109.747 177.376 108.918 176.52 108.067 175.898H104.81C110.264 184.186 114.152 219.839 114.54 229.91H122.827C123.969 228.315 124.806 225.932 124.952 222.493Z" fill="#CCD4F3"/>
<path d="M132.964 204.516C132.571 202.635 130.402 199.496 129.947 197.682C128.516 191.982 126.841 187.033 126.067 183.16C125.421 179.927 125.392 177.443 125.146 175.898H130.378C130.795 176.31 132.138 177.459 132.533 178.034C135.477 182.314 136.183 190.236 137.706 199.817C138.111 202.37 139.19 205.29 139.43 207.933C139.849 212.537 141.037 217.536 141.48 222.028L141.739 222.648C141.869 222.87 142.002 223.09 142.016 223.309C142.02 223.367 142.02 223.427 142.016 223.488V226.574C142.022 226.625 142.023 226.676 142.016 226.726C141.935 227.363 141.85 228.049 141.748 228.826C141.667 229.448 141.135 229.912 140.508 229.912H140.104L136.539 229.878C135.747 223.493 134.833 213.453 132.964 204.516Z" fill="#CCD4F3"/>
<path d="M97.6177 220.746C96.3245 217.329 98.0487 217.329 96.3245 213.058C95.0107 209.804 91.0578 204.354 88.8281 204.089V210.82L88.8866 213.947C92.0368 214.607 97.2736 224.516 99.7729 229.91H102.79C101.497 227.994 98.6522 223.48 97.6177 220.746Z" fill="#CCD4F3"/>
<path d="M117.014 228.435C117.445 229.289 116.84 228.015 116.972 229.88L113.912 229.88L112.002 219.216L110.618 202.317L109.235 194.542L109.235 191.801L108.543 189.059L104.514 175.898L106.669 175.898C106.447 178.013 107.797 176.61 108.219 177.857C108.64 179.105 107.575 178.725 108.286 179.355C108.997 179.986 109.355 182 108.97 183.199C108.585 184.399 108.746 184.182 110.039 185.843C111.332 187.505 111.595 190.101 111.692 190.65C111.79 191.2 112.436 191.464 112.76 192.163C113.083 192.861 112.309 192.996 112.761 193.295C113.214 193.593 112.892 194.027 112.635 194.827C112.489 195.282 112.334 195.382 112.225 195.362C112.285 195.496 112.266 195.851 111.961 196.643C111.415 198.059 112.608 198.04 112.673 198.406C112.739 198.772 113.288 199.619 112.677 200.67C112.066 201.72 112.84 201.585 112.97 202.317L113.166 203.415C113.218 203.708 113.79 203.935 114.07 204.012C113.963 204.157 113.677 204.496 113.394 204.697C113.04 204.947 113.041 206.079 113.107 206.446C113.172 206.812 113.559 206.744 113.85 207.259C114.141 207.775 113.432 208.276 113.497 208.642C113.563 209.008 114.758 210.12 115.275 210.785C115.793 211.45 115.341 211.151 115.116 212.134C114.892 213.117 115.666 212.981 115.41 213.781C115.153 214.581 115.54 214.513 115.67 215.246C115.8 215.978 116.446 216.242 116.576 216.975C116.707 217.707 116.578 218.107 116.869 218.622C117.161 219.137 117.354 219.103 117.55 220.202C117.745 221.3 116.812 222.784 117.136 223.482C117.46 224.181 117.17 224.798 116.462 225.299C115.753 225.8 116.531 227.929 116.628 228.478C116.726 229.027 116.635 227.684 117.014 228.435Z" fill="white"/>
<path d="M108.544 176.723C108.544 176.723 107.94 176.308 107.853 175.898L109.236 175.898L114.77 184.947L118.781 193.835L122.114 202.082L124.453 210.306L125.837 217.16L126.583 229.88L121.741 229.88C121.963 227.765 124.89 228.239 124.469 226.991C124.047 225.744 125.113 226.124 124.402 225.493C123.691 224.862 124.451 222.915 124.837 221.716C125.222 220.516 125.061 220.733 123.767 219.071C122.474 217.41 122.212 214.814 122.114 214.265C122.016 213.715 121.371 213.451 121.047 212.752C120.723 212.054 121.497 211.919 121.045 211.62C120.593 211.322 120.915 210.888 121.171 210.088C121.317 209.633 121.473 209.533 121.581 209.553C121.521 209.419 121.54 209.064 121.846 208.272C122.392 206.855 120.372 205.397 120.307 205.031C120.242 204.665 119.692 203.818 120.303 202.767C120.914 201.717 119.05 202.128 118.92 201.396C118.789 200.664 117.452 199.959 117.809 199.846C119.376 199.353 117.184 199.326 116.905 199.249C117.012 199.105 117.298 198.766 117.581 198.565C117.935 198.314 116.785 198.541 116.72 198.175C116.655 197.809 117.136 197.114 116.845 196.599C116.553 196.083 117.262 195.582 117.197 195.216C117.132 194.85 116.511 194.5 115.994 193.835C115.477 193.171 115.929 193.469 116.153 192.486C116.377 191.504 113.605 191.682 113.861 190.882C114.118 190.082 113.731 190.15 113.601 189.418C113.471 188.686 112.825 188.421 112.695 187.689C112.564 186.957 112.693 186.557 112.401 186.041C112.11 185.526 111.917 185.56 111.721 184.462C111.526 183.363 112.459 181.879 112.135 181.181C111.811 180.483 109.911 179.966 110.62 179.464C111.328 178.963 109.062 177.577 108.964 177.028C108.867 176.479 108.691 177.549 108.544 176.723Z" fill="white"/>
<path d="M126.827 179.542C127.585 178.47 126.494 176.179 126.5 175.898L123.914 175.898C124.852 181.414 127.017 195.32 129.086 198.109C131.673 201.595 132.966 203.661 132.966 205.37C132.966 207.078 132.003 218.352 133.314 219.462C134.833 220.746 135.489 226.584 135.851 229.873L137.104 229.873C136.631 229.117 136.988 228.974 137.181 229.108C137.374 229.242 137.916 228.476 138.157 227.93C138.399 227.385 137.577 227.528 137.326 227.069C137.075 226.609 137.597 226.686 138.032 226.274C138.467 225.862 137.249 224.732 137.104 223.918C136.96 223.105 137.559 222.664 137.472 222.176C137.385 221.687 137.221 221.716 136.747 220.96C136.274 220.203 135.85 218.835 135.734 218.184C135.618 217.533 135.24 217.314 135.675 216.902C136.109 216.491 136.651 215.725 136.564 215.236C136.494 214.846 135.652 214.556 135.24 214.461L135.917 213.503C136.025 213.35 135.717 212.699 135.55 212.392L135.984 211.981C135.92 211.936 135.768 211.716 135.675 211.196C135.559 210.544 136.217 210.43 136.236 209.587C136.255 208.744 135.405 208.725 135.734 208.668C135.997 208.622 135.491 208.24 135.627 208.048L135.24 207.78C135.285 207.716 135.397 207.518 135.482 207.235C135.588 206.88 135.047 204.793 134.989 204.467C134.931 204.142 134.738 204.008 134.709 203.845C134.68 203.682 135.009 203.625 134.922 203.136C134.835 202.648 134.371 202.897 134.313 202.571L134.139 201.595C134.052 201.106 134.574 201.183 134.516 200.857C134.458 200.532 133.801 200.647 133.714 200.158C133.627 199.67 134.014 199.938 132.41 198.54C131.127 197.421 130.729 196.708 130.69 196.491L131.067 195.754C130.884 195.674 130.503 195.248 130.449 194.183C130.382 192.852 130.536 191.818 129.648 190.631C128.759 189.443 128.875 190.094 128.73 189.28C128.585 188.467 128.083 187.547 128.324 187.002C128.566 186.456 128.344 186.159 127.783 184.914C127.223 183.669 126.817 184.244 126.479 183.296C126.141 182.348 126.827 182.396 127.146 181.333C127.465 180.27 125.88 180.883 126.827 179.542Z" fill="white"/>
<path d="M141.015 225.18C140.696 226.243 142.281 225.63 141.334 226.97C140.816 227.704 139.968 228.91 139.481 229.689C139.45 229.739 139.42 229.787 139.392 229.833L139.792 229.859C140.808 229.925 141.612 229.134 141.988 228.187L142.568 226.726L135.122 175.898L129.949 175.898C130.423 176.655 131.436 177.741 131.242 177.607C131.049 177.473 131.765 177.955 131.523 178.5C131.282 179.046 131.957 178.942 132.208 179.401C132.46 179.861 132.083 179.745 131.649 180.157C131.214 180.568 132.431 181.698 132.576 182.512C132.721 183.326 132.122 183.767 132.208 184.255C132.295 184.743 132.46 184.715 132.933 185.471C133.406 186.228 132.817 187.673 132.933 188.324C133.048 188.976 133.764 189.186 133.329 189.598C132.894 190.01 134.32 189.157 134.406 189.645C134.476 190.036 135.318 190.325 135.73 190.421L135.054 191.378C134.945 191.531 135.253 192.182 135.421 192.489L134.986 192.9C135.05 192.945 135.202 193.165 135.295 193.686C135.411 194.337 135.982 195.176 135.962 196.019C135.943 196.862 136.793 196.881 136.465 196.938C136.202 196.984 135.865 197.379 135.73 197.57L136.117 197.838C136.072 197.902 135.96 198.101 135.875 198.384C135.769 198.738 136.309 200.826 136.367 201.151C136.425 201.477 136.619 201.611 136.648 201.774C136.677 201.936 136.348 201.994 136.435 202.482C136.522 202.97 136.986 202.722 137.044 203.047L137.217 204.024C137.304 204.512 136.782 204.435 136.84 204.761C136.898 205.087 137.555 204.972 137.642 205.46C137.729 205.948 137.343 205.68 138.947 207.078C140.23 208.197 137.433 209.805 137.471 210.022L137.094 210.759C137.278 210.839 137.659 211.265 137.712 212.33C137.78 213.661 137.625 214.695 138.514 215.882C139.403 217.07 139.287 216.418 139.432 217.232C139.577 218.046 140.079 218.965 139.837 219.511C139.596 220.057 139.818 220.354 140.378 221.599C140.938 222.843 141.344 222.269 141.682 223.217C142.021 224.165 141.334 224.117 141.015 225.18Z" fill="white"/>
<path d="M98.9594 227.454C99.0767 228.231 100.148 228.631 100.495 228.939C100.657 229.082 100.723 229.498 100.789 229.914H96.8715L88.833 216.118L88.833 210.773C89.1197 211.019 89.376 210.991 89.4953 210.923C89.4606 211.056 89.4 211.45 89.4348 211.971C89.4784 212.621 89.8557 212.405 89.5219 213.271C89.1882 214.137 89.7215 213.326 90.3201 213.49C90.7989 213.621 91.0371 213.474 91.0964 213.383C91.0791 213.45 91.0592 213.607 91.1182 213.709C91.1919 213.835 91.4435 213.691 91.6648 214.071C91.8861 214.451 91.8341 214.649 92.6455 216.042C93.457 217.435 93.1184 216.278 93.5174 216.387C93.9165 216.497 93.509 217.236 93.6263 218.013C93.7436 218.79 94.5115 219.532 94.8368 219.515C95.1621 219.498 96.2335 219.898 95.982 220.042C95.7305 220.186 95.6265 220.583 95.7958 221.161C95.9651 221.739 97.2361 222.194 96.9326 222.536C96.6898 222.81 96.9382 223.458 96.9326 224.024C97.5072 223.612 97.2812 224.671 97.6178 225.018C98.0387 225.453 97.7756 226.118 98.0489 226.3C98.3222 226.481 98.8421 226.677 98.9594 227.454Z" fill="white"/>
<path d="M88.9082 206.182C88.6806 205.216 89.2267 205.364 88.8135 204.943L88.8135 200.066L95.8731 211.35L99.1968 220.427L106.116 229.912H102.617C102.327 229.912 102.206 229.886 101.535 228.735C100.999 227.814 100.529 227.776 100.362 227.872C100.381 227.714 100.395 227.239 100.29 226.597C100.158 225.796 99.7806 226.011 100.026 224.994C100.272 223.976 99.8045 224.901 99.1398 224.624C98.608 224.402 98.3713 224.552 98.3194 224.655C98.3293 224.576 98.3301 224.385 98.2535 224.254C98.1577 224.089 97.9061 224.233 97.6187 223.74C97.3312 223.247 98.2386 222.771 97.1846 220.962C96.1306 219.153 96.6456 220.612 96.2024 220.427C95.7593 220.242 96.1006 219.389 95.873 218.423C95.6455 217.457 94.7232 216.45 94.3759 216.429C94.0285 216.409 92.8248 215.782 93.0763 215.638C93.3279 215.494 93.3877 215.021 93.1302 214.291C92.8727 213.562 91.4474 212.842 91.7289 212.462C91.954 212.158 91.8746 210.697 91.8067 210.005C91.7748 209.951 91.6091 209.724 91.2019 209.255C90.6928 208.669 90.7168 207.559 90.3994 207.302C90.082 207.045 89.1358 207.148 88.9082 206.182Z" fill="white"/>
</g>
<defs>
<filter id="filter0_ddd_6708_74038" x="237.811" y="107.523" width="266.773" height="268.699" filterUnits="userSpaceOnUse" color-interpolation-filters="sRGB">
<feFlood flood-opacity="0" result="BackgroundImageFix"/>
<feColorMatrix in="SourceAlpha" type="matrix" values="0 0 0 0 0 0 0 0 0 0 0 0 0 0 0 0 0 0 127 0" result="hardAlpha"/>
<feMorphology radius="2.40889" operator="erode" in="SourceAlpha" result="effect1_dropShadow_6708_74038"/>
<feOffset dy="4.81777"/>
<feGaussianBlur stdDeviation="2.40889"/>
<feColorMatrix type="matrix" values="0 0 0 0 0 0 0 0 0 0 0 0 0 0 0 0 0 0 0.04 0"/>
<feBlend mode="normal" in2="BackgroundImageFix" result="effect1_dropShadow_6708_74038"/>
<feColorMatrix in="SourceAlpha" type="matrix" values="0 0 0 0 0 0 0 0 0 0 0 0 0 0 0 0 0 0 127 0" result="hardAlpha"/>
<feMorphology radius="2.40889" operator="erode" in="SourceAlpha" result="effect2_dropShadow_6708_74038"/>
<feOffset dy="12.0444"/>
<feGaussianBlur stdDeviation="7.22666"/>
<feColorMatrix type="matrix" values="0 0 0 0 0 0 0 0 0 0 0 0 0 0 0 0 0 0 0.1 0"/>
<feBlend mode="normal" in2="effect1_dropShadow_6708_74038" result="effect2_dropShadow_6708_74038"/>
<feColorMatrix in="SourceAlpha" type="matrix" values="0 0 0 0 0 0 0 0 0 0 0 0 0 0 0 0 0 0 127 0" result="hardAlpha"/>
<feOffset/>
<feGaussianBlur stdDeviation="1.20444"/>
<feComposite in2="hardAlpha" operator="out"/>
<feColorMatrix type="matrix" values="0 0 0 0 0 0 0 0 0 0 0 0 0 0 0 0 0 0 0.06 0"/>
<feBlend mode="normal" in2="effect2_dropShadow_6708_74038" result="effect3_dropShadow_6708_74038"/>
<feBlend mode="normal" in="SourceGraphic" in2="effect3_dropShadow_6708_74038" result="shape"/>
</filter>
<linearGradient id="paint0_linear_6708_74038" x1="768.003" y1="-191.601" x2="7.20939" y2="307.769" gradientUnits="userSpaceOnUse">
<stop stop-color="white"/>
<stop offset="0.234375" stop-color="#EBFEFF" stop-opacity="0.765625"/>
<stop offset="0.411458" stop-color="#E3F0FF" stop-opacity="0.588542"/>
<stop offset="1" stop-color="#E6FBF7" stop-opacity="0.85"/>
</linearGradient>
</defs>
</svg>
