<svg width="249" height="241" viewBox="0 0 249 241" fill="none" xmlns="http://www.w3.org/2000/svg">
<path d="M0.128906 31.2935C0.128906 14.561 12.4638 0.996582 27.6797 0.996582H220.831C236.047 0.996582 248.382 14.561 248.382 31.2935V476.622C248.382 493.354 236.047 506.919 220.831 506.919H27.6797C12.4638 506.919 0.128906 493.354 0.128906 476.622V31.2935Z" fill="black"/>
<path d="M5.77344 33.8895C5.77344 18.9451 16.9949 6.83032 30.8372 6.83032H218.807C232.649 6.83032 243.871 18.9451 243.871 33.8895V474.291C243.871 489.235 232.649 501.35 218.807 501.35H30.8372C16.9949 501.35 5.77344 489.235 5.77344 474.291V33.8895Z" fill="#FEFBFF"/>
<mask id="mask0_3990_98685" style="mask-type:alpha" maskUnits="userSpaceOnUse" x="5" y="6" width="239" height="496">
<path d="M5.77344 33.8895C5.77344 18.9451 16.9949 6.83032 30.8372 6.83032H218.807C232.649 6.83032 243.871 18.9451 243.871 33.8895V474.291C243.871 489.235 232.649 501.35 218.807 501.35H30.8372C16.9949 501.35 5.77344 489.235 5.77344 474.291V33.8895Z" fill="#F4F3FB"/>
</mask>
<g mask="url(#mask0_3990_98685)">
<g filter="url(#filter0_dd_3990_98685)">
<rect x="0.128906" y="-36.1655" width="248.07" height="108.962" fill="white"/>
</g>
<rect x="27.9805" y="81.4612" width="193.886" height="30.5735" rx="7.51604" fill="#2A3042"/>
<path d="M39.2477 99.5044L39.5434 98.689H42.5998L42.8955 99.5044H39.2477ZM41.0519 96.1207L39.8885 98.954L39.8096 99.1375L38.7843 101.645H37.8477L41.0519 94.1537L44.2561 101.645H43.3195L42.3139 99.1986L42.235 98.9948L41.0519 96.1207Z" fill="white"/>
<path d="M47.2253 98.7909L47.6196 97.7038H51.6947L52.0891 98.7909H47.2253ZM49.6309 94.2794L48.0797 98.0571L47.9746 98.3017L46.6074 101.645H45.3586L49.6309 91.6567L53.9032 101.645H52.6544L51.3135 98.3833L51.2084 98.1115L49.6309 94.2794Z" fill="white"/>
<path d="M84.6653 101.848C84.4394 101.848 84.246 101.753 84.0851 101.563C83.9242 101.373 83.8438 101.145 83.8438 100.878V96.0246C83.8438 95.7577 83.9242 95.5292 84.0851 95.3391C84.246 95.149 84.4394 95.054 84.6653 95.054H85.0761V94.0833C85.0761 93.412 85.2764 92.8397 85.6769 92.3665C86.0775 91.8933 86.5619 91.6567 87.1301 91.6567C87.6984 91.6567 88.1828 91.8933 88.5833 92.3665C88.9839 92.8397 89.1841 93.412 89.1841 94.0833V95.054H89.5949C89.8209 95.054 90.0143 95.149 90.1752 95.3391C90.3361 95.5292 90.4165 95.7577 90.4165 96.0246V100.878C90.4165 101.145 90.3361 101.373 90.1752 101.563C90.0143 101.753 89.8209 101.848 89.5949 101.848H84.6653ZM84.6653 100.878H89.5949V96.0246H84.6653V100.878ZM87.1301 99.4219C87.3561 99.4219 87.5495 99.3268 87.7104 99.1367C87.8713 98.9467 87.9517 98.7181 87.9517 98.4512C87.9517 98.1843 87.8713 97.9558 87.7104 97.7657C87.5495 97.5756 87.3561 97.4806 87.1301 97.4806C86.9042 97.4806 86.7108 97.5756 86.5499 97.7657C86.389 97.9558 86.3085 98.1843 86.3085 98.4512C86.3085 98.7181 86.389 98.9467 86.5499 99.1367C86.7108 99.3268 86.9042 99.4219 87.1301 99.4219ZM85.8977 95.054H88.3625V94.0833C88.3625 93.6789 88.2427 93.3351 88.0031 93.052C87.7634 92.7689 87.4725 92.6274 87.1301 92.6274C86.7878 92.6274 86.4968 92.7689 86.2572 93.052C86.0176 93.3351 85.8977 93.6789 85.8977 94.0833V95.054Z" fill="#8A90A5"/>
<path fill-rule="evenodd" clip-rule="evenodd" d="M84.6653 100.878H89.5949V96.0246H84.6653V100.878ZM87.7104 99.1367C87.5495 99.3268 87.3561 99.4219 87.1301 99.4219C86.9042 99.4219 86.7108 99.3268 86.5499 99.1367C86.389 98.9467 86.3085 98.7181 86.3085 98.4512C86.3085 98.1843 86.389 97.9558 86.5499 97.7657C86.7108 97.5756 86.9042 97.4806 87.1301 97.4806C87.3561 97.4806 87.5495 97.5756 87.7104 97.7657C87.8713 97.9558 87.9517 98.1843 87.9517 98.4512C87.9517 98.7181 87.8713 98.9467 87.7104 99.1367Z" fill="#8A90A5"/>
<path d="M100.479 95.5926L96.5356 104.833H95.3526L97.0088 100.96L94.6953 95.5926H95.9441L97.8632 100.484L97.4294 100.43L99.296 95.5926H100.479Z" fill="white"/>
<path d="M102.067 98.7179C102.067 98.0838 102.203 97.5222 102.474 97.033C102.755 96.5438 103.131 96.1588 103.605 95.878C104.078 95.5972 104.608 95.4567 105.195 95.4567C105.791 95.4567 106.321 95.5972 106.786 95.878C107.259 96.1588 107.631 96.5438 107.903 97.033C108.183 97.5222 108.324 98.0838 108.324 98.7179C108.324 99.343 108.183 99.9046 107.903 100.403C107.631 100.892 107.259 101.277 106.786 101.558C106.321 101.839 105.791 101.979 105.195 101.979C104.608 101.979 104.078 101.839 103.605 101.558C103.131 101.277 102.755 100.892 102.474 100.403C102.203 99.9046 102.067 99.343 102.067 98.7179ZM103.131 98.7179C103.131 99.1527 103.219 99.5377 103.394 99.8729C103.578 100.208 103.824 100.475 104.13 100.675C104.446 100.865 104.801 100.96 105.195 100.96C105.59 100.96 105.94 100.865 106.247 100.675C106.562 100.475 106.808 100.208 106.983 99.8729C107.167 99.5377 107.259 99.1527 107.259 98.7179C107.259 98.2831 107.167 97.8981 106.983 97.5629C106.808 97.2187 106.562 96.9514 106.247 96.7612C105.94 96.571 105.59 96.4759 105.195 96.4759C104.801 96.4759 104.446 96.571 104.13 96.7612C103.824 96.9514 103.578 97.2187 103.394 97.5629C103.219 97.8981 103.131 98.2831 103.131 98.7179Z" fill="white"/>
<path d="M112.134 99.3973C112.134 99.8956 112.244 100.281 112.463 100.552C112.682 100.824 113.002 100.96 113.422 100.96C113.729 100.96 113.996 100.897 114.224 100.77C114.461 100.634 114.641 100.448 114.763 100.213C114.895 99.9771 114.96 99.7053 114.96 99.3973V95.5926H116.012V101.843H114.96V100.865C114.759 101.236 114.509 101.517 114.211 101.707C113.913 101.889 113.563 101.979 113.16 101.979C112.529 101.979 112.025 101.757 111.648 101.313C111.271 100.869 111.083 100.276 111.083 99.5332V95.5926H112.134V99.3973Z" fill="white"/>
<path d="M118.383 95.5926H121.407V96.6117H118.383V95.5926ZM119.369 93.4185H120.421V101.843H119.369V93.4185Z" fill="white"/>
<path d="M123.776 93.0109C123.776 92.8025 123.846 92.6259 123.986 92.4809C124.135 92.336 124.306 92.2635 124.499 92.2635C124.7 92.2635 124.871 92.336 125.011 92.4809C125.152 92.6259 125.222 92.8025 125.222 93.0109C125.222 93.2102 125.152 93.3868 125.011 93.5408C124.871 93.6857 124.7 93.7582 124.499 93.7582C124.306 93.7582 124.135 93.6857 123.986 93.5408C123.846 93.3868 123.776 93.2102 123.776 93.0109ZM123.973 95.5926H125.024V101.843H123.973V95.5926Z" fill="white"/>
<path d="M129.491 91.2444V101.843H128.439V91.2444H129.491ZM134.551 98.7179C134.551 99.3883 134.416 99.968 134.144 100.457C133.872 100.946 133.509 101.322 133.053 101.585C132.606 101.848 132.106 101.979 131.554 101.979C131.055 101.979 130.612 101.848 130.227 101.585C129.85 101.322 129.552 100.946 129.333 100.457C129.123 99.968 129.017 99.3883 129.017 98.7179C129.017 98.0385 129.123 97.4587 129.333 96.9786C129.552 96.4894 129.85 96.1135 130.227 95.8508C130.612 95.5881 131.055 95.4567 131.554 95.4567C132.106 95.4567 132.606 95.5881 133.053 95.8508C133.509 96.1135 133.872 96.4894 134.144 96.9786C134.416 97.4587 134.551 98.0385 134.551 98.7179ZM133.487 98.7179C133.487 98.2378 133.39 97.8302 133.197 97.495C133.013 97.1598 132.764 96.9062 132.448 96.734C132.142 96.5619 131.8 96.4759 131.423 96.4759C131.116 96.4759 130.814 96.5619 130.516 96.734C130.218 96.9062 129.973 97.1598 129.78 97.495C129.587 97.8302 129.491 98.2378 129.491 98.7179C129.491 99.198 129.587 99.6057 129.78 99.9409C129.973 100.276 130.218 100.53 130.516 100.702C130.814 100.874 131.116 100.96 131.423 100.96C131.8 100.96 132.142 100.874 132.448 100.702C132.764 100.53 133.013 100.276 133.197 99.9409C133.39 99.6057 133.487 99.198 133.487 98.7179Z" fill="white"/>
<path d="M139.656 101.979C139.095 101.979 138.595 101.843 138.157 101.571C137.728 101.291 137.39 100.906 137.145 100.416C136.908 99.9273 136.79 99.3611 136.79 98.7179C136.79 98.0657 136.913 97.495 137.158 97.0058C137.412 96.5166 137.763 96.1362 138.21 95.8644C138.665 95.5926 139.191 95.4567 139.787 95.4567C140.383 95.4567 140.891 95.5881 141.312 95.8508C141.741 96.1044 142.07 96.4713 142.298 96.9514C142.526 97.4316 142.64 98.0023 142.64 98.6636C142.64 98.727 142.635 98.7949 142.626 98.8674C142.626 98.9308 142.626 98.9716 142.626 98.9897H137.461V98.0657H141.798L141.378 98.6907C141.404 98.6454 141.43 98.5775 141.457 98.4869C141.483 98.3873 141.496 98.3057 141.496 98.2423C141.496 97.8709 141.421 97.5493 141.273 97.2776C141.132 97.0058 140.935 96.7929 140.681 96.6389C140.427 96.4849 140.129 96.4079 139.787 96.4079C139.384 96.4079 139.038 96.4985 138.749 96.6797C138.468 96.8518 138.249 97.1054 138.091 97.4406C137.942 97.7667 137.864 98.1699 137.855 98.65C137.855 99.1392 137.929 99.5559 138.078 99.9001C138.227 100.244 138.446 100.507 138.736 100.688C139.025 100.869 139.375 100.96 139.787 100.96C140.199 100.96 140.563 100.869 140.878 100.688C141.194 100.498 141.461 100.213 141.68 99.8322L142.534 100.389C142.219 100.915 141.82 101.313 141.338 101.585C140.865 101.848 140.304 101.979 139.656 101.979Z" fill="white"/>
<path d="M145.004 101.3C145.004 101.091 145.074 100.915 145.214 100.77C145.363 100.625 145.534 100.552 145.727 100.552C145.928 100.552 146.099 100.625 146.239 100.77C146.379 100.915 146.45 101.091 146.45 101.3C146.45 101.499 146.379 101.676 146.239 101.83C146.099 101.975 145.928 102.047 145.727 102.047C145.534 102.047 145.363 101.975 145.214 101.83C145.074 101.676 145.004 101.499 145.004 101.3Z" fill="white"/>
<path d="M150.469 98.7179C150.469 99.1527 150.557 99.5377 150.732 99.8729C150.916 100.208 151.162 100.475 151.468 100.675C151.784 100.865 152.139 100.96 152.533 100.96C152.857 100.96 153.16 100.91 153.44 100.811C153.729 100.702 153.979 100.561 154.189 100.389C154.4 100.208 154.549 100.018 154.636 99.8186V101.177C154.426 101.431 154.124 101.63 153.729 101.775C153.344 101.911 152.945 101.979 152.533 101.979C151.946 101.979 151.416 101.839 150.942 101.558C150.469 101.277 150.092 100.892 149.812 100.403C149.54 99.9046 149.405 99.343 149.405 98.7179C149.405 98.0838 149.54 97.5222 149.812 97.033C150.092 96.5438 150.469 96.1588 150.942 95.878C151.416 95.5972 151.946 95.4567 152.533 95.4567C152.945 95.4567 153.344 95.5292 153.729 95.6742C154.124 95.81 154.426 96.0048 154.636 96.2584V97.6173C154.549 97.4089 154.4 97.2187 154.189 97.0466C153.979 96.8744 153.729 96.7386 153.44 96.6389C153.16 96.5302 152.857 96.4759 152.533 96.4759C152.139 96.4759 151.784 96.571 151.468 96.7612C151.162 96.9514 150.916 97.2187 150.732 97.5629C150.557 97.8981 150.469 98.2831 150.469 98.7179Z" fill="white"/>
<path d="M157.588 93.0109C157.588 92.8025 157.658 92.6259 157.798 92.4809C157.947 92.336 158.118 92.2635 158.311 92.2635C158.512 92.2635 158.683 92.336 158.823 92.4809C158.964 92.6259 159.034 92.8025 159.034 93.0109C159.034 93.2102 158.964 93.3868 158.823 93.5408C158.683 93.6857 158.512 93.7582 158.311 93.7582C158.118 93.7582 157.947 93.6857 157.798 93.5408C157.658 93.3868 157.588 93.2102 157.588 93.0109ZM157.785 95.5926H158.836V101.843H157.785V95.5926Z" fill="white"/>
<path d="M170.598 97.9026V101.843H169.546V98.0385C169.546 97.504 169.45 97.11 169.257 96.8563C169.073 96.6027 168.784 96.4759 168.39 96.4759C168.101 96.4759 167.851 96.5393 167.64 96.6661C167.43 96.7839 167.268 96.9605 167.154 97.196C167.04 97.4316 166.983 97.7124 166.983 98.0385V101.843H165.932V98.0385C165.932 97.504 165.835 97.11 165.642 96.8563C165.458 96.6027 165.169 96.4759 164.775 96.4759C164.486 96.4759 164.236 96.5393 164.026 96.6661C163.815 96.7839 163.653 96.9605 163.539 97.196C163.425 97.4316 163.368 97.7124 163.368 98.0385V101.843H162.317V95.5926H163.368V96.503C163.552 96.1497 163.78 95.887 164.052 95.7149C164.332 95.5428 164.661 95.4567 165.038 95.4567C165.458 95.4567 165.818 95.5609 166.116 95.7693C166.422 95.9686 166.646 96.2539 166.786 96.6253C166.996 96.2358 167.259 95.9459 167.575 95.7557C167.89 95.5564 168.249 95.4567 168.653 95.4567C169.064 95.4567 169.415 95.5519 169.704 95.7421C169.993 95.9323 170.212 96.2132 170.361 96.5846C170.519 96.9469 170.598 97.3863 170.598 97.9026Z" fill="white"/>
<path d="M46.0845 59.0265C46.0845 58.9239 46.1016 58.8277 46.1357 58.7379C46.1697 58.6481 46.2277 58.5648 46.3095 58.4878L50.0927 54.929C50.2427 54.7879 50.4302 54.7206 50.6551 54.727C50.8801 54.7334 51.0675 54.8071 51.2175 54.9482C51.3675 55.0893 51.4425 55.2688 51.4425 55.4868C51.4425 55.7049 51.3675 55.8844 51.2175 56.0255L48.0273 59.0265L51.238 62.0467C51.3879 62.1877 51.4595 62.3641 51.4527 62.5757C51.4459 62.7873 51.3675 62.9636 51.2175 63.1047C51.0675 63.2458 50.8767 63.3163 50.6449 63.3163C50.4131 63.3163 50.2223 63.2458 50.0723 63.1047L46.3095 59.5651C46.2277 59.4881 46.1697 59.4048 46.1357 59.315C46.1016 59.2252 46.0845 59.1291 46.0845 59.0265Z" fill="#585E71"/>
<path d="M86.8862 59.0265C86.8862 58.9239 86.8691 58.8277 86.835 58.7379C86.801 58.6481 86.743 58.5648 86.6612 58.4878L82.878 54.929C82.728 54.7879 82.5405 54.7206 82.3156 54.727C82.0906 54.7334 81.9032 54.8071 81.7532 54.9482C81.6032 55.0893 81.5282 55.2688 81.5282 55.4868C81.5282 55.7049 81.6032 55.8844 81.7532 56.0255L84.9434 59.0265L81.7327 62.0467C81.5828 62.1877 81.5112 62.3641 81.518 62.5757C81.5248 62.7873 81.6032 62.9636 81.7532 63.1047C81.9032 63.2458 82.094 63.3163 82.3258 63.3163C82.5576 63.3163 82.7484 63.2458 82.8984 63.1047L86.6612 59.5651C86.743 59.4881 86.801 59.4048 86.835 59.315C86.8691 59.2252 86.8862 59.1291 86.8862 59.0265Z" fill="#A5ABC1"/>
<path d="M117.745 63.3163C117.526 63.3163 117.339 63.2384 117.183 63.0827C117.027 62.9269 116.949 62.7397 116.949 62.521V58.1466C116.949 57.9278 117.027 57.7406 117.183 57.5848C117.339 57.4291 117.526 57.3512 117.745 57.3512H118.54C118.653 57.3512 118.747 57.3893 118.823 57.4655C118.899 57.5418 118.938 57.6362 118.938 57.7489C118.938 57.8616 118.899 57.956 118.823 58.0322C118.747 58.1084 118.653 58.1466 118.54 58.1466H117.745V62.521H122.517V58.1466H121.721C121.609 58.1466 121.514 58.1084 121.438 58.0322C121.362 57.956 121.324 57.8616 121.324 57.7489C121.324 57.6362 121.362 57.5418 121.438 57.4655C121.514 57.3893 121.609 57.3512 121.721 57.3512H122.517C122.735 57.3512 122.923 57.4291 123.078 57.5848C123.234 57.7406 123.312 57.9278 123.312 58.1466V62.521C123.312 62.7397 123.234 62.9269 123.078 63.0827C122.923 63.2384 122.735 63.3163 122.517 63.3163H117.745ZM119.733 56.0886L119.375 56.4465C119.295 56.526 119.203 56.5641 119.097 56.5608C118.991 56.5575 118.898 56.5161 118.818 56.4366C118.745 56.357 118.707 56.2642 118.704 56.1582C118.701 56.0521 118.739 55.9594 118.818 55.8798L119.852 54.8459C119.932 54.7663 120.025 54.7266 120.131 54.7266C120.237 54.7266 120.329 54.7663 120.409 54.8459L121.443 55.8798C121.516 55.9527 121.552 56.0439 121.552 56.1532C121.552 56.2626 121.516 56.357 121.443 56.4366C121.363 56.5161 121.269 56.5559 121.16 56.5559C121.05 56.5559 120.956 56.5161 120.876 56.4366L120.528 56.0886V60.1349C120.528 60.2476 120.49 60.342 120.414 60.4183C120.338 60.4945 120.243 60.5326 120.131 60.5326C120.018 60.5326 119.923 60.4945 119.847 60.4183C119.771 60.342 119.733 60.2476 119.733 60.1349V56.0886Z" fill="#585E71"/>
<path d="M156.33 61.3874C156.75 61.3874 157.16 61.436 157.558 61.5331C157.956 61.6303 158.352 61.776 158.746 61.9703V56.5028C158.379 56.2808 157.989 56.1142 157.578 56.0032C157.166 55.8922 156.75 55.8367 156.33 55.8367C156.008 55.8367 155.688 55.8691 155.37 55.9338C155.052 55.9986 154.746 56.0957 154.451 56.2253V61.7205C154.764 61.6095 155.075 61.5262 155.383 61.4707C155.692 61.4152 156.008 61.3874 156.33 61.3874ZM159.819 61.9703C160.213 61.776 160.609 61.6303 161.007 61.5331C161.405 61.436 161.815 61.3874 162.235 61.3874C162.557 61.3874 162.873 61.4152 163.181 61.4707C163.49 61.5262 163.801 61.6095 164.114 61.7205V56.2253C163.819 56.0957 163.512 55.9986 163.195 55.9338C162.877 55.8691 162.557 55.8367 162.235 55.8367C161.815 55.8367 161.399 55.8922 160.987 56.0032C160.575 56.1142 160.186 56.2808 159.819 56.5028V61.9703ZM159.282 63.3163C159.157 63.3163 159.039 63.3001 158.927 63.2677C158.815 63.2354 158.71 63.1914 158.611 63.1359C158.262 62.9231 157.896 62.7636 157.511 62.6572C157.126 62.5508 156.732 62.4976 156.33 62.4976C155.954 62.4976 155.585 62.5485 155.222 62.6502C154.86 62.752 154.513 62.8954 154.182 63.0804C153.994 63.1822 153.813 63.1775 153.639 63.0665C153.464 62.9555 153.377 62.7936 153.377 62.5808V55.8922C153.377 55.7905 153.402 55.6933 153.451 55.6008C153.5 55.5083 153.574 55.4389 153.672 55.3927C154.084 55.1706 154.513 55.0041 154.961 54.8931C155.408 54.7821 155.864 54.7266 156.33 54.7266C156.849 54.7266 157.356 54.7959 157.853 54.9347C158.35 55.0735 158.826 55.2816 159.282 55.5592C159.739 55.2816 160.215 55.0735 160.712 54.9347C161.208 54.7959 161.716 54.7266 162.235 54.7266C162.7 54.7266 163.157 54.7821 163.604 54.8931C164.052 55.0041 164.481 55.1706 164.893 55.3927C164.991 55.4389 165.065 55.5083 165.114 55.6008C165.163 55.6933 165.188 55.7905 165.188 55.8922V62.5808C165.188 62.7936 165.101 62.9555 164.926 63.0665C164.752 63.1775 164.57 63.1822 164.383 63.0804C164.052 62.8954 163.705 62.752 163.342 62.6502C162.98 62.5485 162.611 62.4976 162.235 62.4976C161.832 62.4976 161.439 62.5508 161.054 62.6572C160.669 62.7636 160.302 62.9231 159.953 63.1359C159.855 63.1914 159.75 63.2354 159.638 63.2677C159.526 63.3001 159.408 63.3163 159.282 63.3163Z" fill="#585E71"/>
<path d="M197.829 61.5984C197.593 61.5984 197.39 61.5143 197.222 61.346C197.054 61.1778 196.97 60.9756 196.97 60.7394V55.5855C196.97 55.3493 197.054 55.1471 197.222 54.9789C197.39 54.8107 197.593 54.7266 197.829 54.7266H202.983C203.219 54.7266 203.421 54.8107 203.589 54.9789C203.758 55.1471 203.842 55.3493 203.842 55.5855V60.7394C203.842 60.9756 203.758 61.1778 203.589 61.346C203.421 61.5143 203.219 61.5984 202.983 61.5984H197.829ZM197.829 60.7394H202.983V55.5855H197.829V60.7394ZM196.111 63.3163C195.875 63.3163 195.672 63.2322 195.504 63.064C195.336 62.8958 195.252 62.6936 195.252 62.4573V56.874C195.252 56.7523 195.293 56.6503 195.375 56.568C195.458 56.4857 195.56 56.4445 195.681 56.4445C195.803 56.4445 195.905 56.4857 195.987 56.568C196.07 56.6503 196.111 56.7523 196.111 56.874V62.4573H201.694C201.816 62.4573 201.918 62.4985 202 62.5808C202.083 62.6631 202.124 62.7651 202.124 62.8868C202.124 63.0085 202.083 63.1105 202 63.1928C201.918 63.2752 201.816 63.3163 201.694 63.3163H196.111Z" fill="#585E71"/>
<path d="M35.2598 21.8868V20.7952L37.855 20.2451V26.2704H36.68V21.5145L35.2598 21.8868Z" fill="black"/>
<path d="M40.4689 21.8868V20.7952L43.0642 20.2451V26.2704H41.8891V21.5145L40.4689 21.8868Z" fill="black"/>
<path d="M45.7204 25.7711C45.7204 25.5793 45.7852 25.4185 45.9148 25.2888C46.0501 25.1534 46.2163 25.0857 46.4136 25.0857C46.6165 25.0857 46.7827 25.1534 46.9124 25.2888C47.042 25.4185 47.1068 25.5793 47.1068 25.7711C47.1068 25.9517 47.042 26.1096 46.9124 26.245C46.7827 26.3804 46.6165 26.4481 46.4136 26.4481C46.2163 26.4481 46.0501 26.3804 45.9148 26.245C45.7852 26.1096 45.7204 25.9517 45.7204 25.7711ZM45.7204 22.5892C45.7204 22.4031 45.7852 22.2423 45.9148 22.1069C46.0501 21.9715 46.2163 21.9038 46.4136 21.9038C46.6165 21.9038 46.7827 21.9715 46.9124 22.1069C47.042 22.2423 47.1068 22.4031 47.1068 22.5892C47.1068 22.7754 47.042 22.9362 46.9124 23.0716C46.7827 23.207 46.6165 23.2747 46.4136 23.2747C46.2163 23.2747 46.0501 23.207 45.9148 23.0716C45.7852 22.9362 45.7204 22.7754 45.7204 22.5892Z" fill="black"/>
<path d="M49.4013 21.8868V20.7952L51.9966 20.2451V26.2704H50.8215V21.5145L49.4013 21.8868Z" fill="black"/>
<path d="M54.6105 21.8868V20.7952L57.2058 20.2451V26.2704H56.0307V21.5145L54.6105 21.8868Z" fill="black"/>
<path d="M189.531 23.4663L188.423 22.3079C188.942 21.7782 189.55 21.3584 190.249 21.0486C190.948 20.7388 191.702 20.5839 192.51 20.5839C193.319 20.5839 194.073 20.741 194.771 21.0553C195.47 21.3696 196.079 21.7961 196.598 22.3349L195.49 23.4663C195.103 23.0712 194.655 22.7614 194.145 22.5369C193.635 22.3124 193.09 22.2002 192.51 22.2002C191.93 22.2002 191.385 22.3124 190.875 22.5369C190.366 22.7614 189.917 23.0712 189.531 23.4663ZM187.289 21.1765L186.182 20.0451C186.99 19.2011 187.935 18.5411 189.016 18.0652C190.097 17.5893 191.262 17.3513 192.51 17.3513C193.758 17.3513 194.923 17.5893 196.004 18.0652C197.085 18.5411 198.03 19.2011 198.839 20.0451L197.731 21.1765C197.055 20.4851 196.27 19.9441 195.378 19.5535C194.486 19.1629 193.53 18.9676 192.51 18.9676C191.491 18.9676 190.535 19.1629 189.643 19.5535C188.75 19.9441 187.966 20.4851 187.289 21.1765ZM192.51 26.5103L194.369 24.5977C194.132 24.3553 193.855 24.1644 193.539 24.0253C193.222 23.8861 192.879 23.8165 192.51 23.8165C192.141 23.8165 191.798 23.8861 191.482 24.0253C191.165 24.1644 190.889 24.3553 190.651 24.5977L192.51 26.5103Z" fill="#404659"/>
<path d="M164.668 22.9204C164.668 22.6626 164.876 22.4536 165.132 22.4536H166.524C166.781 22.4536 166.988 22.6626 166.988 22.9204V25.7213C166.988 25.9791 166.781 26.1881 166.524 26.1881H165.132C164.876 26.1881 164.668 25.9791 164.668 25.7213V22.9204Z" fill="#404659"/>
<path d="M168.381 21.5199C168.381 21.2621 168.589 21.0531 168.845 21.0531H170.237C170.494 21.0531 170.701 21.2621 170.701 21.5199V25.7213C170.701 25.9791 170.494 26.1881 170.237 26.1881H168.845C168.589 26.1881 168.381 25.9791 168.381 25.7213V21.5199Z" fill="#404659"/>
<path d="M172.094 19.6527C172.094 19.3949 172.301 19.1859 172.558 19.1859H173.95C174.206 19.1859 174.414 19.3949 174.414 19.6527V25.7213C174.414 25.9791 174.206 26.1881 173.95 26.1881H172.558C172.301 26.1881 172.094 25.9791 172.094 25.7213V19.6527Z" fill="#A5ABC1"/>
<path d="M176.271 17.7854C176.271 17.5276 176.478 17.3186 176.735 17.3186H178.127C178.383 17.3186 178.591 17.5276 178.591 17.7854V25.7213C178.591 25.9791 178.383 26.1881 178.127 26.1881H176.735C176.478 26.1881 176.271 25.9791 176.271 25.7213V17.7854Z" fill="#A5ABC1"/>
<path d="M224.732 21.3646C224.732 21.8027 224.586 21.9487 224.148 22.2407V20.4885C224.44 20.6345 224.732 20.7806 224.732 21.3646Z" stroke="#404659" stroke-width="0.494572"/>
<path d="M206.796 20.3108C206.796 18.8591 207.971 17.683 209.42 17.683H220.513C221.962 17.683 223.138 18.8591 223.138 20.3108V22.8734C223.138 24.325 221.962 25.5011 220.513 25.5011H209.42C207.971 25.5011 206.796 24.325 206.796 22.8734V20.3108Z" stroke="#404659" stroke-width="0.723856"/>
<path d="M208.145 20.4941C208.145 19.6854 208.909 19.0298 209.851 19.0298H212.838C213.78 19.0298 214.544 19.6854 214.544 20.4941V22.6907C214.544 23.4994 213.78 24.155 212.838 24.155H209.851C208.909 24.155 208.145 23.4994 208.145 22.6907V20.4941Z" fill="#A5ABC1"/>
<path d="M91.211 149.643L103.709 131.604H104.836V154.152H102.098V148.483V148.129V137.692L95.7206 147.227H103.226H103.773H108.38V149.643H91.211ZM113.695 142.878C113.695 144.188 113.824 145.402 114.081 146.518C114.339 147.613 114.715 148.569 115.209 149.385C115.703 150.18 116.293 150.802 116.98 151.253C117.689 151.683 118.473 151.898 119.332 151.898C120.212 151.898 120.996 151.683 121.683 151.253C122.371 150.802 122.961 150.18 123.455 149.385C123.949 148.569 124.325 147.613 124.582 146.518C124.84 145.402 124.969 144.188 124.969 142.878C124.969 141.568 124.84 140.366 124.582 139.271C124.325 138.154 123.949 137.198 123.455 136.404C122.961 135.588 122.371 134.965 121.683 134.535C120.996 134.085 120.212 133.859 119.332 133.859C118.473 133.859 117.689 134.085 116.98 134.535C116.293 134.965 115.703 135.588 115.209 136.404C114.715 137.198 114.339 138.154 114.081 139.271C113.824 140.366 113.695 141.568 113.695 142.878ZM110.957 142.878C110.957 140.623 111.311 138.626 112.02 136.887C112.729 135.148 113.706 133.784 114.951 132.796C116.218 131.787 117.678 131.282 119.332 131.282C120.985 131.282 122.435 131.787 123.68 132.796C124.947 133.784 125.935 135.148 126.644 136.887C127.353 138.626 127.707 140.623 127.707 142.878C127.707 145.133 127.353 147.13 126.644 148.87C125.935 150.609 124.947 151.983 123.68 152.993C122.435 153.981 120.985 154.474 119.332 154.474C117.678 154.474 116.218 153.981 114.951 152.993C113.706 151.983 112.729 150.609 112.02 148.87C111.311 147.13 110.957 145.133 110.957 142.878ZM129.949 149.643L142.447 131.604H143.575V154.152H140.837V148.483V148.129V137.692L134.459 147.227H141.964H142.512H147.118V149.643H129.949Z" fill="black"/>
<path d="M60.3804 177.272H61.8407V189.298H60.3804V177.272ZM61.1878 178.646V177.272H63.6445C64.4233 177.272 65.1162 177.421 65.7232 177.719C66.3417 178.005 66.8285 178.417 67.1835 178.956C67.55 179.494 67.7332 180.135 67.7332 180.88C67.7332 181.613 67.55 182.254 67.1835 182.804C66.8285 183.342 66.3417 183.76 65.7232 184.058C65.1162 184.344 64.4233 184.487 63.6445 184.487H61.1878V183.113H63.6445C64.4233 183.113 65.0532 182.924 65.5343 182.546C66.0267 182.168 66.273 181.613 66.273 180.88C66.273 180.135 66.0267 179.58 65.5343 179.213C65.0532 178.835 64.4233 178.646 63.6445 178.646H61.1878ZM70.6637 186.858C70.6637 187.156 70.7324 187.414 70.8698 187.631C71.0187 187.849 71.2192 188.015 71.4711 188.129C71.7345 188.232 72.0323 188.284 72.3645 188.284C72.7882 188.284 73.1662 188.198 73.4983 188.026C73.8419 187.855 74.111 187.614 74.3057 187.305C74.5119 186.984 74.615 186.618 74.615 186.205L74.8898 187.236C74.8898 187.74 74.7352 188.158 74.426 188.49C74.1282 188.822 73.756 189.069 73.3093 189.229C72.8741 189.389 72.4389 189.469 72.0037 189.469C71.5227 189.469 71.0703 189.372 70.6465 189.177C70.2342 188.971 69.9021 188.679 69.6501 188.301C69.3981 187.923 69.2721 187.465 69.2721 186.927C69.2721 186.159 69.5413 185.547 70.0796 185.089C70.6293 184.619 71.391 184.384 72.3645 184.384C72.9371 184.384 73.4124 184.453 73.7904 184.59C74.1798 184.716 74.489 184.865 74.7181 185.037C74.9471 185.197 75.1017 185.329 75.1819 185.432V186.24C74.781 185.965 74.3687 185.77 73.945 185.656C73.5212 185.53 73.0688 185.467 72.5878 185.467C72.1411 185.467 71.7746 185.524 71.4883 185.638C71.2134 185.753 71.0073 185.913 70.8698 186.119C70.7324 186.326 70.6637 186.572 70.6637 186.858ZM70.4575 183.216L69.7875 182.202C70.0853 181.985 70.4919 181.767 71.0073 181.55C71.5341 181.332 72.164 181.223 72.897 181.223C73.5155 181.223 74.0538 181.321 74.5119 181.515C74.9815 181.699 75.3422 181.968 75.5942 182.323C75.8576 182.678 75.9893 183.113 75.9893 183.628V189.298H74.615V183.817C74.615 183.542 74.5692 183.319 74.4775 183.147C74.3859 182.964 74.2542 182.821 74.0824 182.718C73.9221 182.615 73.7331 182.54 73.5155 182.495C73.2979 182.449 73.0688 182.426 72.8283 182.426C72.4389 182.426 72.0839 182.472 71.7632 182.563C71.4539 182.655 71.1905 182.764 70.9729 182.89C70.7553 183.016 70.5835 183.124 70.4575 183.216ZM78.6426 189.813H80.0342C80.0342 190.191 80.1372 190.54 80.3434 190.861C80.5496 191.193 80.8416 191.456 81.2196 191.651C81.5975 191.857 82.0442 191.96 82.5596 191.96C82.9604 191.96 83.3555 191.863 83.7449 191.668C84.1343 191.474 84.455 191.164 84.707 190.741C84.9704 190.328 85.1021 189.79 85.1021 189.126V181.395H86.4765V189.126C86.4765 190.031 86.2875 190.786 85.9096 191.394C85.5316 192.012 85.0449 192.476 84.4493 192.785C83.8537 193.094 83.2238 193.249 82.5596 193.249C81.7922 193.249 81.1108 193.106 80.5152 192.819C79.9311 192.533 79.473 192.126 79.1408 191.6C78.8087 191.084 78.6426 190.489 78.6426 189.813ZM78.488 185.346C78.488 184.487 78.6655 183.754 79.0206 183.147C79.3756 182.529 79.8509 182.054 80.4465 181.721C81.042 181.389 81.6949 181.223 82.4049 181.223C83.0692 181.223 83.6476 181.389 84.1401 181.721C84.6326 182.054 85.0162 182.529 85.2911 183.147C85.5774 183.754 85.7206 184.487 85.7206 185.346C85.7206 186.194 85.5774 186.927 85.2911 187.545C85.0162 188.164 84.6326 188.639 84.1401 188.971C83.6476 189.303 83.0692 189.469 82.4049 189.469C81.6949 189.469 81.042 189.303 80.4465 188.971C79.8509 188.639 79.3756 188.164 79.0206 187.545C78.6655 186.927 78.488 186.194 78.488 185.346ZM79.8796 185.346C79.8796 185.953 79.9998 186.469 80.2403 186.892C80.4923 187.316 80.8244 187.637 81.2367 187.855C81.649 188.072 82.0957 188.181 82.5767 188.181C82.9776 188.181 83.3727 188.072 83.7621 187.855C84.1515 187.637 84.4722 187.316 84.7242 186.892C84.9761 186.469 85.1021 185.953 85.1021 185.346C85.1021 184.888 85.0277 184.487 84.8788 184.144C84.7299 183.789 84.5295 183.491 84.2775 183.25C84.037 183.01 83.7679 182.827 83.4701 182.701C83.1723 182.575 82.8745 182.512 82.5767 182.512C82.0957 182.512 81.649 182.621 81.2367 182.838C80.8244 183.056 80.4923 183.376 80.2403 183.8C79.9998 184.224 79.8796 184.739 79.8796 185.346ZM92.8898 189.469C92.1568 189.469 91.504 189.298 90.9313 188.954C90.3702 188.599 89.9292 188.112 89.6085 187.494C89.2993 186.875 89.1447 186.159 89.1447 185.346C89.1447 184.522 89.305 183.8 89.6257 183.182C89.9578 182.563 90.416 182.082 91.0001 181.739C91.5956 181.395 92.2828 181.223 93.0616 181.223C93.8404 181.223 94.5047 181.389 95.0544 181.721C95.6156 182.042 96.0451 182.506 96.3429 183.113C96.6407 183.72 96.7896 184.442 96.7896 185.278C96.7896 185.358 96.7838 185.444 96.7724 185.535C96.7724 185.615 96.7724 185.667 96.7724 185.69H90.0208V184.522H95.6901L95.1403 185.312C95.1747 185.255 95.209 185.169 95.2434 185.054C95.2778 184.928 95.2949 184.825 95.2949 184.745C95.2949 184.275 95.1976 183.869 95.0029 183.525C94.8196 183.182 94.562 182.913 94.2298 182.718C93.8977 182.523 93.5083 182.426 93.0616 182.426C92.5348 182.426 92.0824 182.54 91.7044 182.769C91.3379 182.987 91.0516 183.308 90.8455 183.731C90.6507 184.144 90.5477 184.653 90.5362 185.26C90.5362 185.879 90.6336 186.406 90.8283 186.841C91.023 187.276 91.3093 187.608 91.6872 187.837C92.0652 188.066 92.5233 188.181 93.0616 188.181C93.5999 188.181 94.0752 188.066 94.4875 187.837C94.8998 187.597 95.2491 187.236 95.5355 186.755L96.6521 187.459C96.2398 188.124 95.7187 188.628 95.0888 188.971C94.4703 189.303 93.7373 189.469 92.8898 189.469ZM110.61 184.487C110.61 183.835 110.467 183.342 110.18 183.01C109.894 182.678 109.476 182.512 108.926 182.512C108.525 182.512 108.17 182.598 107.861 182.769C107.563 182.93 107.328 183.159 107.157 183.457C106.996 183.754 106.916 184.098 106.916 184.487V189.298H105.542V181.395H106.916V182.632C107.179 182.151 107.506 181.796 107.895 181.567C108.296 181.338 108.754 181.223 109.27 181.223C110.106 181.223 110.764 181.504 111.245 182.065C111.738 182.615 111.984 183.365 111.984 184.316V189.298H110.61V184.487ZM114.739 185.346C114.739 184.545 114.917 183.835 115.272 183.216C115.639 182.598 116.131 182.111 116.749 181.756C117.368 181.401 118.061 181.223 118.828 181.223C119.607 181.223 120.3 181.401 120.907 181.756C121.525 182.111 122.012 182.598 122.367 183.216C122.734 183.835 122.917 184.545 122.917 185.346C122.917 186.137 122.734 186.847 122.367 187.477C122.012 188.095 121.525 188.582 120.907 188.937C120.3 189.292 119.607 189.469 118.828 189.469C118.061 189.469 117.368 189.292 116.749 188.937C116.131 188.582 115.639 188.095 115.272 187.477C114.917 186.847 114.739 186.137 114.739 185.346ZM116.131 185.346C116.131 185.896 116.246 186.383 116.475 186.807C116.715 187.23 117.036 187.568 117.437 187.82C117.849 188.061 118.313 188.181 118.828 188.181C119.344 188.181 119.802 188.061 120.203 187.82C120.615 187.568 120.936 187.23 121.165 186.807C121.405 186.383 121.525 185.896 121.525 185.346C121.525 184.797 121.405 184.31 121.165 183.886C120.936 183.451 120.615 183.113 120.203 182.872C119.802 182.632 119.344 182.512 118.828 182.512C118.313 182.512 117.849 182.632 117.437 182.872C117.036 183.113 116.715 183.451 116.475 183.886C116.246 184.31 116.131 184.797 116.131 185.346ZM124.461 181.395H128.413V182.683H124.461V181.395ZM125.75 178.646H127.124V189.298H125.75V178.646ZM136.058 181.395H140.009V182.683H136.058V181.395ZM139.872 177.547C139.757 177.352 139.62 177.232 139.46 177.186C139.311 177.129 139.168 177.1 139.03 177.1C138.858 177.1 138.71 177.152 138.584 177.255C138.469 177.346 138.377 177.507 138.309 177.736C138.24 177.965 138.206 178.268 138.206 178.646V189.298H136.831V178.475C136.831 177.845 136.923 177.329 137.106 176.928C137.289 176.528 137.547 176.23 137.879 176.035C138.223 175.829 138.635 175.726 139.116 175.726C139.368 175.726 139.591 175.76 139.786 175.829C139.981 175.898 140.147 175.983 140.284 176.087C140.433 176.19 140.548 176.298 140.628 176.413L139.872 177.547ZM141.747 185.346C141.747 184.545 141.924 183.835 142.279 183.216C142.646 182.598 143.138 182.111 143.757 181.756C144.375 181.401 145.068 181.223 145.836 181.223C146.614 181.223 147.307 181.401 147.914 181.756C148.533 182.111 149.02 182.598 149.375 183.216C149.741 183.835 149.924 184.545 149.924 185.346C149.924 186.137 149.741 186.847 149.375 187.477C149.02 188.095 148.533 188.582 147.914 188.937C147.307 189.292 146.614 189.469 145.836 189.469C145.068 189.469 144.375 189.292 143.757 188.937C143.138 188.582 142.646 188.095 142.279 187.477C141.924 186.847 141.747 186.137 141.747 185.346ZM143.138 185.346C143.138 185.896 143.253 186.383 143.482 186.807C143.723 187.23 144.043 187.568 144.444 187.82C144.856 188.061 145.32 188.181 145.836 188.181C146.351 188.181 146.809 188.061 147.21 187.82C147.622 187.568 147.943 187.23 148.172 186.807C148.413 186.383 148.533 185.896 148.533 185.346C148.533 184.797 148.413 184.31 148.172 183.886C147.943 183.451 147.622 183.113 147.21 182.872C146.809 182.632 146.351 182.512 145.836 182.512C145.32 182.512 144.856 182.632 144.444 182.872C144.043 183.113 143.723 183.451 143.482 183.886C143.253 184.31 143.138 184.797 143.138 185.346ZM154.046 186.205C154.046 186.835 154.189 187.322 154.475 187.666C154.761 188.009 155.179 188.181 155.729 188.181C156.13 188.181 156.479 188.101 156.777 187.94C157.086 187.769 157.321 187.534 157.482 187.236C157.653 186.938 157.739 186.595 157.739 186.205V181.395H159.114V189.298H157.739V188.061C157.476 188.53 157.149 188.885 156.76 189.126C156.371 189.355 155.912 189.469 155.386 189.469C154.561 189.469 153.902 189.189 153.41 188.628C152.918 188.066 152.671 187.316 152.671 186.377V181.395H154.046V186.205ZM167.624 184.487C167.624 183.835 167.481 183.342 167.195 183.01C166.908 182.678 166.49 182.512 165.941 182.512C165.54 182.512 165.185 182.598 164.875 182.769C164.578 182.93 164.343 183.159 164.171 183.457C164.011 183.754 163.931 184.098 163.931 184.487V189.298H162.556V181.395H163.931V182.632C164.194 182.151 164.52 181.796 164.91 181.567C165.311 181.338 165.769 181.223 166.284 181.223C167.12 181.223 167.779 181.504 168.26 182.065C168.752 182.615 168.999 183.365 168.999 184.316V189.298H167.624V184.487ZM178.368 175.898H179.742V189.298H178.368V175.898ZM171.754 185.346C171.754 184.487 171.931 183.754 172.287 183.147C172.642 182.529 173.117 182.054 173.712 181.721C174.308 181.389 174.961 181.223 175.671 181.223C176.335 181.223 176.914 181.389 177.406 181.721C177.898 182.054 178.282 182.529 178.557 183.147C178.843 183.754 178.987 184.487 178.987 185.346C178.987 186.194 178.843 186.927 178.557 187.545C178.282 188.164 177.898 188.639 177.406 188.971C176.914 189.303 176.335 189.469 175.671 189.469C174.961 189.469 174.308 189.303 173.712 188.971C173.117 188.639 172.642 188.164 172.287 187.545C171.931 186.927 171.754 186.194 171.754 185.346ZM173.145 185.346C173.145 185.953 173.266 186.469 173.506 186.892C173.758 187.316 174.09 187.637 174.503 187.855C174.915 188.072 175.362 188.181 175.843 188.181C176.244 188.181 176.639 188.072 177.028 187.855C177.417 187.637 177.738 187.316 177.99 186.892C178.242 186.469 178.368 185.953 178.368 185.346C178.368 184.739 178.242 184.224 177.99 183.8C177.738 183.376 177.417 183.056 177.028 182.838C176.639 182.621 176.244 182.512 175.843 182.512C175.362 182.512 174.915 182.621 174.503 182.838C174.09 183.056 173.758 183.376 173.506 183.8C173.266 184.224 173.145 184.739 173.145 185.346ZM183.441 188.61C183.441 188.347 183.533 188.124 183.716 187.94C183.911 187.757 184.134 187.666 184.386 187.666C184.65 187.666 184.873 187.757 185.056 187.94C185.24 188.124 185.331 188.347 185.331 188.61C185.331 188.862 185.24 189.086 185.056 189.28C184.873 189.464 184.65 189.555 184.386 189.555C184.134 189.555 183.911 189.464 183.716 189.28C183.533 189.086 183.441 188.862 183.441 188.61Z" fill="#70778B"/>
</g>
<defs>
<filter id="filter0_dd_3990_98685" x="-4.16597" y="-40.4604" width="256.66" height="117.552" filterUnits="userSpaceOnUse" color-interpolation-filters="sRGB">
<feFlood flood-opacity="0" result="BackgroundImageFix"/>
<feColorMatrix in="SourceAlpha" type="matrix" values="0 0 0 0 0 0 0 0 0 0 0 0 0 0 0 0 0 0 127 0" result="hardAlpha"/>
<feOffset dy="1.07372"/>
<feGaussianBlur stdDeviation="1.07372"/>
<feColorMatrix type="matrix" values="0 0 0 0 0 0 0 0 0 0 0 0 0 0 0 0 0 0 0.05 0"/>
<feBlend mode="normal" in2="BackgroundImageFix" result="effect1_dropShadow_3990_98685"/>
<feColorMatrix in="SourceAlpha" type="matrix" values="0 0 0 0 0 0 0 0 0 0 0 0 0 0 0 0 0 0 127 0" result="hardAlpha"/>
<feOffset/>
<feGaussianBlur stdDeviation="2.14744"/>
<feComposite in2="hardAlpha" operator="out"/>
<feColorMatrix type="matrix" values="0 0 0 0 0 0 0 0 0 0 0 0 0 0 0 0 0 0 0.06 0"/>
<feBlend mode="normal" in2="effect1_dropShadow_3990_98685" result="effect2_dropShadow_3990_98685"/>
<feBlend mode="normal" in="SourceGraphic" in2="effect2_dropShadow_3990_98685" result="shape"/>
</filter>
</defs>
</svg>
